G04 EAGLE Gerber RS-274X export*
G75*
%MOMM*%
%FSLAX34Y34*%
%LPD*%
%INTop Copper*%
%IPPOS*%
%AMOC8*
5,1,8,0,0,1.08239X$1,22.5*%
G01*
%ADD10R,1.200000X1.200000*%
%ADD11R,1.500000X0.550000*%
%ADD12R,0.550000X1.500000*%
%ADD13R,0.600000X0.700000*%
%ADD14R,0.700000X0.600000*%
%ADD15R,0.900000X0.700000*%
%ADD16R,0.550000X1.200000*%
%ADD17R,1.400000X1.400000*%
%ADD18R,0.700000X0.900000*%
%ADD19R,1.300000X1.500000*%
%ADD20R,1.400000X1.000000*%
%ADD21R,4.600000X1.000000*%
%ADD22R,3.400000X1.600000*%
%ADD23C,1.066800*%
%ADD24C,0.756400*%
%ADD25C,0.203200*%

G36*
X-49418Y-320031D02*
X-49418Y-320031D01*
X-49360Y-320033D01*
X-49278Y-320011D01*
X-49194Y-319999D01*
X-49141Y-319976D01*
X-49085Y-319961D01*
X-49012Y-319918D01*
X-48935Y-319883D01*
X-48890Y-319845D01*
X-48840Y-319816D01*
X-48782Y-319754D01*
X-48718Y-319700D01*
X-48686Y-319651D01*
X-48646Y-319608D01*
X-48607Y-319533D01*
X-48560Y-319463D01*
X-48543Y-319407D01*
X-48516Y-319355D01*
X-48505Y-319287D01*
X-48475Y-319192D01*
X-48472Y-319092D01*
X-48461Y-319024D01*
X-48461Y112524D01*
X-48467Y112572D01*
X-48467Y112574D01*
X-48468Y112576D01*
X-48469Y112582D01*
X-48467Y112640D01*
X-48489Y112722D01*
X-48501Y112806D01*
X-48524Y112859D01*
X-48539Y112915D01*
X-48582Y112988D01*
X-48617Y113065D01*
X-48655Y113110D01*
X-48684Y113160D01*
X-48746Y113218D01*
X-48800Y113282D01*
X-48849Y113314D01*
X-48892Y113354D01*
X-48967Y113393D01*
X-49037Y113440D01*
X-49093Y113457D01*
X-49145Y113484D01*
X-49213Y113495D01*
X-49308Y113525D01*
X-49408Y113528D01*
X-49476Y113539D01*
X-230124Y113539D01*
X-230182Y113531D01*
X-230240Y113533D01*
X-230322Y113511D01*
X-230406Y113499D01*
X-230459Y113476D01*
X-230515Y113461D01*
X-230588Y113418D01*
X-230665Y113383D01*
X-230710Y113345D01*
X-230760Y113316D01*
X-230818Y113254D01*
X-230882Y113200D01*
X-230914Y113151D01*
X-230954Y113108D01*
X-230993Y113033D01*
X-231040Y112963D01*
X-231057Y112907D01*
X-231084Y112855D01*
X-231095Y112787D01*
X-231125Y112692D01*
X-231128Y112592D01*
X-231139Y112524D01*
X-231139Y-149670D01*
X-231118Y-149818D01*
X-231114Y-149896D01*
X-230044Y-154581D01*
X-230073Y-154707D01*
X-230073Y-154709D01*
X-230074Y-154711D01*
X-230085Y-154849D01*
X-230097Y-154991D01*
X-230097Y-154993D01*
X-230097Y-154995D01*
X-230092Y-155013D01*
X-230041Y-155269D01*
X-230027Y-155297D01*
X-230021Y-155322D01*
X-229409Y-156799D01*
X-229409Y-162422D01*
X-229405Y-162452D01*
X-229407Y-162483D01*
X-229390Y-162560D01*
X-229369Y-162703D01*
X-229343Y-162762D01*
X-229332Y-162810D01*
X-228189Y-165569D01*
X-228189Y-175139D01*
X-228179Y-175210D01*
X-228179Y-175283D01*
X-228159Y-175350D01*
X-228149Y-175420D01*
X-228120Y-175486D01*
X-228100Y-175556D01*
X-228062Y-175615D01*
X-228033Y-175680D01*
X-227987Y-175735D01*
X-227948Y-175796D01*
X-227895Y-175843D01*
X-227850Y-175897D01*
X-227789Y-175937D01*
X-227735Y-175985D01*
X-227672Y-176015D01*
X-227613Y-176054D01*
X-227544Y-176076D01*
X-227479Y-176107D01*
X-227409Y-176119D01*
X-227342Y-176140D01*
X-227270Y-176142D01*
X-227198Y-176154D01*
X-227128Y-176146D01*
X-227058Y-176147D01*
X-226988Y-176129D01*
X-226916Y-176121D01*
X-226861Y-176096D01*
X-226783Y-176076D01*
X-226679Y-176014D01*
X-226610Y-175983D01*
X-226488Y-175901D01*
X-225055Y-175308D01*
X-223534Y-175005D01*
X-219201Y-175005D01*
X-219201Y-181864D01*
X-219193Y-181922D01*
X-219194Y-181980D01*
X-219173Y-182062D01*
X-219161Y-182145D01*
X-219137Y-182199D01*
X-219123Y-182255D01*
X-219080Y-182328D01*
X-219045Y-182405D01*
X-219007Y-182449D01*
X-218977Y-182500D01*
X-218916Y-182557D01*
X-218861Y-182622D01*
X-218813Y-182654D01*
X-218770Y-182694D01*
X-218695Y-182733D01*
X-218625Y-182779D01*
X-218569Y-182797D01*
X-218517Y-182824D01*
X-218449Y-182835D01*
X-218354Y-182865D01*
X-218254Y-182868D01*
X-218186Y-182879D01*
X-217169Y-182879D01*
X-217169Y-182881D01*
X-218186Y-182881D01*
X-218244Y-182889D01*
X-218302Y-182888D01*
X-218384Y-182909D01*
X-218467Y-182921D01*
X-218521Y-182945D01*
X-218577Y-182959D01*
X-218650Y-183002D01*
X-218727Y-183037D01*
X-218771Y-183075D01*
X-218822Y-183105D01*
X-218879Y-183166D01*
X-218944Y-183221D01*
X-218976Y-183269D01*
X-219016Y-183312D01*
X-219055Y-183387D01*
X-219101Y-183457D01*
X-219119Y-183513D01*
X-219146Y-183565D01*
X-219157Y-183633D01*
X-219187Y-183728D01*
X-219190Y-183828D01*
X-219201Y-183896D01*
X-219201Y-190755D01*
X-223534Y-190755D01*
X-225055Y-190452D01*
X-226488Y-189859D01*
X-226610Y-189777D01*
X-226675Y-189746D01*
X-226735Y-189706D01*
X-226802Y-189684D01*
X-226866Y-189654D01*
X-226937Y-189642D01*
X-227006Y-189620D01*
X-227077Y-189618D01*
X-227146Y-189606D01*
X-227218Y-189614D01*
X-227290Y-189613D01*
X-227359Y-189630D01*
X-227429Y-189638D01*
X-227496Y-189666D01*
X-227565Y-189684D01*
X-227626Y-189720D01*
X-227691Y-189748D01*
X-227748Y-189793D01*
X-227810Y-189830D01*
X-227858Y-189881D01*
X-227913Y-189925D01*
X-227955Y-189984D01*
X-228004Y-190037D01*
X-228036Y-190100D01*
X-228077Y-190157D01*
X-228101Y-190226D01*
X-228134Y-190290D01*
X-228144Y-190349D01*
X-228170Y-190426D01*
X-228177Y-190546D01*
X-228189Y-190621D01*
X-228189Y-241179D01*
X-228179Y-241250D01*
X-228179Y-241323D01*
X-228159Y-241390D01*
X-228149Y-241460D01*
X-228120Y-241526D01*
X-228100Y-241596D01*
X-228062Y-241655D01*
X-228033Y-241720D01*
X-227987Y-241775D01*
X-227948Y-241836D01*
X-227895Y-241883D01*
X-227850Y-241937D01*
X-227789Y-241977D01*
X-227735Y-242025D01*
X-227672Y-242055D01*
X-227613Y-242094D01*
X-227544Y-242116D01*
X-227479Y-242147D01*
X-227409Y-242159D01*
X-227342Y-242180D01*
X-227270Y-242182D01*
X-227198Y-242194D01*
X-227128Y-242186D01*
X-227058Y-242187D01*
X-226988Y-242169D01*
X-226916Y-242161D01*
X-226861Y-242136D01*
X-226783Y-242116D01*
X-226679Y-242054D01*
X-226610Y-242023D01*
X-226488Y-241941D01*
X-225055Y-241348D01*
X-224842Y-241306D01*
X-224746Y-241272D01*
X-224649Y-241247D01*
X-224613Y-241225D01*
X-224574Y-241212D01*
X-224491Y-241153D01*
X-224404Y-241101D01*
X-224376Y-241071D01*
X-224342Y-241047D01*
X-224279Y-240968D01*
X-224210Y-240894D01*
X-224191Y-240857D01*
X-224165Y-240824D01*
X-224126Y-240731D01*
X-224080Y-240641D01*
X-224074Y-240604D01*
X-224056Y-240562D01*
X-224036Y-240378D01*
X-224025Y-240310D01*
X-224025Y-224068D01*
X-223132Y-223175D01*
X-187868Y-223175D01*
X-186975Y-224068D01*
X-186975Y-241332D01*
X-187868Y-242225D01*
X-204690Y-242225D01*
X-204719Y-242229D01*
X-204749Y-242226D01*
X-204860Y-242249D01*
X-204971Y-242265D01*
X-204998Y-242277D01*
X-205028Y-242283D01*
X-205128Y-242335D01*
X-205231Y-242381D01*
X-205253Y-242400D01*
X-205280Y-242414D01*
X-205362Y-242492D01*
X-205448Y-242564D01*
X-205464Y-242589D01*
X-205486Y-242610D01*
X-205543Y-242707D01*
X-205605Y-242801D01*
X-205614Y-242830D01*
X-205629Y-242855D01*
X-205657Y-242965D01*
X-205691Y-243072D01*
X-205692Y-243102D01*
X-205699Y-243131D01*
X-205695Y-243244D01*
X-205698Y-243356D01*
X-205691Y-243385D01*
X-205690Y-243415D01*
X-205655Y-243522D01*
X-205626Y-243631D01*
X-205611Y-243657D01*
X-205602Y-243686D01*
X-205556Y-243750D01*
X-205536Y-243784D01*
X-205521Y-243817D01*
X-204604Y-245190D01*
X-204010Y-246623D01*
X-203957Y-246889D01*
X-216154Y-246889D01*
X-216212Y-246897D01*
X-216270Y-246895D01*
X-216352Y-246917D01*
X-216435Y-246929D01*
X-216489Y-246953D01*
X-216545Y-246967D01*
X-216618Y-247010D01*
X-216695Y-247045D01*
X-216739Y-247083D01*
X-216790Y-247113D01*
X-216847Y-247174D01*
X-216912Y-247229D01*
X-216944Y-247277D01*
X-216984Y-247320D01*
X-217023Y-247395D01*
X-217069Y-247465D01*
X-217087Y-247521D01*
X-217114Y-247573D01*
X-217125Y-247641D01*
X-217155Y-247736D01*
X-217158Y-247836D01*
X-217169Y-247904D01*
X-217169Y-248921D01*
X-218186Y-248921D01*
X-218244Y-248929D01*
X-218302Y-248928D01*
X-218384Y-248949D01*
X-218467Y-248961D01*
X-218521Y-248985D01*
X-218577Y-248999D01*
X-218650Y-249042D01*
X-218727Y-249077D01*
X-218771Y-249115D01*
X-218822Y-249145D01*
X-218879Y-249206D01*
X-218944Y-249261D01*
X-218976Y-249309D01*
X-219016Y-249352D01*
X-219055Y-249427D01*
X-219101Y-249497D01*
X-219119Y-249553D01*
X-219146Y-249605D01*
X-219157Y-249673D01*
X-219187Y-249768D01*
X-219190Y-249868D01*
X-219201Y-249936D01*
X-219201Y-256795D01*
X-223534Y-256795D01*
X-225055Y-256492D01*
X-226488Y-255899D01*
X-226610Y-255817D01*
X-226675Y-255786D01*
X-226735Y-255746D01*
X-226802Y-255724D01*
X-226866Y-255694D01*
X-226937Y-255682D01*
X-227006Y-255660D01*
X-227077Y-255658D01*
X-227146Y-255646D01*
X-227218Y-255654D01*
X-227290Y-255653D01*
X-227359Y-255670D01*
X-227429Y-255678D01*
X-227496Y-255706D01*
X-227565Y-255724D01*
X-227626Y-255760D01*
X-227691Y-255788D01*
X-227748Y-255833D01*
X-227810Y-255870D01*
X-227858Y-255921D01*
X-227913Y-255965D01*
X-227955Y-256024D01*
X-228004Y-256077D01*
X-228036Y-256140D01*
X-228077Y-256197D01*
X-228101Y-256266D01*
X-228134Y-256330D01*
X-228144Y-256389D01*
X-228170Y-256466D01*
X-228177Y-256586D01*
X-228189Y-256661D01*
X-228189Y-266231D01*
X-229774Y-270057D01*
X-230842Y-271125D01*
X-230894Y-271195D01*
X-230954Y-271259D01*
X-230980Y-271308D01*
X-231013Y-271352D01*
X-231044Y-271434D01*
X-231084Y-271512D01*
X-231092Y-271559D01*
X-231114Y-271618D01*
X-231126Y-271765D01*
X-231139Y-271843D01*
X-231139Y-319024D01*
X-231131Y-319082D01*
X-231133Y-319140D01*
X-231111Y-319222D01*
X-231099Y-319306D01*
X-231076Y-319359D01*
X-231061Y-319415D01*
X-231018Y-319488D01*
X-230983Y-319565D01*
X-230945Y-319610D01*
X-230916Y-319660D01*
X-230854Y-319718D01*
X-230800Y-319782D01*
X-230751Y-319814D01*
X-230708Y-319854D01*
X-230633Y-319893D01*
X-230563Y-319940D01*
X-230507Y-319957D01*
X-230455Y-319984D01*
X-230387Y-319995D01*
X-230292Y-320025D01*
X-230192Y-320028D01*
X-230124Y-320039D01*
X-49476Y-320039D01*
X-49418Y-320031D01*
G37*
%LPC*%
G36*
X-177132Y-283225D02*
X-177132Y-283225D01*
X-178025Y-282332D01*
X-178025Y-271068D01*
X-177132Y-270175D01*
X-166069Y-270175D01*
X-166040Y-270171D01*
X-166011Y-270174D01*
X-165900Y-270151D01*
X-165787Y-270135D01*
X-165761Y-270123D01*
X-165732Y-270118D01*
X-165631Y-270065D01*
X-165528Y-270019D01*
X-165506Y-270000D01*
X-165480Y-269987D01*
X-165397Y-269909D01*
X-165311Y-269836D01*
X-165295Y-269811D01*
X-165273Y-269791D01*
X-165216Y-269693D01*
X-165153Y-269599D01*
X-165145Y-269571D01*
X-165130Y-269546D01*
X-165102Y-269436D01*
X-165068Y-269328D01*
X-165067Y-269298D01*
X-165060Y-269270D01*
X-165063Y-269157D01*
X-165060Y-269044D01*
X-165068Y-269015D01*
X-165069Y-268986D01*
X-165104Y-268878D01*
X-165132Y-268769D01*
X-165147Y-268743D01*
X-165156Y-268715D01*
X-165202Y-268651D01*
X-165277Y-268524D01*
X-165323Y-268481D01*
X-165351Y-268442D01*
X-166715Y-267078D01*
X-166785Y-267026D01*
X-166849Y-266966D01*
X-166898Y-266940D01*
X-166942Y-266907D01*
X-167024Y-266876D01*
X-167102Y-266836D01*
X-167149Y-266828D01*
X-167208Y-266806D01*
X-167356Y-266794D01*
X-167433Y-266781D01*
X-178605Y-266781D01*
X-184885Y-260501D01*
X-184885Y-223913D01*
X-183099Y-222127D01*
X-174430Y-213458D01*
X-174412Y-213434D01*
X-174390Y-213415D01*
X-174327Y-213321D01*
X-174259Y-213231D01*
X-174248Y-213203D01*
X-174232Y-213179D01*
X-174198Y-213071D01*
X-174158Y-212965D01*
X-174155Y-212936D01*
X-174146Y-212908D01*
X-174143Y-212794D01*
X-174134Y-212682D01*
X-174140Y-212653D01*
X-174139Y-212624D01*
X-174168Y-212514D01*
X-174190Y-212403D01*
X-174203Y-212377D01*
X-174211Y-212349D01*
X-174269Y-212251D01*
X-174321Y-212151D01*
X-174341Y-212129D01*
X-174356Y-212104D01*
X-174439Y-212027D01*
X-174517Y-211945D01*
X-174542Y-211930D01*
X-174563Y-211910D01*
X-174664Y-211858D01*
X-174762Y-211801D01*
X-174790Y-211794D01*
X-174817Y-211780D01*
X-174894Y-211767D01*
X-175037Y-211731D01*
X-175100Y-211733D01*
X-175148Y-211725D01*
X-178532Y-211725D01*
X-179425Y-210832D01*
X-179425Y-205081D01*
X-179437Y-204994D01*
X-179440Y-204907D01*
X-179457Y-204854D01*
X-179465Y-204799D01*
X-179500Y-204720D01*
X-179527Y-204636D01*
X-179555Y-204597D01*
X-179581Y-204540D01*
X-179677Y-204427D01*
X-179722Y-204363D01*
X-202939Y-181146D01*
X-203009Y-181094D01*
X-203073Y-181034D01*
X-203122Y-181008D01*
X-203166Y-180975D01*
X-203248Y-180944D01*
X-203326Y-180904D01*
X-203373Y-180896D01*
X-203432Y-180874D01*
X-203580Y-180862D01*
X-203657Y-180849D01*
X-215139Y-180849D01*
X-215139Y-175005D01*
X-211531Y-175005D01*
X-211502Y-175001D01*
X-211473Y-175004D01*
X-211362Y-174981D01*
X-211249Y-174965D01*
X-211223Y-174953D01*
X-211194Y-174948D01*
X-211093Y-174895D01*
X-210990Y-174849D01*
X-210968Y-174830D01*
X-210942Y-174817D01*
X-210860Y-174739D01*
X-210773Y-174666D01*
X-210757Y-174641D01*
X-210735Y-174621D01*
X-210678Y-174523D01*
X-210615Y-174429D01*
X-210607Y-174401D01*
X-210592Y-174376D01*
X-210564Y-174266D01*
X-210530Y-174158D01*
X-210529Y-174128D01*
X-210522Y-174100D01*
X-210525Y-173987D01*
X-210522Y-173874D01*
X-210530Y-173845D01*
X-210531Y-173816D01*
X-210566Y-173708D01*
X-210594Y-173599D01*
X-210609Y-173573D01*
X-210618Y-173545D01*
X-210664Y-173482D01*
X-210739Y-173354D01*
X-210785Y-173311D01*
X-210813Y-173272D01*
X-223005Y-161080D01*
X-224791Y-159294D01*
X-224791Y-103850D01*
X-221524Y-100583D01*
X-196306Y-100583D01*
X-187008Y-109881D01*
X-186984Y-109899D01*
X-186965Y-109921D01*
X-186871Y-109984D01*
X-186781Y-110052D01*
X-186753Y-110062D01*
X-186729Y-110079D01*
X-186621Y-110113D01*
X-186515Y-110153D01*
X-186486Y-110156D01*
X-186458Y-110164D01*
X-186344Y-110167D01*
X-186232Y-110177D01*
X-186203Y-110171D01*
X-186174Y-110172D01*
X-186064Y-110143D01*
X-185953Y-110121D01*
X-185927Y-110107D01*
X-185899Y-110100D01*
X-185801Y-110042D01*
X-185701Y-109990D01*
X-185679Y-109970D01*
X-185654Y-109955D01*
X-185577Y-109872D01*
X-185495Y-109794D01*
X-185480Y-109769D01*
X-185460Y-109747D01*
X-185408Y-109646D01*
X-185351Y-109549D01*
X-185344Y-109520D01*
X-185330Y-109494D01*
X-185317Y-109417D01*
X-185281Y-109273D01*
X-185283Y-109211D01*
X-185275Y-109163D01*
X-185275Y-107367D01*
X-184382Y-106474D01*
X-177618Y-106474D01*
X-176725Y-107367D01*
X-176725Y-110443D01*
X-176717Y-110501D01*
X-176719Y-110559D01*
X-176697Y-110641D01*
X-176685Y-110725D01*
X-176662Y-110778D01*
X-176647Y-110834D01*
X-176604Y-110907D01*
X-176569Y-110984D01*
X-176531Y-111029D01*
X-176502Y-111079D01*
X-176440Y-111137D01*
X-176386Y-111201D01*
X-176337Y-111233D01*
X-176294Y-111273D01*
X-176219Y-111312D01*
X-176149Y-111359D01*
X-176093Y-111376D01*
X-176041Y-111403D01*
X-175973Y-111414D01*
X-175878Y-111444D01*
X-175778Y-111447D01*
X-175710Y-111458D01*
X-158740Y-111458D01*
X-158682Y-111450D01*
X-158624Y-111452D01*
X-158542Y-111430D01*
X-158458Y-111418D01*
X-158405Y-111395D01*
X-158349Y-111380D01*
X-158276Y-111337D01*
X-158199Y-111302D01*
X-158154Y-111264D01*
X-158104Y-111235D01*
X-158046Y-111173D01*
X-157982Y-111119D01*
X-157950Y-111070D01*
X-157910Y-111027D01*
X-157871Y-110952D01*
X-157824Y-110882D01*
X-157807Y-110826D01*
X-157780Y-110774D01*
X-157769Y-110706D01*
X-157739Y-110611D01*
X-157736Y-110511D01*
X-157725Y-110443D01*
X-157725Y-107668D01*
X-156832Y-106775D01*
X-143529Y-106775D01*
X-143529Y-106776D01*
X-143461Y-106826D01*
X-143407Y-106847D01*
X-143356Y-106877D01*
X-143274Y-106897D01*
X-143196Y-106927D01*
X-143137Y-106932D01*
X-143081Y-106947D01*
X-142996Y-106944D01*
X-142912Y-106951D01*
X-142855Y-106940D01*
X-142796Y-106938D01*
X-142716Y-106912D01*
X-142633Y-106895D01*
X-142581Y-106868D01*
X-142526Y-106850D01*
X-142470Y-106810D01*
X-142381Y-106764D01*
X-142309Y-106695D01*
X-142253Y-106655D01*
X-141217Y-105620D01*
X-141199Y-105596D01*
X-141177Y-105577D01*
X-141114Y-105483D01*
X-141046Y-105393D01*
X-141036Y-105365D01*
X-141019Y-105341D01*
X-140985Y-105233D01*
X-140945Y-105127D01*
X-140942Y-105098D01*
X-140934Y-105070D01*
X-140931Y-104956D01*
X-140921Y-104844D01*
X-140927Y-104815D01*
X-140926Y-104786D01*
X-140955Y-104676D01*
X-140977Y-104565D01*
X-140991Y-104539D01*
X-140998Y-104511D01*
X-141056Y-104413D01*
X-141108Y-104313D01*
X-141128Y-104291D01*
X-141143Y-104266D01*
X-141226Y-104189D01*
X-141304Y-104107D01*
X-141329Y-104092D01*
X-141351Y-104072D01*
X-141452Y-104020D01*
X-141549Y-103963D01*
X-141578Y-103956D01*
X-141604Y-103942D01*
X-141681Y-103929D01*
X-141825Y-103893D01*
X-141887Y-103895D01*
X-141935Y-103887D01*
X-185964Y-103887D01*
X-187750Y-102101D01*
X-226569Y-63282D01*
X-226569Y-38064D01*
X-205522Y-17017D01*
X-205440Y-17017D01*
X-205382Y-17009D01*
X-205324Y-17011D01*
X-205242Y-16989D01*
X-205158Y-16977D01*
X-205105Y-16954D01*
X-205049Y-16939D01*
X-204976Y-16896D01*
X-204899Y-16861D01*
X-204854Y-16823D01*
X-204804Y-16794D01*
X-204746Y-16732D01*
X-204682Y-16678D01*
X-204650Y-16629D01*
X-204610Y-16586D01*
X-204571Y-16511D01*
X-204524Y-16441D01*
X-204507Y-16385D01*
X-204480Y-16333D01*
X-204469Y-16265D01*
X-204439Y-16170D01*
X-204436Y-16070D01*
X-204425Y-16002D01*
X-204425Y-14693D01*
X-204404Y-14658D01*
X-204353Y-14591D01*
X-204332Y-14536D01*
X-204303Y-14486D01*
X-204282Y-14404D01*
X-204252Y-14325D01*
X-204247Y-14267D01*
X-204233Y-14210D01*
X-204235Y-14126D01*
X-204229Y-14042D01*
X-204240Y-13984D01*
X-204242Y-13926D01*
X-204268Y-13846D01*
X-204284Y-13763D01*
X-204311Y-13711D01*
X-204329Y-13655D01*
X-204369Y-13599D01*
X-204415Y-13511D01*
X-204425Y-13501D01*
X-204425Y-6710D01*
X-204382Y-6653D01*
X-204308Y-6565D01*
X-204297Y-6540D01*
X-204280Y-6518D01*
X-204240Y-6411D01*
X-204193Y-6306D01*
X-204189Y-6278D01*
X-204179Y-6252D01*
X-204170Y-6138D01*
X-204154Y-6024D01*
X-204158Y-5997D01*
X-204156Y-5969D01*
X-204178Y-5856D01*
X-204195Y-5743D01*
X-204206Y-5717D01*
X-204212Y-5690D01*
X-204264Y-5588D01*
X-204312Y-5484D01*
X-204330Y-5463D01*
X-204343Y-5438D01*
X-204422Y-5355D01*
X-204496Y-5267D01*
X-204517Y-5254D01*
X-204538Y-5232D01*
X-204768Y-5097D01*
X-204781Y-5089D01*
X-206206Y-4499D01*
X-207699Y-3006D01*
X-208507Y-1056D01*
X-208507Y1056D01*
X-207699Y3006D01*
X-206206Y4499D01*
X-204256Y5307D01*
X-202047Y5307D01*
X-202031Y5303D01*
X-202029Y5303D01*
X-202027Y5302D01*
X-201888Y5307D01*
X-201747Y5311D01*
X-201745Y5311D01*
X-201743Y5311D01*
X-201611Y5354D01*
X-201476Y5397D01*
X-201474Y5398D01*
X-201473Y5399D01*
X-201460Y5408D01*
X-201240Y5555D01*
X-201220Y5579D01*
X-201199Y5594D01*
X-197930Y8863D01*
X-186829Y8863D01*
X-186408Y8442D01*
X-186384Y8424D01*
X-186365Y8402D01*
X-186271Y8339D01*
X-186181Y8271D01*
X-186153Y8260D01*
X-186129Y8244D01*
X-186021Y8210D01*
X-185915Y8170D01*
X-185886Y8167D01*
X-185858Y8158D01*
X-185744Y8155D01*
X-185632Y8146D01*
X-185603Y8152D01*
X-185574Y8151D01*
X-185464Y8180D01*
X-185353Y8202D01*
X-185327Y8215D01*
X-185299Y8223D01*
X-185201Y8281D01*
X-185101Y8333D01*
X-185079Y8353D01*
X-185054Y8368D01*
X-184977Y8451D01*
X-184895Y8529D01*
X-184880Y8554D01*
X-184860Y8575D01*
X-184808Y8676D01*
X-184751Y8774D01*
X-184744Y8802D01*
X-184730Y8829D01*
X-184717Y8906D01*
X-184681Y9049D01*
X-184683Y9112D01*
X-184675Y9160D01*
X-184675Y13032D01*
X-183782Y13925D01*
X-176993Y13925D01*
X-176958Y13904D01*
X-176891Y13853D01*
X-176836Y13832D01*
X-176786Y13803D01*
X-176704Y13782D01*
X-176625Y13752D01*
X-176567Y13747D01*
X-176510Y13733D01*
X-176426Y13735D01*
X-176342Y13729D01*
X-176284Y13740D01*
X-176226Y13742D01*
X-176146Y13768D01*
X-176063Y13784D01*
X-176011Y13811D01*
X-175955Y13829D01*
X-175899Y13869D01*
X-175811Y13915D01*
X-175801Y13925D01*
X-168993Y13925D01*
X-168958Y13904D01*
X-168891Y13853D01*
X-168836Y13832D01*
X-168786Y13803D01*
X-168704Y13782D01*
X-168625Y13752D01*
X-168567Y13747D01*
X-168510Y13733D01*
X-168426Y13735D01*
X-168342Y13729D01*
X-168284Y13740D01*
X-168226Y13742D01*
X-168146Y13768D01*
X-168063Y13784D01*
X-168011Y13811D01*
X-167955Y13829D01*
X-167899Y13869D01*
X-167811Y13915D01*
X-167801Y13925D01*
X-160993Y13925D01*
X-160958Y13904D01*
X-160891Y13853D01*
X-160836Y13832D01*
X-160786Y13803D01*
X-160704Y13782D01*
X-160625Y13752D01*
X-160567Y13747D01*
X-160510Y13733D01*
X-160426Y13735D01*
X-160342Y13729D01*
X-160284Y13740D01*
X-160226Y13742D01*
X-160146Y13768D01*
X-160063Y13784D01*
X-160011Y13811D01*
X-159955Y13829D01*
X-159899Y13869D01*
X-159811Y13915D01*
X-159801Y13925D01*
X-152993Y13925D01*
X-152958Y13904D01*
X-152891Y13853D01*
X-152836Y13832D01*
X-152786Y13803D01*
X-152704Y13782D01*
X-152625Y13752D01*
X-152567Y13747D01*
X-152510Y13733D01*
X-152426Y13735D01*
X-152342Y13729D01*
X-152284Y13740D01*
X-152226Y13742D01*
X-152146Y13768D01*
X-152063Y13784D01*
X-152011Y13811D01*
X-151955Y13829D01*
X-151899Y13869D01*
X-151811Y13915D01*
X-151776Y13948D01*
X-151758Y13953D01*
X-151674Y13965D01*
X-151621Y13988D01*
X-151565Y14003D01*
X-151492Y14046D01*
X-151415Y14081D01*
X-151370Y14119D01*
X-151320Y14148D01*
X-151262Y14210D01*
X-151198Y14264D01*
X-151166Y14313D01*
X-151126Y14356D01*
X-151087Y14431D01*
X-151040Y14501D01*
X-151023Y14557D01*
X-150996Y14609D01*
X-150985Y14677D01*
X-150955Y14772D01*
X-150952Y14872D01*
X-150941Y14940D01*
X-150941Y19078D01*
X-150948Y19132D01*
X-150947Y19171D01*
X-150948Y19173D01*
X-150947Y19194D01*
X-150969Y19276D01*
X-150981Y19360D01*
X-151004Y19413D01*
X-151019Y19469D01*
X-151062Y19542D01*
X-151097Y19619D01*
X-151135Y19664D01*
X-151164Y19714D01*
X-151226Y19772D01*
X-151280Y19836D01*
X-151329Y19868D01*
X-151372Y19908D01*
X-151447Y19947D01*
X-151517Y19994D01*
X-151573Y20011D01*
X-151625Y20038D01*
X-151693Y20049D01*
X-151788Y20079D01*
X-151888Y20082D01*
X-151956Y20093D01*
X-153456Y20093D01*
X-155406Y20901D01*
X-156899Y22394D01*
X-157707Y24344D01*
X-157707Y26456D01*
X-157159Y27777D01*
X-157131Y27889D01*
X-157096Y27998D01*
X-157095Y28026D01*
X-157088Y28053D01*
X-157092Y28167D01*
X-157089Y28282D01*
X-157096Y28309D01*
X-157096Y28337D01*
X-157131Y28446D01*
X-157160Y28557D01*
X-157175Y28581D01*
X-157183Y28608D01*
X-157247Y28703D01*
X-157306Y28802D01*
X-157326Y28821D01*
X-157341Y28844D01*
X-157429Y28918D01*
X-157513Y28996D01*
X-157538Y29009D01*
X-157559Y29027D01*
X-157664Y29073D01*
X-157766Y29126D01*
X-157791Y29130D01*
X-157819Y29142D01*
X-158082Y29179D01*
X-158097Y29181D01*
X-195674Y29181D01*
X-209471Y42978D01*
X-209541Y43030D01*
X-209605Y43090D01*
X-209654Y43116D01*
X-209698Y43149D01*
X-209780Y43180D01*
X-209858Y43220D01*
X-209905Y43228D01*
X-209964Y43250D01*
X-210112Y43262D01*
X-210189Y43275D01*
X-220332Y43275D01*
X-221225Y44168D01*
X-221225Y57432D01*
X-220332Y58325D01*
X-207068Y58325D01*
X-206175Y57432D01*
X-206175Y47289D01*
X-206163Y47202D01*
X-206160Y47115D01*
X-206143Y47062D01*
X-206135Y47007D01*
X-206100Y46928D01*
X-206073Y46844D01*
X-206045Y46805D01*
X-206019Y46748D01*
X-205923Y46635D01*
X-205878Y46571D01*
X-193867Y34560D01*
X-193797Y34508D01*
X-193733Y34448D01*
X-193684Y34422D01*
X-193640Y34389D01*
X-193558Y34358D01*
X-193480Y34318D01*
X-193433Y34310D01*
X-193374Y34288D01*
X-193226Y34276D01*
X-193149Y34263D01*
X-149578Y34263D01*
X-149520Y34271D01*
X-149462Y34269D01*
X-149380Y34291D01*
X-149296Y34303D01*
X-149243Y34326D01*
X-149187Y34341D01*
X-149114Y34384D01*
X-149037Y34419D01*
X-148992Y34457D01*
X-148942Y34486D01*
X-148884Y34548D01*
X-148820Y34602D01*
X-148788Y34651D01*
X-148748Y34694D01*
X-148709Y34769D01*
X-148662Y34839D01*
X-148645Y34895D01*
X-148618Y34947D01*
X-148607Y35015D01*
X-148577Y35110D01*
X-148574Y35210D01*
X-148563Y35278D01*
X-148563Y42260D01*
X-148571Y42318D01*
X-148569Y42376D01*
X-148591Y42458D01*
X-148603Y42542D01*
X-148626Y42595D01*
X-148641Y42651D01*
X-148684Y42724D01*
X-148719Y42801D01*
X-148757Y42846D01*
X-148786Y42896D01*
X-148848Y42954D01*
X-148902Y43018D01*
X-148951Y43050D01*
X-148994Y43090D01*
X-149069Y43129D01*
X-149139Y43176D01*
X-149195Y43193D01*
X-149247Y43220D01*
X-149315Y43231D01*
X-149410Y43261D01*
X-149510Y43264D01*
X-149578Y43275D01*
X-161232Y43275D01*
X-162125Y44168D01*
X-162125Y57432D01*
X-161232Y58325D01*
X-147968Y58325D01*
X-147458Y57814D01*
X-147434Y57797D01*
X-147415Y57774D01*
X-147321Y57711D01*
X-147231Y57643D01*
X-147203Y57633D01*
X-147179Y57617D01*
X-147071Y57582D01*
X-146965Y57542D01*
X-146936Y57540D01*
X-146908Y57531D01*
X-146794Y57528D01*
X-146682Y57518D01*
X-146653Y57524D01*
X-146624Y57523D01*
X-146514Y57552D01*
X-146403Y57574D01*
X-146377Y57588D01*
X-146349Y57595D01*
X-146251Y57653D01*
X-146151Y57705D01*
X-146129Y57726D01*
X-146104Y57741D01*
X-146027Y57823D01*
X-145945Y57901D01*
X-145930Y57926D01*
X-145910Y57948D01*
X-145858Y58049D01*
X-145801Y58146D01*
X-145794Y58175D01*
X-145780Y58201D01*
X-145767Y58278D01*
X-145731Y58422D01*
X-145733Y58484D01*
X-145725Y58532D01*
X-145725Y61132D01*
X-144800Y62057D01*
X-144745Y62065D01*
X-144736Y62069D01*
X-144726Y62070D01*
X-144607Y62126D01*
X-144485Y62181D01*
X-144478Y62187D01*
X-144469Y62191D01*
X-144370Y62279D01*
X-144268Y62364D01*
X-144263Y62373D01*
X-144256Y62379D01*
X-144184Y62491D01*
X-144111Y62601D01*
X-144108Y62611D01*
X-144103Y62619D01*
X-144065Y62745D01*
X-144025Y62872D01*
X-144025Y62882D01*
X-144022Y62891D01*
X-144021Y63024D01*
X-144018Y63156D01*
X-144020Y63166D01*
X-144020Y63176D01*
X-144056Y63304D01*
X-144090Y63431D01*
X-144094Y63440D01*
X-144097Y63449D01*
X-144167Y63562D01*
X-144235Y63676D01*
X-144242Y63683D01*
X-144247Y63691D01*
X-144345Y63779D01*
X-144442Y63870D01*
X-144451Y63875D01*
X-144458Y63881D01*
X-144510Y63905D01*
X-144695Y64000D01*
X-144731Y64006D01*
X-144764Y64021D01*
X-145181Y64132D01*
X-145760Y64467D01*
X-146233Y64940D01*
X-146568Y65519D01*
X-146741Y66166D01*
X-146741Y68251D01*
X-140434Y68251D01*
X-140376Y68259D01*
X-140318Y68257D01*
X-140236Y68279D01*
X-140153Y68291D01*
X-140099Y68314D01*
X-140043Y68329D01*
X-139970Y68372D01*
X-139893Y68407D01*
X-139849Y68445D01*
X-139798Y68474D01*
X-139741Y68536D01*
X-139697Y68573D01*
X-139696Y68572D01*
X-139641Y68508D01*
X-139593Y68476D01*
X-139550Y68436D01*
X-139475Y68397D01*
X-139405Y68350D01*
X-139349Y68333D01*
X-139297Y68306D01*
X-139229Y68295D01*
X-139134Y68265D01*
X-139034Y68262D01*
X-138966Y68251D01*
X-132659Y68251D01*
X-132659Y66166D01*
X-132832Y65519D01*
X-133167Y64940D01*
X-133640Y64467D01*
X-134219Y64132D01*
X-134636Y64021D01*
X-134646Y64017D01*
X-134655Y64015D01*
X-134776Y63961D01*
X-134898Y63909D01*
X-134906Y63903D01*
X-134915Y63899D01*
X-135015Y63814D01*
X-135119Y63730D01*
X-135124Y63722D01*
X-135132Y63715D01*
X-135205Y63605D01*
X-135281Y63496D01*
X-135284Y63487D01*
X-135289Y63479D01*
X-135329Y63352D01*
X-135372Y63227D01*
X-135372Y63217D01*
X-135375Y63208D01*
X-135378Y63075D01*
X-135384Y62943D01*
X-135382Y62933D01*
X-135382Y62924D01*
X-135349Y62796D01*
X-135318Y62667D01*
X-135313Y62658D01*
X-135310Y62649D01*
X-135243Y62535D01*
X-135177Y62419D01*
X-135170Y62413D01*
X-135165Y62404D01*
X-135069Y62314D01*
X-134974Y62221D01*
X-134965Y62216D01*
X-134958Y62210D01*
X-134840Y62149D01*
X-134723Y62087D01*
X-134714Y62085D01*
X-134705Y62080D01*
X-134649Y62071D01*
X-134605Y62062D01*
X-133675Y61132D01*
X-133675Y52868D01*
X-134568Y51975D01*
X-136144Y51975D01*
X-136202Y51967D01*
X-136260Y51969D01*
X-136342Y51947D01*
X-136426Y51935D01*
X-136479Y51912D01*
X-136535Y51897D01*
X-136608Y51854D01*
X-136685Y51819D01*
X-136730Y51781D01*
X-136780Y51752D01*
X-136838Y51690D01*
X-136902Y51636D01*
X-136934Y51587D01*
X-136974Y51544D01*
X-137013Y51469D01*
X-137060Y51399D01*
X-137077Y51343D01*
X-137104Y51291D01*
X-137115Y51223D01*
X-137145Y51128D01*
X-137148Y51028D01*
X-137159Y50960D01*
X-137159Y43470D01*
X-137159Y43468D01*
X-137159Y43467D01*
X-137139Y43326D01*
X-137119Y43188D01*
X-137119Y43187D01*
X-137119Y43185D01*
X-137058Y43052D01*
X-137003Y42929D01*
X-137002Y42928D01*
X-137001Y42926D01*
X-136911Y42820D01*
X-136820Y42712D01*
X-136818Y42711D01*
X-136817Y42710D01*
X-136805Y42702D01*
X-136782Y42687D01*
X-135201Y41106D01*
X-134393Y39156D01*
X-134393Y37044D01*
X-135237Y35009D01*
X-135255Y34984D01*
X-135276Y34929D01*
X-135305Y34879D01*
X-135326Y34797D01*
X-135356Y34719D01*
X-135361Y34660D01*
X-135375Y34603D01*
X-135373Y34519D01*
X-135380Y34436D01*
X-135368Y34378D01*
X-135366Y34319D01*
X-135341Y34239D01*
X-135324Y34157D01*
X-135297Y34105D01*
X-135279Y34049D01*
X-135239Y33993D01*
X-135193Y33904D01*
X-135124Y33832D01*
X-135084Y33775D01*
X-114807Y13498D01*
X-114807Y-4810D01*
X-114799Y-4868D01*
X-114801Y-4926D01*
X-114779Y-5008D01*
X-114767Y-5092D01*
X-114744Y-5145D01*
X-114729Y-5201D01*
X-114686Y-5274D01*
X-114651Y-5351D01*
X-114613Y-5396D01*
X-114584Y-5446D01*
X-114522Y-5504D01*
X-114468Y-5568D01*
X-114419Y-5600D01*
X-114376Y-5640D01*
X-114301Y-5679D01*
X-114231Y-5726D01*
X-114175Y-5743D01*
X-114123Y-5770D01*
X-114055Y-5781D01*
X-113960Y-5811D01*
X-113860Y-5814D01*
X-113792Y-5825D01*
X-101268Y-5825D01*
X-100375Y-6718D01*
X-100375Y-13507D01*
X-100396Y-13542D01*
X-100447Y-13609D01*
X-100468Y-13664D01*
X-100497Y-13714D01*
X-100518Y-13796D01*
X-100548Y-13875D01*
X-100553Y-13933D01*
X-100567Y-13990D01*
X-100565Y-14074D01*
X-100571Y-14158D01*
X-100560Y-14216D01*
X-100558Y-14274D01*
X-100532Y-14354D01*
X-100516Y-14437D01*
X-100489Y-14489D01*
X-100471Y-14545D01*
X-100431Y-14601D01*
X-100385Y-14689D01*
X-100375Y-14699D01*
X-100375Y-21507D01*
X-100396Y-21542D01*
X-100447Y-21609D01*
X-100468Y-21664D01*
X-100497Y-21714D01*
X-100518Y-21796D01*
X-100548Y-21875D01*
X-100553Y-21933D01*
X-100567Y-21990D01*
X-100565Y-22074D01*
X-100571Y-22158D01*
X-100560Y-22216D01*
X-100558Y-22274D01*
X-100532Y-22354D01*
X-100516Y-22437D01*
X-100489Y-22489D01*
X-100471Y-22545D01*
X-100431Y-22601D01*
X-100385Y-22689D01*
X-100352Y-22724D01*
X-100347Y-22742D01*
X-100335Y-22826D01*
X-100312Y-22879D01*
X-100297Y-22935D01*
X-100254Y-23008D01*
X-100219Y-23085D01*
X-100181Y-23130D01*
X-100152Y-23180D01*
X-100090Y-23238D01*
X-100036Y-23302D01*
X-99987Y-23334D01*
X-99944Y-23374D01*
X-99869Y-23413D01*
X-99799Y-23460D01*
X-99743Y-23477D01*
X-99691Y-23504D01*
X-99623Y-23515D01*
X-99528Y-23545D01*
X-99428Y-23548D01*
X-99360Y-23559D01*
X-93348Y-23559D01*
X-91562Y-25345D01*
X-90629Y-26278D01*
X-90559Y-26330D01*
X-90495Y-26390D01*
X-90446Y-26416D01*
X-90402Y-26449D01*
X-90320Y-26480D01*
X-90242Y-26520D01*
X-90195Y-26528D01*
X-90136Y-26550D01*
X-89988Y-26562D01*
X-89911Y-26575D01*
X-85344Y-26575D01*
X-85286Y-26567D01*
X-85228Y-26569D01*
X-85146Y-26547D01*
X-85062Y-26535D01*
X-85009Y-26512D01*
X-84953Y-26497D01*
X-84880Y-26454D01*
X-84803Y-26419D01*
X-84758Y-26381D01*
X-84708Y-26352D01*
X-84650Y-26290D01*
X-84586Y-26236D01*
X-84554Y-26187D01*
X-84514Y-26144D01*
X-84475Y-26069D01*
X-84428Y-25999D01*
X-84411Y-25943D01*
X-84384Y-25891D01*
X-84373Y-25823D01*
X-84343Y-25728D01*
X-84340Y-25628D01*
X-84329Y-25560D01*
X-84329Y50089D01*
X-84341Y50176D01*
X-84344Y50263D01*
X-84361Y50316D01*
X-84369Y50371D01*
X-84404Y50450D01*
X-84431Y50534D01*
X-84459Y50573D01*
X-84485Y50630D01*
X-84581Y50743D01*
X-84626Y50807D01*
X-89553Y55734D01*
X-89623Y55786D01*
X-89687Y55846D01*
X-89736Y55871D01*
X-89780Y55905D01*
X-89862Y55936D01*
X-89940Y55976D01*
X-89987Y55984D01*
X-90046Y56006D01*
X-90193Y56018D01*
X-90271Y56031D01*
X-97869Y56031D01*
X-97869Y61541D01*
X-97811Y61541D01*
X-97782Y61545D01*
X-97753Y61542D01*
X-97642Y61565D01*
X-97529Y61581D01*
X-97503Y61593D01*
X-97474Y61598D01*
X-97373Y61650D01*
X-97270Y61697D01*
X-97248Y61716D01*
X-97222Y61729D01*
X-97139Y61807D01*
X-97053Y61880D01*
X-97037Y61905D01*
X-97015Y61925D01*
X-96958Y62023D01*
X-96895Y62117D01*
X-96887Y62145D01*
X-96872Y62170D01*
X-96844Y62280D01*
X-96810Y62388D01*
X-96809Y62418D01*
X-96802Y62446D01*
X-96805Y62559D01*
X-96802Y62672D01*
X-96810Y62701D01*
X-96811Y62730D01*
X-96846Y62838D01*
X-96874Y62947D01*
X-96889Y62973D01*
X-96898Y63001D01*
X-96944Y63064D01*
X-97019Y63192D01*
X-97065Y63235D01*
X-97093Y63274D01*
X-99997Y66178D01*
X-100067Y66230D01*
X-100131Y66290D01*
X-100180Y66316D01*
X-100224Y66349D01*
X-100306Y66380D01*
X-100384Y66420D01*
X-100431Y66428D01*
X-100490Y66450D01*
X-100638Y66462D01*
X-100715Y66475D01*
X-107532Y66475D01*
X-107542Y66486D01*
X-107566Y66503D01*
X-107585Y66526D01*
X-107636Y66560D01*
X-107664Y66586D01*
X-107700Y66605D01*
X-107769Y66657D01*
X-107797Y66667D01*
X-107821Y66683D01*
X-107908Y66711D01*
X-107917Y66716D01*
X-107929Y66718D01*
X-108035Y66758D01*
X-108064Y66760D01*
X-108092Y66769D01*
X-108205Y66772D01*
X-108318Y66782D01*
X-108347Y66776D01*
X-108376Y66777D01*
X-108486Y66748D01*
X-108597Y66726D01*
X-108623Y66712D01*
X-108651Y66705D01*
X-108749Y66647D01*
X-108849Y66595D01*
X-108871Y66574D01*
X-108896Y66559D01*
X-108973Y66477D01*
X-109055Y66399D01*
X-109070Y66374D01*
X-109090Y66352D01*
X-109142Y66251D01*
X-109172Y66200D01*
X-109176Y66195D01*
X-109176Y66193D01*
X-109199Y66154D01*
X-109206Y66125D01*
X-109220Y66099D01*
X-109233Y66022D01*
X-109243Y65982D01*
X-109261Y65924D01*
X-109262Y65908D01*
X-109269Y65878D01*
X-109267Y65816D01*
X-109275Y65768D01*
X-109275Y64858D01*
X-109285Y64849D01*
X-109328Y64776D01*
X-109378Y64709D01*
X-109399Y64655D01*
X-109429Y64604D01*
X-109449Y64522D01*
X-109480Y64443D01*
X-109484Y64385D01*
X-109499Y64328D01*
X-109496Y64244D01*
X-109503Y64160D01*
X-109492Y64103D01*
X-109490Y64044D01*
X-109464Y63964D01*
X-109447Y63881D01*
X-109420Y63830D01*
X-109402Y63774D01*
X-109362Y63718D01*
X-109316Y63629D01*
X-109248Y63557D01*
X-109207Y63500D01*
X-108767Y63060D01*
X-108432Y62481D01*
X-108380Y62285D01*
X-108357Y62231D01*
X-108343Y62174D01*
X-108302Y62101D01*
X-108269Y62023D01*
X-108232Y61978D01*
X-108203Y61927D01*
X-108142Y61868D01*
X-108089Y61803D01*
X-108041Y61769D01*
X-107999Y61729D01*
X-107925Y61689D01*
X-107856Y61641D01*
X-107800Y61622D01*
X-107749Y61594D01*
X-107666Y61577D01*
X-107586Y61550D01*
X-107528Y61547D01*
X-107471Y61535D01*
X-107402Y61542D01*
X-107302Y61537D01*
X-107287Y61541D01*
X-101931Y61541D01*
X-101931Y55016D01*
X-101923Y54958D01*
X-101924Y54900D01*
X-101903Y54818D01*
X-101891Y54735D01*
X-101867Y54681D01*
X-101853Y54625D01*
X-101810Y54552D01*
X-101775Y54475D01*
X-101737Y54431D01*
X-101707Y54380D01*
X-101646Y54323D01*
X-101591Y54258D01*
X-101543Y54226D01*
X-101500Y54186D01*
X-101425Y54147D01*
X-101355Y54101D01*
X-101299Y54083D01*
X-101247Y54056D01*
X-101179Y54045D01*
X-101084Y54015D01*
X-100984Y54012D01*
X-100916Y54001D01*
X-99899Y54001D01*
X-99899Y53999D01*
X-100916Y53999D01*
X-100974Y53991D01*
X-101032Y53992D01*
X-101114Y53971D01*
X-101197Y53959D01*
X-101251Y53935D01*
X-101307Y53921D01*
X-101380Y53878D01*
X-101457Y53843D01*
X-101501Y53805D01*
X-101552Y53775D01*
X-101609Y53714D01*
X-101674Y53659D01*
X-101706Y53611D01*
X-101746Y53568D01*
X-101785Y53493D01*
X-101831Y53423D01*
X-101849Y53367D01*
X-101876Y53315D01*
X-101887Y53247D01*
X-101917Y53152D01*
X-101920Y53052D01*
X-101931Y52984D01*
X-101931Y46459D01*
X-107234Y46459D01*
X-107881Y46632D01*
X-108460Y46967D01*
X-108933Y47440D01*
X-109268Y48019D01*
X-109441Y48666D01*
X-109441Y51944D01*
X-109449Y52002D01*
X-109447Y52060D01*
X-109469Y52142D01*
X-109481Y52226D01*
X-109504Y52279D01*
X-109519Y52335D01*
X-109562Y52408D01*
X-109597Y52485D01*
X-109635Y52530D01*
X-109664Y52580D01*
X-109726Y52638D01*
X-109780Y52702D01*
X-109829Y52734D01*
X-109872Y52774D01*
X-109947Y52813D01*
X-110017Y52860D01*
X-110073Y52877D01*
X-110125Y52904D01*
X-110193Y52915D01*
X-110288Y52945D01*
X-110388Y52948D01*
X-110456Y52959D01*
X-112801Y52959D01*
X-112801Y58016D01*
X-112809Y58074D01*
X-112807Y58132D01*
X-112829Y58214D01*
X-112841Y58297D01*
X-112864Y58351D01*
X-112879Y58407D01*
X-112922Y58480D01*
X-112957Y58557D01*
X-112995Y58601D01*
X-113024Y58652D01*
X-113086Y58709D01*
X-113140Y58774D01*
X-113189Y58806D01*
X-113232Y58846D01*
X-113307Y58885D01*
X-113377Y58931D01*
X-113433Y58949D01*
X-113485Y58976D01*
X-113553Y58987D01*
X-113648Y59017D01*
X-113748Y59020D01*
X-113775Y59024D01*
X-113777Y59042D01*
X-113776Y59100D01*
X-113797Y59182D01*
X-113809Y59266D01*
X-113833Y59319D01*
X-113847Y59375D01*
X-113891Y59448D01*
X-113925Y59525D01*
X-113963Y59570D01*
X-113993Y59620D01*
X-114054Y59678D01*
X-114109Y59742D01*
X-114157Y59774D01*
X-114200Y59814D01*
X-114275Y59853D01*
X-114345Y59900D01*
X-114401Y59917D01*
X-114453Y59944D01*
X-114521Y59955D01*
X-114616Y59985D01*
X-114716Y59988D01*
X-114784Y59999D01*
X-120341Y59999D01*
X-120341Y61834D01*
X-120168Y62481D01*
X-119833Y63060D01*
X-119393Y63500D01*
X-119357Y63547D01*
X-119315Y63587D01*
X-119272Y63660D01*
X-119222Y63728D01*
X-119201Y63782D01*
X-119171Y63833D01*
X-119151Y63914D01*
X-119120Y63993D01*
X-119116Y64052D01*
X-119101Y64108D01*
X-119104Y64192D01*
X-119097Y64277D01*
X-119108Y64334D01*
X-119110Y64392D01*
X-119136Y64473D01*
X-119153Y64555D01*
X-119180Y64607D01*
X-119198Y64663D01*
X-119238Y64719D01*
X-119284Y64808D01*
X-119325Y64851D01*
X-119325Y72132D01*
X-118432Y73025D01*
X-113789Y73025D01*
X-113702Y73037D01*
X-113615Y73040D01*
X-113562Y73057D01*
X-113507Y73065D01*
X-113428Y73100D01*
X-113344Y73127D01*
X-113305Y73155D01*
X-113248Y73181D01*
X-113135Y73277D01*
X-113071Y73322D01*
X-110852Y75541D01*
X-109440Y75541D01*
X-109382Y75549D01*
X-109324Y75547D01*
X-109242Y75569D01*
X-109158Y75581D01*
X-109105Y75604D01*
X-109049Y75619D01*
X-108976Y75662D01*
X-108899Y75697D01*
X-108854Y75735D01*
X-108804Y75764D01*
X-108746Y75826D01*
X-108682Y75880D01*
X-108650Y75929D01*
X-108610Y75972D01*
X-108571Y76047D01*
X-108524Y76117D01*
X-108507Y76173D01*
X-108480Y76225D01*
X-108469Y76293D01*
X-108439Y76388D01*
X-108436Y76488D01*
X-108425Y76556D01*
X-108425Y78632D01*
X-107532Y79525D01*
X-92268Y79525D01*
X-91375Y78632D01*
X-91375Y67368D01*
X-91970Y66773D01*
X-92006Y66727D01*
X-92048Y66686D01*
X-92091Y66613D01*
X-92141Y66546D01*
X-92162Y66491D01*
X-92192Y66441D01*
X-92212Y66359D01*
X-92243Y66280D01*
X-92247Y66222D01*
X-92262Y66166D01*
X-92259Y66081D01*
X-92266Y65997D01*
X-92255Y65940D01*
X-92253Y65881D01*
X-92227Y65801D01*
X-92210Y65718D01*
X-92183Y65666D01*
X-92165Y65611D01*
X-92125Y65555D01*
X-92079Y65466D01*
X-92010Y65394D01*
X-91970Y65338D01*
X-88158Y61525D01*
X-88134Y61507D01*
X-88115Y61485D01*
X-88021Y61422D01*
X-87931Y61354D01*
X-87903Y61344D01*
X-87879Y61327D01*
X-87771Y61293D01*
X-87665Y61253D01*
X-87636Y61250D01*
X-87608Y61242D01*
X-87494Y61239D01*
X-87382Y61229D01*
X-87353Y61235D01*
X-87324Y61234D01*
X-87214Y61263D01*
X-87103Y61285D01*
X-87077Y61299D01*
X-87049Y61306D01*
X-86951Y61364D01*
X-86851Y61416D01*
X-86829Y61436D01*
X-86804Y61451D01*
X-86727Y61534D01*
X-86645Y61612D01*
X-86630Y61637D01*
X-86610Y61659D01*
X-86558Y61760D01*
X-86501Y61857D01*
X-86494Y61886D01*
X-86480Y61912D01*
X-86467Y61989D01*
X-86431Y62133D01*
X-86433Y62195D01*
X-86425Y62243D01*
X-86425Y69132D01*
X-85532Y70025D01*
X-70268Y70025D01*
X-69375Y69132D01*
X-69375Y57868D01*
X-70268Y56975D01*
X-74676Y56975D01*
X-74734Y56967D01*
X-74792Y56969D01*
X-74874Y56947D01*
X-74958Y56935D01*
X-75011Y56912D01*
X-75067Y56897D01*
X-75140Y56854D01*
X-75217Y56819D01*
X-75262Y56781D01*
X-75312Y56752D01*
X-75370Y56690D01*
X-75434Y56636D01*
X-75466Y56587D01*
X-75506Y56544D01*
X-75545Y56469D01*
X-75592Y56399D01*
X-75609Y56343D01*
X-75636Y56291D01*
X-75647Y56223D01*
X-75677Y56128D01*
X-75680Y56028D01*
X-75691Y55960D01*
X-75691Y-95286D01*
X-81528Y-101123D01*
X-81529Y-101125D01*
X-81531Y-101126D01*
X-81619Y-101244D01*
X-81699Y-101351D01*
X-81700Y-101352D01*
X-81701Y-101354D01*
X-81751Y-101487D01*
X-81800Y-101616D01*
X-81801Y-101618D01*
X-81801Y-101620D01*
X-81813Y-101763D01*
X-81824Y-101900D01*
X-81824Y-101901D01*
X-81824Y-101903D01*
X-81820Y-101920D01*
X-81815Y-101943D01*
X-81815Y-104180D01*
X-82623Y-106130D01*
X-84116Y-107623D01*
X-86066Y-108431D01*
X-88178Y-108431D01*
X-90128Y-107623D01*
X-91329Y-106421D01*
X-91376Y-106386D01*
X-91416Y-106344D01*
X-91489Y-106301D01*
X-91557Y-106251D01*
X-91611Y-106230D01*
X-91662Y-106200D01*
X-91743Y-106179D01*
X-91822Y-106149D01*
X-91881Y-106144D01*
X-91937Y-106130D01*
X-92021Y-106133D01*
X-92106Y-106126D01*
X-92163Y-106137D01*
X-92221Y-106139D01*
X-92302Y-106165D01*
X-92384Y-106182D01*
X-92436Y-106209D01*
X-92492Y-106227D01*
X-92548Y-106267D01*
X-92637Y-106313D01*
X-92709Y-106381D01*
X-92765Y-106421D01*
X-92968Y-106625D01*
X-94234Y-106625D01*
X-94292Y-106633D01*
X-94350Y-106631D01*
X-94432Y-106653D01*
X-94516Y-106665D01*
X-94569Y-106688D01*
X-94625Y-106703D01*
X-94698Y-106746D01*
X-94775Y-106781D01*
X-94820Y-106819D01*
X-94870Y-106848D01*
X-94928Y-106910D01*
X-94992Y-106964D01*
X-95024Y-107013D01*
X-95064Y-107056D01*
X-95103Y-107131D01*
X-95150Y-107201D01*
X-95167Y-107257D01*
X-95194Y-107309D01*
X-95205Y-107377D01*
X-95235Y-107472D01*
X-95238Y-107572D01*
X-95249Y-107640D01*
X-95249Y-156623D01*
X-95242Y-156675D01*
X-95243Y-156700D01*
X-95237Y-156723D01*
X-95234Y-156797D01*
X-95217Y-156850D01*
X-95209Y-156904D01*
X-95174Y-156984D01*
X-95147Y-157067D01*
X-95119Y-157107D01*
X-95093Y-157164D01*
X-94997Y-157277D01*
X-94952Y-157341D01*
X-94125Y-158167D01*
X-94125Y-171431D01*
X-95018Y-172324D01*
X-101911Y-172324D01*
X-101998Y-172336D01*
X-102085Y-172339D01*
X-102138Y-172356D01*
X-102193Y-172364D01*
X-102272Y-172399D01*
X-102356Y-172426D01*
X-102395Y-172454D01*
X-102452Y-172480D01*
X-102565Y-172576D01*
X-102629Y-172621D01*
X-103849Y-173841D01*
X-119960Y-173841D01*
X-120018Y-173849D01*
X-120076Y-173847D01*
X-120158Y-173869D01*
X-120242Y-173881D01*
X-120295Y-173904D01*
X-120351Y-173919D01*
X-120424Y-173962D01*
X-120501Y-173997D01*
X-120546Y-174035D01*
X-120596Y-174064D01*
X-120654Y-174126D01*
X-120718Y-174180D01*
X-120750Y-174229D01*
X-120790Y-174272D01*
X-120829Y-174347D01*
X-120876Y-174417D01*
X-120893Y-174473D01*
X-120920Y-174525D01*
X-120931Y-174593D01*
X-120961Y-174688D01*
X-120964Y-174788D01*
X-120975Y-174856D01*
X-120975Y-175432D01*
X-121900Y-176357D01*
X-121955Y-176365D01*
X-121964Y-176369D01*
X-121974Y-176370D01*
X-122094Y-176427D01*
X-122215Y-176481D01*
X-122222Y-176487D01*
X-122231Y-176491D01*
X-122331Y-176579D01*
X-122432Y-176664D01*
X-122437Y-176673D01*
X-122445Y-176679D01*
X-122516Y-176791D01*
X-122589Y-176901D01*
X-122592Y-176910D01*
X-122598Y-176919D01*
X-122635Y-177046D01*
X-122675Y-177172D01*
X-122675Y-177182D01*
X-122678Y-177191D01*
X-122679Y-177324D01*
X-122682Y-177456D01*
X-122680Y-177466D01*
X-122680Y-177476D01*
X-122644Y-177604D01*
X-122611Y-177731D01*
X-122606Y-177740D01*
X-122603Y-177749D01*
X-122533Y-177862D01*
X-122465Y-177976D01*
X-122458Y-177983D01*
X-122453Y-177991D01*
X-122355Y-178079D01*
X-122258Y-178170D01*
X-122249Y-178175D01*
X-122242Y-178181D01*
X-122191Y-178205D01*
X-122005Y-178300D01*
X-121969Y-178306D01*
X-121937Y-178321D01*
X-121519Y-178432D01*
X-120940Y-178767D01*
X-120467Y-179240D01*
X-120132Y-179819D01*
X-119959Y-180466D01*
X-119959Y-182551D01*
X-126266Y-182551D01*
X-126324Y-182559D01*
X-126382Y-182557D01*
X-126464Y-182579D01*
X-126547Y-182591D01*
X-126601Y-182614D01*
X-126657Y-182629D01*
X-126730Y-182672D01*
X-126807Y-182707D01*
X-126851Y-182745D01*
X-126902Y-182774D01*
X-126959Y-182836D01*
X-127024Y-182890D01*
X-127056Y-182939D01*
X-127096Y-182982D01*
X-127135Y-183057D01*
X-127181Y-183127D01*
X-127199Y-183183D01*
X-127226Y-183235D01*
X-127237Y-183303D01*
X-127267Y-183398D01*
X-127270Y-183498D01*
X-127281Y-183566D01*
X-127281Y-184019D01*
X-127734Y-184019D01*
X-127792Y-184027D01*
X-127850Y-184026D01*
X-127932Y-184047D01*
X-128016Y-184059D01*
X-128069Y-184083D01*
X-128125Y-184097D01*
X-128198Y-184141D01*
X-128275Y-184175D01*
X-128320Y-184213D01*
X-128370Y-184243D01*
X-128428Y-184304D01*
X-128492Y-184359D01*
X-128524Y-184407D01*
X-128564Y-184450D01*
X-128603Y-184525D01*
X-128650Y-184595D01*
X-128667Y-184651D01*
X-128694Y-184703D01*
X-128705Y-184771D01*
X-128735Y-184866D01*
X-128738Y-184966D01*
X-128749Y-185034D01*
X-128749Y-190341D01*
X-128989Y-190341D01*
X-129018Y-190345D01*
X-129047Y-190342D01*
X-129158Y-190365D01*
X-129271Y-190381D01*
X-129297Y-190393D01*
X-129326Y-190398D01*
X-129427Y-190451D01*
X-129530Y-190497D01*
X-129552Y-190516D01*
X-129578Y-190529D01*
X-129661Y-190607D01*
X-129747Y-190680D01*
X-129763Y-190705D01*
X-129785Y-190725D01*
X-129842Y-190823D01*
X-129905Y-190917D01*
X-129913Y-190945D01*
X-129928Y-190970D01*
X-129956Y-191080D01*
X-129990Y-191188D01*
X-129991Y-191218D01*
X-129998Y-191246D01*
X-129995Y-191359D01*
X-129998Y-191472D01*
X-129990Y-191501D01*
X-129989Y-191530D01*
X-129954Y-191638D01*
X-129926Y-191747D01*
X-129911Y-191773D01*
X-129902Y-191801D01*
X-129856Y-191865D01*
X-129781Y-191992D01*
X-129735Y-192035D01*
X-129707Y-192074D01*
X-127919Y-193862D01*
X-127849Y-193914D01*
X-127785Y-193974D01*
X-127736Y-194000D01*
X-127692Y-194033D01*
X-127610Y-194064D01*
X-127532Y-194104D01*
X-127485Y-194112D01*
X-127426Y-194134D01*
X-127278Y-194146D01*
X-127201Y-194159D01*
X-121340Y-194159D01*
X-121282Y-194151D01*
X-121224Y-194153D01*
X-121142Y-194131D01*
X-121058Y-194119D01*
X-121005Y-194096D01*
X-120949Y-194081D01*
X-120876Y-194038D01*
X-120799Y-194003D01*
X-120754Y-193965D01*
X-120704Y-193936D01*
X-120646Y-193874D01*
X-120582Y-193820D01*
X-120550Y-193771D01*
X-120510Y-193728D01*
X-120471Y-193653D01*
X-120424Y-193583D01*
X-120407Y-193527D01*
X-120380Y-193475D01*
X-120369Y-193407D01*
X-120339Y-193312D01*
X-120336Y-193212D01*
X-120325Y-193144D01*
X-120325Y-192568D01*
X-119432Y-191675D01*
X-113289Y-191675D01*
X-113202Y-191663D01*
X-113115Y-191660D01*
X-113062Y-191643D01*
X-113007Y-191635D01*
X-112928Y-191600D01*
X-112844Y-191573D01*
X-112805Y-191545D01*
X-112748Y-191519D01*
X-112635Y-191423D01*
X-112571Y-191378D01*
X-111239Y-190046D01*
X-109453Y-188260D01*
X-103690Y-188260D01*
X-103632Y-188252D01*
X-103574Y-188254D01*
X-103492Y-188232D01*
X-103408Y-188220D01*
X-103355Y-188197D01*
X-103299Y-188182D01*
X-103226Y-188139D01*
X-103149Y-188104D01*
X-103104Y-188066D01*
X-103054Y-188037D01*
X-102996Y-187975D01*
X-102932Y-187921D01*
X-102900Y-187872D01*
X-102860Y-187829D01*
X-102821Y-187754D01*
X-102774Y-187684D01*
X-102757Y-187628D01*
X-102730Y-187576D01*
X-102719Y-187508D01*
X-102689Y-187413D01*
X-102686Y-187313D01*
X-102675Y-187245D01*
X-102675Y-184169D01*
X-101782Y-183276D01*
X-95008Y-183276D01*
X-94999Y-183286D01*
X-94926Y-183329D01*
X-94859Y-183379D01*
X-94805Y-183400D01*
X-94754Y-183430D01*
X-94672Y-183450D01*
X-94593Y-183481D01*
X-94535Y-183485D01*
X-94478Y-183500D01*
X-94394Y-183497D01*
X-94310Y-183504D01*
X-94253Y-183493D01*
X-94194Y-183491D01*
X-94114Y-183465D01*
X-94031Y-183448D01*
X-93980Y-183421D01*
X-93924Y-183403D01*
X-93868Y-183363D01*
X-93779Y-183317D01*
X-93707Y-183249D01*
X-93650Y-183208D01*
X-93210Y-182768D01*
X-92631Y-182433D01*
X-91984Y-182260D01*
X-90274Y-182260D01*
X-90274Y-190442D01*
X-90266Y-190500D01*
X-90268Y-190558D01*
X-90246Y-190640D01*
X-90234Y-190723D01*
X-90211Y-190777D01*
X-90204Y-190801D01*
X-90219Y-190829D01*
X-90230Y-190897D01*
X-90260Y-190992D01*
X-90263Y-191092D01*
X-90274Y-191160D01*
X-90274Y-199342D01*
X-91984Y-199342D01*
X-92631Y-199169D01*
X-93210Y-198834D01*
X-93650Y-198394D01*
X-93697Y-198358D01*
X-93737Y-198316D01*
X-93810Y-198273D01*
X-93878Y-198223D01*
X-93932Y-198202D01*
X-93983Y-198172D01*
X-94064Y-198152D01*
X-94143Y-198121D01*
X-94202Y-198117D01*
X-94258Y-198102D01*
X-94342Y-198105D01*
X-94427Y-198098D01*
X-94484Y-198109D01*
X-94542Y-198111D01*
X-94623Y-198137D01*
X-94705Y-198154D01*
X-94757Y-198181D01*
X-94813Y-198199D01*
X-94869Y-198239D01*
X-94958Y-198285D01*
X-95026Y-198350D01*
X-95042Y-198354D01*
X-95126Y-198366D01*
X-95179Y-198389D01*
X-95235Y-198404D01*
X-95308Y-198447D01*
X-95385Y-198482D01*
X-95430Y-198520D01*
X-95480Y-198549D01*
X-95538Y-198611D01*
X-95602Y-198665D01*
X-95634Y-198714D01*
X-95674Y-198757D01*
X-95713Y-198832D01*
X-95760Y-198902D01*
X-95777Y-198958D01*
X-95804Y-199010D01*
X-95815Y-199078D01*
X-95845Y-199173D01*
X-95848Y-199273D01*
X-95859Y-199341D01*
X-95859Y-205860D01*
X-95851Y-205918D01*
X-95853Y-205976D01*
X-95831Y-206058D01*
X-95819Y-206142D01*
X-95796Y-206195D01*
X-95781Y-206251D01*
X-95738Y-206324D01*
X-95703Y-206401D01*
X-95665Y-206446D01*
X-95636Y-206496D01*
X-95574Y-206554D01*
X-95520Y-206618D01*
X-95471Y-206650D01*
X-95428Y-206690D01*
X-95353Y-206729D01*
X-95283Y-206776D01*
X-95227Y-206793D01*
X-95175Y-206820D01*
X-95107Y-206831D01*
X-95012Y-206861D01*
X-94912Y-206864D01*
X-94844Y-206875D01*
X-91268Y-206875D01*
X-90375Y-207768D01*
X-90375Y-224032D01*
X-91268Y-224925D01*
X-105532Y-224925D01*
X-106425Y-224032D01*
X-106425Y-215869D01*
X-106429Y-215840D01*
X-106426Y-215811D01*
X-106449Y-215700D01*
X-106465Y-215587D01*
X-106477Y-215561D01*
X-106482Y-215532D01*
X-106535Y-215431D01*
X-106581Y-215328D01*
X-106600Y-215306D01*
X-106613Y-215279D01*
X-106691Y-215197D01*
X-106764Y-215111D01*
X-106789Y-215095D01*
X-106809Y-215073D01*
X-106907Y-215016D01*
X-107001Y-214953D01*
X-107029Y-214944D01*
X-107054Y-214930D01*
X-107164Y-214902D01*
X-107272Y-214868D01*
X-107301Y-214867D01*
X-107330Y-214860D01*
X-107443Y-214863D01*
X-107556Y-214860D01*
X-107585Y-214868D01*
X-107614Y-214869D01*
X-107722Y-214904D01*
X-107831Y-214932D01*
X-107857Y-214947D01*
X-107885Y-214956D01*
X-107949Y-215002D01*
X-108076Y-215077D01*
X-108119Y-215123D01*
X-108158Y-215151D01*
X-108240Y-215233D01*
X-108819Y-215568D01*
X-109466Y-215741D01*
X-112551Y-215741D01*
X-112551Y-210434D01*
X-112559Y-210376D01*
X-112557Y-210318D01*
X-112579Y-210236D01*
X-112591Y-210153D01*
X-112614Y-210099D01*
X-112629Y-210043D01*
X-112672Y-209970D01*
X-112707Y-209893D01*
X-112745Y-209849D01*
X-112774Y-209798D01*
X-112836Y-209741D01*
X-112890Y-209676D01*
X-112939Y-209644D01*
X-112982Y-209604D01*
X-113057Y-209565D01*
X-113127Y-209519D01*
X-113183Y-209501D01*
X-113235Y-209474D01*
X-113303Y-209463D01*
X-113398Y-209433D01*
X-113498Y-209430D01*
X-113566Y-209419D01*
X-114019Y-209419D01*
X-114019Y-208966D01*
X-114027Y-208908D01*
X-114026Y-208850D01*
X-114047Y-208768D01*
X-114059Y-208684D01*
X-114083Y-208631D01*
X-114097Y-208575D01*
X-114141Y-208502D01*
X-114175Y-208425D01*
X-114213Y-208380D01*
X-114243Y-208330D01*
X-114304Y-208272D01*
X-114359Y-208208D01*
X-114407Y-208176D01*
X-114450Y-208136D01*
X-114525Y-208097D01*
X-114595Y-208050D01*
X-114651Y-208033D01*
X-114703Y-208006D01*
X-114771Y-207995D01*
X-114866Y-207965D01*
X-114966Y-207962D01*
X-115034Y-207951D01*
X-121341Y-207951D01*
X-121341Y-205866D01*
X-121168Y-205219D01*
X-120833Y-204640D01*
X-120360Y-204167D01*
X-119781Y-203832D01*
X-119364Y-203721D01*
X-119354Y-203717D01*
X-119345Y-203715D01*
X-119224Y-203661D01*
X-119102Y-203609D01*
X-119094Y-203603D01*
X-119085Y-203599D01*
X-118985Y-203514D01*
X-118881Y-203430D01*
X-118876Y-203422D01*
X-118868Y-203415D01*
X-118795Y-203305D01*
X-118719Y-203196D01*
X-118716Y-203187D01*
X-118711Y-203179D01*
X-118671Y-203052D01*
X-118628Y-202927D01*
X-118628Y-202917D01*
X-118625Y-202908D01*
X-118622Y-202775D01*
X-118616Y-202643D01*
X-118618Y-202633D01*
X-118618Y-202624D01*
X-118651Y-202496D01*
X-118682Y-202367D01*
X-118687Y-202358D01*
X-118690Y-202349D01*
X-118757Y-202235D01*
X-118823Y-202119D01*
X-118830Y-202113D01*
X-118835Y-202104D01*
X-118931Y-202014D01*
X-119026Y-201921D01*
X-119035Y-201916D01*
X-119042Y-201910D01*
X-119160Y-201849D01*
X-119277Y-201787D01*
X-119286Y-201785D01*
X-119295Y-201780D01*
X-119351Y-201771D01*
X-119395Y-201762D01*
X-120325Y-200832D01*
X-120325Y-200256D01*
X-120333Y-200198D01*
X-120331Y-200140D01*
X-120353Y-200058D01*
X-120365Y-199974D01*
X-120388Y-199921D01*
X-120403Y-199865D01*
X-120446Y-199792D01*
X-120481Y-199715D01*
X-120519Y-199670D01*
X-120548Y-199620D01*
X-120610Y-199562D01*
X-120664Y-199498D01*
X-120713Y-199466D01*
X-120756Y-199426D01*
X-120831Y-199387D01*
X-120901Y-199340D01*
X-120957Y-199323D01*
X-121009Y-199296D01*
X-121077Y-199285D01*
X-121172Y-199255D01*
X-121272Y-199252D01*
X-121340Y-199241D01*
X-124360Y-199241D01*
X-124418Y-199249D01*
X-124476Y-199247D01*
X-124558Y-199269D01*
X-124642Y-199281D01*
X-124695Y-199304D01*
X-124751Y-199319D01*
X-124824Y-199362D01*
X-124901Y-199397D01*
X-124946Y-199435D01*
X-124996Y-199464D01*
X-125054Y-199526D01*
X-125118Y-199580D01*
X-125150Y-199629D01*
X-125190Y-199672D01*
X-125229Y-199747D01*
X-125276Y-199817D01*
X-125293Y-199873D01*
X-125320Y-199925D01*
X-125331Y-199993D01*
X-125361Y-200088D01*
X-125364Y-200188D01*
X-125375Y-200256D01*
X-125375Y-210832D01*
X-126268Y-211725D01*
X-141532Y-211725D01*
X-142425Y-210832D01*
X-142425Y-208026D01*
X-142433Y-207968D01*
X-142431Y-207910D01*
X-142453Y-207828D01*
X-142465Y-207744D01*
X-142488Y-207691D01*
X-142503Y-207635D01*
X-142546Y-207562D01*
X-142581Y-207485D01*
X-142619Y-207440D01*
X-142648Y-207390D01*
X-142710Y-207332D01*
X-142764Y-207268D01*
X-142813Y-207236D01*
X-142856Y-207196D01*
X-142931Y-207157D01*
X-143001Y-207110D01*
X-143057Y-207093D01*
X-143109Y-207066D01*
X-143177Y-207055D01*
X-143272Y-207025D01*
X-143372Y-207022D01*
X-143440Y-207011D01*
X-151435Y-207011D01*
X-151522Y-207023D01*
X-151609Y-207026D01*
X-151662Y-207043D01*
X-151717Y-207051D01*
X-151796Y-207086D01*
X-151880Y-207113D01*
X-151919Y-207141D01*
X-151976Y-207167D01*
X-152089Y-207263D01*
X-152153Y-207308D01*
X-170428Y-225583D01*
X-170429Y-225585D01*
X-170431Y-225586D01*
X-170519Y-225704D01*
X-170599Y-225811D01*
X-170600Y-225812D01*
X-170601Y-225814D01*
X-170651Y-225947D01*
X-170700Y-226076D01*
X-170701Y-226078D01*
X-170701Y-226080D01*
X-170713Y-226223D01*
X-170724Y-226360D01*
X-170724Y-226361D01*
X-170724Y-226363D01*
X-170720Y-226380D01*
X-170715Y-226403D01*
X-170715Y-228640D01*
X-171523Y-230590D01*
X-173016Y-232083D01*
X-174966Y-232891D01*
X-177078Y-232891D01*
X-178399Y-232343D01*
X-178511Y-232315D01*
X-178620Y-232280D01*
X-178648Y-232279D01*
X-178675Y-232272D01*
X-178789Y-232276D01*
X-178904Y-232273D01*
X-178931Y-232280D01*
X-178959Y-232280D01*
X-179068Y-232315D01*
X-179179Y-232344D01*
X-179203Y-232359D01*
X-179230Y-232367D01*
X-179325Y-232431D01*
X-179424Y-232490D01*
X-179443Y-232510D01*
X-179466Y-232525D01*
X-179540Y-232613D01*
X-179618Y-232697D01*
X-179631Y-232722D01*
X-179649Y-232743D01*
X-179695Y-232848D01*
X-179748Y-232950D01*
X-179752Y-232975D01*
X-179764Y-233003D01*
X-179801Y-233266D01*
X-179803Y-233281D01*
X-179803Y-248959D01*
X-179799Y-248988D01*
X-179802Y-249018D01*
X-179779Y-249128D01*
X-179763Y-249241D01*
X-179751Y-249267D01*
X-179746Y-249296D01*
X-179693Y-249397D01*
X-179647Y-249500D01*
X-179628Y-249522D01*
X-179615Y-249549D01*
X-179537Y-249631D01*
X-179464Y-249717D01*
X-179439Y-249733D01*
X-179419Y-249755D01*
X-179321Y-249812D01*
X-179227Y-249875D01*
X-179199Y-249884D01*
X-179173Y-249898D01*
X-179064Y-249926D01*
X-178956Y-249960D01*
X-178926Y-249961D01*
X-178898Y-249968D01*
X-178785Y-249965D01*
X-178672Y-249968D01*
X-178643Y-249960D01*
X-178614Y-249959D01*
X-178506Y-249924D01*
X-178397Y-249896D01*
X-178371Y-249881D01*
X-178343Y-249872D01*
X-178279Y-249826D01*
X-178152Y-249751D01*
X-178109Y-249705D01*
X-178070Y-249677D01*
X-178060Y-249667D01*
X-177481Y-249332D01*
X-176834Y-249159D01*
X-155531Y-249159D01*
X-155531Y-255684D01*
X-155523Y-255742D01*
X-155524Y-255800D01*
X-155503Y-255882D01*
X-155491Y-255965D01*
X-155467Y-256019D01*
X-155453Y-256075D01*
X-155410Y-256148D01*
X-155375Y-256225D01*
X-155337Y-256269D01*
X-155307Y-256320D01*
X-155246Y-256377D01*
X-155191Y-256442D01*
X-155143Y-256474D01*
X-155100Y-256514D01*
X-155025Y-256553D01*
X-154955Y-256599D01*
X-154899Y-256617D01*
X-154847Y-256644D01*
X-154779Y-256655D01*
X-154684Y-256685D01*
X-154584Y-256688D01*
X-154516Y-256699D01*
X-153499Y-256699D01*
X-153499Y-256701D01*
X-154516Y-256701D01*
X-154574Y-256709D01*
X-154632Y-256708D01*
X-154714Y-256729D01*
X-154797Y-256741D01*
X-154851Y-256765D01*
X-154907Y-256779D01*
X-154980Y-256822D01*
X-155057Y-256857D01*
X-155101Y-256895D01*
X-155152Y-256925D01*
X-155209Y-256986D01*
X-155274Y-257041D01*
X-155306Y-257089D01*
X-155346Y-257132D01*
X-155385Y-257207D01*
X-155431Y-257277D01*
X-155449Y-257333D01*
X-155476Y-257385D01*
X-155487Y-257453D01*
X-155517Y-257548D01*
X-155520Y-257648D01*
X-155531Y-257716D01*
X-155531Y-264241D01*
X-159915Y-264241D01*
X-159944Y-264245D01*
X-159973Y-264242D01*
X-160084Y-264265D01*
X-160197Y-264281D01*
X-160223Y-264293D01*
X-160252Y-264298D01*
X-160353Y-264350D01*
X-160456Y-264397D01*
X-160478Y-264416D01*
X-160504Y-264429D01*
X-160587Y-264507D01*
X-160673Y-264580D01*
X-160689Y-264605D01*
X-160711Y-264625D01*
X-160768Y-264723D01*
X-160831Y-264817D01*
X-160839Y-264845D01*
X-160854Y-264870D01*
X-160882Y-264980D01*
X-160916Y-265088D01*
X-160917Y-265118D01*
X-160924Y-265146D01*
X-160921Y-265259D01*
X-160924Y-265372D01*
X-160916Y-265401D01*
X-160915Y-265430D01*
X-160880Y-265538D01*
X-160852Y-265647D01*
X-160837Y-265673D01*
X-160828Y-265701D01*
X-160782Y-265764D01*
X-160707Y-265892D01*
X-160661Y-265935D01*
X-160633Y-265974D01*
X-156729Y-269878D01*
X-156659Y-269930D01*
X-156595Y-269990D01*
X-156546Y-270016D01*
X-156502Y-270049D01*
X-156420Y-270080D01*
X-156342Y-270120D01*
X-156295Y-270128D01*
X-156236Y-270150D01*
X-156088Y-270162D01*
X-156011Y-270175D01*
X-129868Y-270175D01*
X-128975Y-271068D01*
X-128975Y-282332D01*
X-129868Y-283225D01*
X-177132Y-283225D01*
G37*
%LPD*%
G36*
X-112053Y-102533D02*
X-112053Y-102533D01*
X-112024Y-102534D01*
X-111914Y-102505D01*
X-111803Y-102483D01*
X-111777Y-102469D01*
X-111749Y-102462D01*
X-111651Y-102404D01*
X-111551Y-102352D01*
X-111529Y-102332D01*
X-111504Y-102317D01*
X-111427Y-102234D01*
X-111345Y-102156D01*
X-111330Y-102131D01*
X-111310Y-102109D01*
X-111258Y-102008D01*
X-111201Y-101911D01*
X-111194Y-101882D01*
X-111180Y-101856D01*
X-111167Y-101779D01*
X-111131Y-101635D01*
X-111133Y-101573D01*
X-111125Y-101525D01*
X-111125Y-101089D01*
X-111137Y-101002D01*
X-111140Y-100915D01*
X-111157Y-100862D01*
X-111165Y-100807D01*
X-111200Y-100728D01*
X-111227Y-100644D01*
X-111255Y-100605D01*
X-111281Y-100548D01*
X-111377Y-100435D01*
X-111422Y-100371D01*
X-117815Y-93978D01*
X-117885Y-93926D01*
X-117949Y-93866D01*
X-117998Y-93840D01*
X-118042Y-93807D01*
X-118124Y-93776D01*
X-118202Y-93736D01*
X-118249Y-93728D01*
X-118308Y-93706D01*
X-118456Y-93694D01*
X-118533Y-93681D01*
X-145255Y-93681D01*
X-148513Y-90422D01*
X-148583Y-90370D01*
X-148647Y-90310D01*
X-148696Y-90284D01*
X-148740Y-90251D01*
X-148822Y-90220D01*
X-148900Y-90180D01*
X-148948Y-90172D01*
X-149006Y-90150D01*
X-149154Y-90138D01*
X-149231Y-90125D01*
X-151807Y-90125D01*
X-151842Y-90104D01*
X-151909Y-90053D01*
X-151964Y-90032D01*
X-152014Y-90003D01*
X-152096Y-89982D01*
X-152175Y-89952D01*
X-152233Y-89947D01*
X-152290Y-89933D01*
X-152374Y-89935D01*
X-152458Y-89929D01*
X-152516Y-89940D01*
X-152574Y-89942D01*
X-152654Y-89968D01*
X-152737Y-89984D01*
X-152789Y-90011D01*
X-152845Y-90029D01*
X-152901Y-90069D01*
X-152989Y-90115D01*
X-152999Y-90125D01*
X-159807Y-90125D01*
X-159842Y-90104D01*
X-159909Y-90053D01*
X-159964Y-90032D01*
X-160014Y-90003D01*
X-160096Y-89982D01*
X-160175Y-89952D01*
X-160233Y-89947D01*
X-160290Y-89933D01*
X-160374Y-89935D01*
X-160458Y-89929D01*
X-160516Y-89940D01*
X-160574Y-89942D01*
X-160654Y-89968D01*
X-160737Y-89984D01*
X-160789Y-90011D01*
X-160845Y-90029D01*
X-160901Y-90069D01*
X-160989Y-90115D01*
X-160999Y-90125D01*
X-167807Y-90125D01*
X-167842Y-90104D01*
X-167909Y-90053D01*
X-167964Y-90032D01*
X-168014Y-90003D01*
X-168096Y-89982D01*
X-168175Y-89952D01*
X-168233Y-89947D01*
X-168290Y-89933D01*
X-168374Y-89935D01*
X-168458Y-89929D01*
X-168516Y-89940D01*
X-168574Y-89942D01*
X-168654Y-89968D01*
X-168737Y-89984D01*
X-168789Y-90011D01*
X-168845Y-90029D01*
X-168901Y-90069D01*
X-168989Y-90115D01*
X-168999Y-90125D01*
X-175807Y-90125D01*
X-175842Y-90104D01*
X-175909Y-90053D01*
X-175964Y-90032D01*
X-176014Y-90003D01*
X-176096Y-89982D01*
X-176175Y-89952D01*
X-176233Y-89947D01*
X-176290Y-89933D01*
X-176374Y-89935D01*
X-176458Y-89929D01*
X-176516Y-89940D01*
X-176574Y-89942D01*
X-176654Y-89968D01*
X-176737Y-89984D01*
X-176789Y-90011D01*
X-176845Y-90029D01*
X-176901Y-90069D01*
X-176989Y-90115D01*
X-176999Y-90125D01*
X-183782Y-90125D01*
X-184675Y-89232D01*
X-184675Y-72968D01*
X-183782Y-72075D01*
X-176994Y-72075D01*
X-176958Y-72096D01*
X-176891Y-72147D01*
X-176836Y-72168D01*
X-176786Y-72197D01*
X-176704Y-72218D01*
X-176625Y-72248D01*
X-176567Y-72253D01*
X-176510Y-72267D01*
X-176426Y-72264D01*
X-176342Y-72272D01*
X-176284Y-72260D01*
X-176226Y-72258D01*
X-176146Y-72232D01*
X-176063Y-72216D01*
X-176011Y-72189D01*
X-175955Y-72171D01*
X-175899Y-72131D01*
X-175811Y-72085D01*
X-175801Y-72075D01*
X-168994Y-72075D01*
X-168958Y-72096D01*
X-168891Y-72147D01*
X-168836Y-72168D01*
X-168786Y-72197D01*
X-168704Y-72218D01*
X-168625Y-72248D01*
X-168567Y-72253D01*
X-168510Y-72267D01*
X-168426Y-72264D01*
X-168342Y-72272D01*
X-168284Y-72260D01*
X-168226Y-72258D01*
X-168146Y-72232D01*
X-168063Y-72216D01*
X-168011Y-72189D01*
X-167955Y-72171D01*
X-167899Y-72131D01*
X-167811Y-72085D01*
X-167801Y-72075D01*
X-160994Y-72075D01*
X-160958Y-72096D01*
X-160891Y-72147D01*
X-160836Y-72168D01*
X-160786Y-72197D01*
X-160704Y-72218D01*
X-160625Y-72248D01*
X-160567Y-72253D01*
X-160510Y-72267D01*
X-160426Y-72264D01*
X-160342Y-72272D01*
X-160284Y-72260D01*
X-160226Y-72258D01*
X-160146Y-72232D01*
X-160063Y-72216D01*
X-160011Y-72189D01*
X-159955Y-72171D01*
X-159899Y-72131D01*
X-159811Y-72085D01*
X-159801Y-72075D01*
X-152994Y-72075D01*
X-152958Y-72096D01*
X-152891Y-72147D01*
X-152836Y-72168D01*
X-152786Y-72197D01*
X-152704Y-72218D01*
X-152625Y-72248D01*
X-152567Y-72253D01*
X-152510Y-72267D01*
X-152426Y-72264D01*
X-152342Y-72272D01*
X-152284Y-72260D01*
X-152226Y-72258D01*
X-152146Y-72232D01*
X-152063Y-72216D01*
X-152011Y-72189D01*
X-151955Y-72171D01*
X-151899Y-72131D01*
X-151811Y-72085D01*
X-151776Y-72052D01*
X-151758Y-72047D01*
X-151674Y-72035D01*
X-151621Y-72012D01*
X-151565Y-71997D01*
X-151492Y-71954D01*
X-151415Y-71919D01*
X-151370Y-71881D01*
X-151320Y-71852D01*
X-151262Y-71790D01*
X-151198Y-71736D01*
X-151166Y-71687D01*
X-151126Y-71644D01*
X-151087Y-71569D01*
X-151040Y-71499D01*
X-151023Y-71443D01*
X-150996Y-71391D01*
X-150985Y-71323D01*
X-150955Y-71228D01*
X-150952Y-71128D01*
X-150941Y-71060D01*
X-150941Y-69822D01*
X-150949Y-69764D01*
X-150947Y-69706D01*
X-150969Y-69624D01*
X-150981Y-69540D01*
X-151004Y-69487D01*
X-151019Y-69431D01*
X-151062Y-69358D01*
X-151097Y-69281D01*
X-151135Y-69236D01*
X-151164Y-69186D01*
X-151226Y-69128D01*
X-151280Y-69064D01*
X-151329Y-69032D01*
X-151372Y-68992D01*
X-151447Y-68953D01*
X-151517Y-68906D01*
X-151573Y-68889D01*
X-151625Y-68862D01*
X-151693Y-68851D01*
X-151788Y-68821D01*
X-151888Y-68818D01*
X-151956Y-68807D01*
X-153456Y-68807D01*
X-155406Y-67999D01*
X-156899Y-66506D01*
X-157707Y-64556D01*
X-157707Y-62444D01*
X-156899Y-60494D01*
X-155406Y-59001D01*
X-153456Y-58193D01*
X-151344Y-58193D01*
X-149394Y-59001D01*
X-147901Y-60494D01*
X-147093Y-62444D01*
X-147093Y-64653D01*
X-147097Y-64668D01*
X-147097Y-64670D01*
X-147098Y-64673D01*
X-147093Y-64811D01*
X-147089Y-64952D01*
X-147089Y-64954D01*
X-147089Y-64957D01*
X-147045Y-65090D01*
X-147003Y-65223D01*
X-147002Y-65225D01*
X-147001Y-65227D01*
X-146989Y-65244D01*
X-146845Y-65459D01*
X-146821Y-65480D01*
X-146806Y-65501D01*
X-145859Y-66448D01*
X-145859Y-71060D01*
X-145851Y-71118D01*
X-145853Y-71176D01*
X-145831Y-71258D01*
X-145819Y-71342D01*
X-145796Y-71395D01*
X-145781Y-71451D01*
X-145738Y-71524D01*
X-145703Y-71601D01*
X-145665Y-71646D01*
X-145636Y-71696D01*
X-145574Y-71754D01*
X-145520Y-71818D01*
X-145471Y-71850D01*
X-145428Y-71890D01*
X-145353Y-71929D01*
X-145283Y-71976D01*
X-145227Y-71993D01*
X-145175Y-72020D01*
X-145107Y-72031D01*
X-145024Y-72058D01*
X-144958Y-72096D01*
X-144891Y-72147D01*
X-144836Y-72168D01*
X-144786Y-72197D01*
X-144704Y-72218D01*
X-144625Y-72248D01*
X-144567Y-72253D01*
X-144510Y-72267D01*
X-144426Y-72264D01*
X-144342Y-72272D01*
X-144284Y-72260D01*
X-144226Y-72258D01*
X-144146Y-72232D01*
X-144063Y-72216D01*
X-144011Y-72189D01*
X-143955Y-72171D01*
X-143899Y-72131D01*
X-143811Y-72085D01*
X-143801Y-72075D01*
X-136994Y-72075D01*
X-136958Y-72096D01*
X-136891Y-72147D01*
X-136836Y-72168D01*
X-136786Y-72197D01*
X-136704Y-72218D01*
X-136625Y-72248D01*
X-136567Y-72253D01*
X-136510Y-72267D01*
X-136426Y-72264D01*
X-136342Y-72272D01*
X-136284Y-72260D01*
X-136226Y-72258D01*
X-136146Y-72232D01*
X-136063Y-72216D01*
X-136011Y-72189D01*
X-135955Y-72171D01*
X-135899Y-72131D01*
X-135811Y-72085D01*
X-135801Y-72075D01*
X-128994Y-72075D01*
X-128958Y-72096D01*
X-128891Y-72147D01*
X-128836Y-72168D01*
X-128786Y-72197D01*
X-128704Y-72218D01*
X-128625Y-72248D01*
X-128567Y-72253D01*
X-128510Y-72267D01*
X-128426Y-72264D01*
X-128342Y-72272D01*
X-128284Y-72260D01*
X-128226Y-72258D01*
X-128146Y-72232D01*
X-128063Y-72216D01*
X-128011Y-72189D01*
X-127955Y-72171D01*
X-127899Y-72131D01*
X-127811Y-72085D01*
X-127801Y-72075D01*
X-124215Y-72075D01*
X-124186Y-72071D01*
X-124157Y-72074D01*
X-124046Y-72051D01*
X-123933Y-72035D01*
X-123907Y-72023D01*
X-123878Y-72018D01*
X-123777Y-71966D01*
X-123674Y-71919D01*
X-123652Y-71900D01*
X-123626Y-71887D01*
X-123543Y-71809D01*
X-123457Y-71736D01*
X-123441Y-71711D01*
X-123419Y-71691D01*
X-123362Y-71593D01*
X-123299Y-71499D01*
X-123291Y-71471D01*
X-123276Y-71446D01*
X-123248Y-71336D01*
X-123214Y-71228D01*
X-123213Y-71199D01*
X-123206Y-71170D01*
X-123209Y-71057D01*
X-123206Y-70944D01*
X-123214Y-70915D01*
X-123215Y-70886D01*
X-123250Y-70778D01*
X-123278Y-70669D01*
X-123293Y-70643D01*
X-123302Y-70615D01*
X-123348Y-70552D01*
X-123423Y-70424D01*
X-123445Y-70404D01*
X-123445Y-61178D01*
X-118722Y-56455D01*
X-118670Y-56385D01*
X-118610Y-56321D01*
X-118584Y-56272D01*
X-118551Y-56228D01*
X-118520Y-56146D01*
X-118480Y-56068D01*
X-118472Y-56021D01*
X-118450Y-55962D01*
X-118438Y-55814D01*
X-118425Y-55737D01*
X-118425Y-55339D01*
X-118437Y-55252D01*
X-118440Y-55165D01*
X-118457Y-55112D01*
X-118465Y-55057D01*
X-118500Y-54978D01*
X-118527Y-54894D01*
X-118555Y-54855D01*
X-118581Y-54798D01*
X-118677Y-54685D01*
X-118722Y-54621D01*
X-118933Y-54410D01*
X-119268Y-53831D01*
X-119441Y-53184D01*
X-119441Y-51474D01*
X-109759Y-51474D01*
X-109701Y-51466D01*
X-109643Y-51468D01*
X-109561Y-51446D01*
X-109478Y-51434D01*
X-109424Y-51411D01*
X-109400Y-51404D01*
X-109372Y-51419D01*
X-109304Y-51430D01*
X-109209Y-51460D01*
X-109109Y-51463D01*
X-109041Y-51474D01*
X-99359Y-51474D01*
X-99359Y-53184D01*
X-99532Y-53831D01*
X-99867Y-54410D01*
X-100078Y-54621D01*
X-100130Y-54691D01*
X-100190Y-54755D01*
X-100216Y-54804D01*
X-100249Y-54848D01*
X-100280Y-54930D01*
X-100320Y-55008D01*
X-100328Y-55055D01*
X-100350Y-55114D01*
X-100362Y-55262D01*
X-100375Y-55339D01*
X-100375Y-61507D01*
X-100396Y-61542D01*
X-100447Y-61609D01*
X-100468Y-61664D01*
X-100497Y-61714D01*
X-100518Y-61796D01*
X-100548Y-61875D01*
X-100553Y-61933D01*
X-100567Y-61990D01*
X-100565Y-62074D01*
X-100571Y-62158D01*
X-100560Y-62216D01*
X-100558Y-62274D01*
X-100532Y-62354D01*
X-100516Y-62437D01*
X-100489Y-62489D01*
X-100471Y-62545D01*
X-100431Y-62601D01*
X-100385Y-62689D01*
X-100375Y-62699D01*
X-100375Y-68077D01*
X-100363Y-68164D01*
X-100360Y-68251D01*
X-100343Y-68304D01*
X-100335Y-68359D01*
X-100300Y-68438D01*
X-100273Y-68522D01*
X-100245Y-68561D01*
X-100219Y-68618D01*
X-100123Y-68731D01*
X-100078Y-68795D01*
X-96235Y-72638D01*
X-96233Y-72639D01*
X-96232Y-72641D01*
X-96114Y-72729D01*
X-96007Y-72809D01*
X-96006Y-72810D01*
X-96004Y-72811D01*
X-95871Y-72861D01*
X-95742Y-72910D01*
X-95740Y-72911D01*
X-95738Y-72911D01*
X-95595Y-72923D01*
X-95458Y-72934D01*
X-95457Y-72934D01*
X-95455Y-72934D01*
X-95438Y-72930D01*
X-95415Y-72925D01*
X-93178Y-72925D01*
X-91228Y-73733D01*
X-89735Y-75226D01*
X-88927Y-77176D01*
X-88927Y-77549D01*
X-88923Y-77578D01*
X-88926Y-77607D01*
X-88903Y-77718D01*
X-88887Y-77831D01*
X-88875Y-77857D01*
X-88870Y-77886D01*
X-88817Y-77987D01*
X-88771Y-78090D01*
X-88752Y-78112D01*
X-88739Y-78138D01*
X-88661Y-78221D01*
X-88588Y-78307D01*
X-88563Y-78323D01*
X-88543Y-78345D01*
X-88445Y-78402D01*
X-88351Y-78465D01*
X-88323Y-78473D01*
X-88298Y-78488D01*
X-88188Y-78516D01*
X-88080Y-78550D01*
X-88050Y-78551D01*
X-88022Y-78558D01*
X-87909Y-78555D01*
X-87796Y-78558D01*
X-87767Y-78550D01*
X-87738Y-78549D01*
X-87630Y-78514D01*
X-87521Y-78486D01*
X-87495Y-78471D01*
X-87467Y-78462D01*
X-87404Y-78416D01*
X-87276Y-78341D01*
X-87233Y-78295D01*
X-87194Y-78267D01*
X-84626Y-75699D01*
X-84574Y-75629D01*
X-84514Y-75565D01*
X-84488Y-75516D01*
X-84455Y-75472D01*
X-84424Y-75390D01*
X-84384Y-75312D01*
X-84376Y-75265D01*
X-84354Y-75206D01*
X-84342Y-75058D01*
X-84329Y-74981D01*
X-84329Y-51656D01*
X-84337Y-51598D01*
X-84335Y-51540D01*
X-84357Y-51458D01*
X-84369Y-51374D01*
X-84392Y-51321D01*
X-84407Y-51265D01*
X-84450Y-51192D01*
X-84485Y-51115D01*
X-84523Y-51070D01*
X-84552Y-51020D01*
X-84614Y-50962D01*
X-84668Y-50898D01*
X-84717Y-50866D01*
X-84760Y-50826D01*
X-84835Y-50787D01*
X-84905Y-50740D01*
X-84961Y-50723D01*
X-85013Y-50696D01*
X-85081Y-50685D01*
X-85176Y-50655D01*
X-85276Y-50652D01*
X-85344Y-50641D01*
X-87151Y-50641D01*
X-87151Y-45334D01*
X-87159Y-45276D01*
X-87157Y-45218D01*
X-87179Y-45136D01*
X-87191Y-45053D01*
X-87214Y-44999D01*
X-87229Y-44943D01*
X-87272Y-44870D01*
X-87307Y-44793D01*
X-87345Y-44749D01*
X-87374Y-44698D01*
X-87436Y-44641D01*
X-87490Y-44576D01*
X-87539Y-44544D01*
X-87582Y-44504D01*
X-87657Y-44465D01*
X-87727Y-44419D01*
X-87783Y-44401D01*
X-87835Y-44374D01*
X-87903Y-44363D01*
X-87998Y-44333D01*
X-88098Y-44330D01*
X-88166Y-44319D01*
X-88619Y-44319D01*
X-88619Y-43866D01*
X-88627Y-43812D01*
X-88626Y-43775D01*
X-88626Y-43773D01*
X-88626Y-43750D01*
X-88647Y-43668D01*
X-88659Y-43584D01*
X-88683Y-43531D01*
X-88697Y-43475D01*
X-88741Y-43402D01*
X-88775Y-43325D01*
X-88813Y-43280D01*
X-88843Y-43230D01*
X-88904Y-43172D01*
X-88959Y-43108D01*
X-89007Y-43076D01*
X-89050Y-43036D01*
X-89125Y-42997D01*
X-89195Y-42950D01*
X-89251Y-42933D01*
X-89303Y-42906D01*
X-89371Y-42895D01*
X-89466Y-42865D01*
X-89566Y-42862D01*
X-89634Y-42851D01*
X-95941Y-42851D01*
X-95941Y-40766D01*
X-95768Y-40119D01*
X-95433Y-39540D01*
X-94960Y-39067D01*
X-94381Y-38732D01*
X-93964Y-38621D01*
X-93954Y-38617D01*
X-93945Y-38615D01*
X-93824Y-38561D01*
X-93702Y-38509D01*
X-93694Y-38503D01*
X-93685Y-38499D01*
X-93585Y-38414D01*
X-93481Y-38330D01*
X-93476Y-38322D01*
X-93468Y-38315D01*
X-93395Y-38205D01*
X-93319Y-38096D01*
X-93316Y-38087D01*
X-93311Y-38079D01*
X-93271Y-37952D01*
X-93228Y-37827D01*
X-93228Y-37817D01*
X-93225Y-37808D01*
X-93222Y-37675D01*
X-93216Y-37543D01*
X-93218Y-37533D01*
X-93218Y-37524D01*
X-93251Y-37396D01*
X-93282Y-37267D01*
X-93287Y-37258D01*
X-93290Y-37249D01*
X-93357Y-37135D01*
X-93423Y-37019D01*
X-93430Y-37013D01*
X-93435Y-37004D01*
X-93531Y-36914D01*
X-93626Y-36821D01*
X-93635Y-36816D01*
X-93642Y-36810D01*
X-93760Y-36749D01*
X-93877Y-36687D01*
X-93886Y-36685D01*
X-93895Y-36680D01*
X-93951Y-36671D01*
X-93995Y-36662D01*
X-94925Y-35732D01*
X-94925Y-29656D01*
X-94932Y-29601D01*
X-94931Y-29561D01*
X-94932Y-29559D01*
X-94931Y-29540D01*
X-94953Y-29458D01*
X-94965Y-29374D01*
X-94988Y-29321D01*
X-95003Y-29265D01*
X-95046Y-29192D01*
X-95081Y-29115D01*
X-95119Y-29070D01*
X-95148Y-29020D01*
X-95210Y-28962D01*
X-95264Y-28898D01*
X-95313Y-28866D01*
X-95356Y-28826D01*
X-95431Y-28787D01*
X-95501Y-28740D01*
X-95557Y-28723D01*
X-95609Y-28696D01*
X-95677Y-28685D01*
X-95772Y-28655D01*
X-95872Y-28652D01*
X-95940Y-28641D01*
X-98772Y-28641D01*
X-98811Y-28646D01*
X-98850Y-28644D01*
X-98951Y-28666D01*
X-99053Y-28681D01*
X-99089Y-28697D01*
X-99127Y-28705D01*
X-99219Y-28755D01*
X-99313Y-28797D01*
X-99343Y-28822D01*
X-99377Y-28841D01*
X-99451Y-28914D01*
X-99530Y-28980D01*
X-99552Y-29013D01*
X-99579Y-29041D01*
X-99630Y-29131D01*
X-99687Y-29217D01*
X-99699Y-29254D01*
X-99718Y-29289D01*
X-99742Y-29389D01*
X-99773Y-29488D01*
X-99774Y-29527D01*
X-99783Y-29565D01*
X-99778Y-29669D01*
X-99781Y-29772D01*
X-99771Y-29810D01*
X-99769Y-29849D01*
X-99741Y-29922D01*
X-99709Y-30047D01*
X-99696Y-30068D01*
X-99696Y-30069D01*
X-99670Y-30113D01*
X-99651Y-30164D01*
X-99532Y-30369D01*
X-99359Y-31016D01*
X-99359Y-32726D01*
X-109041Y-32726D01*
X-109099Y-32734D01*
X-109157Y-32732D01*
X-109239Y-32754D01*
X-109322Y-32766D01*
X-109376Y-32789D01*
X-109432Y-32804D01*
X-109505Y-32847D01*
X-109582Y-32882D01*
X-109626Y-32920D01*
X-109677Y-32949D01*
X-109734Y-33011D01*
X-109799Y-33065D01*
X-109831Y-33114D01*
X-109871Y-33157D01*
X-109910Y-33232D01*
X-109956Y-33302D01*
X-109974Y-33358D01*
X-110001Y-33410D01*
X-110012Y-33478D01*
X-110042Y-33573D01*
X-110045Y-33673D01*
X-110056Y-33741D01*
X-110056Y-34459D01*
X-110048Y-34517D01*
X-110049Y-34575D01*
X-110028Y-34657D01*
X-110016Y-34741D01*
X-109992Y-34794D01*
X-109978Y-34850D01*
X-109934Y-34923D01*
X-109900Y-35000D01*
X-109862Y-35045D01*
X-109832Y-35095D01*
X-109771Y-35153D01*
X-109716Y-35217D01*
X-109668Y-35249D01*
X-109625Y-35289D01*
X-109550Y-35328D01*
X-109480Y-35375D01*
X-109424Y-35392D01*
X-109372Y-35419D01*
X-109304Y-35430D01*
X-109209Y-35460D01*
X-109109Y-35463D01*
X-109041Y-35474D01*
X-99359Y-35474D01*
X-99359Y-37184D01*
X-99532Y-37831D01*
X-99867Y-38410D01*
X-100078Y-38621D01*
X-100130Y-38691D01*
X-100190Y-38755D01*
X-100216Y-38804D01*
X-100249Y-38848D01*
X-100280Y-38930D01*
X-100320Y-39008D01*
X-100328Y-39055D01*
X-100350Y-39114D01*
X-100362Y-39262D01*
X-100375Y-39339D01*
X-100375Y-44861D01*
X-100363Y-44948D01*
X-100360Y-45035D01*
X-100343Y-45088D01*
X-100335Y-45143D01*
X-100300Y-45222D01*
X-100273Y-45306D01*
X-100245Y-45345D01*
X-100219Y-45402D01*
X-100123Y-45515D01*
X-100116Y-45525D01*
X-100106Y-45542D01*
X-100100Y-45548D01*
X-100078Y-45579D01*
X-99867Y-45790D01*
X-99532Y-46369D01*
X-99359Y-47016D01*
X-99359Y-48726D01*
X-109041Y-48726D01*
X-109099Y-48734D01*
X-109157Y-48732D01*
X-109239Y-48754D01*
X-109322Y-48766D01*
X-109376Y-48789D01*
X-109400Y-48796D01*
X-109428Y-48781D01*
X-109496Y-48770D01*
X-109591Y-48740D01*
X-109691Y-48737D01*
X-109759Y-48726D01*
X-119441Y-48726D01*
X-119441Y-47016D01*
X-119268Y-46369D01*
X-118933Y-45790D01*
X-118722Y-45579D01*
X-118670Y-45509D01*
X-118610Y-45445D01*
X-118584Y-45396D01*
X-118551Y-45352D01*
X-118520Y-45270D01*
X-118480Y-45192D01*
X-118472Y-45145D01*
X-118450Y-45086D01*
X-118438Y-44938D01*
X-118425Y-44861D01*
X-118425Y-42931D01*
X-118437Y-42844D01*
X-118440Y-42757D01*
X-118457Y-42704D01*
X-118465Y-42650D01*
X-118500Y-42570D01*
X-118527Y-42487D01*
X-118555Y-42447D01*
X-118581Y-42390D01*
X-118677Y-42277D01*
X-118722Y-42213D01*
X-121981Y-38955D01*
X-121981Y-32366D01*
X-121989Y-32308D01*
X-121987Y-32250D01*
X-122009Y-32168D01*
X-122021Y-32084D01*
X-122044Y-32031D01*
X-122059Y-31975D01*
X-122102Y-31902D01*
X-122137Y-31825D01*
X-122175Y-31780D01*
X-122204Y-31730D01*
X-122266Y-31672D01*
X-122320Y-31608D01*
X-122369Y-31576D01*
X-122412Y-31536D01*
X-122487Y-31497D01*
X-122557Y-31450D01*
X-122613Y-31433D01*
X-122665Y-31406D01*
X-122733Y-31395D01*
X-122828Y-31365D01*
X-122928Y-31362D01*
X-122996Y-31351D01*
X-179900Y-31351D01*
X-184642Y-26609D01*
X-184666Y-26591D01*
X-184685Y-26569D01*
X-184779Y-26506D01*
X-184869Y-26438D01*
X-184897Y-26428D01*
X-184921Y-26411D01*
X-185029Y-26377D01*
X-185135Y-26337D01*
X-185164Y-26334D01*
X-185192Y-26325D01*
X-185306Y-26323D01*
X-185418Y-26313D01*
X-185447Y-26319D01*
X-185476Y-26318D01*
X-185586Y-26347D01*
X-185697Y-26369D01*
X-185723Y-26383D01*
X-185751Y-26390D01*
X-185849Y-26448D01*
X-185949Y-26500D01*
X-185971Y-26520D01*
X-185996Y-26535D01*
X-186073Y-26618D01*
X-186155Y-26696D01*
X-186170Y-26721D01*
X-186190Y-26743D01*
X-186242Y-26843D01*
X-186299Y-26941D01*
X-186306Y-26970D01*
X-186320Y-26996D01*
X-186333Y-27073D01*
X-186369Y-27217D01*
X-186367Y-27279D01*
X-186375Y-27327D01*
X-186375Y-29506D01*
X-186396Y-29542D01*
X-186447Y-29609D01*
X-186468Y-29664D01*
X-186497Y-29714D01*
X-186518Y-29796D01*
X-186548Y-29875D01*
X-186553Y-29933D01*
X-186567Y-29990D01*
X-186564Y-30074D01*
X-186572Y-30158D01*
X-186560Y-30216D01*
X-186558Y-30274D01*
X-186532Y-30354D01*
X-186516Y-30437D01*
X-186489Y-30489D01*
X-186471Y-30545D01*
X-186431Y-30601D01*
X-186385Y-30689D01*
X-186375Y-30699D01*
X-186375Y-36861D01*
X-186363Y-36948D01*
X-186360Y-37035D01*
X-186343Y-37088D01*
X-186335Y-37143D01*
X-186300Y-37222D01*
X-186273Y-37306D01*
X-186245Y-37345D01*
X-186219Y-37402D01*
X-186123Y-37515D01*
X-186078Y-37579D01*
X-185867Y-37790D01*
X-185532Y-38369D01*
X-185359Y-39016D01*
X-185359Y-40726D01*
X-195041Y-40726D01*
X-195099Y-40734D01*
X-195157Y-40732D01*
X-195239Y-40754D01*
X-195322Y-40766D01*
X-195376Y-40789D01*
X-195400Y-40796D01*
X-195428Y-40781D01*
X-195496Y-40770D01*
X-195591Y-40740D01*
X-195691Y-40737D01*
X-195759Y-40726D01*
X-205441Y-40726D01*
X-205441Y-39885D01*
X-205445Y-39856D01*
X-205442Y-39827D01*
X-205465Y-39716D01*
X-205481Y-39603D01*
X-205492Y-39577D01*
X-205498Y-39548D01*
X-205550Y-39447D01*
X-205597Y-39344D01*
X-205616Y-39322D01*
X-205629Y-39296D01*
X-205707Y-39213D01*
X-205780Y-39127D01*
X-205805Y-39111D01*
X-205825Y-39089D01*
X-205923Y-39032D01*
X-206017Y-38969D01*
X-206045Y-38961D01*
X-206070Y-38946D01*
X-206180Y-38918D01*
X-206288Y-38884D01*
X-206317Y-38883D01*
X-206346Y-38876D01*
X-206459Y-38879D01*
X-206572Y-38876D01*
X-206601Y-38884D01*
X-206630Y-38885D01*
X-206738Y-38920D01*
X-206847Y-38948D01*
X-206873Y-38963D01*
X-206900Y-38972D01*
X-206964Y-39018D01*
X-207092Y-39093D01*
X-207135Y-39139D01*
X-207174Y-39167D01*
X-209578Y-41571D01*
X-209630Y-41641D01*
X-209690Y-41705D01*
X-209716Y-41754D01*
X-209749Y-41798D01*
X-209780Y-41880D01*
X-209820Y-41958D01*
X-209828Y-42005D01*
X-209850Y-42064D01*
X-209862Y-42212D01*
X-209875Y-42289D01*
X-209875Y-48432D01*
X-210800Y-49357D01*
X-210855Y-49365D01*
X-210864Y-49369D01*
X-210874Y-49370D01*
X-210994Y-49427D01*
X-211115Y-49481D01*
X-211122Y-49487D01*
X-211131Y-49491D01*
X-211231Y-49579D01*
X-211332Y-49664D01*
X-211337Y-49673D01*
X-211344Y-49679D01*
X-211416Y-49790D01*
X-211489Y-49901D01*
X-211492Y-49911D01*
X-211497Y-49919D01*
X-211535Y-50045D01*
X-211575Y-50172D01*
X-211575Y-50182D01*
X-211578Y-50191D01*
X-211579Y-50325D01*
X-211582Y-50456D01*
X-211580Y-50466D01*
X-211580Y-50476D01*
X-211544Y-50604D01*
X-211511Y-50731D01*
X-211506Y-50740D01*
X-211503Y-50749D01*
X-211433Y-50863D01*
X-211365Y-50976D01*
X-211358Y-50983D01*
X-211353Y-50991D01*
X-211255Y-51080D01*
X-211158Y-51170D01*
X-211149Y-51175D01*
X-211142Y-51181D01*
X-211090Y-51205D01*
X-210905Y-51300D01*
X-210869Y-51306D01*
X-210837Y-51321D01*
X-210419Y-51432D01*
X-209840Y-51767D01*
X-209367Y-52240D01*
X-209032Y-52819D01*
X-208859Y-53466D01*
X-208859Y-55551D01*
X-215166Y-55551D01*
X-215224Y-55559D01*
X-215282Y-55557D01*
X-215364Y-55579D01*
X-215447Y-55591D01*
X-215501Y-55614D01*
X-215557Y-55629D01*
X-215630Y-55672D01*
X-215707Y-55707D01*
X-215751Y-55745D01*
X-215802Y-55774D01*
X-215859Y-55836D01*
X-215924Y-55890D01*
X-215956Y-55939D01*
X-215996Y-55982D01*
X-216035Y-56057D01*
X-216081Y-56127D01*
X-216099Y-56183D01*
X-216126Y-56235D01*
X-216137Y-56303D01*
X-216167Y-56398D01*
X-216170Y-56498D01*
X-216181Y-56566D01*
X-216181Y-57019D01*
X-216634Y-57019D01*
X-216692Y-57027D01*
X-216750Y-57026D01*
X-216832Y-57047D01*
X-216916Y-57059D01*
X-216969Y-57083D01*
X-217025Y-57097D01*
X-217098Y-57141D01*
X-217175Y-57175D01*
X-217220Y-57213D01*
X-217270Y-57243D01*
X-217328Y-57304D01*
X-217392Y-57359D01*
X-217424Y-57407D01*
X-217464Y-57450D01*
X-217503Y-57525D01*
X-217550Y-57595D01*
X-217567Y-57651D01*
X-217594Y-57703D01*
X-217605Y-57771D01*
X-217635Y-57866D01*
X-217638Y-57966D01*
X-217649Y-58034D01*
X-217649Y-63707D01*
X-217669Y-63725D01*
X-217726Y-63823D01*
X-217789Y-63917D01*
X-217797Y-63945D01*
X-217812Y-63970D01*
X-217840Y-64080D01*
X-217874Y-64188D01*
X-217875Y-64218D01*
X-217882Y-64246D01*
X-217879Y-64359D01*
X-217882Y-64472D01*
X-217874Y-64501D01*
X-217873Y-64530D01*
X-217838Y-64638D01*
X-217810Y-64747D01*
X-217795Y-64773D01*
X-217786Y-64801D01*
X-217740Y-64864D01*
X-217665Y-64992D01*
X-217619Y-65035D01*
X-217591Y-65074D01*
X-184157Y-98508D01*
X-184087Y-98560D01*
X-184023Y-98620D01*
X-183974Y-98646D01*
X-183930Y-98679D01*
X-183848Y-98710D01*
X-183770Y-98750D01*
X-183723Y-98758D01*
X-183664Y-98780D01*
X-183516Y-98792D01*
X-183439Y-98805D01*
X-116296Y-98805D01*
X-112858Y-102243D01*
X-112834Y-102261D01*
X-112815Y-102283D01*
X-112721Y-102346D01*
X-112631Y-102414D01*
X-112603Y-102424D01*
X-112579Y-102441D01*
X-112471Y-102475D01*
X-112365Y-102515D01*
X-112336Y-102518D01*
X-112308Y-102526D01*
X-112194Y-102529D01*
X-112082Y-102539D01*
X-112053Y-102533D01*
G37*
G36*
X-161357Y-208899D02*
X-161357Y-208899D01*
X-161244Y-208902D01*
X-161215Y-208894D01*
X-161186Y-208893D01*
X-161078Y-208858D01*
X-160969Y-208830D01*
X-160943Y-208815D01*
X-160915Y-208806D01*
X-160852Y-208760D01*
X-160724Y-208685D01*
X-160681Y-208639D01*
X-160642Y-208611D01*
X-153960Y-201929D01*
X-143440Y-201929D01*
X-143382Y-201921D01*
X-143324Y-201923D01*
X-143242Y-201901D01*
X-143158Y-201889D01*
X-143105Y-201866D01*
X-143049Y-201851D01*
X-142976Y-201808D01*
X-142899Y-201773D01*
X-142854Y-201735D01*
X-142804Y-201706D01*
X-142746Y-201644D01*
X-142682Y-201590D01*
X-142650Y-201541D01*
X-142610Y-201498D01*
X-142571Y-201423D01*
X-142524Y-201353D01*
X-142507Y-201297D01*
X-142480Y-201245D01*
X-142469Y-201177D01*
X-142439Y-201082D01*
X-142436Y-200982D01*
X-142425Y-200914D01*
X-142425Y-195568D01*
X-141532Y-194675D01*
X-136743Y-194675D01*
X-136714Y-194671D01*
X-136685Y-194674D01*
X-136574Y-194651D01*
X-136461Y-194635D01*
X-136435Y-194623D01*
X-136406Y-194618D01*
X-136305Y-194565D01*
X-136202Y-194519D01*
X-136180Y-194500D01*
X-136154Y-194487D01*
X-136071Y-194409D01*
X-135985Y-194336D01*
X-135969Y-194311D01*
X-135947Y-194291D01*
X-135890Y-194193D01*
X-135827Y-194099D01*
X-135819Y-194071D01*
X-135804Y-194046D01*
X-135776Y-193936D01*
X-135742Y-193828D01*
X-135741Y-193798D01*
X-135734Y-193770D01*
X-135737Y-193657D01*
X-135734Y-193544D01*
X-135742Y-193515D01*
X-135743Y-193486D01*
X-135778Y-193378D01*
X-135806Y-193269D01*
X-135821Y-193243D01*
X-135830Y-193215D01*
X-135876Y-193152D01*
X-135951Y-193024D01*
X-135997Y-192981D01*
X-136025Y-192942D01*
X-137669Y-191298D01*
X-137669Y-166080D01*
X-121964Y-150375D01*
X-121912Y-150305D01*
X-121852Y-150241D01*
X-121826Y-150192D01*
X-121793Y-150148D01*
X-121762Y-150066D01*
X-121722Y-149988D01*
X-121714Y-149941D01*
X-121692Y-149882D01*
X-121680Y-149734D01*
X-121667Y-149657D01*
X-121667Y-122840D01*
X-121675Y-122782D01*
X-121673Y-122724D01*
X-121695Y-122642D01*
X-121707Y-122558D01*
X-121730Y-122505D01*
X-121745Y-122449D01*
X-121788Y-122376D01*
X-121823Y-122299D01*
X-121861Y-122254D01*
X-121890Y-122204D01*
X-121952Y-122146D01*
X-122006Y-122082D01*
X-122055Y-122050D01*
X-122098Y-122010D01*
X-122173Y-121971D01*
X-122243Y-121924D01*
X-122299Y-121907D01*
X-122351Y-121880D01*
X-122419Y-121869D01*
X-122514Y-121839D01*
X-122614Y-121836D01*
X-122682Y-121825D01*
X-125644Y-121825D01*
X-125702Y-121833D01*
X-125760Y-121831D01*
X-125842Y-121853D01*
X-125926Y-121865D01*
X-125979Y-121888D01*
X-126035Y-121903D01*
X-126108Y-121946D01*
X-126185Y-121981D01*
X-126230Y-122019D01*
X-126280Y-122048D01*
X-126338Y-122110D01*
X-126402Y-122164D01*
X-126434Y-122213D01*
X-126474Y-122256D01*
X-126513Y-122331D01*
X-126560Y-122401D01*
X-126577Y-122457D01*
X-126604Y-122509D01*
X-126615Y-122577D01*
X-126645Y-122672D01*
X-126648Y-122772D01*
X-126659Y-122840D01*
X-126659Y-135252D01*
X-129878Y-138471D01*
X-129930Y-138541D01*
X-129990Y-138605D01*
X-130016Y-138654D01*
X-130049Y-138698D01*
X-130080Y-138780D01*
X-130120Y-138858D01*
X-130128Y-138905D01*
X-130150Y-138964D01*
X-130162Y-139112D01*
X-130175Y-139189D01*
X-130175Y-143832D01*
X-131068Y-144725D01*
X-138332Y-144725D01*
X-138982Y-144074D01*
X-139029Y-144039D01*
X-139069Y-143997D01*
X-139142Y-143954D01*
X-139209Y-143903D01*
X-139264Y-143883D01*
X-139314Y-143853D01*
X-139396Y-143832D01*
X-139475Y-143802D01*
X-139533Y-143797D01*
X-139590Y-143783D01*
X-139674Y-143786D01*
X-139758Y-143779D01*
X-139816Y-143790D01*
X-139874Y-143792D01*
X-139954Y-143818D01*
X-140037Y-143834D01*
X-140089Y-143861D01*
X-140145Y-143879D01*
X-140201Y-143919D01*
X-140289Y-143965D01*
X-140362Y-144034D01*
X-140418Y-144074D01*
X-141068Y-144725D01*
X-141144Y-144725D01*
X-141202Y-144733D01*
X-141260Y-144731D01*
X-141342Y-144753D01*
X-141426Y-144765D01*
X-141479Y-144788D01*
X-141535Y-144803D01*
X-141608Y-144846D01*
X-141685Y-144881D01*
X-141730Y-144919D01*
X-141780Y-144948D01*
X-141838Y-145010D01*
X-141902Y-145064D01*
X-141934Y-145113D01*
X-141974Y-145156D01*
X-142013Y-145231D01*
X-142060Y-145301D01*
X-142077Y-145357D01*
X-142104Y-145409D01*
X-142115Y-145477D01*
X-142145Y-145572D01*
X-142148Y-145672D01*
X-142159Y-145740D01*
X-142159Y-171152D01*
X-151348Y-180341D01*
X-171545Y-180341D01*
X-180181Y-171705D01*
X-180181Y-166676D01*
X-180188Y-166627D01*
X-180187Y-166620D01*
X-180190Y-166610D01*
X-180193Y-166589D01*
X-180196Y-166502D01*
X-180213Y-166449D01*
X-180221Y-166395D01*
X-180256Y-166315D01*
X-180283Y-166232D01*
X-180311Y-166192D01*
X-180337Y-166135D01*
X-180433Y-166022D01*
X-180478Y-165958D01*
X-198613Y-147823D01*
X-198683Y-147771D01*
X-198747Y-147711D01*
X-198796Y-147685D01*
X-198840Y-147652D01*
X-198922Y-147621D01*
X-199000Y-147581D01*
X-199048Y-147573D01*
X-199106Y-147551D01*
X-199254Y-147539D01*
X-199331Y-147526D01*
X-203382Y-147526D01*
X-204275Y-146633D01*
X-204275Y-133369D01*
X-203382Y-132476D01*
X-196609Y-132476D01*
X-196599Y-132486D01*
X-196526Y-132529D01*
X-196459Y-132579D01*
X-196405Y-132600D01*
X-196354Y-132630D01*
X-196272Y-132650D01*
X-196194Y-132680D01*
X-196135Y-132685D01*
X-196079Y-132700D01*
X-195994Y-132697D01*
X-195910Y-132704D01*
X-195853Y-132693D01*
X-195794Y-132691D01*
X-195714Y-132665D01*
X-195631Y-132648D01*
X-195579Y-132621D01*
X-195524Y-132603D01*
X-195468Y-132563D01*
X-195379Y-132517D01*
X-195307Y-132448D01*
X-195251Y-132408D01*
X-194810Y-131968D01*
X-194231Y-131633D01*
X-193584Y-131460D01*
X-191874Y-131460D01*
X-191874Y-139642D01*
X-191866Y-139700D01*
X-191868Y-139758D01*
X-191846Y-139840D01*
X-191834Y-139923D01*
X-191811Y-139977D01*
X-191796Y-140033D01*
X-191753Y-140106D01*
X-191718Y-140183D01*
X-191680Y-140227D01*
X-191651Y-140278D01*
X-191589Y-140335D01*
X-191535Y-140400D01*
X-191486Y-140432D01*
X-191443Y-140472D01*
X-191368Y-140511D01*
X-191298Y-140557D01*
X-191242Y-140575D01*
X-191190Y-140602D01*
X-191122Y-140613D01*
X-191027Y-140643D01*
X-190927Y-140646D01*
X-190859Y-140657D01*
X-190141Y-140657D01*
X-190083Y-140649D01*
X-190025Y-140650D01*
X-189943Y-140629D01*
X-189859Y-140617D01*
X-189806Y-140593D01*
X-189750Y-140579D01*
X-189677Y-140535D01*
X-189600Y-140501D01*
X-189555Y-140463D01*
X-189505Y-140433D01*
X-189447Y-140372D01*
X-189383Y-140317D01*
X-189351Y-140269D01*
X-189311Y-140226D01*
X-189272Y-140151D01*
X-189225Y-140081D01*
X-189208Y-140025D01*
X-189181Y-139973D01*
X-189170Y-139905D01*
X-189140Y-139810D01*
X-189137Y-139710D01*
X-189126Y-139642D01*
X-189126Y-131372D01*
X-189138Y-131285D01*
X-189141Y-131198D01*
X-189158Y-131145D01*
X-189166Y-131090D01*
X-189201Y-131011D01*
X-189228Y-130927D01*
X-189231Y-130924D01*
X-189231Y-115265D01*
X-189243Y-115178D01*
X-189246Y-115091D01*
X-189263Y-115038D01*
X-189271Y-114983D01*
X-189306Y-114904D01*
X-189333Y-114820D01*
X-189361Y-114781D01*
X-189387Y-114724D01*
X-189483Y-114611D01*
X-189528Y-114547D01*
X-193992Y-110083D01*
X-194016Y-110065D01*
X-194035Y-110043D01*
X-194129Y-109980D01*
X-194219Y-109912D01*
X-194247Y-109902D01*
X-194271Y-109885D01*
X-194379Y-109851D01*
X-194485Y-109811D01*
X-194514Y-109808D01*
X-194542Y-109800D01*
X-194656Y-109797D01*
X-194768Y-109787D01*
X-194797Y-109793D01*
X-194826Y-109792D01*
X-194936Y-109821D01*
X-195047Y-109843D01*
X-195073Y-109857D01*
X-195101Y-109864D01*
X-195199Y-109922D01*
X-195299Y-109974D01*
X-195321Y-109994D01*
X-195346Y-110009D01*
X-195423Y-110092D01*
X-195505Y-110170D01*
X-195520Y-110195D01*
X-195540Y-110217D01*
X-195592Y-110318D01*
X-195649Y-110415D01*
X-195656Y-110444D01*
X-195670Y-110470D01*
X-195683Y-110547D01*
X-195719Y-110691D01*
X-195717Y-110753D01*
X-195725Y-110801D01*
X-195725Y-120631D01*
X-196618Y-121524D01*
X-203382Y-121524D01*
X-204275Y-120631D01*
X-204275Y-117555D01*
X-204283Y-117497D01*
X-204281Y-117439D01*
X-204303Y-117357D01*
X-204315Y-117273D01*
X-204338Y-117220D01*
X-204353Y-117164D01*
X-204396Y-117091D01*
X-204431Y-117014D01*
X-204469Y-116969D01*
X-204498Y-116919D01*
X-204560Y-116861D01*
X-204614Y-116797D01*
X-204663Y-116765D01*
X-204706Y-116725D01*
X-204781Y-116686D01*
X-204851Y-116639D01*
X-204907Y-116622D01*
X-204959Y-116595D01*
X-205027Y-116584D01*
X-205122Y-116554D01*
X-205222Y-116551D01*
X-205290Y-116540D01*
X-208844Y-116540D01*
X-208902Y-116548D01*
X-208960Y-116546D01*
X-209042Y-116568D01*
X-209126Y-116580D01*
X-209179Y-116603D01*
X-209235Y-116618D01*
X-209308Y-116661D01*
X-209385Y-116696D01*
X-209430Y-116734D01*
X-209480Y-116763D01*
X-209538Y-116825D01*
X-209602Y-116879D01*
X-209634Y-116928D01*
X-209674Y-116971D01*
X-209713Y-117046D01*
X-209760Y-117116D01*
X-209777Y-117172D01*
X-209804Y-117224D01*
X-209815Y-117292D01*
X-209845Y-117387D01*
X-209848Y-117487D01*
X-209859Y-117555D01*
X-209859Y-117801D01*
X-215416Y-117801D01*
X-215474Y-117809D01*
X-215532Y-117807D01*
X-215614Y-117829D01*
X-215697Y-117841D01*
X-215751Y-117864D01*
X-215807Y-117879D01*
X-215880Y-117922D01*
X-215957Y-117957D01*
X-216001Y-117995D01*
X-216052Y-118024D01*
X-216109Y-118086D01*
X-216174Y-118140D01*
X-216206Y-118189D01*
X-216246Y-118232D01*
X-216285Y-118307D01*
X-216331Y-118377D01*
X-216349Y-118433D01*
X-216376Y-118485D01*
X-216387Y-118553D01*
X-216417Y-118648D01*
X-216420Y-118748D01*
X-216424Y-118775D01*
X-216442Y-118777D01*
X-216500Y-118776D01*
X-216582Y-118797D01*
X-216666Y-118809D01*
X-216719Y-118833D01*
X-216775Y-118847D01*
X-216848Y-118891D01*
X-216925Y-118925D01*
X-216970Y-118963D01*
X-217020Y-118993D01*
X-217078Y-119054D01*
X-217142Y-119109D01*
X-217174Y-119157D01*
X-217214Y-119200D01*
X-217253Y-119275D01*
X-217300Y-119345D01*
X-217317Y-119401D01*
X-217344Y-119453D01*
X-217355Y-119521D01*
X-217385Y-119616D01*
X-217388Y-119716D01*
X-217399Y-119784D01*
X-217399Y-124841D01*
X-218694Y-124841D01*
X-218752Y-124849D01*
X-218810Y-124847D01*
X-218892Y-124869D01*
X-218976Y-124881D01*
X-219029Y-124904D01*
X-219085Y-124919D01*
X-219158Y-124962D01*
X-219235Y-124997D01*
X-219280Y-125035D01*
X-219330Y-125064D01*
X-219388Y-125126D01*
X-219452Y-125180D01*
X-219484Y-125229D01*
X-219524Y-125272D01*
X-219563Y-125347D01*
X-219610Y-125417D01*
X-219627Y-125473D01*
X-219654Y-125525D01*
X-219665Y-125593D01*
X-219695Y-125688D01*
X-219698Y-125788D01*
X-219709Y-125856D01*
X-219709Y-156769D01*
X-219697Y-156856D01*
X-219694Y-156943D01*
X-219677Y-156996D01*
X-219669Y-157051D01*
X-219634Y-157130D01*
X-219607Y-157214D01*
X-219579Y-157253D01*
X-219553Y-157310D01*
X-219457Y-157423D01*
X-219412Y-157487D01*
X-181095Y-195803D01*
X-181049Y-195838D01*
X-181008Y-195881D01*
X-180936Y-195924D01*
X-180868Y-195974D01*
X-180814Y-195995D01*
X-180763Y-196025D01*
X-180682Y-196045D01*
X-180603Y-196076D01*
X-180544Y-196080D01*
X-180488Y-196095D01*
X-180403Y-196092D01*
X-180319Y-196099D01*
X-180262Y-196088D01*
X-180204Y-196086D01*
X-180123Y-196060D01*
X-180041Y-196043D01*
X-179989Y-196016D01*
X-179933Y-195998D01*
X-179877Y-195958D01*
X-179788Y-195912D01*
X-179716Y-195844D01*
X-179660Y-195803D01*
X-178532Y-194675D01*
X-170634Y-194675D01*
X-170520Y-194659D01*
X-170406Y-194649D01*
X-170380Y-194639D01*
X-170352Y-194635D01*
X-170248Y-194588D01*
X-170140Y-194547D01*
X-170118Y-194531D01*
X-170093Y-194519D01*
X-170005Y-194445D01*
X-169914Y-194376D01*
X-169897Y-194353D01*
X-169876Y-194336D01*
X-169812Y-194240D01*
X-169744Y-194148D01*
X-169734Y-194122D01*
X-169718Y-194099D01*
X-169684Y-193989D01*
X-169643Y-193882D01*
X-169641Y-193854D01*
X-169633Y-193828D01*
X-169630Y-193713D01*
X-169621Y-193599D01*
X-169626Y-193574D01*
X-169625Y-193544D01*
X-169692Y-193287D01*
X-169696Y-193271D01*
X-170407Y-191556D01*
X-170407Y-189444D01*
X-169599Y-187494D01*
X-168106Y-186001D01*
X-166156Y-185193D01*
X-164044Y-185193D01*
X-162094Y-186001D01*
X-160601Y-187494D01*
X-159793Y-189444D01*
X-159793Y-191556D01*
X-160601Y-193506D01*
X-162078Y-194983D01*
X-162130Y-195053D01*
X-162190Y-195116D01*
X-162216Y-195166D01*
X-162249Y-195210D01*
X-162280Y-195292D01*
X-162320Y-195370D01*
X-162328Y-195417D01*
X-162350Y-195476D01*
X-162362Y-195623D01*
X-162375Y-195701D01*
X-162375Y-207893D01*
X-162371Y-207922D01*
X-162374Y-207951D01*
X-162351Y-208062D01*
X-162335Y-208175D01*
X-162323Y-208201D01*
X-162318Y-208230D01*
X-162266Y-208331D01*
X-162219Y-208434D01*
X-162200Y-208456D01*
X-162187Y-208482D01*
X-162109Y-208564D01*
X-162036Y-208651D01*
X-162011Y-208667D01*
X-161991Y-208689D01*
X-161893Y-208746D01*
X-161799Y-208809D01*
X-161771Y-208817D01*
X-161746Y-208832D01*
X-161636Y-208860D01*
X-161528Y-208894D01*
X-161498Y-208895D01*
X-161470Y-208902D01*
X-161357Y-208899D01*
G37*
%LPC*%
G36*
X-199332Y43275D02*
X-199332Y43275D01*
X-200225Y44168D01*
X-200225Y57432D01*
X-199332Y58325D01*
X-186356Y58325D01*
X-186298Y58333D01*
X-186240Y58331D01*
X-186158Y58353D01*
X-186074Y58365D01*
X-186021Y58388D01*
X-185965Y58403D01*
X-185892Y58446D01*
X-185815Y58481D01*
X-185770Y58519D01*
X-185720Y58548D01*
X-185662Y58610D01*
X-185598Y58664D01*
X-185566Y58713D01*
X-185526Y58756D01*
X-185487Y58831D01*
X-185440Y58901D01*
X-185423Y58957D01*
X-185396Y59009D01*
X-185385Y59077D01*
X-185355Y59172D01*
X-185352Y59272D01*
X-185341Y59340D01*
X-185341Y82860D01*
X-185349Y82918D01*
X-185347Y82976D01*
X-185369Y83058D01*
X-185381Y83142D01*
X-185404Y83195D01*
X-185419Y83251D01*
X-185462Y83324D01*
X-185497Y83401D01*
X-185535Y83446D01*
X-185564Y83496D01*
X-185626Y83554D01*
X-185680Y83618D01*
X-185729Y83650D01*
X-185772Y83690D01*
X-185847Y83729D01*
X-185917Y83776D01*
X-185973Y83793D01*
X-186025Y83820D01*
X-186093Y83831D01*
X-186188Y83861D01*
X-186288Y83864D01*
X-186356Y83875D01*
X-186432Y83875D01*
X-187325Y84768D01*
X-187325Y93032D01*
X-186432Y93925D01*
X-179159Y93925D01*
X-179149Y93915D01*
X-179076Y93872D01*
X-179009Y93822D01*
X-178955Y93801D01*
X-178904Y93771D01*
X-178822Y93751D01*
X-178744Y93721D01*
X-178685Y93716D01*
X-178629Y93701D01*
X-178544Y93704D01*
X-178460Y93697D01*
X-178403Y93708D01*
X-178344Y93710D01*
X-178264Y93736D01*
X-178181Y93753D01*
X-178129Y93780D01*
X-178074Y93798D01*
X-178018Y93838D01*
X-177929Y93884D01*
X-177857Y93953D01*
X-177801Y93993D01*
X-177360Y94433D01*
X-176781Y94768D01*
X-176134Y94941D01*
X-174299Y94941D01*
X-174299Y89384D01*
X-174291Y89326D01*
X-174293Y89268D01*
X-174271Y89186D01*
X-174259Y89103D01*
X-174236Y89049D01*
X-174221Y88993D01*
X-174178Y88920D01*
X-174169Y88901D01*
X-174200Y88855D01*
X-174217Y88799D01*
X-174244Y88747D01*
X-174255Y88679D01*
X-174285Y88584D01*
X-174288Y88484D01*
X-174299Y88416D01*
X-174299Y82859D01*
X-176134Y82859D01*
X-176781Y83032D01*
X-177360Y83367D01*
X-177801Y83807D01*
X-177847Y83842D01*
X-177888Y83885D01*
X-177960Y83928D01*
X-178028Y83978D01*
X-178082Y83999D01*
X-178133Y84029D01*
X-178215Y84050D01*
X-178293Y84080D01*
X-178352Y84084D01*
X-178408Y84099D01*
X-178493Y84096D01*
X-178577Y84103D01*
X-178634Y84092D01*
X-178693Y84090D01*
X-178773Y84064D01*
X-178855Y84047D01*
X-178907Y84020D01*
X-178963Y84002D01*
X-179019Y83962D01*
X-179108Y83916D01*
X-179151Y83875D01*
X-179244Y83875D01*
X-179302Y83867D01*
X-179360Y83869D01*
X-179442Y83847D01*
X-179526Y83835D01*
X-179579Y83812D01*
X-179635Y83797D01*
X-179708Y83754D01*
X-179785Y83719D01*
X-179830Y83681D01*
X-179880Y83652D01*
X-179938Y83590D01*
X-180002Y83536D01*
X-180034Y83487D01*
X-180074Y83444D01*
X-180113Y83369D01*
X-180160Y83299D01*
X-180177Y83243D01*
X-180204Y83191D01*
X-180215Y83123D01*
X-180245Y83028D01*
X-180248Y82928D01*
X-180259Y82860D01*
X-180259Y59340D01*
X-180251Y59282D01*
X-180253Y59224D01*
X-180231Y59142D01*
X-180219Y59058D01*
X-180196Y59005D01*
X-180181Y58949D01*
X-180138Y58876D01*
X-180103Y58799D01*
X-180065Y58754D01*
X-180036Y58704D01*
X-179974Y58646D01*
X-179920Y58582D01*
X-179871Y58550D01*
X-179828Y58510D01*
X-179753Y58471D01*
X-179683Y58424D01*
X-179627Y58407D01*
X-179575Y58380D01*
X-179507Y58369D01*
X-179412Y58339D01*
X-179312Y58336D01*
X-179244Y58325D01*
X-168968Y58325D01*
X-168075Y57432D01*
X-168075Y44168D01*
X-168968Y43275D01*
X-182232Y43275D01*
X-183125Y44168D01*
X-183125Y47244D01*
X-183133Y47302D01*
X-183131Y47360D01*
X-183153Y47442D01*
X-183165Y47526D01*
X-183188Y47579D01*
X-183203Y47635D01*
X-183246Y47708D01*
X-183281Y47785D01*
X-183319Y47830D01*
X-183348Y47880D01*
X-183410Y47938D01*
X-183464Y48002D01*
X-183513Y48034D01*
X-183556Y48074D01*
X-183631Y48113D01*
X-183701Y48160D01*
X-183757Y48177D01*
X-183809Y48204D01*
X-183877Y48215D01*
X-183972Y48245D01*
X-184072Y48248D01*
X-184140Y48259D01*
X-184160Y48259D01*
X-184215Y48252D01*
X-184256Y48253D01*
X-184258Y48252D01*
X-184276Y48253D01*
X-184358Y48231D01*
X-184442Y48219D01*
X-184495Y48196D01*
X-184551Y48181D01*
X-184624Y48138D01*
X-184701Y48103D01*
X-184746Y48065D01*
X-184796Y48036D01*
X-184854Y47974D01*
X-184918Y47920D01*
X-184950Y47871D01*
X-184990Y47828D01*
X-185029Y47753D01*
X-185076Y47683D01*
X-185093Y47627D01*
X-185120Y47575D01*
X-185131Y47507D01*
X-185161Y47412D01*
X-185164Y47312D01*
X-185175Y47244D01*
X-185175Y44168D01*
X-186068Y43275D01*
X-199332Y43275D01*
G37*
%LPD*%
%LPC*%
G36*
X-223132Y-310225D02*
X-223132Y-310225D01*
X-224025Y-309332D01*
X-224025Y-292068D01*
X-223132Y-291175D01*
X-187868Y-291175D01*
X-186975Y-292068D01*
X-186975Y-309332D01*
X-187868Y-310225D01*
X-223132Y-310225D01*
G37*
%LPD*%
%LPC*%
G36*
X-86532Y-224925D02*
X-86532Y-224925D01*
X-87425Y-224032D01*
X-87425Y-207768D01*
X-86532Y-206875D01*
X-82956Y-206875D01*
X-82898Y-206867D01*
X-82840Y-206869D01*
X-82758Y-206847D01*
X-82674Y-206835D01*
X-82621Y-206812D01*
X-82565Y-206797D01*
X-82492Y-206754D01*
X-82415Y-206719D01*
X-82370Y-206681D01*
X-82320Y-206652D01*
X-82262Y-206590D01*
X-82198Y-206536D01*
X-82166Y-206487D01*
X-82126Y-206444D01*
X-82087Y-206369D01*
X-82040Y-206299D01*
X-82023Y-206243D01*
X-81996Y-206191D01*
X-81985Y-206123D01*
X-81955Y-206028D01*
X-81952Y-205928D01*
X-81941Y-205860D01*
X-81941Y-199341D01*
X-81949Y-199283D01*
X-81947Y-199225D01*
X-81969Y-199143D01*
X-81981Y-199059D01*
X-82004Y-199006D01*
X-82019Y-198950D01*
X-82062Y-198877D01*
X-82097Y-198800D01*
X-82135Y-198755D01*
X-82164Y-198705D01*
X-82226Y-198647D01*
X-82280Y-198583D01*
X-82329Y-198551D01*
X-82372Y-198511D01*
X-82447Y-198472D01*
X-82517Y-198425D01*
X-82573Y-198408D01*
X-82625Y-198381D01*
X-82693Y-198370D01*
X-82774Y-198344D01*
X-82801Y-198316D01*
X-82874Y-198273D01*
X-82941Y-198223D01*
X-82995Y-198202D01*
X-83046Y-198172D01*
X-83128Y-198152D01*
X-83207Y-198121D01*
X-83265Y-198117D01*
X-83322Y-198102D01*
X-83406Y-198105D01*
X-83490Y-198098D01*
X-83547Y-198109D01*
X-83606Y-198111D01*
X-83686Y-198137D01*
X-83769Y-198154D01*
X-83820Y-198181D01*
X-83876Y-198199D01*
X-83932Y-198239D01*
X-84021Y-198285D01*
X-84093Y-198353D01*
X-84150Y-198394D01*
X-84590Y-198834D01*
X-85169Y-199169D01*
X-85816Y-199342D01*
X-87526Y-199342D01*
X-87526Y-191160D01*
X-87534Y-191102D01*
X-87532Y-191044D01*
X-87554Y-190962D01*
X-87566Y-190879D01*
X-87589Y-190825D01*
X-87596Y-190801D01*
X-87581Y-190773D01*
X-87570Y-190705D01*
X-87540Y-190610D01*
X-87537Y-190510D01*
X-87526Y-190442D01*
X-87526Y-182260D01*
X-85816Y-182260D01*
X-85169Y-182433D01*
X-84590Y-182768D01*
X-84150Y-183208D01*
X-84103Y-183244D01*
X-84063Y-183286D01*
X-83990Y-183329D01*
X-83922Y-183379D01*
X-83868Y-183400D01*
X-83817Y-183430D01*
X-83736Y-183450D01*
X-83657Y-183481D01*
X-83598Y-183485D01*
X-83542Y-183500D01*
X-83458Y-183497D01*
X-83373Y-183504D01*
X-83316Y-183493D01*
X-83258Y-183491D01*
X-83177Y-183465D01*
X-83095Y-183448D01*
X-83043Y-183421D01*
X-82987Y-183403D01*
X-82931Y-183363D01*
X-82842Y-183317D01*
X-82799Y-183276D01*
X-76018Y-183276D01*
X-75125Y-184169D01*
X-75125Y-197433D01*
X-76047Y-198354D01*
X-76126Y-198366D01*
X-76179Y-198389D01*
X-76235Y-198404D01*
X-76308Y-198447D01*
X-76385Y-198482D01*
X-76430Y-198520D01*
X-76480Y-198549D01*
X-76538Y-198611D01*
X-76602Y-198665D01*
X-76634Y-198714D01*
X-76674Y-198757D01*
X-76713Y-198832D01*
X-76760Y-198902D01*
X-76777Y-198958D01*
X-76804Y-199010D01*
X-76815Y-199078D01*
X-76845Y-199173D01*
X-76848Y-199273D01*
X-76859Y-199341D01*
X-76859Y-205860D01*
X-76851Y-205918D01*
X-76853Y-205976D01*
X-76831Y-206058D01*
X-76819Y-206142D01*
X-76796Y-206195D01*
X-76781Y-206251D01*
X-76738Y-206324D01*
X-76703Y-206401D01*
X-76665Y-206446D01*
X-76636Y-206496D01*
X-76574Y-206554D01*
X-76520Y-206618D01*
X-76471Y-206650D01*
X-76428Y-206690D01*
X-76353Y-206729D01*
X-76283Y-206776D01*
X-76227Y-206793D01*
X-76175Y-206820D01*
X-76107Y-206831D01*
X-76012Y-206861D01*
X-75912Y-206864D01*
X-75844Y-206875D01*
X-72268Y-206875D01*
X-71375Y-207768D01*
X-71375Y-224032D01*
X-72268Y-224925D01*
X-86532Y-224925D01*
G37*
%LPD*%
%LPC*%
G36*
X-203532Y-70375D02*
X-203532Y-70375D01*
X-204425Y-69482D01*
X-204425Y-62693D01*
X-204404Y-62658D01*
X-204353Y-62591D01*
X-204332Y-62536D01*
X-204303Y-62486D01*
X-204282Y-62404D01*
X-204252Y-62325D01*
X-204247Y-62267D01*
X-204233Y-62210D01*
X-204235Y-62126D01*
X-204229Y-62042D01*
X-204240Y-61984D01*
X-204242Y-61926D01*
X-204268Y-61846D01*
X-204284Y-61763D01*
X-204311Y-61711D01*
X-204329Y-61655D01*
X-204369Y-61599D01*
X-204415Y-61511D01*
X-204425Y-61501D01*
X-204425Y-54693D01*
X-204404Y-54658D01*
X-204353Y-54591D01*
X-204332Y-54536D01*
X-204303Y-54486D01*
X-204282Y-54404D01*
X-204252Y-54325D01*
X-204247Y-54267D01*
X-204233Y-54210D01*
X-204235Y-54126D01*
X-204229Y-54042D01*
X-204240Y-53984D01*
X-204242Y-53926D01*
X-204268Y-53846D01*
X-204284Y-53763D01*
X-204311Y-53711D01*
X-204329Y-53655D01*
X-204369Y-53599D01*
X-204415Y-53511D01*
X-204425Y-53501D01*
X-204425Y-47339D01*
X-204437Y-47252D01*
X-204440Y-47165D01*
X-204457Y-47112D01*
X-204465Y-47057D01*
X-204500Y-46978D01*
X-204527Y-46894D01*
X-204555Y-46855D01*
X-204581Y-46798D01*
X-204677Y-46685D01*
X-204722Y-46621D01*
X-204933Y-46410D01*
X-205268Y-45831D01*
X-205441Y-45184D01*
X-205441Y-43474D01*
X-195759Y-43474D01*
X-195701Y-43466D01*
X-195643Y-43468D01*
X-195561Y-43446D01*
X-195478Y-43434D01*
X-195424Y-43411D01*
X-195400Y-43404D01*
X-195372Y-43419D01*
X-195304Y-43430D01*
X-195209Y-43460D01*
X-195109Y-43463D01*
X-195041Y-43474D01*
X-185359Y-43474D01*
X-185359Y-45184D01*
X-185532Y-45831D01*
X-185867Y-46410D01*
X-186078Y-46621D01*
X-186130Y-46691D01*
X-186190Y-46755D01*
X-186216Y-46804D01*
X-186249Y-46848D01*
X-186280Y-46930D01*
X-186320Y-47008D01*
X-186328Y-47055D01*
X-186350Y-47114D01*
X-186362Y-47262D01*
X-186375Y-47339D01*
X-186375Y-53506D01*
X-186396Y-53542D01*
X-186447Y-53609D01*
X-186468Y-53664D01*
X-186497Y-53714D01*
X-186518Y-53796D01*
X-186548Y-53875D01*
X-186553Y-53933D01*
X-186567Y-53990D01*
X-186564Y-54074D01*
X-186572Y-54158D01*
X-186560Y-54216D01*
X-186558Y-54274D01*
X-186532Y-54354D01*
X-186516Y-54437D01*
X-186489Y-54489D01*
X-186471Y-54545D01*
X-186431Y-54601D01*
X-186385Y-54689D01*
X-186375Y-54699D01*
X-186375Y-61506D01*
X-186396Y-61542D01*
X-186447Y-61609D01*
X-186468Y-61664D01*
X-186497Y-61714D01*
X-186518Y-61796D01*
X-186548Y-61875D01*
X-186553Y-61933D01*
X-186567Y-61990D01*
X-186564Y-62074D01*
X-186572Y-62158D01*
X-186560Y-62216D01*
X-186558Y-62274D01*
X-186532Y-62354D01*
X-186516Y-62437D01*
X-186489Y-62489D01*
X-186471Y-62545D01*
X-186431Y-62601D01*
X-186385Y-62689D01*
X-186375Y-62699D01*
X-186375Y-69482D01*
X-187268Y-70375D01*
X-203532Y-70375D01*
G37*
%LPD*%
G36*
X-170808Y-165373D02*
X-170808Y-165373D01*
X-170750Y-165374D01*
X-170668Y-165353D01*
X-170584Y-165341D01*
X-170531Y-165317D01*
X-170475Y-165303D01*
X-170402Y-165259D01*
X-170325Y-165225D01*
X-170280Y-165187D01*
X-170230Y-165157D01*
X-170172Y-165096D01*
X-170108Y-165041D01*
X-170076Y-164993D01*
X-170036Y-164950D01*
X-169997Y-164875D01*
X-169950Y-164805D01*
X-169933Y-164749D01*
X-169906Y-164697D01*
X-169895Y-164629D01*
X-169865Y-164534D01*
X-169862Y-164434D01*
X-169851Y-164366D01*
X-169851Y-158059D01*
X-168986Y-158059D01*
X-168957Y-158055D01*
X-168928Y-158058D01*
X-168817Y-158035D01*
X-168704Y-158019D01*
X-168678Y-158007D01*
X-168649Y-158002D01*
X-168548Y-157950D01*
X-168445Y-157903D01*
X-168423Y-157884D01*
X-168397Y-157871D01*
X-168315Y-157793D01*
X-168228Y-157720D01*
X-168212Y-157695D01*
X-168190Y-157675D01*
X-168133Y-157577D01*
X-168070Y-157483D01*
X-168062Y-157455D01*
X-168047Y-157430D01*
X-168019Y-157320D01*
X-167985Y-157212D01*
X-167984Y-157182D01*
X-167977Y-157154D01*
X-167980Y-157041D01*
X-167977Y-156928D01*
X-167985Y-156899D01*
X-167986Y-156870D01*
X-168021Y-156762D01*
X-168049Y-156653D01*
X-168064Y-156627D01*
X-168073Y-156599D01*
X-168119Y-156536D01*
X-168194Y-156408D01*
X-168240Y-156365D01*
X-168268Y-156326D01*
X-176771Y-147823D01*
X-176841Y-147771D01*
X-176905Y-147711D01*
X-176954Y-147685D01*
X-176998Y-147652D01*
X-177080Y-147621D01*
X-177158Y-147581D01*
X-177205Y-147573D01*
X-177264Y-147551D01*
X-177412Y-147539D01*
X-177489Y-147526D01*
X-184392Y-147526D01*
X-184401Y-147516D01*
X-184474Y-147473D01*
X-184541Y-147423D01*
X-184595Y-147402D01*
X-184646Y-147372D01*
X-184728Y-147352D01*
X-184807Y-147321D01*
X-184865Y-147317D01*
X-184922Y-147302D01*
X-185006Y-147305D01*
X-185090Y-147298D01*
X-185147Y-147309D01*
X-185206Y-147311D01*
X-185286Y-147337D01*
X-185369Y-147354D01*
X-185420Y-147381D01*
X-185476Y-147399D01*
X-185532Y-147439D01*
X-185621Y-147485D01*
X-185693Y-147553D01*
X-185750Y-147594D01*
X-186190Y-148034D01*
X-186769Y-148369D01*
X-187416Y-148542D01*
X-188257Y-148542D01*
X-188286Y-148546D01*
X-188316Y-148543D01*
X-188427Y-148566D01*
X-188539Y-148582D01*
X-188565Y-148594D01*
X-188594Y-148599D01*
X-188695Y-148651D01*
X-188798Y-148698D01*
X-188821Y-148717D01*
X-188847Y-148730D01*
X-188929Y-148808D01*
X-189015Y-148881D01*
X-189031Y-148906D01*
X-189053Y-148926D01*
X-189110Y-149024D01*
X-189173Y-149118D01*
X-189182Y-149146D01*
X-189196Y-149171D01*
X-189224Y-149281D01*
X-189259Y-149389D01*
X-189259Y-149419D01*
X-189266Y-149447D01*
X-189263Y-149560D01*
X-189266Y-149673D01*
X-189258Y-149702D01*
X-189257Y-149731D01*
X-189223Y-149839D01*
X-189194Y-149948D01*
X-189179Y-149974D01*
X-189170Y-150002D01*
X-189124Y-150065D01*
X-189049Y-150193D01*
X-189003Y-150236D01*
X-188975Y-150275D01*
X-179168Y-160082D01*
X-179137Y-160105D01*
X-179111Y-160135D01*
X-179024Y-160191D01*
X-178941Y-160253D01*
X-178904Y-160267D01*
X-178872Y-160288D01*
X-178772Y-160317D01*
X-178675Y-160354D01*
X-178636Y-160357D01*
X-178599Y-160368D01*
X-178495Y-160369D01*
X-178392Y-160378D01*
X-178354Y-160370D01*
X-178315Y-160370D01*
X-178215Y-160342D01*
X-178113Y-160322D01*
X-178079Y-160304D01*
X-178041Y-160293D01*
X-177953Y-160238D01*
X-177861Y-160191D01*
X-177833Y-160164D01*
X-177799Y-160143D01*
X-177730Y-160066D01*
X-177655Y-159995D01*
X-177635Y-159961D01*
X-177609Y-159932D01*
X-177577Y-159862D01*
X-177511Y-159750D01*
X-177493Y-159678D01*
X-177470Y-159627D01*
X-177468Y-159619D01*
X-177133Y-159040D01*
X-176660Y-158567D01*
X-176081Y-158232D01*
X-175434Y-158059D01*
X-173349Y-158059D01*
X-173349Y-164366D01*
X-173341Y-164424D01*
X-173343Y-164482D01*
X-173321Y-164564D01*
X-173309Y-164647D01*
X-173286Y-164701D01*
X-173271Y-164757D01*
X-173228Y-164830D01*
X-173193Y-164907D01*
X-173155Y-164951D01*
X-173126Y-165002D01*
X-173064Y-165059D01*
X-173010Y-165124D01*
X-172961Y-165156D01*
X-172918Y-165196D01*
X-172843Y-165235D01*
X-172773Y-165281D01*
X-172717Y-165299D01*
X-172665Y-165326D01*
X-172597Y-165337D01*
X-172502Y-165367D01*
X-172402Y-165370D01*
X-172334Y-165381D01*
X-170866Y-165381D01*
X-170808Y-165373D01*
G37*
%LPC*%
G36*
X-151469Y-264241D02*
X-151469Y-264241D01*
X-151469Y-258731D01*
X-127959Y-258731D01*
X-127959Y-262034D01*
X-128132Y-262681D01*
X-128467Y-263260D01*
X-128940Y-263733D01*
X-129519Y-264068D01*
X-130166Y-264241D01*
X-151469Y-264241D01*
G37*
%LPD*%
%LPC*%
G36*
X-151469Y-254669D02*
X-151469Y-254669D01*
X-151469Y-249159D01*
X-130166Y-249159D01*
X-129519Y-249332D01*
X-128940Y-249667D01*
X-128467Y-250140D01*
X-128132Y-250719D01*
X-127959Y-251366D01*
X-127959Y-254669D01*
X-151469Y-254669D01*
G37*
%LPD*%
%LPC*%
G36*
X-82782Y-172324D02*
X-82782Y-172324D01*
X-83675Y-171431D01*
X-83675Y-158167D01*
X-82782Y-157274D01*
X-76018Y-157274D01*
X-75125Y-158167D01*
X-75125Y-171431D01*
X-76018Y-172324D01*
X-82782Y-172324D01*
G37*
%LPD*%
%LPC*%
G36*
X-215139Y-190755D02*
X-215139Y-190755D01*
X-215139Y-184911D01*
X-203957Y-184911D01*
X-204010Y-185177D01*
X-204604Y-186610D01*
X-205465Y-187900D01*
X-206562Y-188997D01*
X-207852Y-189858D01*
X-209285Y-190452D01*
X-210806Y-190755D01*
X-215139Y-190755D01*
G37*
%LPD*%
%LPC*%
G36*
X-215139Y-256795D02*
X-215139Y-256795D01*
X-215139Y-250951D01*
X-203957Y-250951D01*
X-204010Y-251217D01*
X-204604Y-252650D01*
X-205465Y-253940D01*
X-206562Y-255037D01*
X-207852Y-255898D01*
X-209285Y-256492D01*
X-210806Y-256795D01*
X-215139Y-256795D01*
G37*
%LPD*%
%LPC*%
G36*
X-97869Y46459D02*
X-97869Y46459D01*
X-97869Y51969D01*
X-90359Y51969D01*
X-90359Y48666D01*
X-90532Y48019D01*
X-90867Y47440D01*
X-91340Y46967D01*
X-91919Y46632D01*
X-92566Y46459D01*
X-97869Y46459D01*
G37*
%LPD*%
%LPC*%
G36*
X-93734Y-50641D02*
X-93734Y-50641D01*
X-94381Y-50468D01*
X-94960Y-50133D01*
X-95433Y-49660D01*
X-95768Y-49081D01*
X-95941Y-48434D01*
X-95941Y-46349D01*
X-90649Y-46349D01*
X-90649Y-50641D01*
X-93734Y-50641D01*
G37*
%LPD*%
%LPC*%
G36*
X-119134Y-215741D02*
X-119134Y-215741D01*
X-119781Y-215568D01*
X-120360Y-215233D01*
X-120833Y-214760D01*
X-121168Y-214181D01*
X-121341Y-213534D01*
X-121341Y-211449D01*
X-116049Y-211449D01*
X-116049Y-215741D01*
X-119134Y-215741D01*
G37*
%LPD*%
%LPC*%
G36*
X-146741Y71749D02*
X-146741Y71749D01*
X-146741Y73834D01*
X-146568Y74481D01*
X-146233Y75060D01*
X-145760Y75533D01*
X-145181Y75868D01*
X-144534Y76041D01*
X-141449Y76041D01*
X-141449Y71749D01*
X-146741Y71749D01*
G37*
%LPD*%
%LPC*%
G36*
X-137951Y71749D02*
X-137951Y71749D01*
X-137951Y76041D01*
X-134866Y76041D01*
X-134219Y75868D01*
X-133640Y75533D01*
X-133167Y75060D01*
X-132832Y74481D01*
X-132659Y73834D01*
X-132659Y71749D01*
X-137951Y71749D01*
G37*
%LPD*%
%LPC*%
G36*
X-214151Y-63341D02*
X-214151Y-63341D01*
X-214151Y-59049D01*
X-208859Y-59049D01*
X-208859Y-61134D01*
X-209032Y-61781D01*
X-209367Y-62360D01*
X-209840Y-62833D01*
X-210419Y-63168D01*
X-211066Y-63341D01*
X-214151Y-63341D01*
G37*
%LPD*%
%LPC*%
G36*
X-125251Y-190341D02*
X-125251Y-190341D01*
X-125251Y-186049D01*
X-119959Y-186049D01*
X-119959Y-188134D01*
X-120132Y-188781D01*
X-120467Y-189360D01*
X-120940Y-189833D01*
X-121519Y-190168D01*
X-122166Y-190341D01*
X-125251Y-190341D01*
G37*
%LPD*%
%LPC*%
G36*
X-118134Y52959D02*
X-118134Y52959D01*
X-118781Y53132D01*
X-119360Y53467D01*
X-119833Y53940D01*
X-120168Y54519D01*
X-120341Y55166D01*
X-120341Y57001D01*
X-115799Y57001D01*
X-115799Y52959D01*
X-118134Y52959D01*
G37*
%LPD*%
%LPC*%
G36*
X-214401Y-124841D02*
X-214401Y-124841D01*
X-214401Y-120799D01*
X-209859Y-120799D01*
X-209859Y-122634D01*
X-210032Y-123281D01*
X-210367Y-123860D01*
X-210840Y-124333D01*
X-211419Y-124668D01*
X-212066Y-124841D01*
X-214401Y-124841D01*
G37*
%LPD*%
%LPC*%
G36*
X-171301Y90399D02*
X-171301Y90399D01*
X-171301Y94941D01*
X-169466Y94941D01*
X-168819Y94768D01*
X-168240Y94433D01*
X-167767Y93960D01*
X-167432Y93381D01*
X-167259Y92734D01*
X-167259Y90399D01*
X-171301Y90399D01*
G37*
%LPD*%
%LPC*%
G36*
X-171301Y82859D02*
X-171301Y82859D01*
X-171301Y87401D01*
X-167259Y87401D01*
X-167259Y85066D01*
X-167432Y84419D01*
X-167767Y83840D01*
X-168240Y83367D01*
X-168819Y83032D01*
X-169466Y82859D01*
X-171301Y82859D01*
G37*
%LPD*%
D10*
X-175600Y50800D03*
X-154600Y50800D03*
X-192700Y50800D03*
X-213700Y50800D03*
D11*
X-109400Y-66100D03*
X-109400Y-58100D03*
X-109400Y-50100D03*
X-109400Y-42100D03*
X-109400Y-34100D03*
X-109400Y-26100D03*
X-109400Y-18100D03*
X-109400Y-10100D03*
D12*
X-124400Y4900D03*
X-132400Y4900D03*
X-140400Y4900D03*
X-148400Y4900D03*
X-156400Y4900D03*
X-164400Y4900D03*
X-172400Y4900D03*
X-180400Y4900D03*
D11*
X-195400Y-10100D03*
X-195400Y-18100D03*
X-195400Y-26100D03*
X-195400Y-34100D03*
X-195400Y-42100D03*
X-195400Y-50100D03*
X-195400Y-58100D03*
X-195400Y-66100D03*
D12*
X-180400Y-81100D03*
X-172400Y-81100D03*
X-164400Y-81100D03*
X-156400Y-81100D03*
X-148400Y-81100D03*
X-140400Y-81100D03*
X-132400Y-81100D03*
X-124400Y-81100D03*
D13*
X-96600Y-101600D03*
X-106600Y-101600D03*
X-182800Y88900D03*
X-172800Y88900D03*
D14*
X-114300Y58500D03*
X-114300Y68500D03*
D15*
X-139700Y57000D03*
X-139700Y70000D03*
D16*
X-98400Y-190801D03*
X-88900Y-190801D03*
X-79400Y-190801D03*
X-79400Y-164799D03*
X-98400Y-164799D03*
D17*
X-133900Y-203200D03*
X-170900Y-203200D03*
D16*
X-200000Y-140001D03*
X-190500Y-140001D03*
X-181000Y-140001D03*
X-181000Y-113999D03*
X-200000Y-113999D03*
D10*
X-129200Y-114300D03*
X-150200Y-114300D03*
D15*
X-215900Y-44300D03*
X-215900Y-57300D03*
X-114300Y-196700D03*
X-114300Y-209700D03*
X-88900Y-31600D03*
X-88900Y-44600D03*
X-127000Y-171300D03*
X-127000Y-184300D03*
D13*
X-144700Y-139700D03*
X-134700Y-139700D03*
D14*
X-215900Y-119300D03*
X-215900Y-109300D03*
D18*
X-158600Y-165100D03*
X-171600Y-165100D03*
D19*
X-79400Y-215900D03*
X-98400Y-215900D03*
D20*
X-77900Y63500D03*
X-99900Y54000D03*
X-99900Y73000D03*
D21*
X-153500Y-276700D03*
X-153500Y-256700D03*
D22*
X-205500Y-300700D03*
X-205500Y-232700D03*
D23*
X-211582Y-248920D02*
X-222758Y-248920D01*
X-222758Y-182880D02*
X-211582Y-182880D01*
D24*
X-203200Y0D03*
D25*
X-187881Y6322D02*
X-186459Y4900D01*
X-180400Y4900D01*
X-196878Y6322D02*
X-203200Y0D01*
X-196878Y6322D02*
X-187881Y6322D01*
D24*
X-190500Y0D03*
D25*
X-190500Y-5200D01*
X-195400Y-10100D01*
X-145690Y-89652D02*
X-144202Y-91140D01*
X-145690Y-83810D02*
X-148400Y-81100D01*
X-145690Y-83810D02*
X-145690Y-89652D01*
X-117060Y-91140D02*
X-106600Y-101600D01*
X-117060Y-91140D02*
X-144202Y-91140D01*
D24*
X-152400Y-63500D03*
D25*
X-148400Y-67500D01*
X-148400Y-81100D01*
D24*
X-177800Y-12700D03*
D25*
X-175110Y-3652D02*
X-175110Y2190D01*
X-172400Y4900D01*
X-177800Y-6342D02*
X-177800Y-12700D01*
X-177800Y-6342D02*
X-175110Y-3652D01*
D24*
X-139700Y88900D03*
D25*
X-139700Y82550D01*
X-139700Y70000D01*
X-109800Y54000D02*
X-99900Y54000D01*
X-109800Y54000D02*
X-114300Y58500D01*
X-88900Y-44600D02*
X-94400Y-50100D01*
X-95250Y-50100D01*
X-109400Y-50100D01*
X-109400Y-34100D02*
X-99400Y-34100D01*
X-88900Y-44600D01*
X-205440Y-46840D02*
X-215900Y-57300D01*
X-205440Y-46840D02*
X-205440Y-46298D01*
X-201242Y-42100D01*
X-195400Y-42100D01*
X-117952Y-47390D02*
X-112110Y-47390D01*
X-109400Y-50100D01*
X-123242Y-42100D02*
X-195400Y-42100D01*
X-123242Y-42100D02*
X-117952Y-47390D01*
X-190500Y-140001D02*
X-186290Y-144211D01*
X-186290Y-147053D01*
X-203739Y-131461D02*
X-215900Y-119300D01*
X-203739Y-131461D02*
X-196198Y-131461D01*
X-194710Y-132949D01*
X-194710Y-135791D01*
X-190500Y-140001D01*
X-90848Y-225940D02*
X-89360Y-224452D01*
X-90848Y-225940D02*
X-105952Y-225940D01*
X-107440Y-224452D01*
X-107440Y-216560D01*
X-114300Y-209700D01*
X-89360Y-191261D02*
X-88900Y-190801D01*
X-89360Y-191261D02*
X-89360Y-224452D01*
X-94598Y-182261D02*
X-102202Y-182261D01*
X-94598Y-182261D02*
X-93110Y-183749D01*
X-93110Y-186591D01*
X-88900Y-190801D01*
X-104241Y-184300D02*
X-127000Y-184300D01*
X-104241Y-184300D02*
X-102202Y-182261D01*
X-171600Y-165100D02*
X-171600Y-158600D01*
X-177800Y-152400D01*
D24*
X-177800Y-152400D03*
D25*
X-180943Y-152400D01*
X-186290Y-147053D01*
X-172800Y88900D02*
X-139700Y88900D01*
X-127000Y69850D02*
X-114300Y57150D01*
X-127000Y69850D02*
X-139700Y69850D01*
X-114300Y58500D02*
X-114300Y57150D01*
X-139700Y69850D02*
X-139700Y70000D01*
X-88900Y-114300D02*
X-88900Y-190801D01*
X-88900Y-114300D02*
X-63500Y-88900D01*
X-63500Y82550D01*
X-139700Y82550D01*
X-95250Y-50100D02*
X-95250Y-57150D01*
D24*
X-95250Y-57150D03*
D25*
X-114300Y-217500D02*
X-153500Y-256700D01*
X-114300Y-217500D02*
X-114300Y-209700D01*
D24*
X-114300Y-266700D03*
D25*
X-124300Y-256700D02*
X-153500Y-256700D01*
X-124300Y-256700D02*
X-114300Y-266700D01*
D24*
X-139700Y-63500D03*
D25*
X-123590Y-47390D01*
X-117952Y-47390D01*
X-127960Y-282752D02*
X-129448Y-284240D01*
X-127960Y-280360D02*
X-114300Y-266700D01*
X-127960Y-280360D02*
X-127960Y-282752D01*
X-129448Y-284240D02*
X-181850Y-284240D01*
X-217170Y-248920D01*
X-223552Y-243240D02*
X-225040Y-241752D01*
X-225040Y-223648D01*
X-222850Y-243240D02*
X-217170Y-248920D01*
X-222850Y-243240D02*
X-223552Y-243240D01*
X-217170Y-215778D02*
X-217170Y-182880D01*
X-217170Y-215778D02*
X-225040Y-223648D01*
X-135110Y7610D02*
X-135110Y17051D01*
X-135110Y7610D02*
X-132400Y4900D01*
X-194622Y31722D02*
X-213700Y50800D01*
X-194622Y31722D02*
X-149781Y31722D01*
X-135110Y17051D01*
X-177800Y50800D02*
X-187800Y50800D01*
X-177800Y50800D02*
X-175600Y50800D01*
X-182800Y55800D02*
X-182800Y88900D01*
X-182800Y55800D02*
X-177800Y50800D01*
X-182800Y55800D02*
X-187800Y50800D01*
X-192700Y50800D01*
X-148400Y21400D02*
X-148400Y4900D01*
X-148400Y21400D02*
X-152400Y25400D01*
D24*
X-152400Y25400D03*
D25*
X-108458Y-67564D02*
X-104902Y-67564D01*
X-94234Y-78232D01*
X-108458Y-67564D02*
X-109400Y-66100D01*
D24*
X-94234Y-78232D03*
D25*
X-110236Y-58674D02*
X-117348Y-58674D01*
X-120904Y-62230D01*
X-120904Y-69342D01*
X-115570Y-74676D01*
X-110236Y-58674D02*
X-109400Y-58100D01*
D24*
X-115570Y-74676D03*
D25*
X-78232Y-94234D02*
X-78232Y62230D01*
X-78232Y-94234D02*
X-87122Y-103124D01*
X-78232Y62230D02*
X-77900Y63500D01*
D24*
X-87122Y-103124D03*
D25*
X-146022Y35481D02*
X-146022Y50800D01*
X-124400Y13859D02*
X-124400Y4900D01*
X-124400Y13859D02*
X-146022Y35481D01*
X-146022Y50800D02*
X-154600Y50800D01*
D24*
X-139700Y38100D03*
D25*
X-139700Y57000D01*
X-94400Y-26100D02*
X-88900Y-31600D01*
X-94400Y-26100D02*
X-109400Y-26100D01*
X-119440Y-37902D02*
X-117952Y-39390D01*
X-119440Y-37902D02*
X-119440Y-30298D01*
X-117952Y-28810D01*
X-112110Y-39390D02*
X-109400Y-42100D01*
X-112110Y-39390D02*
X-117952Y-39390D01*
X-117952Y-28810D02*
X-112110Y-28810D01*
X-109400Y-26100D01*
X-192690Y-20810D02*
X-195400Y-18100D01*
X-192690Y-20810D02*
X-186848Y-20810D01*
X-178848Y-28810D02*
X-120904Y-28810D01*
X-117952Y-28810D01*
X-178848Y-28810D02*
X-186848Y-20810D01*
X-98400Y-164799D02*
X-104901Y-171300D01*
X-127000Y-171300D01*
X-138684Y33782D02*
X-138684Y37338D01*
X-138684Y33782D02*
X-117348Y12446D01*
X-117348Y-3556D01*
X-120904Y-7112D01*
X-120904Y-28810D01*
X-138684Y37338D02*
X-139700Y38100D01*
X-97790Y-108458D02*
X-97790Y-163576D01*
X-97790Y-108458D02*
X-97790Y-103124D01*
X-96600Y-101600D01*
X-97790Y-163576D02*
X-98400Y-164799D01*
X-96012Y-101346D02*
X-87122Y-92456D01*
X-96012Y-101346D02*
X-96600Y-101600D01*
X-195580Y-19558D02*
X-204470Y-19558D01*
X-224028Y-39116D01*
X-224028Y-62230D01*
X-184912Y-101346D01*
X-117348Y-101346D01*
X-110236Y-108458D01*
X-97790Y-108458D01*
X-195580Y-19558D02*
X-195400Y-18100D01*
D24*
X-87122Y-92456D03*
D25*
X-150501Y-113999D02*
X-181000Y-113999D01*
X-150501Y-113999D02*
X-150200Y-114300D01*
X-98400Y-190801D02*
X-98400Y-215900D01*
X-114300Y-196700D02*
X-108401Y-190801D01*
X-98400Y-190801D01*
X-127400Y-196700D02*
X-133900Y-203200D01*
X-127400Y-196700D02*
X-114300Y-196700D01*
X-145796Y-113792D02*
X-149352Y-113792D01*
X-145796Y-113792D02*
X-136906Y-104902D01*
X-122682Y-104902D01*
X-119126Y-108458D01*
X-119126Y-151130D01*
X-135128Y-167132D01*
X-135128Y-190246D01*
X-128016Y-197358D01*
X-150200Y-114300D02*
X-149352Y-113792D01*
X-128016Y-197358D02*
X-133900Y-203200D01*
X-135128Y-204470D02*
X-152908Y-204470D01*
X-176022Y-227584D01*
X-135128Y-204470D02*
X-133900Y-203200D01*
D24*
X-176022Y-227584D03*
D25*
X-158600Y-162401D02*
X-181000Y-140001D01*
X-158600Y-162401D02*
X-158600Y-165100D01*
X-172466Y-202692D02*
X-177800Y-202692D01*
X-177292Y-203200D02*
X-222250Y-158242D01*
X-222250Y-104902D01*
X-220472Y-103124D01*
X-197358Y-103124D01*
X-186690Y-113792D01*
X-186690Y-129794D01*
X-181356Y-135128D01*
X-181356Y-138684D01*
X-172466Y-202692D02*
X-170900Y-203200D01*
X-181000Y-140001D02*
X-181356Y-138684D01*
X-158242Y-163576D02*
X-151130Y-156464D01*
X-158242Y-163576D02*
X-158600Y-165100D01*
D24*
X-151130Y-156464D03*
D25*
X-165960Y-264240D02*
X-153500Y-276700D01*
X-165960Y-264240D02*
X-177552Y-264240D01*
X-170900Y-213521D02*
X-170900Y-203200D01*
X-170900Y-213521D02*
X-182344Y-224965D01*
X-182344Y-259448D02*
X-177552Y-264240D01*
X-182344Y-259448D02*
X-182344Y-224965D01*
D24*
X-165100Y-190500D03*
D25*
X-165100Y-203200D02*
X-170900Y-203200D01*
X-165100Y-203200D02*
X-165100Y-190500D01*
X-170900Y-203200D02*
X-177292Y-203200D01*
X-79400Y-190801D02*
X-79400Y-215900D01*
X-129200Y-134200D02*
X-129200Y-114300D01*
X-129200Y-134200D02*
X-134700Y-139700D01*
X-211440Y-113760D02*
X-215900Y-109300D01*
X-211440Y-113760D02*
X-211348Y-113760D01*
X-211109Y-113999D01*
X-200000Y-113999D01*
X-195400Y-34100D02*
X-205700Y-34100D01*
X-215900Y-44300D01*
X-144700Y-139700D02*
X-144700Y-170100D01*
X-152400Y-177800D01*
X-195790Y-147053D02*
X-195790Y-144211D01*
X-200000Y-140001D01*
X-177640Y-165203D02*
X-177640Y-170652D01*
X-177640Y-165203D02*
X-195790Y-147053D01*
X-170492Y-177800D02*
X-152400Y-177800D01*
X-170492Y-177800D02*
X-177640Y-170652D01*
X-114300Y68500D02*
X-109800Y73000D01*
X-99900Y73000D01*
X-101346Y-81788D02*
X-122682Y-81788D01*
X-101346Y-81788D02*
X-97790Y-85344D01*
X-90678Y-85344D01*
X-81788Y-76454D01*
X-81788Y51562D01*
X-103124Y72898D01*
X-124400Y-81100D02*
X-122682Y-81788D01*
X-103124Y72898D02*
X-99900Y73000D01*
M02*
