G04 EAGLE Gerber RS-274X export*
G75*
%MOMM*%
%FSLAX34Y34*%
%LPD*%
%INSoldermask Top*%
%IPPOS*%
%AMOC8*
5,1,8,0,0,1.08239X$1,22.5*%
G01*
%ADD10R,1.403200X1.403200*%
%ADD11R,1.703200X0.753200*%
%ADD12R,0.753200X1.703200*%
%ADD13R,0.803200X0.903200*%
%ADD14R,0.903200X0.803200*%
%ADD15R,1.103200X0.903200*%
%ADD16R,0.753200X1.403200*%
%ADD17R,1.603200X1.603200*%
%ADD18R,0.903200X1.103200*%
%ADD19R,1.503200X1.703200*%
%ADD20R,1.603200X1.203200*%
%ADD21R,4.803200X1.203200*%
%ADD22R,3.603200X1.803200*%
%ADD23C,1.270000*%
%ADD24C,0.959600*%


D10*
X-175600Y50800D03*
X-154600Y50800D03*
X-192700Y50800D03*
X-213700Y50800D03*
D11*
X-109400Y-66100D03*
X-109400Y-58100D03*
X-109400Y-50100D03*
X-109400Y-42100D03*
X-109400Y-34100D03*
X-109400Y-26100D03*
X-109400Y-18100D03*
X-109400Y-10100D03*
D12*
X-124400Y4900D03*
X-132400Y4900D03*
X-140400Y4900D03*
X-148400Y4900D03*
X-156400Y4900D03*
X-164400Y4900D03*
X-172400Y4900D03*
X-180400Y4900D03*
D11*
X-195400Y-10100D03*
X-195400Y-18100D03*
X-195400Y-26100D03*
X-195400Y-34100D03*
X-195400Y-42100D03*
X-195400Y-50100D03*
X-195400Y-58100D03*
X-195400Y-66100D03*
D12*
X-180400Y-81100D03*
X-172400Y-81100D03*
X-164400Y-81100D03*
X-156400Y-81100D03*
X-148400Y-81100D03*
X-140400Y-81100D03*
X-132400Y-81100D03*
X-124400Y-81100D03*
D13*
X-96600Y-101600D03*
X-106600Y-101600D03*
X-182800Y88900D03*
X-172800Y88900D03*
D14*
X-114300Y58500D03*
X-114300Y68500D03*
D15*
X-139700Y57000D03*
X-139700Y70000D03*
D16*
X-98400Y-190801D03*
X-88900Y-190801D03*
X-79400Y-190801D03*
X-79400Y-164799D03*
X-98400Y-164799D03*
D17*
X-133900Y-203200D03*
X-170900Y-203200D03*
D16*
X-200000Y-140001D03*
X-190500Y-140001D03*
X-181000Y-140001D03*
X-181000Y-113999D03*
X-200000Y-113999D03*
D10*
X-129200Y-114300D03*
X-150200Y-114300D03*
D15*
X-215900Y-44300D03*
X-215900Y-57300D03*
X-114300Y-196700D03*
X-114300Y-209700D03*
X-88900Y-31600D03*
X-88900Y-44600D03*
X-127000Y-171300D03*
X-127000Y-184300D03*
D13*
X-144700Y-139700D03*
X-134700Y-139700D03*
D14*
X-215900Y-119300D03*
X-215900Y-109300D03*
D18*
X-158600Y-165100D03*
X-171600Y-165100D03*
D19*
X-79400Y-215900D03*
X-98400Y-215900D03*
D20*
X-77900Y63500D03*
X-99900Y54000D03*
X-99900Y73000D03*
D21*
X-153500Y-276700D03*
X-153500Y-256700D03*
D22*
X-205500Y-300700D03*
X-205500Y-232700D03*
D23*
X-211582Y-248920D02*
X-222758Y-248920D01*
X-222758Y-182880D02*
X-211582Y-182880D01*
D24*
X-203200Y0D03*
X-190500Y0D03*
X-152400Y-63500D03*
X-177800Y-12700D03*
X-139700Y88900D03*
X-177800Y-152400D03*
X-95250Y-57150D03*
X-114300Y-266700D03*
X-139700Y-63500D03*
X-152400Y25400D03*
X-94234Y-78232D03*
X-115570Y-74676D03*
X-87122Y-103124D03*
X-139700Y38100D03*
X-87122Y-92456D03*
X-176022Y-227584D03*
X-151130Y-156464D03*
X-165100Y-190500D03*
M02*
