G04 EAGLE Gerber RS-274X export*
G75*
%MOMM*%
%FSLAX34Y34*%
%LPD*%
%INSilkscreen Bottom*%
%IPPOS*%
%AMOC8*
5,1,8,0,0,1.08239X$1,22.5*%
G01*
%ADD10C,0.076200*%
%ADD11C,0.152400*%
%ADD12C,0.203200*%
%ADD13C,0.100000*%
%ADD14C,0.050800*%
%ADD15R,0.875000X0.500000*%
%ADD16C,0.127000*%
%ADD17C,0.101600*%


D10*
X-223647Y-62832D02*
X-216281Y-62832D01*
X-216281Y-60786D01*
X-216283Y-60697D01*
X-216289Y-60608D01*
X-216299Y-60519D01*
X-216312Y-60431D01*
X-216329Y-60343D01*
X-216351Y-60256D01*
X-216376Y-60171D01*
X-216404Y-60086D01*
X-216437Y-60003D01*
X-216473Y-59921D01*
X-216512Y-59841D01*
X-216555Y-59763D01*
X-216601Y-59687D01*
X-216651Y-59612D01*
X-216704Y-59540D01*
X-216760Y-59471D01*
X-216819Y-59404D01*
X-216880Y-59339D01*
X-216945Y-59278D01*
X-217012Y-59219D01*
X-217081Y-59163D01*
X-217153Y-59110D01*
X-217228Y-59060D01*
X-217304Y-59014D01*
X-217382Y-58971D01*
X-217462Y-58932D01*
X-217544Y-58896D01*
X-217627Y-58863D01*
X-217712Y-58835D01*
X-217797Y-58810D01*
X-217884Y-58788D01*
X-217972Y-58771D01*
X-218060Y-58758D01*
X-218149Y-58748D01*
X-218238Y-58742D01*
X-218327Y-58740D01*
X-221601Y-58740D01*
X-221690Y-58742D01*
X-221779Y-58748D01*
X-221868Y-58758D01*
X-221956Y-58771D01*
X-222044Y-58788D01*
X-222131Y-58810D01*
X-222216Y-58835D01*
X-222301Y-58863D01*
X-222384Y-58896D01*
X-222466Y-58932D01*
X-222546Y-58971D01*
X-222624Y-59014D01*
X-222700Y-59060D01*
X-222775Y-59110D01*
X-222847Y-59163D01*
X-222916Y-59219D01*
X-222983Y-59278D01*
X-223048Y-59339D01*
X-223109Y-59404D01*
X-223168Y-59471D01*
X-223224Y-59540D01*
X-223277Y-59612D01*
X-223327Y-59687D01*
X-223373Y-59763D01*
X-223416Y-59841D01*
X-223455Y-59921D01*
X-223491Y-60003D01*
X-223524Y-60086D01*
X-223552Y-60171D01*
X-223577Y-60256D01*
X-223599Y-60343D01*
X-223616Y-60431D01*
X-223629Y-60519D01*
X-223639Y-60608D01*
X-223645Y-60697D01*
X-223647Y-60786D01*
X-223647Y-62832D01*
X-221601Y-55273D02*
X-221512Y-55271D01*
X-221423Y-55265D01*
X-221334Y-55255D01*
X-221246Y-55242D01*
X-221158Y-55225D01*
X-221071Y-55203D01*
X-220986Y-55178D01*
X-220901Y-55150D01*
X-220818Y-55117D01*
X-220736Y-55081D01*
X-220656Y-55042D01*
X-220578Y-54999D01*
X-220502Y-54953D01*
X-220427Y-54903D01*
X-220355Y-54850D01*
X-220286Y-54794D01*
X-220219Y-54735D01*
X-220154Y-54674D01*
X-220093Y-54609D01*
X-220034Y-54542D01*
X-219978Y-54473D01*
X-219925Y-54401D01*
X-219875Y-54326D01*
X-219829Y-54250D01*
X-219786Y-54172D01*
X-219747Y-54092D01*
X-219711Y-54010D01*
X-219678Y-53927D01*
X-219650Y-53842D01*
X-219625Y-53757D01*
X-219603Y-53670D01*
X-219586Y-53582D01*
X-219573Y-53494D01*
X-219563Y-53405D01*
X-219557Y-53316D01*
X-219555Y-53227D01*
X-219557Y-53138D01*
X-219563Y-53049D01*
X-219573Y-52960D01*
X-219586Y-52872D01*
X-219603Y-52784D01*
X-219625Y-52697D01*
X-219650Y-52612D01*
X-219678Y-52527D01*
X-219711Y-52444D01*
X-219747Y-52362D01*
X-219786Y-52282D01*
X-219829Y-52204D01*
X-219875Y-52128D01*
X-219925Y-52053D01*
X-219978Y-51981D01*
X-220034Y-51912D01*
X-220093Y-51845D01*
X-220154Y-51780D01*
X-220219Y-51719D01*
X-220286Y-51660D01*
X-220355Y-51604D01*
X-220427Y-51551D01*
X-220502Y-51501D01*
X-220578Y-51455D01*
X-220656Y-51412D01*
X-220736Y-51373D01*
X-220818Y-51337D01*
X-220901Y-51304D01*
X-220986Y-51276D01*
X-221071Y-51251D01*
X-221158Y-51229D01*
X-221246Y-51212D01*
X-221334Y-51199D01*
X-221423Y-51189D01*
X-221512Y-51183D01*
X-221601Y-51181D01*
X-221690Y-51183D01*
X-221779Y-51189D01*
X-221868Y-51199D01*
X-221956Y-51212D01*
X-222044Y-51229D01*
X-222131Y-51251D01*
X-222216Y-51276D01*
X-222301Y-51304D01*
X-222384Y-51337D01*
X-222466Y-51373D01*
X-222546Y-51412D01*
X-222624Y-51455D01*
X-222700Y-51501D01*
X-222775Y-51551D01*
X-222847Y-51604D01*
X-222916Y-51660D01*
X-222983Y-51719D01*
X-223048Y-51780D01*
X-223109Y-51845D01*
X-223168Y-51912D01*
X-223224Y-51981D01*
X-223277Y-52053D01*
X-223327Y-52128D01*
X-223373Y-52204D01*
X-223416Y-52282D01*
X-223455Y-52362D01*
X-223491Y-52444D01*
X-223524Y-52527D01*
X-223552Y-52612D01*
X-223577Y-52697D01*
X-223599Y-52784D01*
X-223616Y-52872D01*
X-223629Y-52960D01*
X-223639Y-53049D01*
X-223645Y-53138D01*
X-223647Y-53227D01*
X-223645Y-53316D01*
X-223639Y-53405D01*
X-223629Y-53494D01*
X-223616Y-53582D01*
X-223599Y-53670D01*
X-223577Y-53757D01*
X-223552Y-53842D01*
X-223524Y-53927D01*
X-223491Y-54010D01*
X-223455Y-54092D01*
X-223416Y-54172D01*
X-223373Y-54250D01*
X-223327Y-54326D01*
X-223277Y-54401D01*
X-223224Y-54473D01*
X-223168Y-54542D01*
X-223109Y-54609D01*
X-223048Y-54674D01*
X-222983Y-54735D01*
X-222916Y-54794D01*
X-222847Y-54850D01*
X-222775Y-54903D01*
X-222700Y-54953D01*
X-222624Y-54999D01*
X-222546Y-55042D01*
X-222466Y-55081D01*
X-222384Y-55117D01*
X-222301Y-55150D01*
X-222216Y-55178D01*
X-222131Y-55203D01*
X-222044Y-55225D01*
X-221956Y-55242D01*
X-221868Y-55255D01*
X-221779Y-55265D01*
X-221690Y-55271D01*
X-221601Y-55273D01*
X-217918Y-54864D02*
X-217839Y-54862D01*
X-217760Y-54856D01*
X-217681Y-54847D01*
X-217603Y-54834D01*
X-217526Y-54816D01*
X-217450Y-54796D01*
X-217375Y-54771D01*
X-217301Y-54743D01*
X-217228Y-54712D01*
X-217157Y-54676D01*
X-217088Y-54638D01*
X-217021Y-54596D01*
X-216956Y-54551D01*
X-216893Y-54503D01*
X-216832Y-54452D01*
X-216775Y-54398D01*
X-216719Y-54342D01*
X-216667Y-54283D01*
X-216617Y-54221D01*
X-216571Y-54157D01*
X-216527Y-54091D01*
X-216487Y-54023D01*
X-216451Y-53953D01*
X-216417Y-53881D01*
X-216387Y-53807D01*
X-216361Y-53733D01*
X-216338Y-53657D01*
X-216320Y-53580D01*
X-216304Y-53503D01*
X-216293Y-53424D01*
X-216285Y-53346D01*
X-216281Y-53267D01*
X-216281Y-53187D01*
X-216285Y-53108D01*
X-216293Y-53030D01*
X-216304Y-52951D01*
X-216320Y-52874D01*
X-216338Y-52797D01*
X-216361Y-52721D01*
X-216387Y-52647D01*
X-216417Y-52573D01*
X-216451Y-52501D01*
X-216487Y-52431D01*
X-216527Y-52363D01*
X-216571Y-52297D01*
X-216617Y-52233D01*
X-216667Y-52171D01*
X-216719Y-52112D01*
X-216775Y-52056D01*
X-216832Y-52002D01*
X-216893Y-51951D01*
X-216956Y-51903D01*
X-217021Y-51858D01*
X-217088Y-51816D01*
X-217157Y-51778D01*
X-217228Y-51742D01*
X-217301Y-51711D01*
X-217375Y-51683D01*
X-217450Y-51658D01*
X-217526Y-51638D01*
X-217603Y-51620D01*
X-217681Y-51607D01*
X-217760Y-51598D01*
X-217839Y-51592D01*
X-217918Y-51590D01*
X-217997Y-51592D01*
X-218076Y-51598D01*
X-218155Y-51607D01*
X-218233Y-51620D01*
X-218310Y-51638D01*
X-218386Y-51658D01*
X-218461Y-51683D01*
X-218535Y-51711D01*
X-218608Y-51742D01*
X-218679Y-51778D01*
X-218748Y-51816D01*
X-218815Y-51858D01*
X-218880Y-51903D01*
X-218943Y-51951D01*
X-219004Y-52002D01*
X-219061Y-52056D01*
X-219117Y-52112D01*
X-219169Y-52171D01*
X-219219Y-52233D01*
X-219265Y-52297D01*
X-219309Y-52363D01*
X-219349Y-52431D01*
X-219385Y-52501D01*
X-219419Y-52573D01*
X-219449Y-52647D01*
X-219475Y-52721D01*
X-219498Y-52797D01*
X-219516Y-52874D01*
X-219532Y-52951D01*
X-219543Y-53030D01*
X-219551Y-53108D01*
X-219555Y-53187D01*
X-219555Y-53267D01*
X-219551Y-53346D01*
X-219543Y-53424D01*
X-219532Y-53503D01*
X-219516Y-53580D01*
X-219498Y-53657D01*
X-219475Y-53733D01*
X-219449Y-53807D01*
X-219419Y-53881D01*
X-219385Y-53953D01*
X-219349Y-54023D01*
X-219309Y-54091D01*
X-219265Y-54157D01*
X-219219Y-54221D01*
X-219169Y-54283D01*
X-219117Y-54342D01*
X-219061Y-54398D01*
X-219004Y-54452D01*
X-218943Y-54503D01*
X-218880Y-54551D01*
X-218815Y-54596D01*
X-218748Y-54638D01*
X-218679Y-54676D01*
X-218608Y-54712D01*
X-218535Y-54743D01*
X-218461Y-54771D01*
X-218386Y-54796D01*
X-218310Y-54816D01*
X-218233Y-54834D01*
X-218155Y-54847D01*
X-218076Y-54856D01*
X-217997Y-54862D01*
X-217918Y-54864D01*
X-57916Y-270355D02*
X-55870Y-270355D01*
X-57916Y-270355D02*
X-58005Y-270357D01*
X-58094Y-270363D01*
X-58183Y-270373D01*
X-58271Y-270386D01*
X-58359Y-270403D01*
X-58446Y-270425D01*
X-58531Y-270450D01*
X-58616Y-270478D01*
X-58699Y-270511D01*
X-58781Y-270547D01*
X-58861Y-270586D01*
X-58939Y-270629D01*
X-59015Y-270675D01*
X-59090Y-270725D01*
X-59162Y-270778D01*
X-59231Y-270834D01*
X-59298Y-270893D01*
X-59363Y-270954D01*
X-59424Y-271019D01*
X-59483Y-271086D01*
X-59539Y-271155D01*
X-59592Y-271227D01*
X-59642Y-271302D01*
X-59688Y-271378D01*
X-59731Y-271456D01*
X-59770Y-271536D01*
X-59806Y-271618D01*
X-59839Y-271701D01*
X-59867Y-271786D01*
X-59892Y-271871D01*
X-59914Y-271958D01*
X-59931Y-272046D01*
X-59944Y-272134D01*
X-59954Y-272223D01*
X-59960Y-272312D01*
X-59962Y-272401D01*
X-59960Y-272490D01*
X-59954Y-272579D01*
X-59944Y-272668D01*
X-59931Y-272756D01*
X-59914Y-272844D01*
X-59892Y-272931D01*
X-59867Y-273016D01*
X-59839Y-273101D01*
X-59806Y-273184D01*
X-59770Y-273266D01*
X-59731Y-273346D01*
X-59688Y-273424D01*
X-59642Y-273500D01*
X-59592Y-273575D01*
X-59539Y-273647D01*
X-59483Y-273716D01*
X-59424Y-273783D01*
X-59363Y-273848D01*
X-59298Y-273909D01*
X-59231Y-273968D01*
X-59162Y-274024D01*
X-59090Y-274077D01*
X-59015Y-274127D01*
X-58939Y-274173D01*
X-58861Y-274216D01*
X-58781Y-274255D01*
X-58699Y-274291D01*
X-58616Y-274324D01*
X-58531Y-274352D01*
X-58446Y-274377D01*
X-58359Y-274399D01*
X-58271Y-274416D01*
X-58183Y-274429D01*
X-58094Y-274439D01*
X-58005Y-274445D01*
X-57916Y-274447D01*
X-55870Y-274447D01*
X-55870Y-267081D01*
X-57916Y-267081D01*
X-57995Y-267083D01*
X-58074Y-267089D01*
X-58153Y-267098D01*
X-58231Y-267111D01*
X-58308Y-267129D01*
X-58384Y-267149D01*
X-58459Y-267174D01*
X-58533Y-267202D01*
X-58606Y-267233D01*
X-58677Y-267269D01*
X-58746Y-267307D01*
X-58813Y-267349D01*
X-58878Y-267394D01*
X-58941Y-267442D01*
X-59002Y-267493D01*
X-59059Y-267547D01*
X-59115Y-267603D01*
X-59167Y-267662D01*
X-59217Y-267724D01*
X-59263Y-267788D01*
X-59307Y-267854D01*
X-59347Y-267922D01*
X-59383Y-267992D01*
X-59417Y-268064D01*
X-59447Y-268138D01*
X-59473Y-268212D01*
X-59496Y-268288D01*
X-59514Y-268365D01*
X-59530Y-268442D01*
X-59541Y-268521D01*
X-59549Y-268599D01*
X-59553Y-268678D01*
X-59553Y-268758D01*
X-59549Y-268837D01*
X-59541Y-268915D01*
X-59530Y-268994D01*
X-59514Y-269071D01*
X-59496Y-269148D01*
X-59473Y-269224D01*
X-59447Y-269298D01*
X-59417Y-269372D01*
X-59383Y-269444D01*
X-59347Y-269514D01*
X-59307Y-269582D01*
X-59263Y-269648D01*
X-59217Y-269712D01*
X-59167Y-269774D01*
X-59115Y-269833D01*
X-59059Y-269889D01*
X-59002Y-269943D01*
X-58941Y-269994D01*
X-58878Y-270042D01*
X-58813Y-270087D01*
X-58746Y-270129D01*
X-58677Y-270167D01*
X-58606Y-270203D01*
X-58533Y-270234D01*
X-58459Y-270262D01*
X-58384Y-270287D01*
X-58308Y-270307D01*
X-58231Y-270325D01*
X-58153Y-270338D01*
X-58074Y-270347D01*
X-57995Y-270353D01*
X-57916Y-270355D01*
X-62415Y-274447D02*
X-64870Y-267081D01*
X-67325Y-274447D01*
X-66711Y-272606D02*
X-63028Y-272606D01*
X-71697Y-274447D02*
X-71697Y-267081D01*
X-69651Y-267081D02*
X-73744Y-267081D01*
X-78037Y-267081D02*
X-78037Y-274447D01*
X-75991Y-267081D02*
X-80083Y-267081D01*
X-83078Y-274447D02*
X-86352Y-274447D01*
X-83078Y-274447D02*
X-83078Y-267081D01*
X-86352Y-267081D01*
X-85534Y-270355D02*
X-83078Y-270355D01*
X-89454Y-267081D02*
X-89454Y-274447D01*
X-89454Y-267081D02*
X-91500Y-267081D01*
X-91589Y-267083D01*
X-91678Y-267089D01*
X-91767Y-267099D01*
X-91855Y-267112D01*
X-91943Y-267129D01*
X-92030Y-267151D01*
X-92115Y-267176D01*
X-92200Y-267204D01*
X-92283Y-267237D01*
X-92365Y-267273D01*
X-92445Y-267312D01*
X-92523Y-267355D01*
X-92599Y-267401D01*
X-92674Y-267451D01*
X-92746Y-267504D01*
X-92815Y-267560D01*
X-92882Y-267619D01*
X-92947Y-267680D01*
X-93008Y-267745D01*
X-93067Y-267812D01*
X-93123Y-267881D01*
X-93176Y-267953D01*
X-93226Y-268028D01*
X-93272Y-268104D01*
X-93315Y-268182D01*
X-93354Y-268262D01*
X-93390Y-268344D01*
X-93423Y-268427D01*
X-93451Y-268512D01*
X-93476Y-268597D01*
X-93498Y-268684D01*
X-93515Y-268772D01*
X-93528Y-268860D01*
X-93538Y-268949D01*
X-93544Y-269038D01*
X-93546Y-269127D01*
X-93544Y-269216D01*
X-93538Y-269305D01*
X-93528Y-269394D01*
X-93515Y-269482D01*
X-93498Y-269570D01*
X-93476Y-269657D01*
X-93451Y-269742D01*
X-93423Y-269827D01*
X-93390Y-269910D01*
X-93354Y-269992D01*
X-93315Y-270072D01*
X-93272Y-270150D01*
X-93226Y-270226D01*
X-93176Y-270301D01*
X-93123Y-270373D01*
X-93067Y-270442D01*
X-93008Y-270509D01*
X-92947Y-270574D01*
X-92882Y-270635D01*
X-92815Y-270694D01*
X-92746Y-270750D01*
X-92674Y-270803D01*
X-92599Y-270853D01*
X-92523Y-270899D01*
X-92445Y-270942D01*
X-92365Y-270981D01*
X-92283Y-271017D01*
X-92200Y-271050D01*
X-92115Y-271078D01*
X-92030Y-271103D01*
X-91943Y-271125D01*
X-91855Y-271142D01*
X-91767Y-271155D01*
X-91678Y-271165D01*
X-91589Y-271171D01*
X-91500Y-271173D01*
X-89454Y-271173D01*
X-91909Y-271173D02*
X-93546Y-274447D01*
X-98764Y-270559D02*
X-96308Y-267081D01*
X-98764Y-270559D02*
X-101219Y-267081D01*
X-98764Y-270559D02*
X-98764Y-274447D01*
D11*
X-153501Y-201196D02*
X-164338Y-201196D01*
X-164338Y-226596D02*
X-153501Y-226596D01*
X-158919Y-232015D02*
X-158919Y-221178D01*
D12*
X-133900Y-255900D02*
X-98900Y-255900D01*
X-133900Y-255900D02*
X-133900Y-247900D01*
X-108900Y-247900D01*
X-108900Y-235900D01*
X-108900Y-195900D02*
X-108900Y-183900D01*
X-133900Y-183900D01*
X-133900Y-175900D01*
X-98900Y-175900D01*
X-58900Y-195900D02*
X-58900Y-235900D01*
D11*
X-63754Y-226907D02*
X-68890Y-226907D01*
X-68890Y-226906D02*
X-68964Y-226908D01*
X-69039Y-226914D01*
X-69112Y-226923D01*
X-69186Y-226936D01*
X-69258Y-226953D01*
X-69329Y-226973D01*
X-69400Y-226997D01*
X-69469Y-227025D01*
X-69537Y-227056D01*
X-69602Y-227090D01*
X-69667Y-227128D01*
X-69729Y-227169D01*
X-69789Y-227213D01*
X-69846Y-227260D01*
X-69901Y-227310D01*
X-69954Y-227363D01*
X-70004Y-227418D01*
X-70051Y-227475D01*
X-70095Y-227535D01*
X-70136Y-227597D01*
X-70174Y-227662D01*
X-70208Y-227728D01*
X-70239Y-227795D01*
X-70267Y-227864D01*
X-70291Y-227935D01*
X-70311Y-228006D01*
X-70328Y-228079D01*
X-70341Y-228152D01*
X-70350Y-228226D01*
X-70356Y-228300D01*
X-70358Y-228374D01*
X-70358Y-229108D01*
X-65222Y-223066D02*
X-63754Y-221232D01*
X-70358Y-221232D01*
X-70358Y-223066D02*
X-70358Y-219397D01*
D13*
X-225400Y43100D02*
X-225400Y73100D01*
X-225400Y18100D02*
X-225400Y-31900D01*
X-109400Y-31900D01*
X-109400Y108100D02*
X-225400Y108100D01*
X-225400Y98100D01*
X-73400Y108100D02*
X-73400Y-11900D01*
X-73400Y108100D02*
X-78400Y108100D01*
D10*
X-116346Y23789D02*
X-116424Y23787D01*
X-116502Y23782D01*
X-116579Y23772D01*
X-116656Y23759D01*
X-116732Y23743D01*
X-116807Y23723D01*
X-116881Y23699D01*
X-116954Y23672D01*
X-117026Y23641D01*
X-117096Y23607D01*
X-117165Y23570D01*
X-117231Y23529D01*
X-117296Y23485D01*
X-117358Y23439D01*
X-117418Y23389D01*
X-117476Y23337D01*
X-117531Y23282D01*
X-117583Y23224D01*
X-117633Y23164D01*
X-117679Y23102D01*
X-117723Y23037D01*
X-117764Y22971D01*
X-117801Y22902D01*
X-117835Y22832D01*
X-117866Y22760D01*
X-117893Y22687D01*
X-117917Y22613D01*
X-117937Y22538D01*
X-117953Y22462D01*
X-117966Y22385D01*
X-117976Y22308D01*
X-117981Y22230D01*
X-117983Y22152D01*
X-117981Y22038D01*
X-117976Y21925D01*
X-117966Y21811D01*
X-117953Y21698D01*
X-117936Y21586D01*
X-117916Y21474D01*
X-117892Y21363D01*
X-117864Y21252D01*
X-117833Y21143D01*
X-117798Y21035D01*
X-117759Y20928D01*
X-117717Y20822D01*
X-117672Y20718D01*
X-117623Y20615D01*
X-117570Y20514D01*
X-117515Y20415D01*
X-117456Y20317D01*
X-117394Y20222D01*
X-117329Y20129D01*
X-117261Y20037D01*
X-117190Y19949D01*
X-117116Y19862D01*
X-117039Y19778D01*
X-116960Y19697D01*
X-112254Y19901D02*
X-112176Y19903D01*
X-112098Y19908D01*
X-112021Y19918D01*
X-111944Y19931D01*
X-111868Y19947D01*
X-111793Y19967D01*
X-111719Y19991D01*
X-111646Y20018D01*
X-111574Y20049D01*
X-111504Y20083D01*
X-111436Y20120D01*
X-111369Y20161D01*
X-111304Y20205D01*
X-111242Y20251D01*
X-111182Y20301D01*
X-111124Y20353D01*
X-111069Y20408D01*
X-111017Y20466D01*
X-110967Y20526D01*
X-110921Y20588D01*
X-110877Y20653D01*
X-110836Y20720D01*
X-110799Y20788D01*
X-110765Y20858D01*
X-110734Y20930D01*
X-110707Y21003D01*
X-110683Y21077D01*
X-110663Y21152D01*
X-110647Y21228D01*
X-110634Y21305D01*
X-110624Y21382D01*
X-110619Y21460D01*
X-110617Y21538D01*
X-110619Y21648D01*
X-110625Y21757D01*
X-110635Y21867D01*
X-110648Y21975D01*
X-110666Y22084D01*
X-110687Y22191D01*
X-110713Y22298D01*
X-110742Y22404D01*
X-110774Y22509D01*
X-110811Y22612D01*
X-110851Y22714D01*
X-110895Y22815D01*
X-110943Y22914D01*
X-110993Y23011D01*
X-111048Y23106D01*
X-111106Y23199D01*
X-111167Y23290D01*
X-111231Y23379D01*
X-113686Y20719D02*
X-113644Y20653D01*
X-113600Y20588D01*
X-113552Y20526D01*
X-113502Y20466D01*
X-113449Y20408D01*
X-113393Y20353D01*
X-113335Y20300D01*
X-113274Y20251D01*
X-113211Y20204D01*
X-113146Y20160D01*
X-113079Y20120D01*
X-113010Y20083D01*
X-112939Y20049D01*
X-112867Y20018D01*
X-112793Y19991D01*
X-112718Y19967D01*
X-112643Y19947D01*
X-112566Y19931D01*
X-112489Y19918D01*
X-112411Y19908D01*
X-112332Y19903D01*
X-112254Y19901D01*
X-114913Y22970D02*
X-114955Y23037D01*
X-114999Y23102D01*
X-115047Y23164D01*
X-115097Y23224D01*
X-115150Y23282D01*
X-115206Y23337D01*
X-115265Y23389D01*
X-115325Y23439D01*
X-115389Y23486D01*
X-115454Y23529D01*
X-115521Y23570D01*
X-115590Y23607D01*
X-115661Y23641D01*
X-115733Y23672D01*
X-115807Y23699D01*
X-115881Y23723D01*
X-115957Y23743D01*
X-116034Y23759D01*
X-116111Y23772D01*
X-116189Y23782D01*
X-116268Y23787D01*
X-116346Y23789D01*
X-114914Y22970D02*
X-113686Y20719D01*
X-110617Y27012D02*
X-117983Y27012D01*
X-110617Y27012D02*
X-110617Y29058D01*
X-110619Y29147D01*
X-110625Y29236D01*
X-110635Y29325D01*
X-110648Y29413D01*
X-110665Y29501D01*
X-110687Y29588D01*
X-110712Y29673D01*
X-110740Y29758D01*
X-110773Y29841D01*
X-110809Y29923D01*
X-110848Y30003D01*
X-110891Y30081D01*
X-110937Y30157D01*
X-110987Y30232D01*
X-111040Y30304D01*
X-111096Y30373D01*
X-111155Y30440D01*
X-111216Y30505D01*
X-111281Y30566D01*
X-111348Y30625D01*
X-111417Y30681D01*
X-111489Y30734D01*
X-111564Y30784D01*
X-111640Y30830D01*
X-111718Y30873D01*
X-111798Y30912D01*
X-111880Y30948D01*
X-111963Y30981D01*
X-112048Y31009D01*
X-112133Y31034D01*
X-112220Y31056D01*
X-112308Y31073D01*
X-112396Y31086D01*
X-112485Y31096D01*
X-112574Y31102D01*
X-112663Y31104D01*
X-115937Y31104D01*
X-116026Y31102D01*
X-116115Y31096D01*
X-116204Y31086D01*
X-116292Y31073D01*
X-116380Y31056D01*
X-116467Y31034D01*
X-116552Y31009D01*
X-116637Y30981D01*
X-116720Y30948D01*
X-116802Y30912D01*
X-116882Y30873D01*
X-116960Y30830D01*
X-117036Y30784D01*
X-117111Y30734D01*
X-117183Y30681D01*
X-117252Y30625D01*
X-117319Y30566D01*
X-117384Y30505D01*
X-117445Y30440D01*
X-117504Y30373D01*
X-117560Y30304D01*
X-117613Y30232D01*
X-117663Y30157D01*
X-117709Y30081D01*
X-117752Y30003D01*
X-117791Y29923D01*
X-117827Y29841D01*
X-117860Y29758D01*
X-117888Y29673D01*
X-117913Y29588D01*
X-117935Y29501D01*
X-117952Y29413D01*
X-117965Y29325D01*
X-117975Y29236D01*
X-117981Y29147D01*
X-117983Y29058D01*
X-117983Y27012D01*
D12*
X-198120Y-127000D02*
X-208280Y-127000D01*
X-182880Y-127000D02*
X-172720Y-127000D01*
X-199390Y-76200D02*
X-208280Y-76200D01*
X-182880Y-76200D02*
X-172720Y-76200D01*
X-222250Y-127000D02*
X-228600Y-127000D01*
X-228600Y-76200D01*
X-222250Y-76200D01*
X-158750Y-127000D02*
X-152400Y-127000D01*
X-152400Y-76200D01*
X-158750Y-76200D01*
X-224790Y-73660D02*
X-224790Y-60960D01*
D11*
X-137969Y-121412D02*
X-137969Y-128016D01*
X-137235Y-128016D02*
X-138703Y-128016D01*
X-138703Y-121412D02*
X-137235Y-121412D01*
X-143944Y-128016D02*
X-144018Y-128014D01*
X-144092Y-128008D01*
X-144166Y-127999D01*
X-144239Y-127986D01*
X-144312Y-127969D01*
X-144383Y-127949D01*
X-144454Y-127925D01*
X-144523Y-127897D01*
X-144590Y-127866D01*
X-144656Y-127832D01*
X-144721Y-127794D01*
X-144783Y-127753D01*
X-144843Y-127709D01*
X-144900Y-127662D01*
X-144955Y-127612D01*
X-145008Y-127559D01*
X-145058Y-127504D01*
X-145105Y-127447D01*
X-145149Y-127387D01*
X-145190Y-127325D01*
X-145228Y-127260D01*
X-145262Y-127195D01*
X-145293Y-127127D01*
X-145321Y-127058D01*
X-145345Y-126987D01*
X-145365Y-126916D01*
X-145382Y-126844D01*
X-145395Y-126770D01*
X-145404Y-126697D01*
X-145410Y-126622D01*
X-145412Y-126548D01*
X-143944Y-128016D02*
X-143833Y-128014D01*
X-143722Y-128008D01*
X-143611Y-127998D01*
X-143500Y-127984D01*
X-143391Y-127966D01*
X-143282Y-127944D01*
X-143173Y-127919D01*
X-143066Y-127889D01*
X-142960Y-127856D01*
X-142855Y-127818D01*
X-142752Y-127778D01*
X-142650Y-127733D01*
X-142550Y-127685D01*
X-142451Y-127633D01*
X-142355Y-127578D01*
X-142260Y-127519D01*
X-142168Y-127457D01*
X-142078Y-127391D01*
X-141990Y-127323D01*
X-141905Y-127251D01*
X-141823Y-127176D01*
X-141743Y-127099D01*
X-141926Y-122880D02*
X-141928Y-122806D01*
X-141934Y-122731D01*
X-141943Y-122658D01*
X-141956Y-122584D01*
X-141973Y-122512D01*
X-141993Y-122441D01*
X-142017Y-122370D01*
X-142045Y-122301D01*
X-142076Y-122234D01*
X-142110Y-122168D01*
X-142148Y-122103D01*
X-142189Y-122041D01*
X-142233Y-121981D01*
X-142280Y-121924D01*
X-142330Y-121869D01*
X-142383Y-121816D01*
X-142438Y-121766D01*
X-142495Y-121719D01*
X-142555Y-121675D01*
X-142617Y-121634D01*
X-142682Y-121596D01*
X-142748Y-121562D01*
X-142815Y-121531D01*
X-142884Y-121503D01*
X-142955Y-121479D01*
X-143026Y-121459D01*
X-143098Y-121442D01*
X-143172Y-121429D01*
X-143245Y-121420D01*
X-143320Y-121414D01*
X-143394Y-121412D01*
X-143498Y-121414D01*
X-143602Y-121420D01*
X-143706Y-121430D01*
X-143809Y-121443D01*
X-143912Y-121461D01*
X-144014Y-121483D01*
X-144115Y-121508D01*
X-144215Y-121537D01*
X-144314Y-121570D01*
X-144411Y-121607D01*
X-144507Y-121647D01*
X-144602Y-121691D01*
X-144694Y-121739D01*
X-144785Y-121789D01*
X-144874Y-121844D01*
X-144961Y-121902D01*
X-145045Y-121962D01*
X-142660Y-124165D02*
X-142597Y-124126D01*
X-142537Y-124084D01*
X-142479Y-124039D01*
X-142422Y-123991D01*
X-142369Y-123940D01*
X-142318Y-123887D01*
X-142269Y-123832D01*
X-142224Y-123774D01*
X-142181Y-123714D01*
X-142141Y-123652D01*
X-142105Y-123588D01*
X-142071Y-123522D01*
X-142041Y-123454D01*
X-142014Y-123386D01*
X-141991Y-123316D01*
X-141971Y-123245D01*
X-141955Y-123173D01*
X-141942Y-123100D01*
X-141933Y-123027D01*
X-141928Y-122954D01*
X-141926Y-122880D01*
X-144678Y-125263D02*
X-144741Y-125302D01*
X-144801Y-125344D01*
X-144860Y-125389D01*
X-144916Y-125437D01*
X-144969Y-125488D01*
X-145020Y-125541D01*
X-145069Y-125596D01*
X-145114Y-125654D01*
X-145157Y-125714D01*
X-145197Y-125776D01*
X-145233Y-125840D01*
X-145267Y-125906D01*
X-145297Y-125974D01*
X-145324Y-126042D01*
X-145347Y-126112D01*
X-145367Y-126183D01*
X-145383Y-126255D01*
X-145396Y-126328D01*
X-145405Y-126401D01*
X-145410Y-126474D01*
X-145412Y-126548D01*
X-144678Y-125264D02*
X-142660Y-124164D01*
X-149239Y-121412D02*
X-149239Y-128016D01*
X-149239Y-121412D02*
X-151074Y-121412D01*
X-151159Y-121414D01*
X-151243Y-121420D01*
X-151327Y-121430D01*
X-151411Y-121443D01*
X-151494Y-121461D01*
X-151576Y-121482D01*
X-151657Y-121507D01*
X-151737Y-121536D01*
X-151815Y-121568D01*
X-151891Y-121604D01*
X-151966Y-121644D01*
X-152039Y-121687D01*
X-152110Y-121733D01*
X-152179Y-121782D01*
X-152246Y-121835D01*
X-152310Y-121891D01*
X-152371Y-121949D01*
X-152429Y-122010D01*
X-152485Y-122074D01*
X-152538Y-122141D01*
X-152587Y-122210D01*
X-152633Y-122281D01*
X-152676Y-122354D01*
X-152716Y-122429D01*
X-152752Y-122505D01*
X-152784Y-122583D01*
X-152813Y-122663D01*
X-152838Y-122744D01*
X-152859Y-122826D01*
X-152877Y-122909D01*
X-152890Y-122993D01*
X-152900Y-123077D01*
X-152906Y-123161D01*
X-152908Y-123246D01*
X-152906Y-123331D01*
X-152900Y-123415D01*
X-152890Y-123499D01*
X-152877Y-123583D01*
X-152859Y-123666D01*
X-152838Y-123748D01*
X-152813Y-123829D01*
X-152784Y-123909D01*
X-152752Y-123987D01*
X-152716Y-124063D01*
X-152676Y-124138D01*
X-152633Y-124211D01*
X-152587Y-124282D01*
X-152538Y-124351D01*
X-152485Y-124418D01*
X-152429Y-124482D01*
X-152371Y-124543D01*
X-152310Y-124601D01*
X-152246Y-124657D01*
X-152179Y-124710D01*
X-152110Y-124759D01*
X-152039Y-124805D01*
X-151966Y-124848D01*
X-151891Y-124888D01*
X-151815Y-124924D01*
X-151737Y-124956D01*
X-151657Y-124985D01*
X-151576Y-125010D01*
X-151494Y-125031D01*
X-151411Y-125049D01*
X-151327Y-125062D01*
X-151243Y-125072D01*
X-151159Y-125078D01*
X-151074Y-125080D01*
X-151074Y-125081D02*
X-149239Y-125081D01*
D12*
X-92744Y-138244D02*
X-92744Y-143494D01*
X-92744Y-138244D02*
X-92744Y-83244D01*
X-92744Y-77994D01*
X-52744Y-77994D01*
X-52744Y-79494D01*
X-52744Y-141994D01*
X-52744Y-143494D01*
X-92744Y-143494D01*
D14*
X-62744Y-143244D02*
X-62744Y-138244D01*
X-62744Y-135744D01*
X-68994Y-135744D01*
X-68994Y-85744D01*
X-62744Y-85744D02*
X-62744Y-83244D01*
X-62744Y-78244D01*
X-62744Y-85744D02*
X-68994Y-85744D01*
X-86494Y-138244D02*
X-86494Y-143244D01*
X-86494Y-138244D02*
X-92744Y-138244D01*
X-86494Y-83244D02*
X-86494Y-78244D01*
X-86494Y-83244D02*
X-92744Y-83244D01*
X-62744Y-138244D02*
X-56494Y-138244D01*
X-56494Y-83244D01*
X-62744Y-83244D01*
X-56494Y-138244D02*
X-52744Y-141994D01*
X-56494Y-83244D02*
X-52744Y-79494D01*
X-86494Y-131994D02*
X-91494Y-131994D01*
X-86494Y-131994D02*
X-86494Y-126994D01*
X-91494Y-126994D01*
X-91494Y-119494D02*
X-86494Y-119494D01*
X-86494Y-114494D01*
X-91494Y-114494D01*
X-91494Y-106994D02*
X-86494Y-106994D01*
X-86494Y-101994D01*
X-91494Y-101994D01*
X-91494Y-94494D02*
X-86494Y-94494D01*
X-86494Y-89494D01*
X-91494Y-89494D01*
D15*
X-64619Y-129494D03*
X-64619Y-116994D03*
X-64619Y-104494D03*
X-64619Y-91994D03*
D10*
X-67897Y-189958D02*
X-73626Y-189958D01*
X-73704Y-189960D01*
X-73782Y-189965D01*
X-73859Y-189975D01*
X-73936Y-189988D01*
X-74012Y-190004D01*
X-74087Y-190024D01*
X-74161Y-190048D01*
X-74234Y-190075D01*
X-74306Y-190106D01*
X-74376Y-190140D01*
X-74445Y-190177D01*
X-74511Y-190218D01*
X-74576Y-190262D01*
X-74638Y-190308D01*
X-74698Y-190358D01*
X-74756Y-190410D01*
X-74811Y-190465D01*
X-74863Y-190523D01*
X-74913Y-190583D01*
X-74959Y-190645D01*
X-75003Y-190710D01*
X-75044Y-190777D01*
X-75081Y-190845D01*
X-75115Y-190915D01*
X-75146Y-190987D01*
X-75173Y-191060D01*
X-75197Y-191134D01*
X-75217Y-191209D01*
X-75233Y-191285D01*
X-75246Y-191362D01*
X-75256Y-191439D01*
X-75261Y-191517D01*
X-75263Y-191595D01*
X-75263Y-192413D01*
X-73626Y-186523D02*
X-67897Y-184886D01*
X-73626Y-186523D02*
X-73626Y-182431D01*
X-71989Y-183659D02*
X-75263Y-183659D01*
D16*
X-240500Y-252900D02*
X-246500Y-255900D01*
X-240500Y-178900D02*
X-246500Y-175900D01*
X-241500Y-178900D02*
X-241500Y-252900D01*
X-245500Y-248900D02*
X-245500Y-183900D01*
X-245500Y-248900D02*
X-246500Y-255900D01*
X-245500Y-183900D02*
X-246500Y-175900D01*
X-190500Y-231900D02*
X-190500Y-240900D01*
X-190500Y-199900D02*
X-190500Y-191900D01*
X-203500Y-178900D02*
X-207500Y-178900D01*
X-228500Y-178900D02*
X-240500Y-178900D01*
X-240500Y-252900D02*
X-228500Y-252900D01*
X-206500Y-252900D02*
X-203500Y-252900D01*
D17*
X-175105Y-234442D02*
X-169418Y-234442D01*
X-175105Y-234442D02*
X-175198Y-234440D01*
X-175290Y-234434D01*
X-175383Y-234424D01*
X-175475Y-234411D01*
X-175566Y-234393D01*
X-175656Y-234371D01*
X-175745Y-234346D01*
X-175834Y-234317D01*
X-175920Y-234284D01*
X-176006Y-234248D01*
X-176090Y-234208D01*
X-176172Y-234164D01*
X-176252Y-234117D01*
X-176330Y-234067D01*
X-176405Y-234013D01*
X-176479Y-233957D01*
X-176550Y-233897D01*
X-176618Y-233834D01*
X-176684Y-233768D01*
X-176747Y-233700D01*
X-176807Y-233629D01*
X-176863Y-233555D01*
X-176917Y-233480D01*
X-176967Y-233402D01*
X-177014Y-233322D01*
X-177058Y-233240D01*
X-177098Y-233156D01*
X-177134Y-233070D01*
X-177167Y-232984D01*
X-177196Y-232895D01*
X-177221Y-232806D01*
X-177243Y-232716D01*
X-177261Y-232625D01*
X-177274Y-232533D01*
X-177284Y-232440D01*
X-177290Y-232348D01*
X-177292Y-232255D01*
X-177290Y-232162D01*
X-177284Y-232070D01*
X-177274Y-231977D01*
X-177261Y-231885D01*
X-177243Y-231794D01*
X-177221Y-231704D01*
X-177196Y-231615D01*
X-177167Y-231526D01*
X-177134Y-231440D01*
X-177098Y-231354D01*
X-177058Y-231270D01*
X-177014Y-231188D01*
X-176967Y-231108D01*
X-176917Y-231030D01*
X-176863Y-230955D01*
X-176807Y-230881D01*
X-176747Y-230810D01*
X-176684Y-230742D01*
X-176618Y-230676D01*
X-176550Y-230613D01*
X-176479Y-230553D01*
X-176405Y-230497D01*
X-176330Y-230443D01*
X-176252Y-230393D01*
X-176172Y-230346D01*
X-176090Y-230302D01*
X-176006Y-230262D01*
X-175920Y-230226D01*
X-175834Y-230193D01*
X-175745Y-230164D01*
X-175656Y-230139D01*
X-175566Y-230117D01*
X-175475Y-230099D01*
X-175383Y-230086D01*
X-175290Y-230076D01*
X-175198Y-230070D01*
X-175105Y-230068D01*
X-169418Y-230068D01*
X-177292Y-223816D02*
X-177290Y-223735D01*
X-177285Y-223655D01*
X-177275Y-223574D01*
X-177262Y-223494D01*
X-177246Y-223415D01*
X-177225Y-223337D01*
X-177201Y-223260D01*
X-177174Y-223184D01*
X-177143Y-223109D01*
X-177109Y-223036D01*
X-177071Y-222964D01*
X-177030Y-222895D01*
X-176986Y-222827D01*
X-176939Y-222761D01*
X-176888Y-222698D01*
X-176835Y-222637D01*
X-176779Y-222579D01*
X-176721Y-222523D01*
X-176660Y-222470D01*
X-176597Y-222419D01*
X-176531Y-222372D01*
X-176463Y-222328D01*
X-176394Y-222287D01*
X-176322Y-222249D01*
X-176249Y-222215D01*
X-176174Y-222184D01*
X-176098Y-222157D01*
X-176021Y-222133D01*
X-175943Y-222112D01*
X-175864Y-222096D01*
X-175784Y-222083D01*
X-175703Y-222073D01*
X-175623Y-222068D01*
X-175542Y-222066D01*
X-177292Y-223816D02*
X-177290Y-223933D01*
X-177285Y-224049D01*
X-177275Y-224166D01*
X-177263Y-224282D01*
X-177246Y-224397D01*
X-177226Y-224512D01*
X-177202Y-224627D01*
X-177175Y-224740D01*
X-177144Y-224853D01*
X-177109Y-224964D01*
X-177071Y-225075D01*
X-177030Y-225184D01*
X-176985Y-225292D01*
X-176936Y-225398D01*
X-176885Y-225503D01*
X-176830Y-225606D01*
X-176772Y-225707D01*
X-176711Y-225806D01*
X-176646Y-225904D01*
X-176579Y-225999D01*
X-176508Y-226092D01*
X-176435Y-226183D01*
X-176359Y-226271D01*
X-176280Y-226358D01*
X-176198Y-226441D01*
X-171168Y-226223D02*
X-171085Y-226221D01*
X-171002Y-226215D01*
X-170919Y-226205D01*
X-170837Y-226191D01*
X-170755Y-226174D01*
X-170675Y-226152D01*
X-170596Y-226127D01*
X-170518Y-226098D01*
X-170441Y-226065D01*
X-170366Y-226028D01*
X-170293Y-225989D01*
X-170222Y-225945D01*
X-170153Y-225899D01*
X-170086Y-225849D01*
X-170022Y-225796D01*
X-169960Y-225740D01*
X-169901Y-225681D01*
X-169845Y-225619D01*
X-169792Y-225555D01*
X-169743Y-225488D01*
X-169696Y-225419D01*
X-169652Y-225348D01*
X-169613Y-225275D01*
X-169576Y-225200D01*
X-169543Y-225123D01*
X-169514Y-225045D01*
X-169489Y-224966D01*
X-169467Y-224886D01*
X-169450Y-224804D01*
X-169436Y-224722D01*
X-169426Y-224639D01*
X-169420Y-224556D01*
X-169418Y-224473D01*
X-169418Y-224472D02*
X-169420Y-224361D01*
X-169426Y-224250D01*
X-169435Y-224139D01*
X-169448Y-224029D01*
X-169465Y-223919D01*
X-169486Y-223810D01*
X-169510Y-223701D01*
X-169538Y-223594D01*
X-169569Y-223487D01*
X-169604Y-223382D01*
X-169643Y-223278D01*
X-169685Y-223175D01*
X-169731Y-223074D01*
X-169780Y-222974D01*
X-169832Y-222876D01*
X-169888Y-222780D01*
X-169947Y-222685D01*
X-170009Y-222593D01*
X-170074Y-222503D01*
X-172699Y-225347D02*
X-172655Y-225418D01*
X-172607Y-225487D01*
X-172556Y-225554D01*
X-172502Y-225618D01*
X-172446Y-225680D01*
X-172386Y-225739D01*
X-172323Y-225795D01*
X-172259Y-225848D01*
X-172191Y-225898D01*
X-172121Y-225945D01*
X-172050Y-225988D01*
X-171976Y-226028D01*
X-171900Y-226064D01*
X-171823Y-226097D01*
X-171744Y-226126D01*
X-171664Y-226151D01*
X-171583Y-226173D01*
X-171501Y-226190D01*
X-171419Y-226204D01*
X-171335Y-226214D01*
X-171252Y-226220D01*
X-171168Y-226222D01*
X-174011Y-222942D02*
X-174055Y-222871D01*
X-174103Y-222802D01*
X-174154Y-222735D01*
X-174208Y-222671D01*
X-174264Y-222609D01*
X-174324Y-222550D01*
X-174386Y-222494D01*
X-174451Y-222441D01*
X-174519Y-222391D01*
X-174589Y-222344D01*
X-174660Y-222301D01*
X-174734Y-222261D01*
X-174810Y-222225D01*
X-174887Y-222192D01*
X-174966Y-222163D01*
X-175045Y-222138D01*
X-175127Y-222116D01*
X-175209Y-222099D01*
X-175291Y-222085D01*
X-175375Y-222075D01*
X-175458Y-222069D01*
X-175542Y-222067D01*
X-174011Y-222942D02*
X-172699Y-225347D01*
X-172918Y-218296D02*
X-172918Y-216109D01*
X-172920Y-216016D01*
X-172926Y-215924D01*
X-172936Y-215831D01*
X-172949Y-215739D01*
X-172967Y-215648D01*
X-172989Y-215558D01*
X-173014Y-215469D01*
X-173043Y-215380D01*
X-173076Y-215294D01*
X-173112Y-215208D01*
X-173152Y-215124D01*
X-173196Y-215042D01*
X-173243Y-214962D01*
X-173293Y-214884D01*
X-173347Y-214809D01*
X-173403Y-214735D01*
X-173463Y-214664D01*
X-173526Y-214596D01*
X-173592Y-214530D01*
X-173660Y-214467D01*
X-173731Y-214407D01*
X-173805Y-214351D01*
X-173880Y-214297D01*
X-173958Y-214247D01*
X-174038Y-214200D01*
X-174120Y-214156D01*
X-174204Y-214116D01*
X-174290Y-214080D01*
X-174376Y-214047D01*
X-174465Y-214018D01*
X-174554Y-213993D01*
X-174644Y-213971D01*
X-174735Y-213953D01*
X-174827Y-213940D01*
X-174920Y-213930D01*
X-175012Y-213924D01*
X-175105Y-213922D01*
X-175198Y-213924D01*
X-175290Y-213930D01*
X-175383Y-213940D01*
X-175475Y-213953D01*
X-175566Y-213971D01*
X-175656Y-213993D01*
X-175745Y-214018D01*
X-175834Y-214047D01*
X-175920Y-214080D01*
X-176006Y-214116D01*
X-176090Y-214156D01*
X-176172Y-214200D01*
X-176252Y-214247D01*
X-176330Y-214297D01*
X-176405Y-214351D01*
X-176479Y-214407D01*
X-176550Y-214467D01*
X-176618Y-214530D01*
X-176684Y-214596D01*
X-176747Y-214664D01*
X-176807Y-214735D01*
X-176863Y-214809D01*
X-176917Y-214884D01*
X-176967Y-214962D01*
X-177014Y-215042D01*
X-177058Y-215124D01*
X-177098Y-215208D01*
X-177134Y-215294D01*
X-177167Y-215380D01*
X-177196Y-215469D01*
X-177221Y-215558D01*
X-177243Y-215648D01*
X-177261Y-215739D01*
X-177274Y-215831D01*
X-177284Y-215924D01*
X-177290Y-216016D01*
X-177292Y-216109D01*
X-177292Y-218296D01*
X-169418Y-218296D01*
X-169418Y-216109D01*
X-169420Y-216027D01*
X-169426Y-215945D01*
X-169435Y-215864D01*
X-169449Y-215783D01*
X-169466Y-215702D01*
X-169487Y-215623D01*
X-169511Y-215545D01*
X-169540Y-215468D01*
X-169572Y-215392D01*
X-169607Y-215318D01*
X-169646Y-215246D01*
X-169688Y-215175D01*
X-169733Y-215107D01*
X-169782Y-215041D01*
X-169833Y-214977D01*
X-169888Y-214916D01*
X-169945Y-214857D01*
X-170005Y-214801D01*
X-170068Y-214748D01*
X-170133Y-214698D01*
X-170200Y-214651D01*
X-170269Y-214607D01*
X-170341Y-214567D01*
X-170414Y-214530D01*
X-170489Y-214496D01*
X-170565Y-214466D01*
X-170643Y-214440D01*
X-170722Y-214417D01*
X-170801Y-214398D01*
X-170882Y-214383D01*
X-170963Y-214371D01*
X-171045Y-214363D01*
X-171127Y-214359D01*
X-171209Y-214359D01*
X-171291Y-214363D01*
X-171373Y-214371D01*
X-171454Y-214383D01*
X-171535Y-214398D01*
X-171614Y-214417D01*
X-171693Y-214440D01*
X-171771Y-214466D01*
X-171847Y-214496D01*
X-171922Y-214530D01*
X-171995Y-214567D01*
X-172067Y-214607D01*
X-172136Y-214651D01*
X-172203Y-214698D01*
X-172268Y-214748D01*
X-172331Y-214801D01*
X-172391Y-214857D01*
X-172448Y-214916D01*
X-172503Y-214977D01*
X-172554Y-215041D01*
X-172603Y-215107D01*
X-172648Y-215175D01*
X-172690Y-215246D01*
X-172729Y-215318D01*
X-172764Y-215392D01*
X-172796Y-215468D01*
X-172825Y-215545D01*
X-172849Y-215623D01*
X-172870Y-215702D01*
X-172887Y-215783D01*
X-172901Y-215864D01*
X-172910Y-215945D01*
X-172916Y-216027D01*
X-172918Y-216109D01*
X-171168Y-210706D02*
X-169418Y-208519D01*
X-177292Y-208519D01*
X-177292Y-210706D02*
X-177292Y-206331D01*
M02*
