G04 EAGLE Gerber RS-274X export*
G75*
%MOMM*%
%FSLAX34Y34*%
%LPD*%
%INSolderpaste Bottom*%
%IPPOS*%
%AMOC8*
5,1,8,0,0,1.08239X$1,22.5*%
G01*
%ADD10R,4.600000X1.000000*%
%ADD11R,3.400000X1.600000*%
%ADD12R,1.500000X0.800000*%
%ADD13R,1.900000X1.400000*%
%ADD14R,1.400000X1.300000*%
%ADD15R,1.000000X3.170000*%
%ADD16R,2.000000X0.800000*%
%ADD17R,3.000000X2.100000*%
%ADD18C,0.200000*%
%ADD19C,0.700000*%
%ADD20C,0.950000*%
%ADD21C,1.066800*%


D10*
X-125900Y-225900D03*
X-125900Y-205900D03*
D11*
X-73900Y-249900D03*
X-73900Y-181900D03*
D12*
X-120900Y18950D03*
X-124900Y29950D03*
X-120900Y40950D03*
X-118900Y51950D03*
X-120900Y62950D03*
X-118900Y73950D03*
X-120900Y84950D03*
X-120900Y95950D03*
D13*
X-82900Y-27650D03*
X-92900Y103850D03*
D14*
X-224400Y87850D03*
X-224400Y30850D03*
D15*
X-190500Y-127000D03*
X-190500Y-76200D03*
X-165100Y-76200D03*
X-165100Y-127000D03*
X-215900Y-127000D03*
X-215900Y-76200D03*
D16*
X-103994Y-91994D03*
X-103994Y-104494D03*
X-103994Y-116994D03*
X-103994Y-129494D03*
D17*
X-72744Y-66994D03*
X-72744Y-154494D03*
D18*
X-199500Y-214900D02*
X-199500Y-216900D01*
X-199500Y-214900D02*
X-186500Y-214900D01*
X-186500Y-216900D01*
X-199500Y-216900D01*
X-199500Y-215000D02*
X-186500Y-215000D01*
X-199500Y-221400D02*
X-199500Y-223400D01*
X-199500Y-221400D02*
X-186500Y-221400D01*
X-186500Y-223400D01*
X-199500Y-223400D01*
X-199500Y-221500D02*
X-186500Y-221500D01*
X-199500Y-210400D02*
X-199500Y-208400D01*
X-186500Y-208400D01*
X-186500Y-210400D01*
X-199500Y-210400D01*
X-199500Y-208500D02*
X-186500Y-208500D01*
X-199500Y-203900D02*
X-199500Y-201900D01*
X-186500Y-201900D01*
X-186500Y-203900D01*
X-199500Y-203900D01*
X-199500Y-202000D02*
X-186500Y-202000D01*
X-199500Y-227900D02*
X-199500Y-229900D01*
X-199500Y-227900D02*
X-186500Y-227900D01*
X-186500Y-229900D01*
X-199500Y-229900D01*
X-199500Y-228000D02*
X-186500Y-228000D01*
D19*
X-191270Y-254400D02*
X-198270Y-254400D01*
X-198270Y-245400D01*
X-191270Y-245400D01*
X-191270Y-254400D01*
X-191270Y-247750D02*
X-198270Y-247750D01*
X-198270Y-186400D02*
X-191270Y-186400D01*
X-198270Y-186400D02*
X-198270Y-177400D01*
X-191270Y-177400D01*
X-191270Y-186400D01*
X-191270Y-179750D02*
X-198270Y-179750D01*
D20*
X-212500Y-223150D02*
X-212500Y-232650D01*
X-222000Y-232650D01*
X-222000Y-223150D01*
X-212500Y-223150D01*
X-212500Y-223625D02*
X-222000Y-223625D01*
X-212500Y-208650D02*
X-212500Y-199150D01*
X-212500Y-208650D02*
X-222000Y-208650D01*
X-222000Y-199150D01*
X-212500Y-199150D01*
X-212500Y-199625D02*
X-222000Y-199625D01*
D21*
X-222758Y-248920D02*
X-211582Y-248920D01*
X-211582Y-182880D02*
X-222758Y-182880D01*
M02*
