G04 EAGLE Gerber RS-274X export*
G75*
%MOMM*%
%FSLAX34Y34*%
%LPD*%
%INTop Copper*%
%IPPOS*%
%AMOC8*
5,1,8,0,0,1.08239X$1,22.5*%
G01*
%ADD10R,1.200000X1.200000*%
%ADD11R,1.500000X0.550000*%
%ADD12R,0.550000X1.500000*%
%ADD13R,0.600000X0.700000*%
%ADD14R,0.700000X0.600000*%
%ADD15R,0.900000X0.700000*%
%ADD16R,0.550000X1.200000*%
%ADD17R,1.400000X1.400000*%
%ADD18R,0.700000X0.900000*%
%ADD19R,1.300000X1.500000*%
%ADD20R,1.400000X1.000000*%
%ADD21R,4.600000X1.000000*%
%ADD22R,3.400000X1.600000*%
%ADD23C,0.756400*%
%ADD24C,0.203200*%

G36*
X-50038Y-242315D02*
X-50038Y-242315D01*
X-49980Y-242307D01*
X-49922Y-242309D01*
X-49840Y-242287D01*
X-49756Y-242275D01*
X-49703Y-242251D01*
X-49647Y-242237D01*
X-49574Y-242194D01*
X-49497Y-242159D01*
X-49452Y-242121D01*
X-49402Y-242091D01*
X-49344Y-242030D01*
X-49280Y-241975D01*
X-49248Y-241927D01*
X-49208Y-241884D01*
X-49169Y-241809D01*
X-49122Y-241739D01*
X-49105Y-241683D01*
X-49078Y-241631D01*
X-49067Y-241563D01*
X-49037Y-241468D01*
X-49034Y-241368D01*
X-49023Y-241300D01*
X-49023Y127000D01*
X-49031Y127058D01*
X-49029Y127116D01*
X-49051Y127198D01*
X-49063Y127282D01*
X-49086Y127335D01*
X-49101Y127391D01*
X-49144Y127464D01*
X-49179Y127541D01*
X-49217Y127586D01*
X-49246Y127636D01*
X-49308Y127694D01*
X-49362Y127758D01*
X-49411Y127790D01*
X-49454Y127830D01*
X-49529Y127869D01*
X-49599Y127916D01*
X-49655Y127933D01*
X-49707Y127960D01*
X-49775Y127971D01*
X-49870Y128001D01*
X-49970Y128004D01*
X-50038Y128015D01*
X-52122Y128015D01*
X-52218Y128002D01*
X-52315Y127997D01*
X-52353Y127983D01*
X-52404Y127975D01*
X-52561Y127905D01*
X-52630Y127879D01*
X-53205Y127547D01*
X-59989Y125729D01*
X-67011Y125729D01*
X-73795Y127547D01*
X-74370Y127879D01*
X-74460Y127916D01*
X-74547Y127960D01*
X-74587Y127966D01*
X-74634Y127986D01*
X-74805Y128003D01*
X-74878Y128015D01*
X-103060Y128015D01*
X-103118Y128007D01*
X-103176Y128009D01*
X-103258Y127987D01*
X-103342Y127975D01*
X-103395Y127952D01*
X-103451Y127937D01*
X-103524Y127894D01*
X-103601Y127859D01*
X-103646Y127821D01*
X-103696Y127792D01*
X-103754Y127730D01*
X-103818Y127676D01*
X-103850Y127627D01*
X-103890Y127584D01*
X-103929Y127509D01*
X-103976Y127439D01*
X-103993Y127383D01*
X-104020Y127331D01*
X-104031Y127263D01*
X-104061Y127168D01*
X-104064Y127068D01*
X-104075Y127000D01*
X-104075Y119289D01*
X-104063Y119202D01*
X-104060Y119115D01*
X-104043Y119062D01*
X-104035Y119007D01*
X-104000Y118928D01*
X-103973Y118844D01*
X-103945Y118805D01*
X-103919Y118748D01*
X-103823Y118635D01*
X-103778Y118571D01*
X-100858Y115651D01*
X-100834Y115633D01*
X-100815Y115611D01*
X-100721Y115548D01*
X-100631Y115480D01*
X-100603Y115470D01*
X-100579Y115453D01*
X-100471Y115419D01*
X-100365Y115379D01*
X-100336Y115376D01*
X-100308Y115368D01*
X-100194Y115365D01*
X-100082Y115355D01*
X-100053Y115361D01*
X-100024Y115360D01*
X-99914Y115389D01*
X-99803Y115411D01*
X-99777Y115425D01*
X-99749Y115432D01*
X-99651Y115490D01*
X-99551Y115542D01*
X-99529Y115562D01*
X-99504Y115577D01*
X-99427Y115660D01*
X-99345Y115738D01*
X-99330Y115763D01*
X-99310Y115785D01*
X-99258Y115886D01*
X-99201Y115983D01*
X-99194Y116012D01*
X-99180Y116038D01*
X-99167Y116115D01*
X-99131Y116259D01*
X-99133Y116321D01*
X-99125Y116369D01*
X-99125Y119932D01*
X-98232Y120825D01*
X-82968Y120825D01*
X-82075Y119932D01*
X-82075Y109789D01*
X-82063Y109702D01*
X-82060Y109615D01*
X-82043Y109562D01*
X-82035Y109507D01*
X-82000Y109428D01*
X-81973Y109344D01*
X-81945Y109305D01*
X-81919Y109248D01*
X-81823Y109135D01*
X-81778Y109071D01*
X-60959Y88252D01*
X-60959Y-32730D01*
X-60959Y-32732D01*
X-60959Y-32733D01*
X-60939Y-32874D01*
X-60919Y-33012D01*
X-60919Y-33013D01*
X-60919Y-33015D01*
X-60860Y-33144D01*
X-60803Y-33271D01*
X-60802Y-33272D01*
X-60801Y-33274D01*
X-60711Y-33380D01*
X-60620Y-33488D01*
X-60618Y-33489D01*
X-60617Y-33490D01*
X-60605Y-33498D01*
X-60582Y-33513D01*
X-59001Y-35094D01*
X-58193Y-37044D01*
X-58193Y-39156D01*
X-59001Y-41106D01*
X-60494Y-42599D01*
X-62444Y-43407D01*
X-64556Y-43407D01*
X-66506Y-42599D01*
X-67999Y-41106D01*
X-68807Y-39156D01*
X-68807Y-37044D01*
X-67999Y-35094D01*
X-66437Y-33532D01*
X-66423Y-33524D01*
X-66422Y-33522D01*
X-66420Y-33522D01*
X-66322Y-33417D01*
X-66227Y-33317D01*
X-66227Y-33315D01*
X-66226Y-33314D01*
X-66161Y-33189D01*
X-66097Y-33064D01*
X-66097Y-33063D01*
X-66096Y-33061D01*
X-66094Y-33046D01*
X-66042Y-32785D01*
X-66045Y-32755D01*
X-66041Y-32730D01*
X-66041Y85727D01*
X-66053Y85814D01*
X-66056Y85901D01*
X-66073Y85954D01*
X-66081Y86009D01*
X-66116Y86088D01*
X-66143Y86172D01*
X-66171Y86211D01*
X-66197Y86268D01*
X-66293Y86381D01*
X-66338Y86445D01*
X-87371Y107478D01*
X-87441Y107530D01*
X-87505Y107590D01*
X-87554Y107616D01*
X-87598Y107649D01*
X-87680Y107680D01*
X-87758Y107720D01*
X-87805Y107728D01*
X-87864Y107750D01*
X-88012Y107762D01*
X-88089Y107775D01*
X-93623Y107775D01*
X-93652Y107771D01*
X-93682Y107774D01*
X-93793Y107751D01*
X-93905Y107735D01*
X-93931Y107723D01*
X-93960Y107718D01*
X-94061Y107666D01*
X-94164Y107619D01*
X-94187Y107600D01*
X-94213Y107587D01*
X-94295Y107509D01*
X-94381Y107436D01*
X-94397Y107411D01*
X-94419Y107391D01*
X-94476Y107293D01*
X-94539Y107199D01*
X-94548Y107171D01*
X-94562Y107146D01*
X-94590Y107036D01*
X-94625Y106928D01*
X-94625Y106898D01*
X-94632Y106870D01*
X-94629Y106757D01*
X-94632Y106644D01*
X-94624Y106615D01*
X-94623Y106586D01*
X-94589Y106478D01*
X-94560Y106369D01*
X-94545Y106343D01*
X-94536Y106315D01*
X-94490Y106252D01*
X-94415Y106124D01*
X-94369Y106081D01*
X-94341Y106042D01*
X-86359Y98060D01*
X-86359Y86740D01*
X-86351Y86682D01*
X-86353Y86624D01*
X-86331Y86542D01*
X-86319Y86458D01*
X-86296Y86405D01*
X-86281Y86349D01*
X-86238Y86276D01*
X-86203Y86199D01*
X-86165Y86154D01*
X-86136Y86104D01*
X-86074Y86046D01*
X-86020Y85982D01*
X-85971Y85950D01*
X-85928Y85910D01*
X-85853Y85871D01*
X-85783Y85824D01*
X-85727Y85807D01*
X-85675Y85780D01*
X-85607Y85769D01*
X-85512Y85739D01*
X-85412Y85736D01*
X-85344Y85725D01*
X-84768Y85725D01*
X-83875Y84832D01*
X-83875Y77568D01*
X-84526Y76918D01*
X-84561Y76871D01*
X-84603Y76831D01*
X-84646Y76758D01*
X-84697Y76691D01*
X-84717Y76636D01*
X-84747Y76586D01*
X-84768Y76504D01*
X-84798Y76425D01*
X-84803Y76367D01*
X-84817Y76310D01*
X-84814Y76226D01*
X-84821Y76142D01*
X-84810Y76084D01*
X-84808Y76026D01*
X-84782Y75946D01*
X-84766Y75863D01*
X-84739Y75811D01*
X-84721Y75755D01*
X-84681Y75699D01*
X-84635Y75611D01*
X-84566Y75538D01*
X-84526Y75482D01*
X-83875Y74832D01*
X-83875Y67568D01*
X-84768Y66675D01*
X-85344Y66675D01*
X-85402Y66667D01*
X-85460Y66669D01*
X-85542Y66647D01*
X-85626Y66635D01*
X-85679Y66612D01*
X-85735Y66597D01*
X-85808Y66554D01*
X-85885Y66519D01*
X-85930Y66481D01*
X-85980Y66452D01*
X-86038Y66390D01*
X-86102Y66336D01*
X-86134Y66287D01*
X-86174Y66244D01*
X-86213Y66169D01*
X-86260Y66099D01*
X-86277Y66043D01*
X-86304Y65991D01*
X-86315Y65923D01*
X-86345Y65828D01*
X-86348Y65728D01*
X-86359Y65660D01*
X-86359Y32265D01*
X-86347Y32178D01*
X-86344Y32091D01*
X-86327Y32038D01*
X-86319Y31984D01*
X-86284Y31904D01*
X-86257Y31821D01*
X-86229Y31781D01*
X-86203Y31724D01*
X-86107Y31611D01*
X-86062Y31547D01*
X-79319Y24805D01*
X-79319Y-2655D01*
X-99795Y-23131D01*
X-113217Y-23131D01*
X-113304Y-23143D01*
X-113391Y-23146D01*
X-113444Y-23163D01*
X-113499Y-23171D01*
X-113578Y-23206D01*
X-113662Y-23233D01*
X-113701Y-23261D01*
X-113758Y-23287D01*
X-113871Y-23383D01*
X-113935Y-23428D01*
X-119828Y-29321D01*
X-119880Y-29391D01*
X-119940Y-29455D01*
X-119966Y-29504D01*
X-119999Y-29548D01*
X-120030Y-29630D01*
X-120070Y-29708D01*
X-120078Y-29755D01*
X-120100Y-29814D01*
X-120112Y-29962D01*
X-120125Y-30039D01*
X-120125Y-38432D01*
X-121018Y-39325D01*
X-127807Y-39325D01*
X-127842Y-39304D01*
X-127909Y-39253D01*
X-127964Y-39232D01*
X-128014Y-39203D01*
X-128096Y-39182D01*
X-128175Y-39152D01*
X-128233Y-39147D01*
X-128290Y-39133D01*
X-128374Y-39135D01*
X-128458Y-39129D01*
X-128516Y-39140D01*
X-128574Y-39142D01*
X-128654Y-39168D01*
X-128737Y-39184D01*
X-128789Y-39211D01*
X-128845Y-39229D01*
X-128901Y-39269D01*
X-128989Y-39315D01*
X-128999Y-39325D01*
X-135807Y-39325D01*
X-135842Y-39304D01*
X-135909Y-39253D01*
X-135964Y-39232D01*
X-136014Y-39203D01*
X-136096Y-39182D01*
X-136175Y-39152D01*
X-136233Y-39147D01*
X-136290Y-39133D01*
X-136374Y-39135D01*
X-136458Y-39129D01*
X-136516Y-39140D01*
X-136574Y-39142D01*
X-136654Y-39168D01*
X-136737Y-39184D01*
X-136789Y-39211D01*
X-136845Y-39229D01*
X-136901Y-39269D01*
X-136989Y-39315D01*
X-136999Y-39325D01*
X-139173Y-39325D01*
X-139202Y-39329D01*
X-139232Y-39326D01*
X-139343Y-39349D01*
X-139455Y-39365D01*
X-139481Y-39377D01*
X-139510Y-39382D01*
X-139611Y-39434D01*
X-139714Y-39481D01*
X-139737Y-39500D01*
X-139763Y-39513D01*
X-139845Y-39591D01*
X-139931Y-39664D01*
X-139947Y-39689D01*
X-139969Y-39709D01*
X-140026Y-39807D01*
X-140089Y-39901D01*
X-140098Y-39929D01*
X-140112Y-39954D01*
X-140140Y-40064D01*
X-140175Y-40172D01*
X-140175Y-40202D01*
X-140182Y-40230D01*
X-140179Y-40343D01*
X-140182Y-40456D01*
X-140174Y-40485D01*
X-140173Y-40514D01*
X-140139Y-40622D01*
X-140110Y-40731D01*
X-140095Y-40757D01*
X-140086Y-40785D01*
X-140040Y-40848D01*
X-139965Y-40976D01*
X-139919Y-41019D01*
X-139891Y-41058D01*
X-132987Y-47962D01*
X-132917Y-48014D01*
X-132853Y-48074D01*
X-132804Y-48100D01*
X-132760Y-48133D01*
X-132678Y-48164D01*
X-132600Y-48204D01*
X-132553Y-48212D01*
X-132494Y-48234D01*
X-132347Y-48246D01*
X-132269Y-48259D01*
X-112140Y-48259D01*
X-112082Y-48251D01*
X-112024Y-48253D01*
X-111942Y-48231D01*
X-111858Y-48219D01*
X-111805Y-48196D01*
X-111749Y-48181D01*
X-111676Y-48138D01*
X-111599Y-48103D01*
X-111554Y-48065D01*
X-111504Y-48036D01*
X-111446Y-47974D01*
X-111382Y-47920D01*
X-111350Y-47871D01*
X-111310Y-47828D01*
X-111271Y-47753D01*
X-111224Y-47683D01*
X-111207Y-47627D01*
X-111180Y-47575D01*
X-111169Y-47507D01*
X-111139Y-47412D01*
X-111136Y-47312D01*
X-111125Y-47244D01*
X-111125Y-46668D01*
X-110232Y-45775D01*
X-102958Y-45775D01*
X-102949Y-45785D01*
X-102876Y-45828D01*
X-102809Y-45878D01*
X-102755Y-45899D01*
X-102704Y-45929D01*
X-102622Y-45949D01*
X-102543Y-45980D01*
X-102485Y-45984D01*
X-102428Y-45999D01*
X-102344Y-45996D01*
X-102260Y-46003D01*
X-102203Y-45992D01*
X-102144Y-45990D01*
X-102064Y-45964D01*
X-101981Y-45947D01*
X-101930Y-45920D01*
X-101874Y-45902D01*
X-101818Y-45862D01*
X-101729Y-45816D01*
X-101657Y-45748D01*
X-101600Y-45707D01*
X-101160Y-45267D01*
X-100581Y-44932D01*
X-99934Y-44759D01*
X-98099Y-44759D01*
X-98099Y-50316D01*
X-98091Y-50374D01*
X-98093Y-50432D01*
X-98071Y-50514D01*
X-98059Y-50597D01*
X-98036Y-50651D01*
X-98021Y-50707D01*
X-97978Y-50780D01*
X-97969Y-50799D01*
X-98000Y-50845D01*
X-98017Y-50901D01*
X-98044Y-50953D01*
X-98055Y-51021D01*
X-98085Y-51116D01*
X-98088Y-51216D01*
X-98099Y-51284D01*
X-98099Y-56841D01*
X-99934Y-56841D01*
X-100581Y-56668D01*
X-101160Y-56333D01*
X-101600Y-55893D01*
X-101647Y-55857D01*
X-101687Y-55815D01*
X-101760Y-55772D01*
X-101828Y-55722D01*
X-101882Y-55701D01*
X-101933Y-55671D01*
X-102014Y-55651D01*
X-102093Y-55620D01*
X-102152Y-55616D01*
X-102208Y-55601D01*
X-102292Y-55604D01*
X-102377Y-55597D01*
X-102434Y-55608D01*
X-102492Y-55610D01*
X-102573Y-55636D01*
X-102655Y-55653D01*
X-102707Y-55680D01*
X-102763Y-55698D01*
X-102819Y-55738D01*
X-102908Y-55784D01*
X-102951Y-55825D01*
X-110232Y-55825D01*
X-111125Y-54932D01*
X-111125Y-54356D01*
X-111133Y-54298D01*
X-111131Y-54240D01*
X-111153Y-54158D01*
X-111165Y-54074D01*
X-111188Y-54021D01*
X-111203Y-53965D01*
X-111246Y-53892D01*
X-111281Y-53815D01*
X-111319Y-53770D01*
X-111348Y-53720D01*
X-111410Y-53662D01*
X-111464Y-53598D01*
X-111513Y-53566D01*
X-111556Y-53526D01*
X-111631Y-53487D01*
X-111701Y-53440D01*
X-111757Y-53423D01*
X-111809Y-53396D01*
X-111877Y-53385D01*
X-111972Y-53355D01*
X-112072Y-53352D01*
X-112140Y-53341D01*
X-117723Y-53341D01*
X-117752Y-53345D01*
X-117781Y-53342D01*
X-117892Y-53365D01*
X-118004Y-53381D01*
X-118031Y-53393D01*
X-118060Y-53398D01*
X-118161Y-53451D01*
X-118264Y-53497D01*
X-118286Y-53516D01*
X-118312Y-53529D01*
X-118394Y-53607D01*
X-118481Y-53680D01*
X-118497Y-53705D01*
X-118518Y-53725D01*
X-118576Y-53823D01*
X-118638Y-53917D01*
X-118647Y-53945D01*
X-118662Y-53970D01*
X-118690Y-54080D01*
X-118724Y-54188D01*
X-118725Y-54218D01*
X-118732Y-54246D01*
X-118729Y-54359D01*
X-118732Y-54472D01*
X-118724Y-54501D01*
X-118723Y-54530D01*
X-118688Y-54638D01*
X-118660Y-54747D01*
X-118645Y-54773D01*
X-118636Y-54801D01*
X-118590Y-54865D01*
X-118514Y-54992D01*
X-118469Y-55035D01*
X-118441Y-55074D01*
X-118119Y-55395D01*
X-118119Y-100744D01*
X-118111Y-100802D01*
X-118113Y-100860D01*
X-118091Y-100942D01*
X-118079Y-101026D01*
X-118056Y-101079D01*
X-118041Y-101135D01*
X-117998Y-101208D01*
X-117963Y-101285D01*
X-117925Y-101330D01*
X-117896Y-101380D01*
X-117834Y-101438D01*
X-117780Y-101502D01*
X-117731Y-101534D01*
X-117688Y-101574D01*
X-117613Y-101613D01*
X-117543Y-101660D01*
X-117487Y-101677D01*
X-117435Y-101704D01*
X-117367Y-101715D01*
X-117272Y-101745D01*
X-117172Y-101748D01*
X-117104Y-101759D01*
X-116049Y-101759D01*
X-116049Y-107066D01*
X-116041Y-107124D01*
X-116043Y-107182D01*
X-116021Y-107264D01*
X-116009Y-107347D01*
X-115986Y-107401D01*
X-115971Y-107457D01*
X-115928Y-107530D01*
X-115893Y-107607D01*
X-115855Y-107651D01*
X-115826Y-107702D01*
X-115764Y-107759D01*
X-115710Y-107824D01*
X-115661Y-107856D01*
X-115618Y-107896D01*
X-115543Y-107935D01*
X-115473Y-107981D01*
X-115417Y-107999D01*
X-115365Y-108026D01*
X-115297Y-108037D01*
X-115202Y-108067D01*
X-115102Y-108070D01*
X-115034Y-108081D01*
X-113566Y-108081D01*
X-113508Y-108073D01*
X-113450Y-108074D01*
X-113368Y-108053D01*
X-113284Y-108041D01*
X-113231Y-108017D01*
X-113175Y-108003D01*
X-113102Y-107959D01*
X-113025Y-107925D01*
X-112980Y-107887D01*
X-112930Y-107857D01*
X-112872Y-107796D01*
X-112808Y-107741D01*
X-112776Y-107693D01*
X-112736Y-107650D01*
X-112697Y-107575D01*
X-112650Y-107505D01*
X-112633Y-107449D01*
X-112606Y-107397D01*
X-112595Y-107329D01*
X-112565Y-107234D01*
X-112562Y-107134D01*
X-112551Y-107066D01*
X-112551Y-101759D01*
X-109466Y-101759D01*
X-108819Y-101932D01*
X-108240Y-102267D01*
X-107949Y-102557D01*
X-107903Y-102592D01*
X-107862Y-102635D01*
X-107789Y-102678D01*
X-107722Y-102728D01*
X-107668Y-102749D01*
X-107617Y-102779D01*
X-107535Y-102800D01*
X-107457Y-102830D01*
X-107398Y-102834D01*
X-107341Y-102849D01*
X-107257Y-102846D01*
X-107173Y-102853D01*
X-107116Y-102842D01*
X-107057Y-102840D01*
X-106977Y-102814D01*
X-106895Y-102797D01*
X-106852Y-102775D01*
X-96468Y-102775D01*
X-95575Y-103668D01*
X-95575Y-109811D01*
X-95563Y-109898D01*
X-95560Y-109985D01*
X-95543Y-110038D01*
X-95535Y-110093D01*
X-95500Y-110172D01*
X-95473Y-110256D01*
X-95445Y-110295D01*
X-95419Y-110352D01*
X-95323Y-110465D01*
X-95278Y-110529D01*
X-94044Y-111763D01*
X-93974Y-111815D01*
X-93910Y-111875D01*
X-93861Y-111901D01*
X-93817Y-111934D01*
X-93735Y-111965D01*
X-93657Y-112005D01*
X-93610Y-112013D01*
X-93551Y-112035D01*
X-93403Y-112047D01*
X-93326Y-112060D01*
X-92456Y-112060D01*
X-92398Y-112052D01*
X-92340Y-112054D01*
X-92258Y-112032D01*
X-92174Y-112020D01*
X-92121Y-111997D01*
X-92065Y-111982D01*
X-91992Y-111939D01*
X-91915Y-111904D01*
X-91870Y-111866D01*
X-91820Y-111837D01*
X-91762Y-111775D01*
X-91698Y-111721D01*
X-91666Y-111672D01*
X-91626Y-111629D01*
X-91587Y-111554D01*
X-91540Y-111484D01*
X-91523Y-111428D01*
X-91496Y-111376D01*
X-91485Y-111308D01*
X-91455Y-111213D01*
X-91452Y-111113D01*
X-91441Y-111045D01*
X-91441Y-100548D01*
X-89952Y-99059D01*
X-89332Y-99059D01*
X-89322Y-99058D01*
X-89313Y-99059D01*
X-89182Y-99038D01*
X-89051Y-99019D01*
X-89042Y-99015D01*
X-89032Y-99014D01*
X-88912Y-98957D01*
X-88791Y-98903D01*
X-88784Y-98897D01*
X-88775Y-98893D01*
X-88675Y-98805D01*
X-88574Y-98720D01*
X-88569Y-98711D01*
X-88561Y-98705D01*
X-88490Y-98593D01*
X-88417Y-98483D01*
X-88414Y-98474D01*
X-88408Y-98465D01*
X-88371Y-98338D01*
X-88331Y-98212D01*
X-88331Y-98202D01*
X-88328Y-98193D01*
X-88327Y-98060D01*
X-88324Y-97928D01*
X-88326Y-97918D01*
X-88326Y-97908D01*
X-88362Y-97780D01*
X-88395Y-97653D01*
X-88400Y-97644D01*
X-88403Y-97635D01*
X-88473Y-97522D01*
X-88541Y-97408D01*
X-88548Y-97401D01*
X-88553Y-97393D01*
X-88651Y-97305D01*
X-88748Y-97214D01*
X-88757Y-97209D01*
X-88764Y-97203D01*
X-88815Y-97179D01*
X-89001Y-97084D01*
X-89037Y-97078D01*
X-89069Y-97063D01*
X-89431Y-96967D01*
X-90010Y-96632D01*
X-90483Y-96159D01*
X-90818Y-95580D01*
X-90991Y-94933D01*
X-90991Y-89973D01*
X-86059Y-89973D01*
X-86001Y-89965D01*
X-85943Y-89967D01*
X-85861Y-89945D01*
X-85778Y-89933D01*
X-85724Y-89910D01*
X-85700Y-89903D01*
X-85672Y-89918D01*
X-85604Y-89929D01*
X-85509Y-89959D01*
X-85409Y-89962D01*
X-85341Y-89973D01*
X-80409Y-89973D01*
X-80409Y-94933D01*
X-80582Y-95580D01*
X-80917Y-96159D01*
X-81390Y-96632D01*
X-81969Y-96967D01*
X-82331Y-97063D01*
X-82340Y-97067D01*
X-82349Y-97069D01*
X-82470Y-97123D01*
X-82592Y-97175D01*
X-82600Y-97181D01*
X-82609Y-97185D01*
X-82710Y-97271D01*
X-82813Y-97354D01*
X-82818Y-97362D01*
X-82826Y-97369D01*
X-82899Y-97479D01*
X-82975Y-97588D01*
X-82978Y-97597D01*
X-82983Y-97605D01*
X-83023Y-97731D01*
X-83066Y-97857D01*
X-83066Y-97867D01*
X-83069Y-97876D01*
X-83072Y-98009D01*
X-83078Y-98141D01*
X-83076Y-98150D01*
X-83076Y-98160D01*
X-83043Y-98289D01*
X-83012Y-98417D01*
X-83007Y-98426D01*
X-83005Y-98435D01*
X-82937Y-98549D01*
X-82871Y-98665D01*
X-82864Y-98671D01*
X-82859Y-98680D01*
X-82763Y-98770D01*
X-82668Y-98863D01*
X-82659Y-98868D01*
X-82652Y-98874D01*
X-82534Y-98935D01*
X-82417Y-98997D01*
X-82408Y-98999D01*
X-82399Y-99004D01*
X-82343Y-99013D01*
X-82139Y-99057D01*
X-82103Y-99053D01*
X-82068Y-99059D01*
X-62448Y-99059D01*
X-54609Y-106898D01*
X-54609Y-166152D01*
X-56098Y-167641D01*
X-74652Y-167641D01*
X-74681Y-167645D01*
X-74710Y-167642D01*
X-74821Y-167665D01*
X-74933Y-167681D01*
X-74960Y-167693D01*
X-74989Y-167698D01*
X-75090Y-167751D01*
X-75193Y-167797D01*
X-75215Y-167816D01*
X-75241Y-167829D01*
X-75323Y-167907D01*
X-75410Y-167980D01*
X-75426Y-168005D01*
X-75447Y-168025D01*
X-75505Y-168123D01*
X-75567Y-168217D01*
X-75576Y-168245D01*
X-75591Y-168270D01*
X-75619Y-168380D01*
X-75653Y-168488D01*
X-75654Y-168518D01*
X-75661Y-168546D01*
X-75658Y-168659D01*
X-75661Y-168772D01*
X-75653Y-168801D01*
X-75652Y-168830D01*
X-75617Y-168938D01*
X-75589Y-169047D01*
X-75574Y-169073D01*
X-75565Y-169101D01*
X-75519Y-169165D01*
X-75443Y-169292D01*
X-75398Y-169335D01*
X-75370Y-169374D01*
X-74575Y-170168D01*
X-74575Y-185432D01*
X-75468Y-186325D01*
X-87611Y-186325D01*
X-87698Y-186337D01*
X-87785Y-186340D01*
X-87838Y-186357D01*
X-87893Y-186365D01*
X-87972Y-186400D01*
X-88056Y-186427D01*
X-88095Y-186455D01*
X-88152Y-186481D01*
X-88265Y-186577D01*
X-88329Y-186622D01*
X-105662Y-203955D01*
X-107448Y-205741D01*
X-108930Y-205741D01*
X-108932Y-205741D01*
X-108933Y-205741D01*
X-109074Y-205761D01*
X-109212Y-205781D01*
X-109213Y-205781D01*
X-109215Y-205781D01*
X-109344Y-205840D01*
X-109471Y-205897D01*
X-109472Y-205898D01*
X-109474Y-205899D01*
X-109580Y-205989D01*
X-109688Y-206080D01*
X-109689Y-206082D01*
X-109690Y-206083D01*
X-109698Y-206095D01*
X-109713Y-206118D01*
X-111294Y-207699D01*
X-113244Y-208507D01*
X-115356Y-208507D01*
X-117306Y-207699D01*
X-118799Y-206206D01*
X-119607Y-204256D01*
X-119607Y-202144D01*
X-118799Y-200194D01*
X-117306Y-198701D01*
X-115356Y-197893D01*
X-113244Y-197893D01*
X-111294Y-198701D01*
X-110162Y-199833D01*
X-110115Y-199868D01*
X-110075Y-199911D01*
X-110002Y-199953D01*
X-109935Y-200004D01*
X-109880Y-200025D01*
X-109830Y-200054D01*
X-109748Y-200075D01*
X-109669Y-200105D01*
X-109611Y-200110D01*
X-109554Y-200124D01*
X-109470Y-200122D01*
X-109386Y-200129D01*
X-109329Y-200117D01*
X-109270Y-200115D01*
X-109190Y-200090D01*
X-109107Y-200073D01*
X-109055Y-200046D01*
X-109000Y-200028D01*
X-108943Y-199988D01*
X-108855Y-199942D01*
X-108782Y-199873D01*
X-108726Y-199833D01*
X-91922Y-183029D01*
X-91870Y-182959D01*
X-91810Y-182895D01*
X-91784Y-182846D01*
X-91751Y-182802D01*
X-91720Y-182720D01*
X-91680Y-182642D01*
X-91672Y-182595D01*
X-91650Y-182536D01*
X-91638Y-182388D01*
X-91625Y-182311D01*
X-91625Y-173869D01*
X-91629Y-173840D01*
X-91626Y-173811D01*
X-91649Y-173700D01*
X-91665Y-173587D01*
X-91677Y-173561D01*
X-91682Y-173532D01*
X-91735Y-173431D01*
X-91781Y-173328D01*
X-91800Y-173306D01*
X-91813Y-173280D01*
X-91891Y-173197D01*
X-91964Y-173111D01*
X-91989Y-173095D01*
X-92009Y-173073D01*
X-92107Y-173016D01*
X-92201Y-172953D01*
X-92229Y-172945D01*
X-92254Y-172930D01*
X-92364Y-172902D01*
X-92472Y-172868D01*
X-92502Y-172867D01*
X-92530Y-172860D01*
X-92643Y-172863D01*
X-92756Y-172860D01*
X-92785Y-172868D01*
X-92814Y-172869D01*
X-92922Y-172904D01*
X-93031Y-172932D01*
X-93057Y-172947D01*
X-93085Y-172956D01*
X-93149Y-173002D01*
X-93276Y-173077D01*
X-93319Y-173123D01*
X-93358Y-173151D01*
X-94198Y-173991D01*
X-110560Y-173991D01*
X-110618Y-173999D01*
X-110676Y-173997D01*
X-110758Y-174019D01*
X-110842Y-174031D01*
X-110895Y-174054D01*
X-110951Y-174069D01*
X-111024Y-174112D01*
X-111101Y-174147D01*
X-111146Y-174185D01*
X-111196Y-174214D01*
X-111254Y-174276D01*
X-111318Y-174330D01*
X-111350Y-174379D01*
X-111390Y-174422D01*
X-111429Y-174497D01*
X-111476Y-174567D01*
X-111493Y-174623D01*
X-111520Y-174675D01*
X-111531Y-174743D01*
X-111561Y-174838D01*
X-111564Y-174938D01*
X-111575Y-175006D01*
X-111575Y-185432D01*
X-112468Y-186325D01*
X-127732Y-186325D01*
X-128625Y-185432D01*
X-128625Y-182640D01*
X-128633Y-182582D01*
X-128631Y-182524D01*
X-128653Y-182442D01*
X-128665Y-182358D01*
X-128688Y-182305D01*
X-128703Y-182249D01*
X-128746Y-182176D01*
X-128781Y-182099D01*
X-128819Y-182054D01*
X-128848Y-182004D01*
X-128910Y-181946D01*
X-128964Y-181882D01*
X-129013Y-181850D01*
X-129056Y-181810D01*
X-129131Y-181771D01*
X-129201Y-181724D01*
X-129257Y-181707D01*
X-129309Y-181680D01*
X-129377Y-181669D01*
X-129472Y-181639D01*
X-129572Y-181636D01*
X-129640Y-181625D01*
X-177132Y-181625D01*
X-178025Y-180732D01*
X-178025Y-169468D01*
X-177132Y-168575D01*
X-129868Y-168575D01*
X-129168Y-169276D01*
X-129121Y-169311D01*
X-129081Y-169353D01*
X-129008Y-169396D01*
X-128941Y-169447D01*
X-128886Y-169468D01*
X-128836Y-169497D01*
X-128754Y-169518D01*
X-128675Y-169548D01*
X-128617Y-169553D01*
X-128560Y-169567D01*
X-128476Y-169564D01*
X-128392Y-169571D01*
X-128334Y-169560D01*
X-128276Y-169558D01*
X-128196Y-169532D01*
X-128113Y-169516D01*
X-128061Y-169489D01*
X-128005Y-169471D01*
X-127949Y-169431D01*
X-127861Y-169385D01*
X-127788Y-169316D01*
X-127732Y-169276D01*
X-127732Y-169275D01*
X-116202Y-169275D01*
X-116093Y-169260D01*
X-115983Y-169251D01*
X-115953Y-169240D01*
X-115921Y-169235D01*
X-115820Y-169190D01*
X-115717Y-169152D01*
X-115694Y-169134D01*
X-115661Y-169119D01*
X-115487Y-168972D01*
X-115453Y-168945D01*
X-115420Y-168909D01*
X-115223Y-168909D01*
X-115136Y-168897D01*
X-115049Y-168894D01*
X-114996Y-168877D01*
X-114941Y-168869D01*
X-114862Y-168834D01*
X-114778Y-168807D01*
X-114739Y-168779D01*
X-114682Y-168753D01*
X-114569Y-168657D01*
X-114505Y-168612D01*
X-113938Y-168045D01*
X-113885Y-167975D01*
X-113826Y-167911D01*
X-113800Y-167862D01*
X-113767Y-167818D01*
X-113736Y-167736D01*
X-113696Y-167658D01*
X-113688Y-167611D01*
X-113666Y-167552D01*
X-113654Y-167404D01*
X-113641Y-167327D01*
X-113641Y-162440D01*
X-113649Y-162382D01*
X-113647Y-162324D01*
X-113669Y-162242D01*
X-113681Y-162158D01*
X-113704Y-162105D01*
X-113719Y-162049D01*
X-113762Y-161976D01*
X-113797Y-161899D01*
X-113835Y-161854D01*
X-113864Y-161804D01*
X-113926Y-161746D01*
X-113980Y-161682D01*
X-114029Y-161650D01*
X-114072Y-161610D01*
X-114147Y-161571D01*
X-114217Y-161524D01*
X-114273Y-161507D01*
X-114325Y-161480D01*
X-114393Y-161469D01*
X-114488Y-161439D01*
X-114588Y-161436D01*
X-114656Y-161425D01*
X-118232Y-161425D01*
X-119125Y-160532D01*
X-119125Y-144268D01*
X-118232Y-143375D01*
X-103968Y-143375D01*
X-103075Y-144268D01*
X-103075Y-160532D01*
X-103968Y-161425D01*
X-107544Y-161425D01*
X-107602Y-161433D01*
X-107660Y-161431D01*
X-107742Y-161453D01*
X-107826Y-161465D01*
X-107879Y-161488D01*
X-107935Y-161503D01*
X-108008Y-161546D01*
X-108085Y-161581D01*
X-108130Y-161619D01*
X-108180Y-161648D01*
X-108238Y-161710D01*
X-108302Y-161764D01*
X-108334Y-161813D01*
X-108374Y-161856D01*
X-108413Y-161931D01*
X-108460Y-162001D01*
X-108477Y-162057D01*
X-108504Y-162109D01*
X-108515Y-162177D01*
X-108545Y-162272D01*
X-108548Y-162372D01*
X-108559Y-162440D01*
X-108559Y-167894D01*
X-108551Y-167952D01*
X-108553Y-168010D01*
X-108531Y-168092D01*
X-108519Y-168176D01*
X-108496Y-168229D01*
X-108481Y-168285D01*
X-108438Y-168358D01*
X-108403Y-168435D01*
X-108365Y-168480D01*
X-108336Y-168530D01*
X-108274Y-168588D01*
X-108220Y-168652D01*
X-108171Y-168684D01*
X-108128Y-168724D01*
X-108053Y-168763D01*
X-107983Y-168810D01*
X-107927Y-168827D01*
X-107875Y-168854D01*
X-107807Y-168865D01*
X-107712Y-168895D01*
X-107612Y-168898D01*
X-107544Y-168909D01*
X-96723Y-168909D01*
X-96636Y-168897D01*
X-96549Y-168894D01*
X-96496Y-168877D01*
X-96441Y-168869D01*
X-96362Y-168834D01*
X-96278Y-168807D01*
X-96239Y-168779D01*
X-96182Y-168753D01*
X-96069Y-168657D01*
X-96005Y-168612D01*
X-91738Y-164345D01*
X-90551Y-163158D01*
X-90533Y-163134D01*
X-90511Y-163115D01*
X-90448Y-163021D01*
X-90380Y-162931D01*
X-90370Y-162903D01*
X-90353Y-162879D01*
X-90319Y-162771D01*
X-90279Y-162665D01*
X-90276Y-162636D01*
X-90268Y-162608D01*
X-90265Y-162494D01*
X-90255Y-162382D01*
X-90261Y-162353D01*
X-90260Y-162324D01*
X-90289Y-162214D01*
X-90311Y-162103D01*
X-90325Y-162077D01*
X-90332Y-162049D01*
X-90390Y-161951D01*
X-90442Y-161851D01*
X-90462Y-161829D01*
X-90477Y-161804D01*
X-90560Y-161727D01*
X-90638Y-161645D01*
X-90663Y-161630D01*
X-90685Y-161610D01*
X-90786Y-161558D01*
X-90883Y-161501D01*
X-90912Y-161494D01*
X-90938Y-161480D01*
X-91015Y-161467D01*
X-91159Y-161431D01*
X-91221Y-161433D01*
X-91269Y-161425D01*
X-99232Y-161425D01*
X-100125Y-160532D01*
X-100125Y-144268D01*
X-99232Y-143375D01*
X-87089Y-143375D01*
X-87002Y-143363D01*
X-86915Y-143360D01*
X-86862Y-143343D01*
X-86807Y-143335D01*
X-86728Y-143300D01*
X-86644Y-143273D01*
X-86605Y-143245D01*
X-86548Y-143219D01*
X-86435Y-143123D01*
X-86371Y-143078D01*
X-69538Y-126245D01*
X-69486Y-126175D01*
X-69426Y-126111D01*
X-69400Y-126062D01*
X-69367Y-126018D01*
X-69336Y-125936D01*
X-69296Y-125858D01*
X-69288Y-125811D01*
X-69266Y-125752D01*
X-69254Y-125604D01*
X-69241Y-125527D01*
X-69241Y-123141D01*
X-69249Y-123083D01*
X-69247Y-123025D01*
X-69269Y-122943D01*
X-69281Y-122859D01*
X-69304Y-122806D01*
X-69319Y-122750D01*
X-69362Y-122677D01*
X-69397Y-122600D01*
X-69435Y-122555D01*
X-69464Y-122505D01*
X-69526Y-122447D01*
X-69580Y-122383D01*
X-69629Y-122351D01*
X-69672Y-122311D01*
X-69747Y-122272D01*
X-69817Y-122225D01*
X-69873Y-122208D01*
X-69925Y-122181D01*
X-69993Y-122170D01*
X-70058Y-122149D01*
X-70732Y-121475D01*
X-70779Y-121440D01*
X-70819Y-121398D01*
X-70892Y-121355D01*
X-70959Y-121304D01*
X-71014Y-121284D01*
X-71064Y-121254D01*
X-71146Y-121233D01*
X-71225Y-121203D01*
X-71283Y-121198D01*
X-71340Y-121184D01*
X-71424Y-121187D01*
X-71508Y-121180D01*
X-71566Y-121191D01*
X-71624Y-121193D01*
X-71704Y-121219D01*
X-71787Y-121235D01*
X-71839Y-121262D01*
X-71895Y-121280D01*
X-71951Y-121320D01*
X-72039Y-121366D01*
X-72112Y-121435D01*
X-72168Y-121475D01*
X-72818Y-122126D01*
X-76869Y-122126D01*
X-76956Y-122138D01*
X-77043Y-122141D01*
X-77096Y-122158D01*
X-77150Y-122166D01*
X-77230Y-122201D01*
X-77313Y-122228D01*
X-77353Y-122256D01*
X-77410Y-122282D01*
X-77523Y-122378D01*
X-77587Y-122423D01*
X-80845Y-125682D01*
X-90555Y-125682D01*
X-92598Y-123638D01*
X-92668Y-123586D01*
X-92732Y-123526D01*
X-92781Y-123500D01*
X-92825Y-123467D01*
X-92907Y-123436D01*
X-92985Y-123396D01*
X-93033Y-123388D01*
X-93091Y-123366D01*
X-93239Y-123354D01*
X-93316Y-123341D01*
X-94560Y-123341D01*
X-94618Y-123349D01*
X-94676Y-123347D01*
X-94758Y-123369D01*
X-94842Y-123381D01*
X-94895Y-123404D01*
X-94951Y-123419D01*
X-95024Y-123462D01*
X-95101Y-123497D01*
X-95146Y-123535D01*
X-95196Y-123564D01*
X-95254Y-123626D01*
X-95318Y-123680D01*
X-95350Y-123729D01*
X-95390Y-123772D01*
X-95429Y-123847D01*
X-95476Y-123917D01*
X-95493Y-123973D01*
X-95520Y-124025D01*
X-95531Y-124093D01*
X-95561Y-124188D01*
X-95564Y-124288D01*
X-95575Y-124356D01*
X-95575Y-124932D01*
X-96468Y-125825D01*
X-106732Y-125825D01*
X-107232Y-125324D01*
X-107279Y-125289D01*
X-107319Y-125247D01*
X-107392Y-125204D01*
X-107459Y-125153D01*
X-107514Y-125132D01*
X-107564Y-125103D01*
X-107646Y-125082D01*
X-107725Y-125052D01*
X-107783Y-125047D01*
X-107840Y-125033D01*
X-107924Y-125036D01*
X-108008Y-125029D01*
X-108066Y-125040D01*
X-108124Y-125042D01*
X-108204Y-125068D01*
X-108287Y-125084D01*
X-108339Y-125111D01*
X-108395Y-125129D01*
X-108451Y-125169D01*
X-108539Y-125215D01*
X-108612Y-125284D01*
X-108668Y-125324D01*
X-109168Y-125825D01*
X-115311Y-125825D01*
X-115398Y-125837D01*
X-115485Y-125840D01*
X-115538Y-125857D01*
X-115593Y-125865D01*
X-115672Y-125900D01*
X-115756Y-125927D01*
X-115795Y-125955D01*
X-115852Y-125981D01*
X-115965Y-126077D01*
X-116029Y-126122D01*
X-121396Y-131489D01*
X-121448Y-131559D01*
X-121508Y-131623D01*
X-121534Y-131672D01*
X-121567Y-131716D01*
X-121598Y-131798D01*
X-121638Y-131876D01*
X-121646Y-131923D01*
X-121668Y-131982D01*
X-121680Y-132130D01*
X-121693Y-132207D01*
X-121693Y-134406D01*
X-122501Y-136356D01*
X-123994Y-137849D01*
X-125944Y-138657D01*
X-128143Y-138657D01*
X-128230Y-138669D01*
X-128317Y-138672D01*
X-128370Y-138689D01*
X-128425Y-138697D01*
X-128504Y-138732D01*
X-128588Y-138759D01*
X-128627Y-138787D01*
X-128684Y-138813D01*
X-128797Y-138909D01*
X-128861Y-138954D01*
X-136749Y-146842D01*
X-136767Y-146866D01*
X-136789Y-146885D01*
X-136852Y-146979D01*
X-136920Y-147069D01*
X-136930Y-147097D01*
X-136947Y-147121D01*
X-136981Y-147229D01*
X-137021Y-147335D01*
X-137024Y-147364D01*
X-137032Y-147392D01*
X-137035Y-147506D01*
X-137045Y-147618D01*
X-137039Y-147647D01*
X-137040Y-147676D01*
X-137011Y-147786D01*
X-136989Y-147897D01*
X-136975Y-147923D01*
X-136968Y-147951D01*
X-136910Y-148049D01*
X-136858Y-148149D01*
X-136838Y-148171D01*
X-136823Y-148196D01*
X-136740Y-148273D01*
X-136662Y-148355D01*
X-136637Y-148370D01*
X-136615Y-148390D01*
X-136514Y-148442D01*
X-136417Y-148499D01*
X-136388Y-148506D01*
X-136362Y-148520D01*
X-136285Y-148533D01*
X-136141Y-148569D01*
X-136079Y-148567D01*
X-136031Y-148575D01*
X-129868Y-148575D01*
X-128975Y-149468D01*
X-128975Y-160732D01*
X-129868Y-161625D01*
X-177132Y-161625D01*
X-178025Y-160732D01*
X-178025Y-149468D01*
X-177132Y-148575D01*
X-166069Y-148575D01*
X-166040Y-148571D01*
X-166011Y-148574D01*
X-165900Y-148551D01*
X-165787Y-148535D01*
X-165761Y-148523D01*
X-165732Y-148518D01*
X-165631Y-148466D01*
X-165528Y-148419D01*
X-165506Y-148400D01*
X-165480Y-148387D01*
X-165397Y-148309D01*
X-165311Y-148236D01*
X-165295Y-148211D01*
X-165273Y-148191D01*
X-165216Y-148093D01*
X-165153Y-147999D01*
X-165145Y-147971D01*
X-165130Y-147946D01*
X-165102Y-147836D01*
X-165068Y-147728D01*
X-165067Y-147698D01*
X-165060Y-147670D01*
X-165063Y-147557D01*
X-165060Y-147444D01*
X-165068Y-147415D01*
X-165069Y-147386D01*
X-165104Y-147278D01*
X-165132Y-147169D01*
X-165147Y-147143D01*
X-165156Y-147115D01*
X-165202Y-147052D01*
X-165277Y-146924D01*
X-165323Y-146881D01*
X-165351Y-146842D01*
X-185242Y-126951D01*
X-185266Y-126933D01*
X-185285Y-126911D01*
X-185379Y-126848D01*
X-185469Y-126780D01*
X-185497Y-126770D01*
X-185521Y-126753D01*
X-185629Y-126719D01*
X-185735Y-126679D01*
X-185764Y-126676D01*
X-185792Y-126668D01*
X-185906Y-126665D01*
X-186018Y-126655D01*
X-186047Y-126661D01*
X-186076Y-126660D01*
X-186186Y-126689D01*
X-186297Y-126711D01*
X-186323Y-126725D01*
X-186351Y-126732D01*
X-186449Y-126790D01*
X-186549Y-126842D01*
X-186571Y-126862D01*
X-186596Y-126877D01*
X-186673Y-126960D01*
X-186755Y-127038D01*
X-186770Y-127063D01*
X-186790Y-127085D01*
X-186842Y-127186D01*
X-186899Y-127283D01*
X-186906Y-127312D01*
X-186920Y-127338D01*
X-186933Y-127415D01*
X-186969Y-127559D01*
X-186967Y-127621D01*
X-186975Y-127669D01*
X-186975Y-139732D01*
X-187868Y-140625D01*
X-223132Y-140625D01*
X-224025Y-139732D01*
X-224025Y-122468D01*
X-223132Y-121575D01*
X-192477Y-121575D01*
X-192448Y-121571D01*
X-192418Y-121574D01*
X-192307Y-121551D01*
X-192195Y-121535D01*
X-192169Y-121523D01*
X-192140Y-121518D01*
X-192039Y-121465D01*
X-191936Y-121419D01*
X-191913Y-121400D01*
X-191887Y-121387D01*
X-191805Y-121309D01*
X-191719Y-121236D01*
X-191703Y-121211D01*
X-191681Y-121191D01*
X-191624Y-121093D01*
X-191561Y-120999D01*
X-191552Y-120971D01*
X-191538Y-120946D01*
X-191510Y-120836D01*
X-191475Y-120728D01*
X-191475Y-120698D01*
X-191468Y-120670D01*
X-191471Y-120557D01*
X-191468Y-120444D01*
X-191476Y-120415D01*
X-191477Y-120386D01*
X-191511Y-120278D01*
X-191540Y-120169D01*
X-191555Y-120143D01*
X-191564Y-120115D01*
X-191610Y-120051D01*
X-191685Y-119924D01*
X-191731Y-119881D01*
X-191759Y-119842D01*
X-193041Y-118560D01*
X-193041Y-106426D01*
X-193045Y-106396D01*
X-193042Y-106367D01*
X-193065Y-106256D01*
X-193081Y-106144D01*
X-193093Y-106117D01*
X-193098Y-106089D01*
X-193150Y-105988D01*
X-193197Y-105885D01*
X-193216Y-105862D01*
X-193229Y-105836D01*
X-193307Y-105754D01*
X-193380Y-105668D01*
X-193405Y-105651D01*
X-193425Y-105630D01*
X-193523Y-105573D01*
X-193617Y-105510D01*
X-193645Y-105501D01*
X-193670Y-105486D01*
X-193780Y-105459D01*
X-193888Y-105424D01*
X-193918Y-105424D01*
X-193946Y-105416D01*
X-194059Y-105420D01*
X-194172Y-105417D01*
X-194201Y-105424D01*
X-194230Y-105425D01*
X-194338Y-105460D01*
X-194447Y-105489D01*
X-194473Y-105504D01*
X-194501Y-105513D01*
X-194564Y-105558D01*
X-194692Y-105634D01*
X-194735Y-105680D01*
X-194774Y-105708D01*
X-199529Y-110463D01*
X-206871Y-110463D01*
X-212063Y-105271D01*
X-212063Y-76351D01*
X-212075Y-76264D01*
X-212078Y-76177D01*
X-212095Y-76124D01*
X-212103Y-76069D01*
X-212138Y-75990D01*
X-212165Y-75906D01*
X-212193Y-75867D01*
X-212219Y-75810D01*
X-212315Y-75697D01*
X-212360Y-75633D01*
X-214671Y-73322D01*
X-214741Y-73270D01*
X-214805Y-73210D01*
X-214854Y-73184D01*
X-214898Y-73151D01*
X-214980Y-73120D01*
X-215058Y-73080D01*
X-215105Y-73072D01*
X-215164Y-73050D01*
X-215312Y-73038D01*
X-215389Y-73025D01*
X-220032Y-73025D01*
X-220925Y-72132D01*
X-220925Y-68839D01*
X-220937Y-68752D01*
X-220940Y-68665D01*
X-220957Y-68612D01*
X-220965Y-68557D01*
X-221000Y-68478D01*
X-221027Y-68394D01*
X-221055Y-68355D01*
X-221081Y-68298D01*
X-221177Y-68185D01*
X-221222Y-68121D01*
X-224791Y-64552D01*
X-224791Y1052D01*
X-223005Y2838D01*
X-222222Y3621D01*
X-222170Y3691D01*
X-222110Y3755D01*
X-222084Y3804D01*
X-222051Y3848D01*
X-222020Y3930D01*
X-221980Y4008D01*
X-221972Y4055D01*
X-221950Y4114D01*
X-221942Y4213D01*
X-221939Y4223D01*
X-221938Y4261D01*
X-221938Y4262D01*
X-221925Y4339D01*
X-221925Y8361D01*
X-221937Y8448D01*
X-221940Y8535D01*
X-221957Y8588D01*
X-221965Y8643D01*
X-222000Y8722D01*
X-222027Y8806D01*
X-222055Y8845D01*
X-222081Y8902D01*
X-222177Y9015D01*
X-222222Y9079D01*
X-228644Y15501D01*
X-228668Y15519D01*
X-228687Y15541D01*
X-228781Y15604D01*
X-228871Y15672D01*
X-228899Y15682D01*
X-228923Y15699D01*
X-229031Y15733D01*
X-229137Y15773D01*
X-229166Y15776D01*
X-229194Y15784D01*
X-229308Y15787D01*
X-229420Y15797D01*
X-229449Y15791D01*
X-229478Y15792D01*
X-229588Y15763D01*
X-229699Y15741D01*
X-229725Y15727D01*
X-229753Y15720D01*
X-229851Y15662D01*
X-229951Y15610D01*
X-229973Y15590D01*
X-229998Y15575D01*
X-230075Y15492D01*
X-230157Y15414D01*
X-230172Y15389D01*
X-230192Y15367D01*
X-230244Y15266D01*
X-230301Y15169D01*
X-230308Y15140D01*
X-230322Y15114D01*
X-230335Y15037D01*
X-230371Y14893D01*
X-230369Y14831D01*
X-230377Y14783D01*
X-230377Y-241300D01*
X-230369Y-241358D01*
X-230371Y-241416D01*
X-230349Y-241498D01*
X-230337Y-241582D01*
X-230314Y-241635D01*
X-230299Y-241691D01*
X-230256Y-241764D01*
X-230221Y-241841D01*
X-230183Y-241886D01*
X-230154Y-241936D01*
X-230092Y-241994D01*
X-230038Y-242058D01*
X-229989Y-242090D01*
X-229946Y-242130D01*
X-229871Y-242169D01*
X-229801Y-242216D01*
X-229745Y-242233D01*
X-229693Y-242260D01*
X-229625Y-242271D01*
X-229530Y-242301D01*
X-229430Y-242304D01*
X-229362Y-242315D01*
X-50038Y-242315D01*
G37*
G36*
X-120369Y9935D02*
X-120369Y9935D01*
X-120340Y9934D01*
X-120230Y9963D01*
X-120119Y9985D01*
X-120093Y9999D01*
X-120065Y10006D01*
X-119967Y10064D01*
X-119867Y10116D01*
X-119845Y10136D01*
X-119820Y10151D01*
X-119743Y10234D01*
X-119661Y10312D01*
X-119646Y10337D01*
X-119626Y10359D01*
X-119574Y10459D01*
X-119517Y10557D01*
X-119510Y10586D01*
X-119496Y10612D01*
X-119483Y10689D01*
X-119447Y10833D01*
X-119449Y10895D01*
X-119441Y10943D01*
X-119441Y11785D01*
X-119268Y12431D01*
X-118933Y13010D01*
X-118722Y13221D01*
X-118670Y13291D01*
X-118610Y13355D01*
X-118584Y13404D01*
X-118551Y13448D01*
X-118520Y13530D01*
X-118480Y13608D01*
X-118472Y13655D01*
X-118450Y13714D01*
X-118438Y13862D01*
X-118425Y13939D01*
X-118425Y19461D01*
X-118437Y19548D01*
X-118440Y19635D01*
X-118457Y19688D01*
X-118465Y19743D01*
X-118500Y19822D01*
X-118527Y19906D01*
X-118555Y19945D01*
X-118581Y20002D01*
X-118677Y20115D01*
X-118722Y20179D01*
X-118933Y20390D01*
X-119268Y20969D01*
X-119441Y21616D01*
X-119441Y23326D01*
X-109759Y23326D01*
X-109701Y23334D01*
X-109643Y23332D01*
X-109561Y23354D01*
X-109478Y23366D01*
X-109424Y23389D01*
X-109400Y23396D01*
X-109372Y23381D01*
X-109304Y23370D01*
X-109209Y23340D01*
X-109109Y23337D01*
X-109041Y23326D01*
X-99359Y23326D01*
X-99359Y21616D01*
X-99532Y20969D01*
X-99651Y20764D01*
X-99666Y20727D01*
X-99687Y20695D01*
X-99719Y20596D01*
X-99757Y20500D01*
X-99761Y20461D01*
X-99773Y20424D01*
X-99776Y20320D01*
X-99786Y20217D01*
X-99780Y20179D01*
X-99781Y20140D01*
X-99754Y20040D01*
X-99736Y19937D01*
X-99719Y19902D01*
X-99709Y19865D01*
X-99656Y19776D01*
X-99610Y19683D01*
X-99583Y19654D01*
X-99563Y19620D01*
X-99488Y19549D01*
X-99418Y19473D01*
X-99385Y19452D01*
X-99356Y19426D01*
X-99264Y19379D01*
X-99176Y19324D01*
X-99138Y19314D01*
X-99103Y19296D01*
X-99026Y19283D01*
X-98901Y19249D01*
X-98827Y19250D01*
X-98772Y19241D01*
X-98348Y19241D01*
X-96855Y17748D01*
X-96785Y17695D01*
X-96721Y17636D01*
X-96672Y17610D01*
X-96628Y17577D01*
X-96546Y17546D01*
X-96468Y17506D01*
X-96421Y17498D01*
X-96362Y17476D01*
X-96214Y17464D01*
X-96137Y17451D01*
X-89634Y17451D01*
X-89576Y17459D01*
X-89518Y17457D01*
X-89436Y17479D01*
X-89353Y17491D01*
X-89299Y17514D01*
X-89243Y17529D01*
X-89170Y17572D01*
X-89093Y17607D01*
X-89049Y17645D01*
X-88998Y17674D01*
X-88941Y17736D01*
X-88876Y17790D01*
X-88844Y17839D01*
X-88804Y17882D01*
X-88765Y17957D01*
X-88719Y18027D01*
X-88701Y18083D01*
X-88674Y18135D01*
X-88663Y18203D01*
X-88633Y18298D01*
X-88630Y18398D01*
X-88619Y18466D01*
X-88619Y18919D01*
X-88166Y18919D01*
X-88108Y18927D01*
X-88050Y18926D01*
X-87968Y18947D01*
X-87884Y18959D01*
X-87831Y18983D01*
X-87775Y18997D01*
X-87702Y19041D01*
X-87625Y19075D01*
X-87580Y19113D01*
X-87530Y19143D01*
X-87472Y19204D01*
X-87408Y19259D01*
X-87376Y19307D01*
X-87336Y19350D01*
X-87297Y19425D01*
X-87250Y19495D01*
X-87233Y19551D01*
X-87206Y19603D01*
X-87195Y19671D01*
X-87165Y19766D01*
X-87162Y19866D01*
X-87151Y19934D01*
X-87151Y25029D01*
X-87163Y25116D01*
X-87166Y25203D01*
X-87183Y25256D01*
X-87191Y25311D01*
X-87226Y25390D01*
X-87253Y25474D01*
X-87281Y25513D01*
X-87307Y25570D01*
X-87403Y25683D01*
X-87448Y25747D01*
X-91441Y29740D01*
X-91441Y65660D01*
X-91449Y65718D01*
X-91447Y65776D01*
X-91469Y65858D01*
X-91481Y65942D01*
X-91504Y65995D01*
X-91519Y66051D01*
X-91562Y66124D01*
X-91597Y66201D01*
X-91635Y66246D01*
X-91664Y66296D01*
X-91726Y66354D01*
X-91780Y66418D01*
X-91829Y66450D01*
X-91872Y66490D01*
X-91947Y66529D01*
X-92017Y66576D01*
X-92073Y66593D01*
X-92125Y66620D01*
X-92193Y66631D01*
X-92288Y66661D01*
X-92388Y66664D01*
X-92456Y66675D01*
X-93032Y66675D01*
X-93925Y67568D01*
X-93925Y74832D01*
X-93274Y75482D01*
X-93239Y75529D01*
X-93197Y75569D01*
X-93154Y75642D01*
X-93103Y75709D01*
X-93082Y75764D01*
X-93053Y75814D01*
X-93032Y75896D01*
X-93002Y75975D01*
X-92997Y76033D01*
X-92983Y76090D01*
X-92986Y76174D01*
X-92979Y76258D01*
X-92990Y76316D01*
X-92992Y76374D01*
X-93018Y76454D01*
X-93034Y76537D01*
X-93061Y76589D01*
X-93079Y76645D01*
X-93119Y76701D01*
X-93165Y76789D01*
X-93234Y76862D01*
X-93274Y76918D01*
X-93925Y77568D01*
X-93925Y84832D01*
X-93032Y85725D01*
X-92456Y85725D01*
X-92398Y85733D01*
X-92340Y85731D01*
X-92258Y85753D01*
X-92174Y85765D01*
X-92121Y85788D01*
X-92065Y85803D01*
X-91992Y85846D01*
X-91915Y85881D01*
X-91870Y85919D01*
X-91820Y85948D01*
X-91762Y86010D01*
X-91698Y86064D01*
X-91666Y86113D01*
X-91626Y86156D01*
X-91587Y86231D01*
X-91540Y86301D01*
X-91523Y86357D01*
X-91496Y86409D01*
X-91485Y86477D01*
X-91455Y86572D01*
X-91452Y86672D01*
X-91441Y86740D01*
X-91441Y95535D01*
X-91453Y95622D01*
X-91456Y95709D01*
X-91473Y95762D01*
X-91481Y95816D01*
X-91516Y95896D01*
X-91543Y95979D01*
X-91571Y96019D01*
X-91597Y96076D01*
X-91693Y96189D01*
X-91738Y96253D01*
X-102342Y106857D01*
X-102366Y106875D01*
X-102385Y106897D01*
X-102479Y106960D01*
X-102569Y107028D01*
X-102597Y107038D01*
X-102621Y107054D01*
X-102729Y107089D01*
X-102835Y107129D01*
X-102864Y107131D01*
X-102892Y107140D01*
X-103006Y107143D01*
X-103118Y107153D01*
X-103147Y107147D01*
X-103176Y107148D01*
X-103286Y107119D01*
X-103397Y107097D01*
X-103423Y107083D01*
X-103451Y107076D01*
X-103549Y107018D01*
X-103649Y106966D01*
X-103671Y106945D01*
X-103696Y106930D01*
X-103773Y106848D01*
X-103855Y106770D01*
X-103870Y106745D01*
X-103890Y106723D01*
X-103942Y106622D01*
X-103999Y106525D01*
X-104006Y106496D01*
X-104020Y106470D01*
X-104033Y106393D01*
X-104069Y106249D01*
X-104067Y106187D01*
X-104075Y106139D01*
X-104075Y99168D01*
X-104968Y98275D01*
X-120232Y98275D01*
X-121125Y99168D01*
X-121125Y109311D01*
X-121137Y109398D01*
X-121140Y109485D01*
X-121157Y109538D01*
X-121165Y109593D01*
X-121200Y109672D01*
X-121227Y109756D01*
X-121255Y109795D01*
X-121281Y109852D01*
X-121377Y109965D01*
X-121422Y110029D01*
X-127755Y116362D01*
X-128571Y117178D01*
X-128641Y117230D01*
X-128705Y117290D01*
X-128754Y117316D01*
X-128798Y117349D01*
X-128880Y117380D01*
X-128958Y117420D01*
X-129005Y117428D01*
X-129064Y117450D01*
X-129212Y117462D01*
X-129289Y117475D01*
X-131132Y117475D01*
X-131942Y118286D01*
X-131966Y118303D01*
X-131985Y118326D01*
X-132079Y118389D01*
X-132169Y118457D01*
X-132197Y118467D01*
X-132221Y118483D01*
X-132329Y118518D01*
X-132435Y118558D01*
X-132464Y118560D01*
X-132492Y118569D01*
X-132606Y118572D01*
X-132718Y118582D01*
X-132747Y118576D01*
X-132776Y118577D01*
X-132886Y118548D01*
X-132997Y118526D01*
X-133023Y118512D01*
X-133051Y118505D01*
X-133149Y118447D01*
X-133249Y118395D01*
X-133271Y118374D01*
X-133296Y118359D01*
X-133373Y118277D01*
X-133455Y118199D01*
X-133470Y118174D01*
X-133490Y118152D01*
X-133542Y118051D01*
X-133599Y117954D01*
X-133606Y117925D01*
X-133620Y117899D01*
X-133633Y117822D01*
X-133669Y117678D01*
X-133667Y117616D01*
X-133675Y117568D01*
X-133675Y116668D01*
X-134600Y115743D01*
X-134655Y115735D01*
X-134664Y115731D01*
X-134674Y115730D01*
X-134793Y115674D01*
X-134915Y115619D01*
X-134922Y115613D01*
X-134931Y115609D01*
X-135030Y115521D01*
X-135132Y115436D01*
X-135137Y115427D01*
X-135144Y115421D01*
X-135216Y115309D01*
X-135289Y115199D01*
X-135292Y115189D01*
X-135297Y115181D01*
X-135335Y115055D01*
X-135375Y114928D01*
X-135375Y114918D01*
X-135378Y114909D01*
X-135379Y114776D01*
X-135382Y114644D01*
X-135380Y114634D01*
X-135380Y114624D01*
X-135344Y114496D01*
X-135310Y114369D01*
X-135306Y114360D01*
X-135303Y114351D01*
X-135233Y114238D01*
X-135165Y114124D01*
X-135158Y114117D01*
X-135153Y114109D01*
X-135055Y114020D01*
X-134958Y113930D01*
X-134949Y113925D01*
X-134942Y113919D01*
X-134890Y113895D01*
X-134705Y113800D01*
X-134669Y113794D01*
X-134636Y113779D01*
X-134219Y113668D01*
X-133640Y113333D01*
X-133167Y112860D01*
X-132832Y112281D01*
X-132659Y111634D01*
X-132659Y109549D01*
X-138966Y109549D01*
X-139024Y109541D01*
X-139082Y109543D01*
X-139164Y109521D01*
X-139247Y109509D01*
X-139301Y109486D01*
X-139357Y109471D01*
X-139430Y109428D01*
X-139507Y109393D01*
X-139551Y109355D01*
X-139602Y109326D01*
X-139659Y109264D01*
X-139724Y109210D01*
X-139756Y109161D01*
X-139796Y109118D01*
X-139835Y109043D01*
X-139881Y108973D01*
X-139899Y108917D01*
X-139926Y108865D01*
X-139937Y108797D01*
X-139967Y108702D01*
X-139970Y108602D01*
X-139981Y108534D01*
X-139981Y108081D01*
X-140434Y108081D01*
X-140492Y108073D01*
X-140550Y108074D01*
X-140632Y108053D01*
X-140716Y108041D01*
X-140769Y108017D01*
X-140825Y108003D01*
X-140898Y107959D01*
X-140975Y107925D01*
X-141020Y107887D01*
X-141070Y107857D01*
X-141128Y107796D01*
X-141192Y107741D01*
X-141224Y107693D01*
X-141264Y107650D01*
X-141303Y107575D01*
X-141350Y107505D01*
X-141367Y107449D01*
X-141394Y107397D01*
X-141405Y107329D01*
X-141435Y107234D01*
X-141438Y107134D01*
X-141449Y107066D01*
X-141449Y101759D01*
X-144534Y101759D01*
X-145181Y101932D01*
X-145552Y102147D01*
X-145589Y102162D01*
X-145621Y102183D01*
X-145720Y102215D01*
X-145816Y102253D01*
X-145855Y102257D01*
X-145892Y102269D01*
X-145996Y102272D01*
X-146099Y102282D01*
X-146137Y102275D01*
X-146176Y102276D01*
X-146277Y102250D01*
X-146379Y102232D01*
X-146414Y102214D01*
X-146451Y102205D01*
X-146540Y102152D01*
X-146633Y102106D01*
X-146662Y102079D01*
X-146696Y102059D01*
X-146767Y101984D01*
X-146843Y101914D01*
X-146864Y101881D01*
X-146890Y101852D01*
X-146938Y101760D01*
X-146992Y101671D01*
X-147002Y101634D01*
X-147020Y101599D01*
X-147033Y101522D01*
X-147067Y101397D01*
X-147066Y101323D01*
X-147075Y101268D01*
X-147075Y98089D01*
X-147063Y98002D01*
X-147060Y97915D01*
X-147043Y97862D01*
X-147035Y97807D01*
X-147000Y97728D01*
X-146973Y97644D01*
X-146945Y97605D01*
X-146919Y97548D01*
X-146823Y97435D01*
X-146778Y97371D01*
X-121859Y72452D01*
X-121859Y65740D01*
X-121851Y65682D01*
X-121853Y65624D01*
X-121831Y65542D01*
X-121819Y65458D01*
X-121796Y65405D01*
X-121781Y65349D01*
X-121738Y65276D01*
X-121703Y65199D01*
X-121665Y65154D01*
X-121636Y65104D01*
X-121574Y65046D01*
X-121520Y64982D01*
X-121471Y64950D01*
X-121428Y64910D01*
X-121353Y64871D01*
X-121283Y64824D01*
X-121227Y64807D01*
X-121175Y64780D01*
X-121107Y64769D01*
X-121042Y64748D01*
X-120125Y63832D01*
X-120125Y47568D01*
X-121018Y46675D01*
X-127806Y46675D01*
X-127842Y46696D01*
X-127909Y46747D01*
X-127964Y46768D01*
X-128014Y46797D01*
X-128096Y46818D01*
X-128175Y46848D01*
X-128233Y46853D01*
X-128290Y46867D01*
X-128374Y46864D01*
X-128458Y46872D01*
X-128516Y46860D01*
X-128574Y46858D01*
X-128654Y46832D01*
X-128737Y46816D01*
X-128789Y46789D01*
X-128845Y46771D01*
X-128901Y46731D01*
X-128989Y46685D01*
X-128999Y46675D01*
X-135806Y46675D01*
X-135842Y46696D01*
X-135909Y46747D01*
X-135964Y46768D01*
X-136014Y46797D01*
X-136096Y46818D01*
X-136175Y46848D01*
X-136233Y46853D01*
X-136290Y46867D01*
X-136374Y46864D01*
X-136458Y46872D01*
X-136516Y46860D01*
X-136574Y46858D01*
X-136654Y46832D01*
X-136737Y46816D01*
X-136789Y46789D01*
X-136845Y46771D01*
X-136901Y46731D01*
X-136989Y46685D01*
X-136999Y46675D01*
X-143806Y46675D01*
X-143842Y46696D01*
X-143909Y46747D01*
X-143964Y46768D01*
X-144014Y46797D01*
X-144096Y46818D01*
X-144175Y46848D01*
X-144233Y46853D01*
X-144290Y46867D01*
X-144374Y46864D01*
X-144458Y46872D01*
X-144516Y46860D01*
X-144574Y46858D01*
X-144654Y46832D01*
X-144737Y46816D01*
X-144789Y46789D01*
X-144845Y46771D01*
X-144901Y46731D01*
X-144989Y46685D01*
X-144999Y46675D01*
X-151806Y46675D01*
X-151842Y46696D01*
X-151909Y46747D01*
X-151964Y46768D01*
X-152014Y46797D01*
X-152096Y46818D01*
X-152175Y46848D01*
X-152233Y46853D01*
X-152290Y46867D01*
X-152374Y46864D01*
X-152458Y46872D01*
X-152516Y46860D01*
X-152574Y46858D01*
X-152654Y46832D01*
X-152737Y46816D01*
X-152789Y46789D01*
X-152845Y46771D01*
X-152901Y46731D01*
X-152989Y46685D01*
X-152999Y46675D01*
X-159806Y46675D01*
X-159842Y46696D01*
X-159909Y46747D01*
X-159964Y46768D01*
X-160014Y46797D01*
X-160096Y46818D01*
X-160175Y46848D01*
X-160233Y46853D01*
X-160290Y46867D01*
X-160374Y46864D01*
X-160458Y46872D01*
X-160516Y46860D01*
X-160574Y46858D01*
X-160654Y46832D01*
X-160737Y46816D01*
X-160789Y46789D01*
X-160845Y46771D01*
X-160901Y46731D01*
X-160989Y46685D01*
X-160999Y46675D01*
X-163173Y46675D01*
X-163202Y46671D01*
X-163232Y46674D01*
X-163343Y46651D01*
X-163455Y46635D01*
X-163481Y46623D01*
X-163510Y46618D01*
X-163611Y46566D01*
X-163714Y46519D01*
X-163737Y46500D01*
X-163763Y46487D01*
X-163845Y46409D01*
X-163931Y46336D01*
X-163947Y46311D01*
X-163969Y46291D01*
X-164026Y46193D01*
X-164089Y46099D01*
X-164098Y46071D01*
X-164112Y46046D01*
X-164140Y45936D01*
X-164175Y45828D01*
X-164175Y45798D01*
X-164182Y45770D01*
X-164179Y45657D01*
X-164182Y45544D01*
X-164174Y45515D01*
X-164173Y45486D01*
X-164139Y45378D01*
X-164110Y45269D01*
X-164095Y45243D01*
X-164086Y45215D01*
X-164040Y45152D01*
X-163965Y45024D01*
X-163919Y44981D01*
X-163891Y44942D01*
X-159887Y40938D01*
X-159817Y40886D01*
X-159753Y40826D01*
X-159704Y40800D01*
X-159660Y40767D01*
X-159578Y40736D01*
X-159500Y40696D01*
X-159453Y40688D01*
X-159394Y40666D01*
X-159247Y40654D01*
X-159169Y40641D01*
X-145070Y40641D01*
X-145068Y40641D01*
X-145067Y40641D01*
X-144926Y40661D01*
X-144788Y40681D01*
X-144787Y40681D01*
X-144785Y40681D01*
X-144656Y40740D01*
X-144529Y40797D01*
X-144528Y40798D01*
X-144526Y40799D01*
X-144420Y40889D01*
X-144312Y40980D01*
X-144311Y40982D01*
X-144310Y40983D01*
X-144302Y40995D01*
X-144287Y41018D01*
X-142706Y42599D01*
X-140756Y43407D01*
X-138644Y43407D01*
X-136694Y42599D01*
X-135201Y41106D01*
X-134393Y39156D01*
X-134393Y37044D01*
X-135201Y35094D01*
X-136694Y33601D01*
X-138644Y32793D01*
X-140756Y32793D01*
X-142706Y33601D01*
X-144268Y35163D01*
X-144276Y35177D01*
X-144278Y35178D01*
X-144278Y35180D01*
X-144383Y35278D01*
X-144483Y35373D01*
X-144485Y35373D01*
X-144486Y35374D01*
X-144611Y35439D01*
X-144736Y35503D01*
X-144737Y35503D01*
X-144739Y35504D01*
X-144754Y35506D01*
X-145015Y35558D01*
X-145045Y35555D01*
X-145070Y35559D01*
X-161695Y35559D01*
X-172513Y46378D01*
X-172583Y46430D01*
X-172647Y46490D01*
X-172696Y46516D01*
X-172740Y46549D01*
X-172822Y46580D01*
X-172900Y46620D01*
X-172948Y46628D01*
X-173006Y46650D01*
X-173154Y46662D01*
X-173231Y46675D01*
X-175806Y46675D01*
X-175842Y46696D01*
X-175909Y46747D01*
X-175964Y46768D01*
X-176014Y46797D01*
X-176096Y46818D01*
X-176175Y46848D01*
X-176233Y46853D01*
X-176290Y46867D01*
X-176374Y46864D01*
X-176458Y46872D01*
X-176516Y46860D01*
X-176574Y46858D01*
X-176654Y46832D01*
X-176737Y46816D01*
X-176789Y46789D01*
X-176845Y46771D01*
X-176901Y46731D01*
X-176989Y46685D01*
X-176999Y46675D01*
X-183782Y46675D01*
X-184675Y47568D01*
X-184675Y55961D01*
X-184687Y56048D01*
X-184690Y56135D01*
X-184707Y56188D01*
X-184715Y56243D01*
X-184750Y56322D01*
X-184777Y56406D01*
X-184805Y56445D01*
X-184831Y56502D01*
X-184927Y56615D01*
X-184972Y56679D01*
X-186873Y58580D01*
X-186874Y58581D01*
X-186875Y58582D01*
X-186994Y58671D01*
X-187100Y58751D01*
X-187102Y58751D01*
X-187103Y58752D01*
X-187235Y58802D01*
X-187366Y58852D01*
X-187368Y58852D01*
X-187369Y58853D01*
X-187508Y58864D01*
X-187649Y58876D01*
X-187651Y58875D01*
X-187652Y58875D01*
X-187667Y58872D01*
X-187928Y58820D01*
X-187955Y58806D01*
X-187980Y58800D01*
X-189444Y58193D01*
X-191556Y58193D01*
X-193506Y59001D01*
X-194999Y60494D01*
X-195807Y62444D01*
X-195807Y64556D01*
X-194999Y66506D01*
X-193506Y67999D01*
X-191556Y68807D01*
X-189444Y68807D01*
X-187494Y67999D01*
X-186001Y66506D01*
X-185411Y65081D01*
X-185352Y64982D01*
X-185299Y64880D01*
X-185280Y64860D01*
X-185266Y64836D01*
X-185183Y64757D01*
X-185104Y64674D01*
X-185080Y64660D01*
X-185060Y64641D01*
X-184957Y64588D01*
X-184858Y64530D01*
X-184832Y64523D01*
X-184807Y64511D01*
X-184694Y64488D01*
X-184583Y64460D01*
X-184555Y64461D01*
X-184528Y64455D01*
X-184414Y64465D01*
X-184299Y64469D01*
X-184272Y64478D01*
X-184245Y64480D01*
X-184138Y64521D01*
X-184028Y64557D01*
X-184008Y64571D01*
X-183979Y64582D01*
X-183791Y64725D01*
X-176993Y64725D01*
X-176958Y64704D01*
X-176891Y64653D01*
X-176836Y64632D01*
X-176786Y64603D01*
X-176704Y64582D01*
X-176625Y64552D01*
X-176567Y64547D01*
X-176510Y64533D01*
X-176426Y64535D01*
X-176342Y64529D01*
X-176284Y64540D01*
X-176226Y64542D01*
X-176146Y64568D01*
X-176063Y64584D01*
X-176011Y64611D01*
X-175955Y64629D01*
X-175899Y64669D01*
X-175811Y64715D01*
X-175801Y64725D01*
X-168993Y64725D01*
X-168958Y64704D01*
X-168891Y64653D01*
X-168836Y64632D01*
X-168786Y64603D01*
X-168704Y64582D01*
X-168625Y64552D01*
X-168567Y64547D01*
X-168510Y64533D01*
X-168426Y64535D01*
X-168342Y64529D01*
X-168284Y64540D01*
X-168226Y64542D01*
X-168146Y64568D01*
X-168063Y64584D01*
X-168011Y64611D01*
X-167955Y64629D01*
X-167899Y64669D01*
X-167811Y64715D01*
X-167801Y64725D01*
X-160993Y64725D01*
X-160958Y64704D01*
X-160891Y64653D01*
X-160836Y64632D01*
X-160786Y64603D01*
X-160704Y64582D01*
X-160625Y64552D01*
X-160567Y64547D01*
X-160510Y64533D01*
X-160426Y64535D01*
X-160342Y64529D01*
X-160284Y64540D01*
X-160226Y64542D01*
X-160146Y64568D01*
X-160063Y64584D01*
X-160011Y64611D01*
X-159955Y64629D01*
X-159899Y64669D01*
X-159811Y64715D01*
X-159801Y64725D01*
X-157231Y64725D01*
X-157201Y64729D01*
X-157172Y64726D01*
X-157061Y64749D01*
X-156949Y64765D01*
X-156922Y64777D01*
X-156894Y64782D01*
X-156793Y64835D01*
X-156690Y64881D01*
X-156667Y64900D01*
X-156641Y64913D01*
X-156559Y64991D01*
X-156473Y65064D01*
X-156456Y65089D01*
X-156435Y65109D01*
X-156378Y65207D01*
X-156315Y65301D01*
X-156306Y65329D01*
X-156291Y65354D01*
X-156264Y65464D01*
X-156229Y65572D01*
X-156229Y65602D01*
X-156221Y65630D01*
X-156225Y65743D01*
X-156222Y65856D01*
X-156229Y65885D01*
X-156230Y65914D01*
X-156265Y66022D01*
X-156294Y66131D01*
X-156309Y66157D01*
X-156318Y66185D01*
X-156363Y66249D01*
X-156439Y66376D01*
X-156485Y66419D01*
X-156513Y66458D01*
X-156899Y66844D01*
X-157707Y68794D01*
X-157707Y70906D01*
X-156899Y72856D01*
X-155406Y74349D01*
X-153456Y75157D01*
X-151344Y75157D01*
X-149394Y74349D01*
X-147901Y72856D01*
X-147093Y70906D01*
X-147093Y68697D01*
X-147097Y68681D01*
X-147097Y68679D01*
X-147098Y68677D01*
X-147093Y68538D01*
X-147089Y68397D01*
X-147089Y68395D01*
X-147089Y68393D01*
X-147046Y68261D01*
X-147003Y68126D01*
X-147002Y68124D01*
X-147001Y68123D01*
X-146992Y68110D01*
X-146845Y67890D01*
X-146821Y67870D01*
X-146806Y67849D01*
X-143979Y65022D01*
X-143909Y64970D01*
X-143845Y64910D01*
X-143796Y64884D01*
X-143752Y64851D01*
X-143670Y64820D01*
X-143592Y64780D01*
X-143545Y64772D01*
X-143486Y64750D01*
X-143338Y64738D01*
X-143261Y64725D01*
X-136993Y64725D01*
X-136958Y64704D01*
X-136891Y64653D01*
X-136836Y64632D01*
X-136786Y64603D01*
X-136704Y64582D01*
X-136625Y64552D01*
X-136567Y64547D01*
X-136510Y64533D01*
X-136426Y64535D01*
X-136342Y64529D01*
X-136284Y64540D01*
X-136226Y64542D01*
X-136146Y64568D01*
X-136063Y64584D01*
X-136011Y64611D01*
X-135955Y64629D01*
X-135899Y64669D01*
X-135811Y64715D01*
X-135776Y64748D01*
X-135758Y64753D01*
X-135674Y64765D01*
X-135621Y64788D01*
X-135565Y64803D01*
X-135492Y64846D01*
X-135415Y64881D01*
X-135370Y64919D01*
X-135320Y64948D01*
X-135262Y65010D01*
X-135198Y65064D01*
X-135166Y65113D01*
X-135126Y65156D01*
X-135087Y65231D01*
X-135040Y65301D01*
X-135023Y65357D01*
X-134996Y65409D01*
X-134985Y65477D01*
X-134955Y65572D01*
X-134952Y65672D01*
X-134941Y65740D01*
X-134941Y67427D01*
X-134953Y67514D01*
X-134956Y67601D01*
X-134973Y67654D01*
X-134981Y67709D01*
X-135016Y67788D01*
X-135043Y67872D01*
X-135071Y67911D01*
X-135097Y67968D01*
X-135193Y68081D01*
X-135238Y68145D01*
X-153155Y86062D01*
X-153225Y86114D01*
X-153289Y86174D01*
X-153338Y86200D01*
X-153382Y86233D01*
X-153464Y86264D01*
X-153542Y86304D01*
X-153589Y86312D01*
X-153648Y86334D01*
X-153796Y86346D01*
X-153873Y86359D01*
X-202052Y86359D01*
X-209471Y93778D01*
X-209541Y93830D01*
X-209605Y93890D01*
X-209654Y93916D01*
X-209698Y93949D01*
X-209780Y93980D01*
X-209858Y94020D01*
X-209905Y94028D01*
X-209964Y94050D01*
X-210112Y94062D01*
X-210189Y94075D01*
X-220332Y94075D01*
X-221225Y94968D01*
X-221225Y108232D01*
X-220332Y109125D01*
X-207068Y109125D01*
X-206175Y108232D01*
X-206175Y98089D01*
X-206163Y98002D01*
X-206160Y97915D01*
X-206143Y97862D01*
X-206135Y97807D01*
X-206100Y97728D01*
X-206073Y97644D01*
X-206045Y97605D01*
X-206019Y97548D01*
X-205923Y97435D01*
X-205878Y97371D01*
X-200245Y91738D01*
X-200175Y91686D01*
X-200111Y91626D01*
X-200062Y91600D01*
X-200018Y91567D01*
X-199936Y91536D01*
X-199858Y91496D01*
X-199811Y91488D01*
X-199752Y91466D01*
X-199604Y91454D01*
X-199527Y91441D01*
X-151348Y91441D01*
X-129859Y69952D01*
X-129859Y65740D01*
X-129851Y65682D01*
X-129853Y65624D01*
X-129831Y65542D01*
X-129819Y65458D01*
X-129796Y65405D01*
X-129781Y65349D01*
X-129738Y65276D01*
X-129703Y65199D01*
X-129665Y65154D01*
X-129636Y65104D01*
X-129574Y65046D01*
X-129520Y64982D01*
X-129471Y64950D01*
X-129428Y64910D01*
X-129353Y64871D01*
X-129283Y64824D01*
X-129227Y64807D01*
X-129175Y64780D01*
X-129107Y64769D01*
X-129024Y64742D01*
X-128958Y64704D01*
X-128891Y64653D01*
X-128836Y64632D01*
X-128786Y64603D01*
X-128704Y64582D01*
X-128625Y64552D01*
X-128567Y64547D01*
X-128510Y64533D01*
X-128426Y64535D01*
X-128342Y64529D01*
X-128284Y64540D01*
X-128226Y64542D01*
X-128146Y64568D01*
X-128063Y64584D01*
X-128011Y64611D01*
X-127955Y64629D01*
X-127899Y64669D01*
X-127811Y64715D01*
X-127776Y64748D01*
X-127758Y64753D01*
X-127674Y64765D01*
X-127621Y64788D01*
X-127565Y64803D01*
X-127492Y64846D01*
X-127415Y64881D01*
X-127370Y64919D01*
X-127320Y64948D01*
X-127262Y65010D01*
X-127198Y65064D01*
X-127166Y65113D01*
X-127126Y65156D01*
X-127087Y65231D01*
X-127040Y65301D01*
X-127023Y65357D01*
X-126996Y65409D01*
X-126985Y65477D01*
X-126955Y65572D01*
X-126952Y65672D01*
X-126941Y65740D01*
X-126941Y69927D01*
X-126953Y70014D01*
X-126956Y70101D01*
X-126973Y70154D01*
X-126981Y70209D01*
X-127016Y70288D01*
X-127043Y70372D01*
X-127071Y70411D01*
X-127097Y70468D01*
X-127193Y70581D01*
X-127238Y70645D01*
X-150371Y93778D01*
X-150441Y93830D01*
X-150505Y93890D01*
X-150554Y93916D01*
X-150598Y93949D01*
X-150680Y93980D01*
X-150758Y94020D01*
X-150805Y94028D01*
X-150864Y94050D01*
X-151012Y94062D01*
X-151089Y94075D01*
X-161232Y94075D01*
X-162125Y94968D01*
X-162125Y108260D01*
X-162133Y108318D01*
X-162131Y108376D01*
X-162153Y108458D01*
X-162165Y108542D01*
X-162188Y108595D01*
X-162203Y108651D01*
X-162246Y108724D01*
X-162281Y108801D01*
X-162319Y108846D01*
X-162348Y108896D01*
X-162410Y108954D01*
X-162464Y109018D01*
X-162513Y109050D01*
X-162556Y109090D01*
X-162631Y109129D01*
X-162701Y109176D01*
X-162757Y109193D01*
X-162809Y109220D01*
X-162877Y109231D01*
X-162972Y109261D01*
X-163072Y109264D01*
X-163140Y109275D01*
X-163732Y109275D01*
X-164382Y109926D01*
X-164429Y109961D01*
X-164469Y110003D01*
X-164542Y110046D01*
X-164609Y110097D01*
X-164664Y110117D01*
X-164714Y110147D01*
X-164796Y110168D01*
X-164875Y110198D01*
X-164933Y110203D01*
X-164990Y110217D01*
X-165074Y110214D01*
X-165158Y110221D01*
X-165216Y110210D01*
X-165274Y110208D01*
X-165354Y110182D01*
X-165437Y110166D01*
X-165489Y110139D01*
X-165545Y110121D01*
X-165601Y110081D01*
X-165689Y110035D01*
X-165762Y109966D01*
X-165818Y109926D01*
X-166468Y109275D01*
X-167060Y109275D01*
X-167118Y109267D01*
X-167176Y109269D01*
X-167258Y109247D01*
X-167342Y109235D01*
X-167395Y109212D01*
X-167451Y109197D01*
X-167524Y109154D01*
X-167601Y109119D01*
X-167646Y109081D01*
X-167696Y109052D01*
X-167754Y108990D01*
X-167818Y108936D01*
X-167850Y108887D01*
X-167890Y108844D01*
X-167929Y108769D01*
X-167976Y108699D01*
X-167993Y108643D01*
X-168020Y108591D01*
X-168031Y108523D01*
X-168061Y108428D01*
X-168064Y108328D01*
X-168075Y108260D01*
X-168075Y94968D01*
X-168968Y94075D01*
X-182232Y94075D01*
X-183125Y94968D01*
X-183125Y98044D01*
X-183133Y98102D01*
X-183131Y98160D01*
X-183153Y98242D01*
X-183165Y98326D01*
X-183188Y98379D01*
X-183203Y98435D01*
X-183246Y98508D01*
X-183281Y98585D01*
X-183319Y98630D01*
X-183348Y98680D01*
X-183410Y98738D01*
X-183464Y98802D01*
X-183513Y98834D01*
X-183556Y98874D01*
X-183631Y98913D01*
X-183701Y98960D01*
X-183757Y98977D01*
X-183809Y99004D01*
X-183877Y99015D01*
X-183972Y99045D01*
X-184072Y99048D01*
X-184140Y99059D01*
X-184160Y99059D01*
X-184215Y99052D01*
X-184256Y99053D01*
X-184258Y99052D01*
X-184276Y99053D01*
X-184358Y99031D01*
X-184442Y99019D01*
X-184495Y98996D01*
X-184551Y98981D01*
X-184624Y98938D01*
X-184701Y98903D01*
X-184746Y98865D01*
X-184796Y98836D01*
X-184854Y98774D01*
X-184918Y98720D01*
X-184950Y98671D01*
X-184990Y98628D01*
X-185029Y98553D01*
X-185076Y98483D01*
X-185093Y98427D01*
X-185120Y98375D01*
X-185131Y98307D01*
X-185161Y98212D01*
X-185164Y98112D01*
X-185175Y98044D01*
X-185175Y94968D01*
X-186068Y94075D01*
X-199332Y94075D01*
X-200225Y94968D01*
X-200225Y108232D01*
X-199332Y109125D01*
X-186068Y109125D01*
X-185175Y108232D01*
X-185175Y105156D01*
X-185167Y105098D01*
X-185169Y105040D01*
X-185147Y104958D01*
X-185135Y104874D01*
X-185112Y104821D01*
X-185097Y104765D01*
X-185054Y104692D01*
X-185019Y104615D01*
X-184981Y104570D01*
X-184952Y104520D01*
X-184890Y104462D01*
X-184836Y104398D01*
X-184787Y104366D01*
X-184744Y104326D01*
X-184669Y104287D01*
X-184599Y104240D01*
X-184543Y104223D01*
X-184491Y104196D01*
X-184423Y104185D01*
X-184328Y104155D01*
X-184228Y104152D01*
X-184160Y104141D01*
X-184140Y104141D01*
X-184085Y104148D01*
X-184044Y104147D01*
X-184042Y104148D01*
X-184024Y104147D01*
X-183942Y104169D01*
X-183858Y104181D01*
X-183805Y104204D01*
X-183749Y104219D01*
X-183676Y104262D01*
X-183599Y104297D01*
X-183554Y104335D01*
X-183504Y104364D01*
X-183446Y104426D01*
X-183382Y104480D01*
X-183350Y104529D01*
X-183310Y104572D01*
X-183271Y104647D01*
X-183224Y104717D01*
X-183207Y104773D01*
X-183180Y104825D01*
X-183169Y104893D01*
X-183139Y104988D01*
X-183136Y105088D01*
X-183125Y105156D01*
X-183125Y108232D01*
X-182232Y109125D01*
X-179156Y109125D01*
X-179098Y109133D01*
X-179040Y109131D01*
X-178958Y109153D01*
X-178874Y109165D01*
X-178821Y109188D01*
X-178765Y109203D01*
X-178692Y109246D01*
X-178615Y109281D01*
X-178570Y109319D01*
X-178520Y109348D01*
X-178462Y109410D01*
X-178398Y109464D01*
X-178366Y109513D01*
X-178326Y109556D01*
X-178287Y109631D01*
X-178240Y109701D01*
X-178223Y109757D01*
X-178209Y109784D01*
X-174922Y113071D01*
X-174870Y113141D01*
X-174810Y113205D01*
X-174784Y113254D01*
X-174751Y113298D01*
X-174720Y113380D01*
X-174680Y113458D01*
X-174672Y113505D01*
X-174650Y113564D01*
X-174638Y113712D01*
X-174625Y113789D01*
X-174625Y117094D01*
X-174633Y117150D01*
X-174631Y117200D01*
X-174632Y117201D01*
X-174631Y117210D01*
X-174653Y117292D01*
X-174665Y117376D01*
X-174688Y117429D01*
X-174703Y117485D01*
X-174746Y117558D01*
X-174781Y117635D01*
X-174819Y117680D01*
X-174848Y117730D01*
X-174910Y117788D01*
X-174964Y117852D01*
X-175013Y117884D01*
X-175056Y117924D01*
X-175131Y117963D01*
X-175201Y118010D01*
X-175257Y118027D01*
X-175309Y118054D01*
X-175377Y118065D01*
X-175472Y118095D01*
X-175572Y118098D01*
X-175640Y118109D01*
X-225044Y118109D01*
X-225102Y118101D01*
X-225160Y118103D01*
X-225242Y118081D01*
X-225326Y118069D01*
X-225379Y118046D01*
X-225435Y118031D01*
X-225508Y117988D01*
X-225585Y117953D01*
X-225630Y117915D01*
X-225680Y117886D01*
X-225738Y117824D01*
X-225802Y117770D01*
X-225834Y117721D01*
X-225874Y117678D01*
X-225913Y117603D01*
X-225960Y117533D01*
X-225977Y117477D01*
X-226004Y117425D01*
X-226015Y117357D01*
X-226045Y117262D01*
X-226048Y117162D01*
X-226059Y117094D01*
X-226059Y20523D01*
X-226047Y20436D01*
X-226044Y20349D01*
X-226027Y20296D01*
X-226019Y20241D01*
X-225984Y20162D01*
X-225957Y20078D01*
X-225929Y20039D01*
X-225903Y19982D01*
X-225807Y19869D01*
X-225762Y19805D01*
X-223658Y17701D01*
X-223634Y17683D01*
X-223615Y17661D01*
X-223521Y17598D01*
X-223431Y17530D01*
X-223403Y17520D01*
X-223379Y17503D01*
X-223271Y17469D01*
X-223165Y17429D01*
X-223136Y17426D01*
X-223108Y17418D01*
X-222994Y17415D01*
X-222882Y17405D01*
X-222853Y17411D01*
X-222824Y17410D01*
X-222714Y17439D01*
X-222603Y17461D01*
X-222577Y17475D01*
X-222549Y17482D01*
X-222451Y17540D01*
X-222351Y17592D01*
X-222329Y17612D01*
X-222304Y17627D01*
X-222227Y17710D01*
X-222145Y17788D01*
X-222130Y17813D01*
X-222110Y17835D01*
X-222058Y17936D01*
X-222001Y18033D01*
X-221994Y18062D01*
X-221980Y18088D01*
X-221967Y18165D01*
X-221931Y18309D01*
X-221933Y18371D01*
X-221925Y18419D01*
X-221925Y23332D01*
X-221032Y24225D01*
X-210768Y24225D01*
X-209875Y23332D01*
X-209875Y20256D01*
X-209867Y20198D01*
X-209869Y20140D01*
X-209847Y20058D01*
X-209835Y19974D01*
X-209812Y19921D01*
X-209797Y19865D01*
X-209754Y19792D01*
X-209719Y19715D01*
X-209681Y19670D01*
X-209652Y19620D01*
X-209590Y19562D01*
X-209536Y19498D01*
X-209487Y19466D01*
X-209444Y19426D01*
X-209369Y19387D01*
X-209299Y19340D01*
X-209243Y19323D01*
X-209191Y19296D01*
X-209123Y19285D01*
X-209028Y19255D01*
X-208928Y19252D01*
X-208860Y19241D01*
X-205440Y19241D01*
X-205382Y19249D01*
X-205324Y19247D01*
X-205242Y19269D01*
X-205158Y19281D01*
X-205105Y19304D01*
X-205049Y19319D01*
X-204976Y19362D01*
X-204899Y19397D01*
X-204854Y19435D01*
X-204804Y19464D01*
X-204746Y19526D01*
X-204682Y19580D01*
X-204650Y19629D01*
X-204610Y19672D01*
X-204571Y19747D01*
X-204524Y19817D01*
X-204507Y19873D01*
X-204480Y19925D01*
X-204469Y19993D01*
X-204442Y20076D01*
X-204404Y20142D01*
X-204353Y20209D01*
X-204332Y20264D01*
X-204303Y20314D01*
X-204282Y20396D01*
X-204252Y20475D01*
X-204247Y20533D01*
X-204233Y20590D01*
X-204235Y20674D01*
X-204229Y20758D01*
X-204240Y20816D01*
X-204242Y20874D01*
X-204268Y20954D01*
X-204284Y21037D01*
X-204311Y21089D01*
X-204329Y21145D01*
X-204369Y21201D01*
X-204415Y21289D01*
X-204425Y21299D01*
X-204425Y27461D01*
X-204437Y27548D01*
X-204440Y27635D01*
X-204457Y27688D01*
X-204465Y27743D01*
X-204500Y27822D01*
X-204527Y27906D01*
X-204555Y27945D01*
X-204581Y28002D01*
X-204677Y28115D01*
X-204722Y28179D01*
X-204933Y28390D01*
X-205268Y28969D01*
X-205441Y29616D01*
X-205441Y31326D01*
X-195759Y31326D01*
X-195701Y31334D01*
X-195643Y31332D01*
X-195561Y31354D01*
X-195478Y31366D01*
X-195424Y31389D01*
X-195400Y31396D01*
X-195372Y31381D01*
X-195304Y31370D01*
X-195209Y31340D01*
X-195109Y31337D01*
X-195041Y31326D01*
X-185359Y31326D01*
X-185359Y29616D01*
X-185532Y28969D01*
X-185867Y28390D01*
X-186078Y28179D01*
X-186130Y28109D01*
X-186190Y28045D01*
X-186216Y27996D01*
X-186249Y27952D01*
X-186280Y27870D01*
X-186320Y27792D01*
X-186328Y27745D01*
X-186350Y27686D01*
X-186362Y27538D01*
X-186375Y27461D01*
X-186375Y21294D01*
X-186396Y21258D01*
X-186447Y21191D01*
X-186468Y21136D01*
X-186497Y21086D01*
X-186518Y21004D01*
X-186548Y20925D01*
X-186553Y20867D01*
X-186567Y20810D01*
X-186564Y20726D01*
X-186572Y20642D01*
X-186560Y20584D01*
X-186558Y20526D01*
X-186532Y20446D01*
X-186516Y20363D01*
X-186489Y20311D01*
X-186471Y20255D01*
X-186431Y20199D01*
X-186385Y20111D01*
X-186375Y20101D01*
X-186375Y13294D01*
X-186396Y13258D01*
X-186447Y13191D01*
X-186468Y13136D01*
X-186497Y13086D01*
X-186518Y13004D01*
X-186548Y12925D01*
X-186553Y12867D01*
X-186567Y12810D01*
X-186564Y12726D01*
X-186572Y12642D01*
X-186560Y12584D01*
X-186558Y12526D01*
X-186532Y12446D01*
X-186516Y12363D01*
X-186489Y12311D01*
X-186471Y12255D01*
X-186431Y12199D01*
X-186385Y12111D01*
X-186352Y12076D01*
X-186347Y12058D01*
X-186335Y11974D01*
X-186312Y11921D01*
X-186297Y11865D01*
X-186254Y11792D01*
X-186219Y11715D01*
X-186181Y11670D01*
X-186152Y11620D01*
X-186090Y11562D01*
X-186036Y11498D01*
X-185987Y11466D01*
X-185944Y11426D01*
X-185869Y11387D01*
X-185799Y11340D01*
X-185743Y11323D01*
X-185691Y11296D01*
X-185623Y11285D01*
X-185528Y11255D01*
X-185428Y11252D01*
X-185360Y11241D01*
X-122190Y11241D01*
X-121174Y10225D01*
X-121150Y10207D01*
X-121131Y10185D01*
X-121037Y10122D01*
X-120947Y10054D01*
X-120919Y10043D01*
X-120895Y10027D01*
X-120787Y9993D01*
X-120681Y9953D01*
X-120652Y9950D01*
X-120624Y9941D01*
X-120510Y9939D01*
X-120398Y9929D01*
X-120369Y9935D01*
G37*
%LPC*%
G36*
X-223132Y-208625D02*
X-223132Y-208625D01*
X-224025Y-207732D01*
X-224025Y-190468D01*
X-223132Y-189575D01*
X-187868Y-189575D01*
X-186975Y-190468D01*
X-186975Y-207732D01*
X-187868Y-208625D01*
X-223132Y-208625D01*
G37*
%LPD*%
%LPC*%
G36*
X-109428Y26019D02*
X-109428Y26019D01*
X-109496Y26030D01*
X-109591Y26060D01*
X-109691Y26063D01*
X-109759Y26074D01*
X-119441Y26074D01*
X-119441Y27784D01*
X-119268Y28431D01*
X-118933Y29010D01*
X-118722Y29221D01*
X-118670Y29291D01*
X-118610Y29355D01*
X-118584Y29404D01*
X-118551Y29448D01*
X-118520Y29530D01*
X-118480Y29608D01*
X-118472Y29655D01*
X-118450Y29714D01*
X-118438Y29862D01*
X-118425Y29939D01*
X-118425Y36106D01*
X-118404Y36142D01*
X-118353Y36209D01*
X-118332Y36264D01*
X-118303Y36314D01*
X-118282Y36396D01*
X-118252Y36475D01*
X-118247Y36533D01*
X-118233Y36590D01*
X-118236Y36674D01*
X-118228Y36758D01*
X-118240Y36816D01*
X-118242Y36874D01*
X-118268Y36954D01*
X-118284Y37037D01*
X-118311Y37089D01*
X-118329Y37145D01*
X-118369Y37201D01*
X-118415Y37289D01*
X-118425Y37299D01*
X-118425Y44082D01*
X-117532Y44975D01*
X-101268Y44975D01*
X-100375Y44082D01*
X-100375Y37293D01*
X-100396Y37258D01*
X-100447Y37191D01*
X-100468Y37136D01*
X-100497Y37086D01*
X-100518Y37004D01*
X-100548Y36925D01*
X-100553Y36867D01*
X-100567Y36810D01*
X-100565Y36726D01*
X-100571Y36642D01*
X-100560Y36584D01*
X-100558Y36526D01*
X-100532Y36446D01*
X-100516Y36363D01*
X-100489Y36311D01*
X-100471Y36255D01*
X-100431Y36199D01*
X-100385Y36111D01*
X-100375Y36101D01*
X-100375Y29939D01*
X-100363Y29852D01*
X-100360Y29765D01*
X-100343Y29712D01*
X-100335Y29657D01*
X-100300Y29578D01*
X-100273Y29494D01*
X-100245Y29455D01*
X-100219Y29398D01*
X-100123Y29285D01*
X-100078Y29221D01*
X-99867Y29010D01*
X-99532Y28431D01*
X-99359Y27784D01*
X-99359Y26074D01*
X-109041Y26074D01*
X-109099Y26066D01*
X-109157Y26068D01*
X-109239Y26046D01*
X-109322Y26034D01*
X-109376Y26011D01*
X-109400Y26004D01*
X-109428Y26019D01*
G37*
%LPD*%
%LPC*%
G36*
X-178856Y32793D02*
X-178856Y32793D01*
X-180806Y33601D01*
X-182299Y35094D01*
X-183107Y37044D01*
X-183107Y37144D01*
X-183115Y37202D01*
X-183113Y37260D01*
X-183135Y37342D01*
X-183147Y37426D01*
X-183170Y37479D01*
X-183185Y37535D01*
X-183228Y37608D01*
X-183263Y37685D01*
X-183301Y37730D01*
X-183330Y37780D01*
X-183392Y37838D01*
X-183446Y37902D01*
X-183495Y37934D01*
X-183538Y37974D01*
X-183613Y38013D01*
X-183683Y38060D01*
X-183739Y38077D01*
X-183791Y38104D01*
X-183859Y38115D01*
X-183954Y38145D01*
X-184054Y38148D01*
X-184122Y38159D01*
X-184772Y38159D01*
X-184811Y38154D01*
X-184850Y38156D01*
X-184951Y38134D01*
X-185053Y38119D01*
X-185089Y38103D01*
X-185127Y38095D01*
X-185219Y38045D01*
X-185313Y38003D01*
X-185343Y37978D01*
X-185377Y37959D01*
X-185451Y37886D01*
X-185530Y37820D01*
X-185552Y37787D01*
X-185579Y37759D01*
X-185630Y37669D01*
X-185687Y37583D01*
X-185699Y37546D01*
X-185718Y37511D01*
X-185742Y37411D01*
X-185773Y37312D01*
X-185774Y37273D01*
X-185783Y37235D01*
X-185778Y37131D01*
X-185781Y37028D01*
X-185771Y36990D01*
X-185769Y36951D01*
X-185741Y36878D01*
X-185709Y36753D01*
X-185671Y36689D01*
X-185651Y36636D01*
X-185532Y36431D01*
X-185359Y35784D01*
X-185359Y34074D01*
X-195041Y34074D01*
X-195099Y34066D01*
X-195157Y34068D01*
X-195239Y34046D01*
X-195322Y34034D01*
X-195376Y34011D01*
X-195400Y34004D01*
X-195428Y34019D01*
X-195496Y34030D01*
X-195591Y34060D01*
X-195691Y34063D01*
X-195759Y34074D01*
X-205441Y34074D01*
X-205441Y35784D01*
X-205268Y36431D01*
X-204933Y37010D01*
X-204722Y37221D01*
X-204670Y37291D01*
X-204610Y37355D01*
X-204584Y37404D01*
X-204551Y37448D01*
X-204520Y37530D01*
X-204480Y37608D01*
X-204472Y37655D01*
X-204450Y37714D01*
X-204438Y37862D01*
X-204425Y37939D01*
X-204425Y44082D01*
X-203532Y44975D01*
X-187268Y44975D01*
X-186347Y44053D01*
X-186335Y43974D01*
X-186312Y43921D01*
X-186297Y43865D01*
X-186254Y43792D01*
X-186219Y43715D01*
X-186181Y43670D01*
X-186152Y43620D01*
X-186090Y43562D01*
X-186036Y43498D01*
X-185987Y43466D01*
X-185944Y43426D01*
X-185869Y43387D01*
X-185799Y43340D01*
X-185743Y43323D01*
X-185691Y43296D01*
X-185623Y43285D01*
X-185528Y43255D01*
X-185428Y43252D01*
X-185360Y43241D01*
X-179458Y43241D01*
X-179428Y43245D01*
X-179397Y43243D01*
X-179320Y43260D01*
X-179177Y43281D01*
X-179118Y43307D01*
X-179070Y43318D01*
X-178856Y43407D01*
X-176744Y43407D01*
X-174794Y42599D01*
X-173301Y41106D01*
X-172493Y39156D01*
X-172493Y37044D01*
X-173301Y35094D01*
X-174794Y33601D01*
X-176744Y32793D01*
X-178856Y32793D01*
G37*
%LPD*%
%LPC*%
G36*
X-70082Y-96124D02*
X-70082Y-96124D01*
X-70975Y-95231D01*
X-70975Y-81967D01*
X-70082Y-81074D01*
X-63318Y-81074D01*
X-62425Y-81967D01*
X-62425Y-95231D01*
X-63318Y-96124D01*
X-70082Y-96124D01*
G37*
%LPD*%
G36*
X-95882Y3249D02*
X-95882Y3249D01*
X-95824Y3247D01*
X-95742Y3269D01*
X-95658Y3281D01*
X-95605Y3304D01*
X-95549Y3319D01*
X-95476Y3362D01*
X-95399Y3397D01*
X-95354Y3435D01*
X-95304Y3464D01*
X-95246Y3526D01*
X-95182Y3580D01*
X-95150Y3629D01*
X-95110Y3672D01*
X-95071Y3747D01*
X-95024Y3817D01*
X-95007Y3873D01*
X-94980Y3925D01*
X-94969Y3993D01*
X-94939Y4088D01*
X-94936Y4188D01*
X-94925Y4256D01*
X-94925Y8211D01*
X-94937Y8298D01*
X-94940Y8385D01*
X-94957Y8438D01*
X-94965Y8493D01*
X-95000Y8572D01*
X-95027Y8656D01*
X-95055Y8695D01*
X-95081Y8752D01*
X-95177Y8865D01*
X-95222Y8929D01*
X-97626Y11333D01*
X-97650Y11351D01*
X-97669Y11373D01*
X-97763Y11436D01*
X-97853Y11504D01*
X-97881Y11514D01*
X-97905Y11531D01*
X-98013Y11565D01*
X-98119Y11605D01*
X-98148Y11608D01*
X-98176Y11616D01*
X-98290Y11619D01*
X-98402Y11629D01*
X-98431Y11623D01*
X-98460Y11624D01*
X-98570Y11595D01*
X-98681Y11573D01*
X-98707Y11559D01*
X-98735Y11552D01*
X-98833Y11494D01*
X-98933Y11442D01*
X-98955Y11422D01*
X-98980Y11407D01*
X-99057Y11324D01*
X-99139Y11246D01*
X-99154Y11221D01*
X-99174Y11199D01*
X-99226Y11098D01*
X-99283Y11001D01*
X-99290Y10972D01*
X-99304Y10946D01*
X-99317Y10869D01*
X-99353Y10725D01*
X-99351Y10663D01*
X-99359Y10615D01*
X-99359Y10074D01*
X-109041Y10074D01*
X-109099Y10066D01*
X-109157Y10068D01*
X-109239Y10046D01*
X-109322Y10034D01*
X-109376Y10011D01*
X-109432Y9996D01*
X-109505Y9953D01*
X-109582Y9918D01*
X-109626Y9880D01*
X-109677Y9851D01*
X-109734Y9789D01*
X-109799Y9735D01*
X-109831Y9686D01*
X-109871Y9643D01*
X-109910Y9568D01*
X-109956Y9498D01*
X-109974Y9442D01*
X-110001Y9390D01*
X-110012Y9322D01*
X-110042Y9227D01*
X-110045Y9127D01*
X-110056Y9059D01*
X-110056Y8341D01*
X-110048Y8283D01*
X-110049Y8225D01*
X-110028Y8143D01*
X-110016Y8059D01*
X-109992Y8006D01*
X-109978Y7950D01*
X-109934Y7877D01*
X-109900Y7800D01*
X-109862Y7755D01*
X-109832Y7705D01*
X-109771Y7647D01*
X-109716Y7583D01*
X-109668Y7551D01*
X-109625Y7511D01*
X-109550Y7472D01*
X-109480Y7425D01*
X-109424Y7408D01*
X-109372Y7381D01*
X-109304Y7370D01*
X-109209Y7340D01*
X-109109Y7337D01*
X-109041Y7326D01*
X-99359Y7326D01*
X-99359Y5616D01*
X-99532Y4969D01*
X-99651Y4764D01*
X-99666Y4727D01*
X-99687Y4695D01*
X-99719Y4596D01*
X-99757Y4500D01*
X-99761Y4461D01*
X-99773Y4424D01*
X-99776Y4320D01*
X-99786Y4217D01*
X-99780Y4179D01*
X-99781Y4140D01*
X-99754Y4040D01*
X-99736Y3937D01*
X-99719Y3902D01*
X-99709Y3865D01*
X-99656Y3776D01*
X-99610Y3683D01*
X-99583Y3654D01*
X-99563Y3620D01*
X-99488Y3549D01*
X-99418Y3473D01*
X-99385Y3452D01*
X-99356Y3426D01*
X-99264Y3379D01*
X-99176Y3324D01*
X-99138Y3314D01*
X-99103Y3296D01*
X-99026Y3283D01*
X-98901Y3249D01*
X-98827Y3250D01*
X-98772Y3241D01*
X-95940Y3241D01*
X-95882Y3249D01*
G37*
%LPC*%
G36*
X-90991Y-87225D02*
X-90991Y-87225D01*
X-90991Y-82265D01*
X-90818Y-81618D01*
X-90483Y-81039D01*
X-90010Y-80566D01*
X-89431Y-80231D01*
X-88784Y-80058D01*
X-87074Y-80058D01*
X-87074Y-87225D01*
X-90991Y-87225D01*
G37*
%LPD*%
%LPC*%
G36*
X-84326Y-87225D02*
X-84326Y-87225D01*
X-84326Y-80058D01*
X-82616Y-80058D01*
X-81969Y-80231D01*
X-81390Y-80566D01*
X-80917Y-81039D01*
X-80582Y-81618D01*
X-80409Y-82265D01*
X-80409Y-87225D01*
X-84326Y-87225D01*
G37*
%LPD*%
%LPC*%
G36*
X-95941Y20949D02*
X-95941Y20949D01*
X-95941Y23034D01*
X-95768Y23681D01*
X-95433Y24260D01*
X-94960Y24733D01*
X-94381Y25068D01*
X-93734Y25241D01*
X-90649Y25241D01*
X-90649Y20949D01*
X-95941Y20949D01*
G37*
%LPD*%
%LPC*%
G36*
X-137951Y106051D02*
X-137951Y106051D01*
X-132659Y106051D01*
X-132659Y103966D01*
X-132832Y103319D01*
X-133167Y102740D01*
X-133640Y102267D01*
X-134219Y101932D01*
X-134866Y101759D01*
X-137951Y101759D01*
X-137951Y106051D01*
G37*
%LPD*%
%LPC*%
G36*
X-95101Y-56841D02*
X-95101Y-56841D01*
X-95101Y-52299D01*
X-91059Y-52299D01*
X-91059Y-54634D01*
X-91232Y-55281D01*
X-91567Y-55860D01*
X-92040Y-56333D01*
X-92619Y-56668D01*
X-93266Y-56841D01*
X-95101Y-56841D01*
G37*
%LPD*%
%LPC*%
G36*
X-95101Y-49301D02*
X-95101Y-49301D01*
X-95101Y-44759D01*
X-93266Y-44759D01*
X-92619Y-44932D01*
X-92040Y-45267D01*
X-91567Y-45740D01*
X-91232Y-46319D01*
X-91059Y-46966D01*
X-91059Y-49301D01*
X-95101Y-49301D01*
G37*
%LPD*%
D10*
X-175600Y101600D03*
X-154600Y101600D03*
X-192700Y101600D03*
X-213700Y101600D03*
D11*
X-109400Y-15300D03*
X-109400Y-7300D03*
X-109400Y700D03*
X-109400Y8700D03*
X-109400Y16700D03*
X-109400Y24700D03*
X-109400Y32700D03*
X-109400Y40700D03*
D12*
X-124400Y55700D03*
X-132400Y55700D03*
X-140400Y55700D03*
X-148400Y55700D03*
X-156400Y55700D03*
X-164400Y55700D03*
X-172400Y55700D03*
X-180400Y55700D03*
D11*
X-195400Y40700D03*
X-195400Y32700D03*
X-195400Y24700D03*
X-195400Y16700D03*
X-195400Y8700D03*
X-195400Y700D03*
X-195400Y-7300D03*
X-195400Y-15300D03*
D12*
X-180400Y-30300D03*
X-172400Y-30300D03*
X-164400Y-30300D03*
X-156400Y-30300D03*
X-148400Y-30300D03*
X-140400Y-30300D03*
X-132400Y-30300D03*
X-124400Y-30300D03*
D13*
X-96600Y-50800D03*
X-106600Y-50800D03*
X-170100Y114300D03*
X-160100Y114300D03*
D14*
X-127000Y122000D03*
X-127000Y132000D03*
D15*
X-139700Y107800D03*
X-139700Y120800D03*
D16*
X-85700Y-114601D03*
X-76200Y-114601D03*
X-66700Y-114601D03*
X-66700Y-88599D03*
X-85700Y-88599D03*
D17*
X-120100Y-177800D03*
X-83100Y-177800D03*
D16*
X-200000Y-89201D03*
X-190500Y-89201D03*
X-181000Y-89201D03*
X-181000Y-63199D03*
X-200000Y-63199D03*
D10*
X-129200Y-63500D03*
X-150200Y-63500D03*
D15*
X-215900Y19200D03*
X-215900Y6200D03*
X-101600Y-107800D03*
X-101600Y-120800D03*
X-88900Y19200D03*
X-88900Y6200D03*
X-114300Y-107800D03*
X-114300Y-120800D03*
D13*
X-144700Y-88900D03*
X-134700Y-88900D03*
D14*
X-215900Y-68500D03*
X-215900Y-58500D03*
D18*
X-158600Y-114300D03*
X-171600Y-114300D03*
D19*
X-92100Y-152400D03*
X-111100Y-152400D03*
D20*
X-90600Y114300D03*
X-112600Y104800D03*
X-112600Y123800D03*
D21*
X-153500Y-175100D03*
X-153500Y-155100D03*
D22*
X-205500Y-199100D03*
X-205500Y-131100D03*
D14*
X-88900Y71200D03*
X-88900Y81200D03*
D23*
X-190500Y63500D03*
D24*
X-188200Y63500D01*
X-180400Y55700D01*
D23*
X-177800Y38100D03*
D24*
X-180400Y40700D02*
X-195400Y40700D01*
X-180400Y40700D02*
X-177800Y38100D01*
D23*
X-165100Y-50800D03*
D24*
X-154640Y-40340D02*
X-152598Y-40340D01*
X-154640Y-40340D02*
X-165100Y-50800D01*
X-148400Y-36142D02*
X-148400Y-30300D01*
X-148400Y-36142D02*
X-152598Y-40340D01*
X-133742Y-50800D02*
X-106600Y-50800D01*
X-133742Y-50800D02*
X-148400Y-36142D01*
D23*
X-139700Y38100D03*
D24*
X-169690Y47148D02*
X-169690Y52990D01*
X-172400Y55700D01*
X-160642Y38100D02*
X-139700Y38100D01*
X-160642Y38100D02*
X-169690Y47148D01*
X-160100Y114300D02*
X-153600Y120800D01*
X-139700Y120800D01*
X-138500Y122000D01*
X-127000Y122000D01*
X-127000Y119200D02*
X-112600Y104800D01*
X-127000Y119200D02*
X-127000Y122000D01*
X-109400Y700D02*
X-94400Y700D01*
X-88900Y6200D01*
X-99400Y16700D02*
X-109400Y16700D01*
X-99400Y16700D02*
X-88900Y6200D01*
X-112110Y3410D02*
X-117952Y3410D01*
X-112110Y3410D02*
X-109400Y700D01*
X-123242Y8700D02*
X-195400Y8700D01*
X-123242Y8700D02*
X-117952Y3410D01*
X-213400Y8700D02*
X-215900Y6200D01*
X-213400Y8700D02*
X-195400Y8700D01*
X-209522Y-104219D02*
X-205819Y-107922D01*
X-200581Y-107922D01*
X-194710Y-93411D02*
X-190500Y-89201D01*
X-209522Y-74878D02*
X-215900Y-68500D01*
X-209522Y-74878D02*
X-209522Y-104219D01*
X-200581Y-107922D02*
X-194710Y-102051D01*
X-194710Y-93411D01*
X-190500Y-89201D02*
X-186290Y-93411D01*
X-186290Y-96253D01*
X-171600Y-110943D02*
X-171600Y-114300D01*
X-171600Y-110943D02*
X-186290Y-96253D01*
X-185960Y-122048D02*
X-185960Y-122640D01*
X-153500Y-155100D01*
X-190500Y-117508D02*
X-190500Y-89201D01*
X-190500Y-117508D02*
X-185960Y-122048D01*
X-126925Y-133425D02*
X-114300Y-120800D01*
X-126925Y-133425D02*
X-148600Y-155100D01*
X-153500Y-155100D01*
X-89502Y-123141D02*
X-81898Y-123141D01*
X-80410Y-121653D01*
X-80410Y-118811D01*
X-76200Y-114601D01*
X-91843Y-120800D02*
X-101600Y-120800D01*
X-91843Y-120800D02*
X-89502Y-123141D01*
X-101600Y-120800D02*
X-114300Y-120800D01*
X-158750Y114300D02*
X-165100Y120650D01*
X-228600Y120650D01*
X-228600Y19050D01*
X-215900Y6350D01*
X-160100Y114300D02*
X-158750Y114300D01*
X-215900Y6350D02*
X-222250Y0D01*
X-222250Y-63500D01*
X-215900Y-69850D01*
X-215900Y6200D02*
X-215900Y6350D01*
X-215900Y-68500D02*
X-215900Y-69850D01*
X-127000Y-133350D02*
X-126925Y-133425D01*
D23*
X-127000Y-133350D03*
D24*
X-201000Y88900D02*
X-213700Y101600D01*
X-201000Y88900D02*
X-152400Y88900D01*
X-132400Y68900D01*
X-132400Y55700D01*
X-175600Y101600D02*
X-192700Y101600D01*
X-175600Y108800D02*
X-170100Y114300D01*
X-175600Y108800D02*
X-175600Y101600D01*
X-152400Y69850D02*
X-146050Y63500D01*
X-146050Y57150D01*
X-148400Y55700D01*
D23*
X-152400Y69850D03*
D24*
X-139700Y-12700D02*
X-114300Y-12700D01*
X-109400Y-15300D01*
D23*
X-139700Y-12700D03*
D24*
X-127000Y-6350D02*
X-114300Y-6350D01*
X-109400Y-7300D01*
D23*
X-127000Y-6350D03*
D24*
X-63500Y87200D02*
X-90600Y114300D01*
X-63500Y87200D02*
X-63500Y-38100D01*
D23*
X-63500Y-38100D03*
D24*
X-124400Y71400D02*
X-154600Y101600D01*
X-124400Y71400D02*
X-124400Y55700D01*
X-94400Y24700D02*
X-88900Y19200D01*
X-94400Y24700D02*
X-109400Y24700D01*
X-119440Y12898D02*
X-117952Y11410D01*
X-119440Y12898D02*
X-119440Y20502D01*
X-117952Y21990D01*
X-112110Y11410D02*
X-109400Y8700D01*
X-112110Y11410D02*
X-117952Y11410D01*
X-117952Y21990D02*
X-112110Y21990D01*
X-109400Y24700D01*
X-192690Y29990D02*
X-195400Y32700D01*
X-192690Y29990D02*
X-186848Y29990D01*
X-181558Y24700D02*
X-109400Y24700D01*
X-181558Y24700D02*
X-186848Y29990D01*
X-139700Y107800D02*
X-94400Y62500D01*
X-94400Y44450D01*
X-94400Y24700D01*
X-95099Y-88599D02*
X-114300Y-107800D01*
X-95099Y-88599D02*
X-85700Y-88599D01*
X-85700Y-61700D02*
X-96600Y-50800D01*
X-85700Y-61700D02*
X-85700Y-88599D01*
X-95250Y-88900D02*
X-95250Y-82550D01*
X-95099Y-88599D02*
X-95250Y-88900D01*
X-95250Y44450D02*
X-94400Y44450D01*
D23*
X-95250Y-82550D03*
X-95250Y44450D03*
D24*
X-150501Y-63199D02*
X-181000Y-63199D01*
X-150501Y-63199D02*
X-150200Y-63500D01*
X-153500Y-175100D02*
X-122800Y-175100D01*
X-120100Y-177800D01*
X-111100Y-168800D01*
X-111100Y-152400D01*
D23*
X-203200Y-101600D03*
D24*
X-205290Y-96253D02*
X-205290Y-82149D01*
X-190445Y-72644D02*
X-181000Y-63199D01*
X-203200Y-98343D02*
X-203200Y-101600D01*
X-203200Y-98343D02*
X-205290Y-96253D01*
X-205290Y-82149D02*
X-195785Y-72644D01*
X-190445Y-72644D01*
X-136252Y-54960D02*
X-122148Y-54960D01*
X-120660Y-56448D01*
X-121340Y-103248D02*
X-121340Y-112352D01*
X-119852Y-113840D01*
X-108748Y-113840D01*
X-102708Y-107800D02*
X-101600Y-107800D01*
X-102708Y-107800D02*
X-108748Y-113840D01*
X-120660Y-102568D02*
X-121340Y-103248D01*
X-120660Y-102568D02*
X-120660Y-56448D01*
X-144792Y-63500D02*
X-150200Y-63500D01*
X-144792Y-63500D02*
X-136252Y-54960D01*
X-88900Y-114601D02*
X-85700Y-114601D01*
X-88900Y-114601D02*
X-94799Y-114601D01*
X-101600Y-107800D01*
X-95250Y-171450D02*
X-114300Y-171450D01*
X-95250Y-171450D02*
X-88900Y-165100D01*
X-57150Y-165100D01*
X-57150Y-107950D01*
X-63500Y-101600D01*
X-88900Y-101600D01*
X-88900Y-114601D01*
X-114300Y-171450D02*
X-120100Y-177800D01*
X-158600Y-111601D02*
X-181000Y-89201D01*
X-158600Y-111601D02*
X-158600Y-114300D01*
X-152400Y-120500D01*
X-152400Y-139700D01*
D23*
X-152400Y-139700D03*
D24*
X-108500Y-203200D02*
X-83100Y-177800D01*
X-108500Y-203200D02*
X-114300Y-203200D01*
D23*
X-114300Y-203200D03*
D24*
X-92100Y-152400D02*
X-66700Y-127000D01*
X-66700Y-114601D01*
X-129200Y-83400D02*
X-129200Y-63500D01*
X-129200Y-83400D02*
X-134700Y-88900D01*
X-200000Y-63199D02*
X-211109Y-63199D01*
X-211348Y-62960D01*
X-211440Y-62960D01*
X-215900Y-58500D01*
X-213400Y16700D02*
X-195400Y16700D01*
X-213400Y16700D02*
X-215900Y19200D01*
X-195790Y-84991D02*
X-200000Y-89201D01*
X-195790Y-84991D02*
X-195790Y-82149D01*
X-189841Y-76200D01*
X-157400Y-76200D02*
X-144700Y-88900D01*
X-157400Y-76200D02*
X-189841Y-76200D01*
X-127000Y132000D02*
X-120800Y132000D01*
X-112600Y123800D01*
X-100140Y111340D01*
X-100140Y108248D01*
X-88900Y97008D02*
X-88900Y81200D01*
X-88900Y97008D02*
X-100140Y108248D01*
X-100848Y-20590D02*
X-114690Y-20590D01*
X-124400Y-30300D01*
X-88900Y30792D02*
X-88900Y71200D01*
X-88900Y30792D02*
X-81860Y23752D01*
X-81860Y-1602D01*
X-100848Y-20590D01*
M02*
