G04 EAGLE Gerber RS-274X export*
G75*
%MOMM*%
%FSLAX34Y34*%
%LPD*%
%INBottom Copper*%
%IPPOS*%
%AMOC8*
5,1,8,0,0,1.08239X$1,22.5*%
G01*
%ADD10R,4.600000X1.000000*%
%ADD11R,3.400000X1.600000*%
%ADD12R,1.500000X0.800000*%
%ADD13R,1.900000X1.400000*%
%ADD14R,1.400000X1.300000*%
%ADD15R,1.000000X3.170000*%
%ADD16R,2.000000X0.800000*%
%ADD17R,3.000000X2.100000*%
%ADD18C,0.203200*%
%ADD19C,0.756400*%

G36*
X-87658Y-293872D02*
X-87658Y-293872D01*
X-87619Y-293874D01*
X-87518Y-293852D01*
X-87415Y-293837D01*
X-87380Y-293821D01*
X-87341Y-293813D01*
X-87250Y-293764D01*
X-87156Y-293721D01*
X-87126Y-293696D01*
X-87092Y-293677D01*
X-87018Y-293605D01*
X-86939Y-293538D01*
X-86917Y-293505D01*
X-86889Y-293478D01*
X-86839Y-293387D01*
X-86781Y-293301D01*
X-86769Y-293264D01*
X-86750Y-293230D01*
X-86727Y-293129D01*
X-86695Y-293030D01*
X-86694Y-292991D01*
X-86686Y-292953D01*
X-86691Y-292849D01*
X-86688Y-292746D01*
X-86698Y-292708D01*
X-86700Y-292669D01*
X-86727Y-292596D01*
X-86760Y-292471D01*
X-86798Y-292407D01*
X-86817Y-292354D01*
X-88353Y-289695D01*
X-90171Y-282911D01*
X-90171Y-275889D01*
X-88353Y-269105D01*
X-84842Y-263024D01*
X-79876Y-258058D01*
X-73795Y-254547D01*
X-67011Y-252729D01*
X-59989Y-252729D01*
X-53205Y-254547D01*
X-50546Y-256083D01*
X-50509Y-256097D01*
X-50477Y-256119D01*
X-50378Y-256150D01*
X-50282Y-256189D01*
X-50243Y-256193D01*
X-50206Y-256205D01*
X-50102Y-256207D01*
X-49999Y-256218D01*
X-49961Y-256211D01*
X-49922Y-256212D01*
X-49821Y-256186D01*
X-49719Y-256167D01*
X-49684Y-256150D01*
X-49647Y-256140D01*
X-49558Y-256087D01*
X-49465Y-256041D01*
X-49436Y-256015D01*
X-49402Y-255995D01*
X-49331Y-255919D01*
X-49255Y-255849D01*
X-49234Y-255816D01*
X-49208Y-255787D01*
X-49161Y-255695D01*
X-49106Y-255607D01*
X-49096Y-255569D01*
X-49078Y-255534D01*
X-49065Y-255458D01*
X-49031Y-255333D01*
X-49032Y-255258D01*
X-49023Y-255203D01*
X-49023Y128203D01*
X-49028Y128242D01*
X-49026Y128281D01*
X-49048Y128382D01*
X-49063Y128485D01*
X-49079Y128520D01*
X-49087Y128559D01*
X-49136Y128650D01*
X-49179Y128744D01*
X-49204Y128774D01*
X-49223Y128808D01*
X-49295Y128882D01*
X-49362Y128961D01*
X-49395Y128983D01*
X-49422Y129011D01*
X-49513Y129061D01*
X-49599Y129119D01*
X-49636Y129131D01*
X-49670Y129150D01*
X-49771Y129173D01*
X-49870Y129205D01*
X-49909Y129206D01*
X-49947Y129214D01*
X-50051Y129209D01*
X-50154Y129212D01*
X-50192Y129202D01*
X-50231Y129200D01*
X-50304Y129173D01*
X-50429Y129140D01*
X-50493Y129102D01*
X-50546Y129083D01*
X-53205Y127547D01*
X-59989Y125729D01*
X-67011Y125729D01*
X-73795Y127547D01*
X-79876Y131058D01*
X-84842Y136024D01*
X-88353Y142105D01*
X-90171Y148889D01*
X-90171Y155911D01*
X-88353Y162695D01*
X-86817Y165354D01*
X-86803Y165391D01*
X-86781Y165423D01*
X-86750Y165522D01*
X-86711Y165618D01*
X-86707Y165657D01*
X-86695Y165694D01*
X-86693Y165798D01*
X-86682Y165901D01*
X-86689Y165939D01*
X-86688Y165978D01*
X-86714Y166079D01*
X-86733Y166181D01*
X-86750Y166216D01*
X-86760Y166253D01*
X-86813Y166342D01*
X-86859Y166435D01*
X-86885Y166464D01*
X-86905Y166498D01*
X-86981Y166569D01*
X-87051Y166645D01*
X-87084Y166666D01*
X-87113Y166692D01*
X-87205Y166739D01*
X-87293Y166794D01*
X-87331Y166804D01*
X-87366Y166822D01*
X-87442Y166835D01*
X-87567Y166869D01*
X-87642Y166868D01*
X-87697Y166877D01*
X-191703Y166877D01*
X-191742Y166872D01*
X-191781Y166874D01*
X-191882Y166852D01*
X-191985Y166837D01*
X-192020Y166821D01*
X-192059Y166813D01*
X-192150Y166764D01*
X-192244Y166721D01*
X-192274Y166696D01*
X-192308Y166677D01*
X-192382Y166605D01*
X-192461Y166538D01*
X-192483Y166505D01*
X-192511Y166478D01*
X-192561Y166387D01*
X-192619Y166301D01*
X-192631Y166264D01*
X-192650Y166230D01*
X-192673Y166129D01*
X-192705Y166030D01*
X-192706Y165991D01*
X-192714Y165953D01*
X-192709Y165849D01*
X-192712Y165746D01*
X-192702Y165708D01*
X-192700Y165669D01*
X-192673Y165596D01*
X-192640Y165471D01*
X-192602Y165407D01*
X-192583Y165354D01*
X-191047Y162695D01*
X-189229Y155911D01*
X-189229Y148889D01*
X-191047Y142105D01*
X-194558Y136024D01*
X-199524Y131058D01*
X-205605Y127547D01*
X-212389Y125729D01*
X-219411Y125729D01*
X-226195Y127547D01*
X-228854Y129083D01*
X-228891Y129097D01*
X-228923Y129119D01*
X-229022Y129150D01*
X-229118Y129189D01*
X-229157Y129193D01*
X-229194Y129205D01*
X-229298Y129207D01*
X-229401Y129218D01*
X-229439Y129211D01*
X-229478Y129212D01*
X-229579Y129186D01*
X-229681Y129167D01*
X-229716Y129150D01*
X-229753Y129140D01*
X-229842Y129087D01*
X-229935Y129041D01*
X-229964Y129015D01*
X-229998Y128995D01*
X-230069Y128919D01*
X-230145Y128849D01*
X-230166Y128816D01*
X-230192Y128787D01*
X-230239Y128695D01*
X-230294Y128607D01*
X-230304Y128569D01*
X-230322Y128534D01*
X-230335Y128458D01*
X-230369Y128333D01*
X-230368Y128258D01*
X-230377Y128203D01*
X-230377Y96890D01*
X-230369Y96832D01*
X-230371Y96774D01*
X-230349Y96692D01*
X-230337Y96608D01*
X-230314Y96555D01*
X-230299Y96499D01*
X-230256Y96426D01*
X-230221Y96349D01*
X-230183Y96304D01*
X-230154Y96254D01*
X-230092Y96196D01*
X-230038Y96132D01*
X-229989Y96100D01*
X-229946Y96060D01*
X-229871Y96021D01*
X-229801Y95974D01*
X-229745Y95957D01*
X-229693Y95930D01*
X-229625Y95919D01*
X-229530Y95889D01*
X-229430Y95886D01*
X-229362Y95875D01*
X-216768Y95875D01*
X-215875Y94982D01*
X-215875Y80718D01*
X-216768Y79825D01*
X-229362Y79825D01*
X-229420Y79817D01*
X-229478Y79819D01*
X-229560Y79797D01*
X-229644Y79785D01*
X-229697Y79762D01*
X-229753Y79747D01*
X-229826Y79704D01*
X-229903Y79669D01*
X-229948Y79631D01*
X-229998Y79602D01*
X-230056Y79540D01*
X-230120Y79486D01*
X-230152Y79437D01*
X-230192Y79394D01*
X-230231Y79319D01*
X-230278Y79249D01*
X-230295Y79193D01*
X-230322Y79141D01*
X-230333Y79073D01*
X-230363Y78978D01*
X-230366Y78878D01*
X-230377Y78810D01*
X-230377Y39890D01*
X-230369Y39832D01*
X-230371Y39774D01*
X-230349Y39692D01*
X-230337Y39608D01*
X-230314Y39555D01*
X-230299Y39499D01*
X-230256Y39426D01*
X-230221Y39349D01*
X-230183Y39304D01*
X-230154Y39254D01*
X-230092Y39196D01*
X-230038Y39132D01*
X-229989Y39100D01*
X-229946Y39060D01*
X-229871Y39021D01*
X-229801Y38974D01*
X-229745Y38957D01*
X-229693Y38930D01*
X-229625Y38919D01*
X-229530Y38889D01*
X-229430Y38886D01*
X-229362Y38875D01*
X-218416Y38875D01*
X-218358Y38883D01*
X-218300Y38881D01*
X-218218Y38903D01*
X-218134Y38915D01*
X-218081Y38938D01*
X-218025Y38953D01*
X-217952Y38996D01*
X-217875Y39031D01*
X-217830Y39069D01*
X-217780Y39098D01*
X-217722Y39160D01*
X-217658Y39214D01*
X-217626Y39263D01*
X-217586Y39306D01*
X-217547Y39381D01*
X-217500Y39451D01*
X-217483Y39507D01*
X-217456Y39559D01*
X-217445Y39627D01*
X-217415Y39722D01*
X-217412Y39822D01*
X-217401Y39890D01*
X-217401Y40192D01*
X-196094Y61499D01*
X-196093Y61501D01*
X-196091Y61502D01*
X-196003Y61620D01*
X-195923Y61727D01*
X-195922Y61728D01*
X-195921Y61730D01*
X-195871Y61863D01*
X-195822Y61992D01*
X-195821Y61994D01*
X-195821Y61996D01*
X-195810Y62136D01*
X-195798Y62276D01*
X-195798Y62277D01*
X-195798Y62279D01*
X-195802Y62296D01*
X-195807Y62319D01*
X-195807Y64556D01*
X-194999Y66506D01*
X-193506Y67999D01*
X-191556Y68807D01*
X-189347Y68807D01*
X-189331Y68803D01*
X-189329Y68803D01*
X-189327Y68802D01*
X-189188Y68807D01*
X-189047Y68811D01*
X-189045Y68811D01*
X-189043Y68811D01*
X-188911Y68854D01*
X-188776Y68897D01*
X-188774Y68898D01*
X-188773Y68899D01*
X-188760Y68908D01*
X-188540Y69055D01*
X-188520Y69079D01*
X-188499Y69094D01*
X-170102Y87491D01*
X-130940Y87491D01*
X-130882Y87499D01*
X-130824Y87497D01*
X-130742Y87519D01*
X-130658Y87531D01*
X-130605Y87554D01*
X-130549Y87569D01*
X-130476Y87612D01*
X-130399Y87647D01*
X-130354Y87685D01*
X-130304Y87714D01*
X-130246Y87776D01*
X-130182Y87830D01*
X-130150Y87879D01*
X-130110Y87922D01*
X-130071Y87997D01*
X-130024Y88067D01*
X-130007Y88123D01*
X-129980Y88175D01*
X-129969Y88243D01*
X-129939Y88338D01*
X-129936Y88438D01*
X-129925Y88506D01*
X-129925Y89582D01*
X-129774Y89732D01*
X-129739Y89779D01*
X-129697Y89819D01*
X-129654Y89892D01*
X-129603Y89959D01*
X-129582Y90014D01*
X-129553Y90064D01*
X-129532Y90146D01*
X-129502Y90225D01*
X-129497Y90283D01*
X-129483Y90340D01*
X-129486Y90424D01*
X-129478Y90508D01*
X-129490Y90566D01*
X-129492Y90624D01*
X-129518Y90704D01*
X-129534Y90787D01*
X-129561Y90839D01*
X-129579Y90895D01*
X-129619Y90951D01*
X-129665Y91039D01*
X-129734Y91112D01*
X-129774Y91168D01*
X-129925Y91318D01*
X-129925Y100582D01*
X-129032Y101475D01*
X-112768Y101475D01*
X-111875Y100582D01*
X-111875Y91318D01*
X-112026Y91168D01*
X-112061Y91121D01*
X-112103Y91081D01*
X-112146Y91008D01*
X-112197Y90941D01*
X-112217Y90886D01*
X-112247Y90836D01*
X-112268Y90754D01*
X-112298Y90675D01*
X-112303Y90617D01*
X-112317Y90560D01*
X-112315Y90476D01*
X-112321Y90392D01*
X-112310Y90334D01*
X-112308Y90276D01*
X-112282Y90196D01*
X-112266Y90113D01*
X-112239Y90061D01*
X-112221Y90005D01*
X-112181Y89949D01*
X-112135Y89861D01*
X-112066Y89788D01*
X-112026Y89732D01*
X-111875Y89582D01*
X-111875Y81487D01*
X-111866Y81419D01*
X-111866Y81351D01*
X-111846Y81279D01*
X-111835Y81205D01*
X-111808Y81143D01*
X-111789Y81077D01*
X-111750Y81014D01*
X-111719Y80946D01*
X-111675Y80894D01*
X-111639Y80836D01*
X-111584Y80786D01*
X-111536Y80729D01*
X-111479Y80691D01*
X-111428Y80645D01*
X-111371Y80619D01*
X-111299Y80571D01*
X-111190Y80537D01*
X-111123Y80506D01*
X-110419Y80318D01*
X-109840Y79983D01*
X-109367Y79510D01*
X-109032Y78931D01*
X-108859Y78284D01*
X-108859Y75949D01*
X-117916Y75949D01*
X-117974Y75941D01*
X-118032Y75943D01*
X-118114Y75921D01*
X-118197Y75909D01*
X-118251Y75886D01*
X-118307Y75871D01*
X-118380Y75828D01*
X-118457Y75793D01*
X-118501Y75755D01*
X-118552Y75726D01*
X-118609Y75664D01*
X-118674Y75610D01*
X-118706Y75561D01*
X-118746Y75518D01*
X-118785Y75443D01*
X-118831Y75373D01*
X-118849Y75317D01*
X-118876Y75265D01*
X-118887Y75197D01*
X-118900Y75155D01*
X-118909Y75216D01*
X-118933Y75269D01*
X-118947Y75325D01*
X-118991Y75398D01*
X-119025Y75475D01*
X-119063Y75520D01*
X-119093Y75570D01*
X-119154Y75628D01*
X-119209Y75692D01*
X-119257Y75724D01*
X-119300Y75764D01*
X-119375Y75803D01*
X-119445Y75850D01*
X-119501Y75867D01*
X-119553Y75894D01*
X-119621Y75905D01*
X-119716Y75935D01*
X-119816Y75938D01*
X-119884Y75949D01*
X-128941Y75949D01*
X-128941Y78284D01*
X-128871Y78546D01*
X-128861Y78624D01*
X-128842Y78699D01*
X-128844Y78764D01*
X-128836Y78829D01*
X-128849Y78905D01*
X-128851Y78983D01*
X-128871Y79045D01*
X-128881Y79109D01*
X-128915Y79180D01*
X-128938Y79254D01*
X-128971Y79299D01*
X-129003Y79366D01*
X-129088Y79464D01*
X-129133Y79527D01*
X-129925Y80318D01*
X-129925Y81394D01*
X-129933Y81452D01*
X-129931Y81510D01*
X-129953Y81592D01*
X-129965Y81676D01*
X-129988Y81729D01*
X-130003Y81785D01*
X-130046Y81858D01*
X-130081Y81935D01*
X-130119Y81980D01*
X-130148Y82030D01*
X-130210Y82088D01*
X-130264Y82152D01*
X-130313Y82184D01*
X-130356Y82224D01*
X-130431Y82263D01*
X-130501Y82310D01*
X-130557Y82327D01*
X-130609Y82354D01*
X-130677Y82365D01*
X-130772Y82395D01*
X-130872Y82398D01*
X-130940Y82409D01*
X-167577Y82409D01*
X-167664Y82397D01*
X-167751Y82394D01*
X-167804Y82377D01*
X-167859Y82369D01*
X-167938Y82334D01*
X-168022Y82307D01*
X-168061Y82279D01*
X-168118Y82253D01*
X-168231Y82157D01*
X-168295Y82112D01*
X-184906Y65501D01*
X-184907Y65499D01*
X-184909Y65498D01*
X-184997Y65380D01*
X-185077Y65273D01*
X-185078Y65272D01*
X-185079Y65270D01*
X-185129Y65137D01*
X-185178Y65008D01*
X-185179Y65006D01*
X-185179Y65004D01*
X-185191Y64861D01*
X-185202Y64724D01*
X-185202Y64723D01*
X-185202Y64721D01*
X-185198Y64704D01*
X-185193Y64681D01*
X-185193Y62444D01*
X-186001Y60494D01*
X-187494Y59001D01*
X-189444Y58193D01*
X-191653Y58193D01*
X-191669Y58197D01*
X-191671Y58197D01*
X-191673Y58198D01*
X-191812Y58193D01*
X-191953Y58189D01*
X-191955Y58189D01*
X-191957Y58189D01*
X-192089Y58146D01*
X-192224Y58103D01*
X-192226Y58102D01*
X-192227Y58101D01*
X-192241Y58092D01*
X-192460Y57945D01*
X-192480Y57921D01*
X-192501Y57906D01*
X-201683Y48724D01*
X-201701Y48700D01*
X-201723Y48681D01*
X-201786Y48587D01*
X-201854Y48497D01*
X-201864Y48469D01*
X-201881Y48445D01*
X-201915Y48337D01*
X-201955Y48231D01*
X-201958Y48202D01*
X-201966Y48174D01*
X-201969Y48060D01*
X-201979Y47948D01*
X-201973Y47919D01*
X-201974Y47890D01*
X-201945Y47780D01*
X-201923Y47669D01*
X-201909Y47643D01*
X-201902Y47615D01*
X-201844Y47517D01*
X-201792Y47417D01*
X-201772Y47395D01*
X-201757Y47370D01*
X-201674Y47293D01*
X-201596Y47211D01*
X-201571Y47196D01*
X-201549Y47176D01*
X-201448Y47124D01*
X-201351Y47067D01*
X-201322Y47060D01*
X-201296Y47046D01*
X-201219Y47033D01*
X-201075Y46997D01*
X-201013Y46999D01*
X-200965Y46991D01*
X-179273Y46991D01*
X-179186Y47003D01*
X-179099Y47006D01*
X-179046Y47023D01*
X-178991Y47031D01*
X-178912Y47066D01*
X-178828Y47093D01*
X-178789Y47121D01*
X-178732Y47147D01*
X-178619Y47243D01*
X-178555Y47288D01*
X-157994Y67849D01*
X-157993Y67851D01*
X-157991Y67852D01*
X-157975Y67874D01*
X-157954Y67892D01*
X-157892Y67985D01*
X-157823Y68077D01*
X-157822Y68078D01*
X-157821Y68080D01*
X-157811Y68106D01*
X-157796Y68128D01*
X-157763Y68233D01*
X-157722Y68342D01*
X-157721Y68344D01*
X-157721Y68346D01*
X-157719Y68374D01*
X-157711Y68399D01*
X-157708Y68507D01*
X-157698Y68626D01*
X-157698Y68627D01*
X-157698Y68629D01*
X-157702Y68646D01*
X-157704Y68656D01*
X-157703Y68683D01*
X-157707Y68696D01*
X-157707Y70906D01*
X-156899Y72856D01*
X-155406Y74349D01*
X-153456Y75157D01*
X-151344Y75157D01*
X-149394Y74349D01*
X-147901Y72856D01*
X-147093Y70906D01*
X-147093Y68794D01*
X-147901Y66844D01*
X-149394Y65351D01*
X-151344Y64543D01*
X-153553Y64543D01*
X-153569Y64547D01*
X-153571Y64547D01*
X-153573Y64548D01*
X-153712Y64543D01*
X-153853Y64539D01*
X-153855Y64539D01*
X-153857Y64539D01*
X-153989Y64496D01*
X-154124Y64453D01*
X-154126Y64452D01*
X-154127Y64451D01*
X-154141Y64442D01*
X-154360Y64295D01*
X-154380Y64271D01*
X-154401Y64256D01*
X-174708Y43949D01*
X-174743Y43902D01*
X-174786Y43862D01*
X-174828Y43789D01*
X-174879Y43722D01*
X-174900Y43667D01*
X-174929Y43616D01*
X-174950Y43535D01*
X-174980Y43456D01*
X-174985Y43398D01*
X-174999Y43341D01*
X-174997Y43257D01*
X-175004Y43173D01*
X-174992Y43115D01*
X-174990Y43057D01*
X-174965Y42977D01*
X-174948Y42894D01*
X-174921Y42842D01*
X-174903Y42786D01*
X-174863Y42730D01*
X-174817Y42642D01*
X-174748Y42569D01*
X-174748Y42568D01*
X-174737Y42550D01*
X-174730Y42544D01*
X-174708Y42513D01*
X-173232Y41037D01*
X-173224Y41023D01*
X-173222Y41022D01*
X-173222Y41020D01*
X-173117Y40922D01*
X-173017Y40827D01*
X-173015Y40827D01*
X-173014Y40826D01*
X-172889Y40761D01*
X-172764Y40697D01*
X-172763Y40697D01*
X-172761Y40696D01*
X-172746Y40694D01*
X-172485Y40642D01*
X-172455Y40645D01*
X-172430Y40641D01*
X-153873Y40641D01*
X-153786Y40653D01*
X-153699Y40656D01*
X-153646Y40673D01*
X-153591Y40681D01*
X-153512Y40716D01*
X-153428Y40743D01*
X-153389Y40771D01*
X-153332Y40797D01*
X-153219Y40893D01*
X-153155Y40938D01*
X-130222Y63871D01*
X-130170Y63941D01*
X-130110Y64005D01*
X-130084Y64054D01*
X-130051Y64098D01*
X-130020Y64180D01*
X-129980Y64258D01*
X-129972Y64305D01*
X-129950Y64364D01*
X-129938Y64512D01*
X-129925Y64589D01*
X-129925Y67582D01*
X-129133Y68373D01*
X-129087Y68435D01*
X-129032Y68491D01*
X-129001Y68548D01*
X-128962Y68600D01*
X-128935Y68673D01*
X-128898Y68742D01*
X-128884Y68805D01*
X-128861Y68866D01*
X-128855Y68943D01*
X-128838Y69020D01*
X-128844Y69075D01*
X-128838Y69149D01*
X-128863Y69276D01*
X-128871Y69354D01*
X-128941Y69616D01*
X-128941Y71951D01*
X-119884Y71951D01*
X-119826Y71959D01*
X-119768Y71957D01*
X-119686Y71979D01*
X-119603Y71991D01*
X-119549Y72014D01*
X-119493Y72029D01*
X-119420Y72072D01*
X-119343Y72107D01*
X-119299Y72145D01*
X-119248Y72174D01*
X-119191Y72236D01*
X-119126Y72290D01*
X-119094Y72339D01*
X-119054Y72382D01*
X-119015Y72457D01*
X-118969Y72527D01*
X-118951Y72583D01*
X-118924Y72635D01*
X-118913Y72703D01*
X-118900Y72745D01*
X-118891Y72684D01*
X-118867Y72631D01*
X-118853Y72575D01*
X-118809Y72502D01*
X-118775Y72425D01*
X-118737Y72380D01*
X-118707Y72330D01*
X-118646Y72272D01*
X-118591Y72208D01*
X-118543Y72176D01*
X-118500Y72136D01*
X-118425Y72097D01*
X-118355Y72050D01*
X-118299Y72033D01*
X-118247Y72006D01*
X-118179Y71995D01*
X-118084Y71965D01*
X-117984Y71962D01*
X-117916Y71951D01*
X-108859Y71951D01*
X-108859Y69616D01*
X-109032Y68969D01*
X-109367Y68390D01*
X-109840Y67917D01*
X-110419Y67582D01*
X-111123Y67394D01*
X-111186Y67367D01*
X-111251Y67350D01*
X-111316Y67312D01*
X-111384Y67283D01*
X-111437Y67240D01*
X-111496Y67205D01*
X-111547Y67150D01*
X-111605Y67103D01*
X-111644Y67047D01*
X-111690Y66997D01*
X-111724Y66931D01*
X-111767Y66870D01*
X-111789Y66805D01*
X-111820Y66744D01*
X-111830Y66682D01*
X-111858Y66600D01*
X-111863Y66487D01*
X-111875Y66413D01*
X-111875Y58490D01*
X-111867Y58432D01*
X-111869Y58374D01*
X-111847Y58292D01*
X-111835Y58208D01*
X-111812Y58155D01*
X-111797Y58099D01*
X-111754Y58026D01*
X-111719Y57949D01*
X-111681Y57904D01*
X-111652Y57854D01*
X-111590Y57796D01*
X-111536Y57732D01*
X-111487Y57700D01*
X-111444Y57660D01*
X-111369Y57621D01*
X-111299Y57574D01*
X-111243Y57557D01*
X-111191Y57530D01*
X-111123Y57519D01*
X-111028Y57489D01*
X-110928Y57486D01*
X-110860Y57475D01*
X-110768Y57475D01*
X-109875Y56582D01*
X-109875Y49031D01*
X-109863Y48944D01*
X-109860Y48857D01*
X-109843Y48804D01*
X-109835Y48750D01*
X-109800Y48670D01*
X-109773Y48587D01*
X-109745Y48547D01*
X-109719Y48490D01*
X-109623Y48377D01*
X-109578Y48313D01*
X-108553Y47288D01*
X-108483Y47236D01*
X-108419Y47176D01*
X-108370Y47150D01*
X-108326Y47117D01*
X-108244Y47086D01*
X-108166Y47046D01*
X-108118Y47038D01*
X-108060Y47016D01*
X-107912Y47004D01*
X-107835Y46991D01*
X-100620Y46991D01*
X-100618Y46991D01*
X-100617Y46991D01*
X-100476Y47011D01*
X-100338Y47031D01*
X-100337Y47031D01*
X-100335Y47031D01*
X-100206Y47090D01*
X-100079Y47147D01*
X-100078Y47148D01*
X-100076Y47149D01*
X-99970Y47239D01*
X-99862Y47330D01*
X-99861Y47332D01*
X-99860Y47333D01*
X-99852Y47345D01*
X-99837Y47368D01*
X-98256Y48949D01*
X-96306Y49757D01*
X-94194Y49757D01*
X-92244Y48949D01*
X-90751Y47456D01*
X-89943Y45506D01*
X-89943Y43394D01*
X-90751Y41444D01*
X-92244Y39951D01*
X-94194Y39143D01*
X-96306Y39143D01*
X-98256Y39951D01*
X-99818Y41513D01*
X-99826Y41527D01*
X-99828Y41528D01*
X-99828Y41530D01*
X-99933Y41628D01*
X-100033Y41723D01*
X-100035Y41723D01*
X-100036Y41724D01*
X-100161Y41789D01*
X-100286Y41853D01*
X-100287Y41853D01*
X-100289Y41854D01*
X-100304Y41856D01*
X-100565Y41908D01*
X-100595Y41905D01*
X-100620Y41909D01*
X-100723Y41909D01*
X-100752Y41905D01*
X-100781Y41908D01*
X-100892Y41885D01*
X-101004Y41869D01*
X-101031Y41857D01*
X-101060Y41852D01*
X-101160Y41800D01*
X-101264Y41753D01*
X-101286Y41734D01*
X-101312Y41721D01*
X-101394Y41643D01*
X-101481Y41570D01*
X-101497Y41545D01*
X-101518Y41525D01*
X-101576Y41427D01*
X-101638Y41333D01*
X-101647Y41305D01*
X-101662Y41280D01*
X-101690Y41170D01*
X-101724Y41062D01*
X-101725Y41033D01*
X-101732Y41004D01*
X-101729Y40891D01*
X-101732Y40778D01*
X-101724Y40749D01*
X-101723Y40720D01*
X-101688Y40612D01*
X-101660Y40503D01*
X-101645Y40477D01*
X-101636Y40449D01*
X-101590Y40386D01*
X-101514Y40258D01*
X-101469Y40215D01*
X-101453Y40194D01*
X-101453Y-78797D01*
X-101449Y-78827D01*
X-101452Y-78856D01*
X-101429Y-78967D01*
X-101413Y-79079D01*
X-101401Y-79106D01*
X-101396Y-79134D01*
X-101343Y-79235D01*
X-101297Y-79338D01*
X-101278Y-79361D01*
X-101265Y-79387D01*
X-101187Y-79469D01*
X-101114Y-79555D01*
X-101089Y-79572D01*
X-101069Y-79593D01*
X-100971Y-79650D01*
X-100877Y-79713D01*
X-100849Y-79722D01*
X-100824Y-79737D01*
X-100714Y-79764D01*
X-100606Y-79799D01*
X-100576Y-79799D01*
X-100548Y-79807D01*
X-100435Y-79803D01*
X-100322Y-79806D01*
X-100293Y-79799D01*
X-100264Y-79798D01*
X-100156Y-79763D01*
X-100047Y-79734D01*
X-100021Y-79719D01*
X-99993Y-79710D01*
X-99929Y-79665D01*
X-99802Y-79589D01*
X-99759Y-79543D01*
X-99720Y-79515D01*
X-98256Y-78051D01*
X-96306Y-77243D01*
X-94194Y-77243D01*
X-92244Y-78051D01*
X-90751Y-79544D01*
X-89943Y-81494D01*
X-89943Y-83606D01*
X-90751Y-85556D01*
X-92172Y-86977D01*
X-92224Y-87047D01*
X-92284Y-87110D01*
X-92310Y-87160D01*
X-92343Y-87204D01*
X-92374Y-87286D01*
X-92414Y-87364D01*
X-92422Y-87411D01*
X-92444Y-87470D01*
X-92456Y-87617D01*
X-92469Y-87695D01*
X-92469Y-94978D01*
X-92461Y-95036D01*
X-92463Y-95094D01*
X-92441Y-95176D01*
X-92429Y-95260D01*
X-92406Y-95313D01*
X-92391Y-95369D01*
X-92348Y-95442D01*
X-92313Y-95519D01*
X-92275Y-95564D01*
X-92246Y-95614D01*
X-92184Y-95672D01*
X-92130Y-95736D01*
X-92081Y-95768D01*
X-92038Y-95808D01*
X-91963Y-95847D01*
X-91893Y-95894D01*
X-91837Y-95911D01*
X-91785Y-95938D01*
X-91717Y-95949D01*
X-91622Y-95979D01*
X-91522Y-95982D01*
X-91454Y-95993D01*
X-76665Y-95993D01*
X-76578Y-95981D01*
X-76491Y-95978D01*
X-76438Y-95961D01*
X-76383Y-95953D01*
X-76304Y-95918D01*
X-76220Y-95891D01*
X-76181Y-95863D01*
X-76124Y-95837D01*
X-76011Y-95741D01*
X-75947Y-95696D01*
X-61003Y-80752D01*
X-60985Y-80728D01*
X-60963Y-80709D01*
X-60900Y-80615D01*
X-60832Y-80525D01*
X-60822Y-80497D01*
X-60805Y-80473D01*
X-60771Y-80365D01*
X-60731Y-80259D01*
X-60728Y-80230D01*
X-60719Y-80202D01*
X-60717Y-80088D01*
X-60707Y-79976D01*
X-60713Y-79947D01*
X-60712Y-79918D01*
X-60741Y-79808D01*
X-60763Y-79697D01*
X-60777Y-79671D01*
X-60784Y-79643D01*
X-60842Y-79545D01*
X-60894Y-79445D01*
X-60914Y-79423D01*
X-60929Y-79398D01*
X-61012Y-79321D01*
X-61090Y-79239D01*
X-61115Y-79224D01*
X-61137Y-79204D01*
X-61237Y-79152D01*
X-61335Y-79095D01*
X-61364Y-79088D01*
X-61390Y-79074D01*
X-61467Y-79061D01*
X-61611Y-79025D01*
X-61673Y-79027D01*
X-61721Y-79019D01*
X-88376Y-79019D01*
X-89269Y-78126D01*
X-89269Y-55862D01*
X-88376Y-54969D01*
X-61721Y-54969D01*
X-61692Y-54965D01*
X-61662Y-54968D01*
X-61551Y-54945D01*
X-61439Y-54929D01*
X-61413Y-54917D01*
X-61384Y-54912D01*
X-61283Y-54860D01*
X-61180Y-54813D01*
X-61157Y-54794D01*
X-61131Y-54781D01*
X-61049Y-54703D01*
X-60963Y-54630D01*
X-60947Y-54605D01*
X-60925Y-54585D01*
X-60868Y-54487D01*
X-60805Y-54393D01*
X-60796Y-54365D01*
X-60782Y-54340D01*
X-60754Y-54230D01*
X-60719Y-54122D01*
X-60719Y-54092D01*
X-60712Y-54064D01*
X-60715Y-53951D01*
X-60712Y-53838D01*
X-60720Y-53809D01*
X-60721Y-53780D01*
X-60755Y-53672D01*
X-60784Y-53563D01*
X-60799Y-53537D01*
X-60808Y-53509D01*
X-60854Y-53446D01*
X-60929Y-53318D01*
X-60975Y-53275D01*
X-61003Y-53236D01*
X-66041Y-48198D01*
X-66041Y-43470D01*
X-66041Y-43468D01*
X-66041Y-43467D01*
X-66061Y-43326D01*
X-66081Y-43188D01*
X-66081Y-43187D01*
X-66081Y-43185D01*
X-66140Y-43056D01*
X-66197Y-42929D01*
X-66198Y-42928D01*
X-66199Y-42926D01*
X-66289Y-42820D01*
X-66380Y-42712D01*
X-66382Y-42711D01*
X-66383Y-42710D01*
X-66395Y-42702D01*
X-66418Y-42687D01*
X-67999Y-41106D01*
X-68807Y-39156D01*
X-68807Y-37044D01*
X-67999Y-35094D01*
X-66506Y-33601D01*
X-64556Y-32793D01*
X-62444Y-32793D01*
X-60494Y-33601D01*
X-59001Y-35094D01*
X-58193Y-37044D01*
X-58193Y-39156D01*
X-59001Y-41106D01*
X-60563Y-42668D01*
X-60577Y-42676D01*
X-60578Y-42678D01*
X-60580Y-42678D01*
X-60678Y-42783D01*
X-60773Y-42883D01*
X-60773Y-42885D01*
X-60774Y-42886D01*
X-60839Y-43011D01*
X-60903Y-43136D01*
X-60903Y-43137D01*
X-60904Y-43139D01*
X-60906Y-43154D01*
X-60958Y-43415D01*
X-60955Y-43445D01*
X-60959Y-43470D01*
X-60959Y-45673D01*
X-60947Y-45760D01*
X-60944Y-45847D01*
X-60927Y-45900D01*
X-60919Y-45954D01*
X-60884Y-46034D01*
X-60857Y-46117D01*
X-60829Y-46157D01*
X-60803Y-46214D01*
X-60707Y-46327D01*
X-60662Y-46391D01*
X-52663Y-54389D01*
X-52663Y-79599D01*
X-74139Y-101075D01*
X-91454Y-101075D01*
X-91512Y-101083D01*
X-91570Y-101081D01*
X-91652Y-101103D01*
X-91736Y-101115D01*
X-91789Y-101138D01*
X-91845Y-101153D01*
X-91918Y-101196D01*
X-91995Y-101231D01*
X-92040Y-101269D01*
X-92090Y-101298D01*
X-92148Y-101360D01*
X-92212Y-101414D01*
X-92244Y-101463D01*
X-92284Y-101506D01*
X-92323Y-101581D01*
X-92370Y-101651D01*
X-92387Y-101707D01*
X-92414Y-101759D01*
X-92425Y-101827D01*
X-92455Y-101922D01*
X-92458Y-102022D01*
X-92469Y-102090D01*
X-92469Y-109126D01*
X-93370Y-110026D01*
X-93405Y-110073D01*
X-93447Y-110113D01*
X-93490Y-110186D01*
X-93541Y-110253D01*
X-93562Y-110308D01*
X-93591Y-110358D01*
X-93612Y-110440D01*
X-93642Y-110519D01*
X-93647Y-110577D01*
X-93661Y-110634D01*
X-93658Y-110718D01*
X-93665Y-110802D01*
X-93654Y-110860D01*
X-93652Y-110918D01*
X-93626Y-110998D01*
X-93610Y-111081D01*
X-93583Y-111133D01*
X-93565Y-111189D01*
X-93525Y-111245D01*
X-93479Y-111333D01*
X-93410Y-111406D01*
X-93370Y-111462D01*
X-92469Y-112362D01*
X-92469Y-121626D01*
X-93370Y-122526D01*
X-93405Y-122573D01*
X-93447Y-122613D01*
X-93490Y-122686D01*
X-93541Y-122753D01*
X-93562Y-122808D01*
X-93591Y-122858D01*
X-93612Y-122940D01*
X-93642Y-123019D01*
X-93647Y-123077D01*
X-93661Y-123134D01*
X-93658Y-123218D01*
X-93665Y-123302D01*
X-93654Y-123360D01*
X-93652Y-123418D01*
X-93626Y-123498D01*
X-93610Y-123581D01*
X-93583Y-123633D01*
X-93565Y-123689D01*
X-93525Y-123745D01*
X-93479Y-123833D01*
X-93410Y-123906D01*
X-93370Y-123962D01*
X-92469Y-124862D01*
X-92469Y-134126D01*
X-93362Y-135019D01*
X-114626Y-135019D01*
X-115519Y-134126D01*
X-115519Y-130556D01*
X-115527Y-130498D01*
X-115525Y-130440D01*
X-115547Y-130358D01*
X-115559Y-130274D01*
X-115582Y-130221D01*
X-115597Y-130165D01*
X-115640Y-130092D01*
X-115675Y-130015D01*
X-115713Y-129970D01*
X-115742Y-129920D01*
X-115804Y-129862D01*
X-115858Y-129798D01*
X-115907Y-129766D01*
X-115950Y-129726D01*
X-116025Y-129687D01*
X-116095Y-129640D01*
X-116151Y-129623D01*
X-116203Y-129596D01*
X-116271Y-129585D01*
X-116366Y-129555D01*
X-116466Y-129552D01*
X-116534Y-129541D01*
X-140752Y-129541D01*
X-142241Y-128052D01*
X-142241Y-18070D01*
X-142241Y-18068D01*
X-142241Y-18067D01*
X-142261Y-17926D01*
X-142281Y-17788D01*
X-142281Y-17787D01*
X-142281Y-17785D01*
X-142340Y-17656D01*
X-142397Y-17529D01*
X-142398Y-17528D01*
X-142399Y-17526D01*
X-142489Y-17420D01*
X-142580Y-17312D01*
X-142582Y-17311D01*
X-142583Y-17310D01*
X-142595Y-17302D01*
X-142618Y-17287D01*
X-144199Y-15706D01*
X-145007Y-13756D01*
X-145007Y-11644D01*
X-144199Y-9694D01*
X-142706Y-8201D01*
X-140756Y-7393D01*
X-138644Y-7393D01*
X-136694Y-8201D01*
X-135201Y-9694D01*
X-134393Y-11644D01*
X-134393Y-13756D01*
X-135201Y-15706D01*
X-136763Y-17268D01*
X-136777Y-17276D01*
X-136778Y-17278D01*
X-136780Y-17278D01*
X-136878Y-17383D01*
X-136973Y-17483D01*
X-136973Y-17485D01*
X-136974Y-17486D01*
X-137039Y-17613D01*
X-137103Y-17736D01*
X-137103Y-17737D01*
X-137104Y-17739D01*
X-137106Y-17754D01*
X-137158Y-18015D01*
X-137155Y-18045D01*
X-137159Y-18070D01*
X-137159Y-123444D01*
X-137151Y-123502D01*
X-137153Y-123560D01*
X-137131Y-123642D01*
X-137119Y-123726D01*
X-137096Y-123779D01*
X-137081Y-123835D01*
X-137038Y-123908D01*
X-137003Y-123985D01*
X-136965Y-124030D01*
X-136936Y-124080D01*
X-136874Y-124138D01*
X-136820Y-124202D01*
X-136771Y-124234D01*
X-136728Y-124274D01*
X-136653Y-124313D01*
X-136583Y-124360D01*
X-136527Y-124377D01*
X-136475Y-124404D01*
X-136407Y-124415D01*
X-136312Y-124445D01*
X-136212Y-124448D01*
X-136144Y-124459D01*
X-115536Y-124459D01*
X-115449Y-124447D01*
X-115362Y-124444D01*
X-115309Y-124427D01*
X-115255Y-124419D01*
X-115175Y-124384D01*
X-115092Y-124357D01*
X-115052Y-124329D01*
X-114995Y-124303D01*
X-114882Y-124207D01*
X-114818Y-124162D01*
X-114618Y-123962D01*
X-114583Y-123915D01*
X-114541Y-123875D01*
X-114498Y-123802D01*
X-114447Y-123735D01*
X-114426Y-123680D01*
X-114397Y-123630D01*
X-114376Y-123548D01*
X-114346Y-123469D01*
X-114341Y-123411D01*
X-114327Y-123354D01*
X-114330Y-123270D01*
X-114323Y-123186D01*
X-114334Y-123128D01*
X-114336Y-123070D01*
X-114362Y-122990D01*
X-114378Y-122907D01*
X-114405Y-122855D01*
X-114423Y-122799D01*
X-114463Y-122743D01*
X-114509Y-122655D01*
X-114578Y-122582D01*
X-114618Y-122526D01*
X-115519Y-121626D01*
X-115519Y-117856D01*
X-115527Y-117798D01*
X-115525Y-117740D01*
X-115547Y-117658D01*
X-115559Y-117574D01*
X-115582Y-117521D01*
X-115597Y-117465D01*
X-115640Y-117392D01*
X-115675Y-117315D01*
X-115713Y-117270D01*
X-115742Y-117220D01*
X-115804Y-117162D01*
X-115858Y-117098D01*
X-115907Y-117066D01*
X-115950Y-117026D01*
X-116025Y-116987D01*
X-116095Y-116940D01*
X-116151Y-116923D01*
X-116203Y-116896D01*
X-116271Y-116885D01*
X-116366Y-116855D01*
X-116466Y-116852D01*
X-116534Y-116841D01*
X-128052Y-116841D01*
X-129541Y-115352D01*
X-129541Y-11720D01*
X-129541Y-11718D01*
X-129541Y-11717D01*
X-129561Y-11576D01*
X-129581Y-11438D01*
X-129581Y-11437D01*
X-129581Y-11435D01*
X-129640Y-11306D01*
X-129697Y-11179D01*
X-129698Y-11178D01*
X-129699Y-11176D01*
X-129789Y-11070D01*
X-129880Y-10962D01*
X-129882Y-10961D01*
X-129883Y-10960D01*
X-129895Y-10952D01*
X-129918Y-10937D01*
X-131499Y-9356D01*
X-132307Y-7406D01*
X-132307Y-5294D01*
X-131499Y-3344D01*
X-130006Y-1851D01*
X-128056Y-1043D01*
X-125944Y-1043D01*
X-123994Y-1851D01*
X-122501Y-3344D01*
X-121693Y-5294D01*
X-121693Y-7406D01*
X-122501Y-9356D01*
X-124063Y-10918D01*
X-124077Y-10926D01*
X-124078Y-10928D01*
X-124080Y-10928D01*
X-124178Y-11033D01*
X-124273Y-11133D01*
X-124273Y-11135D01*
X-124274Y-11136D01*
X-124339Y-11261D01*
X-124403Y-11386D01*
X-124403Y-11387D01*
X-124404Y-11389D01*
X-124406Y-11404D01*
X-124458Y-11665D01*
X-124455Y-11695D01*
X-124459Y-11720D01*
X-124459Y-110744D01*
X-124451Y-110802D01*
X-124453Y-110860D01*
X-124431Y-110942D01*
X-124419Y-111026D01*
X-124396Y-111079D01*
X-124381Y-111135D01*
X-124338Y-111208D01*
X-124303Y-111285D01*
X-124265Y-111330D01*
X-124236Y-111380D01*
X-124174Y-111438D01*
X-124120Y-111502D01*
X-124071Y-111534D01*
X-124028Y-111574D01*
X-123953Y-111613D01*
X-123883Y-111660D01*
X-123827Y-111677D01*
X-123775Y-111704D01*
X-123707Y-111715D01*
X-123612Y-111745D01*
X-123512Y-111748D01*
X-123444Y-111759D01*
X-115336Y-111759D01*
X-115307Y-111755D01*
X-115278Y-111758D01*
X-115249Y-111752D01*
X-115220Y-111753D01*
X-115138Y-111731D01*
X-115055Y-111719D01*
X-115028Y-111707D01*
X-114999Y-111702D01*
X-114973Y-111688D01*
X-114945Y-111681D01*
X-114872Y-111638D01*
X-114795Y-111603D01*
X-114773Y-111584D01*
X-114747Y-111571D01*
X-114726Y-111551D01*
X-114700Y-111536D01*
X-114643Y-111474D01*
X-114578Y-111420D01*
X-114562Y-111395D01*
X-114541Y-111375D01*
X-114526Y-111350D01*
X-114506Y-111328D01*
X-114467Y-111253D01*
X-114421Y-111183D01*
X-114412Y-111155D01*
X-114397Y-111130D01*
X-114390Y-111101D01*
X-114376Y-111075D01*
X-114365Y-111007D01*
X-114335Y-110912D01*
X-114334Y-110882D01*
X-114327Y-110854D01*
X-114329Y-110792D01*
X-114321Y-110744D01*
X-114329Y-110686D01*
X-114328Y-110628D01*
X-114335Y-110599D01*
X-114336Y-110570D01*
X-114353Y-110517D01*
X-114361Y-110462D01*
X-114385Y-110409D01*
X-114399Y-110353D01*
X-114414Y-110328D01*
X-114423Y-110299D01*
X-114451Y-110260D01*
X-114477Y-110203D01*
X-114515Y-110158D01*
X-114545Y-110108D01*
X-114590Y-110065D01*
X-114618Y-110026D01*
X-115519Y-109126D01*
X-115519Y-99862D01*
X-114618Y-98962D01*
X-114583Y-98915D01*
X-114541Y-98875D01*
X-114498Y-98802D01*
X-114447Y-98735D01*
X-114426Y-98680D01*
X-114397Y-98630D01*
X-114376Y-98548D01*
X-114346Y-98469D01*
X-114341Y-98411D01*
X-114327Y-98354D01*
X-114330Y-98270D01*
X-114323Y-98186D01*
X-114334Y-98128D01*
X-114336Y-98070D01*
X-114362Y-97990D01*
X-114378Y-97907D01*
X-114405Y-97855D01*
X-114423Y-97799D01*
X-114463Y-97743D01*
X-114509Y-97655D01*
X-114578Y-97582D01*
X-114618Y-97526D01*
X-115519Y-96626D01*
X-115519Y-87362D01*
X-114626Y-86469D01*
X-107550Y-86469D01*
X-107492Y-86461D01*
X-107434Y-86463D01*
X-107352Y-86441D01*
X-107268Y-86429D01*
X-107215Y-86406D01*
X-107159Y-86391D01*
X-107086Y-86348D01*
X-107009Y-86313D01*
X-106964Y-86275D01*
X-106914Y-86246D01*
X-106856Y-86184D01*
X-106792Y-86130D01*
X-106760Y-86081D01*
X-106720Y-86038D01*
X-106681Y-85963D01*
X-106634Y-85893D01*
X-106617Y-85837D01*
X-106590Y-85785D01*
X-106579Y-85717D01*
X-106549Y-85622D01*
X-106546Y-85522D01*
X-106535Y-85454D01*
X-106535Y37663D01*
X-106547Y37750D01*
X-106550Y37837D01*
X-106567Y37890D01*
X-106575Y37945D01*
X-106610Y38024D01*
X-106637Y38108D01*
X-106665Y38147D01*
X-106691Y38204D01*
X-106787Y38317D01*
X-106832Y38381D01*
X-110142Y41691D01*
X-110166Y41709D01*
X-110185Y41731D01*
X-110279Y41794D01*
X-110369Y41862D01*
X-110397Y41872D01*
X-110421Y41889D01*
X-110529Y41923D01*
X-110635Y41963D01*
X-110664Y41966D01*
X-110692Y41975D01*
X-110806Y41977D01*
X-110918Y41987D01*
X-110947Y41981D01*
X-110976Y41982D01*
X-111086Y41953D01*
X-111197Y41931D01*
X-111223Y41917D01*
X-111251Y41910D01*
X-111349Y41852D01*
X-111449Y41800D01*
X-111471Y41780D01*
X-111496Y41765D01*
X-111573Y41682D01*
X-111655Y41604D01*
X-111670Y41579D01*
X-111690Y41557D01*
X-111742Y41457D01*
X-111799Y41359D01*
X-111806Y41330D01*
X-111820Y41304D01*
X-111833Y41227D01*
X-111869Y41083D01*
X-111867Y41021D01*
X-111875Y40973D01*
X-111875Y36318D01*
X-112768Y35425D01*
X-114860Y35425D01*
X-114918Y35417D01*
X-114976Y35419D01*
X-115058Y35397D01*
X-115142Y35385D01*
X-115195Y35362D01*
X-115251Y35347D01*
X-115324Y35304D01*
X-115401Y35269D01*
X-115446Y35231D01*
X-115496Y35202D01*
X-115554Y35140D01*
X-115618Y35086D01*
X-115650Y35037D01*
X-115690Y34994D01*
X-115729Y34919D01*
X-115776Y34849D01*
X-115793Y34793D01*
X-115820Y34741D01*
X-115831Y34673D01*
X-115861Y34578D01*
X-115864Y34478D01*
X-115875Y34410D01*
X-115875Y25490D01*
X-115867Y25432D01*
X-115869Y25374D01*
X-115847Y25292D01*
X-115835Y25208D01*
X-115812Y25155D01*
X-115797Y25099D01*
X-115754Y25026D01*
X-115719Y24949D01*
X-115681Y24904D01*
X-115652Y24854D01*
X-115590Y24796D01*
X-115536Y24732D01*
X-115487Y24700D01*
X-115444Y24660D01*
X-115369Y24621D01*
X-115299Y24574D01*
X-115243Y24557D01*
X-115191Y24530D01*
X-115123Y24519D01*
X-115028Y24489D01*
X-114928Y24486D01*
X-114860Y24475D01*
X-112768Y24475D01*
X-111875Y23582D01*
X-111875Y14318D01*
X-112768Y13425D01*
X-129032Y13425D01*
X-129925Y14318D01*
X-129925Y22781D01*
X-129929Y22810D01*
X-129926Y22839D01*
X-129949Y22950D01*
X-129965Y23063D01*
X-129977Y23089D01*
X-129982Y23118D01*
X-130034Y23219D01*
X-130081Y23322D01*
X-130100Y23344D01*
X-130113Y23370D01*
X-130191Y23453D01*
X-130264Y23539D01*
X-130289Y23555D01*
X-130309Y23577D01*
X-130407Y23634D01*
X-130501Y23697D01*
X-130529Y23705D01*
X-130554Y23720D01*
X-130664Y23748D01*
X-130772Y23782D01*
X-130802Y23783D01*
X-130830Y23790D01*
X-130943Y23787D01*
X-131056Y23790D01*
X-131085Y23782D01*
X-131114Y23781D01*
X-131222Y23746D01*
X-131331Y23718D01*
X-131357Y23703D01*
X-131385Y23694D01*
X-131448Y23648D01*
X-131576Y23573D01*
X-131619Y23527D01*
X-131658Y23499D01*
X-174962Y-19805D01*
X-175014Y-19875D01*
X-175074Y-19939D01*
X-175100Y-19988D01*
X-175133Y-20032D01*
X-175164Y-20114D01*
X-175204Y-20192D01*
X-175212Y-20239D01*
X-175234Y-20298D01*
X-175246Y-20446D01*
X-175259Y-20523D01*
X-175259Y-147102D01*
X-176748Y-148591D01*
X-223302Y-148591D01*
X-228644Y-143249D01*
X-228668Y-143231D01*
X-228687Y-143209D01*
X-228781Y-143146D01*
X-228871Y-143078D01*
X-228899Y-143068D01*
X-228923Y-143051D01*
X-229031Y-143017D01*
X-229137Y-142977D01*
X-229166Y-142974D01*
X-229194Y-142966D01*
X-229308Y-142963D01*
X-229420Y-142953D01*
X-229449Y-142959D01*
X-229478Y-142958D01*
X-229588Y-142987D01*
X-229699Y-143009D01*
X-229725Y-143023D01*
X-229753Y-143030D01*
X-229851Y-143088D01*
X-229951Y-143140D01*
X-229973Y-143160D01*
X-229998Y-143175D01*
X-230075Y-143258D01*
X-230157Y-143336D01*
X-230172Y-143361D01*
X-230192Y-143383D01*
X-230244Y-143484D01*
X-230301Y-143581D01*
X-230308Y-143610D01*
X-230322Y-143636D01*
X-230335Y-143713D01*
X-230371Y-143857D01*
X-230369Y-143919D01*
X-230377Y-143967D01*
X-230377Y-255203D01*
X-230372Y-255242D01*
X-230374Y-255281D01*
X-230352Y-255382D01*
X-230337Y-255485D01*
X-230321Y-255520D01*
X-230313Y-255559D01*
X-230264Y-255650D01*
X-230221Y-255744D01*
X-230196Y-255774D01*
X-230177Y-255808D01*
X-230105Y-255882D01*
X-230038Y-255961D01*
X-230005Y-255983D01*
X-229978Y-256011D01*
X-229887Y-256061D01*
X-229801Y-256119D01*
X-229764Y-256131D01*
X-229730Y-256150D01*
X-229629Y-256173D01*
X-229530Y-256205D01*
X-229491Y-256206D01*
X-229453Y-256214D01*
X-229349Y-256209D01*
X-229246Y-256212D01*
X-229208Y-256202D01*
X-229169Y-256200D01*
X-229096Y-256173D01*
X-228971Y-256140D01*
X-228907Y-256102D01*
X-228854Y-256083D01*
X-226195Y-254547D01*
X-219411Y-252729D01*
X-212389Y-252729D01*
X-205605Y-254547D01*
X-199524Y-258058D01*
X-194558Y-263024D01*
X-191047Y-269105D01*
X-189229Y-275889D01*
X-189229Y-282911D01*
X-191047Y-289695D01*
X-192583Y-292354D01*
X-192597Y-292391D01*
X-192619Y-292423D01*
X-192650Y-292522D01*
X-192689Y-292618D01*
X-192693Y-292657D01*
X-192705Y-292694D01*
X-192707Y-292798D01*
X-192718Y-292901D01*
X-192711Y-292939D01*
X-192712Y-292978D01*
X-192686Y-293079D01*
X-192667Y-293181D01*
X-192650Y-293216D01*
X-192640Y-293253D01*
X-192587Y-293342D01*
X-192541Y-293435D01*
X-192515Y-293464D01*
X-192495Y-293498D01*
X-192419Y-293569D01*
X-192349Y-293645D01*
X-192316Y-293666D01*
X-192287Y-293692D01*
X-192195Y-293739D01*
X-192107Y-293794D01*
X-192069Y-293804D01*
X-192034Y-293822D01*
X-191958Y-293835D01*
X-191833Y-293869D01*
X-191758Y-293868D01*
X-191703Y-293877D01*
X-87697Y-293877D01*
X-87658Y-293872D01*
G37*
%LPC*%
G36*
X-115356Y-208507D02*
X-115356Y-208507D01*
X-117306Y-207699D01*
X-118799Y-206206D01*
X-119607Y-204256D01*
X-119607Y-202047D01*
X-119603Y-202031D01*
X-119603Y-202029D01*
X-119602Y-202027D01*
X-119607Y-201888D01*
X-119611Y-201747D01*
X-119611Y-201745D01*
X-119611Y-201743D01*
X-119654Y-201611D01*
X-119697Y-201476D01*
X-119698Y-201474D01*
X-119699Y-201473D01*
X-119708Y-201460D01*
X-119855Y-201240D01*
X-119879Y-201220D01*
X-119894Y-201199D01*
X-125055Y-196038D01*
X-125125Y-195986D01*
X-125189Y-195926D01*
X-125238Y-195900D01*
X-125282Y-195867D01*
X-125364Y-195836D01*
X-125442Y-195796D01*
X-125489Y-195788D01*
X-125548Y-195766D01*
X-125696Y-195754D01*
X-125773Y-195741D01*
X-127960Y-195741D01*
X-128018Y-195749D01*
X-128076Y-195747D01*
X-128158Y-195769D01*
X-128242Y-195781D01*
X-128295Y-195804D01*
X-128351Y-195819D01*
X-128424Y-195862D01*
X-128501Y-195897D01*
X-128546Y-195935D01*
X-128596Y-195964D01*
X-128654Y-196026D01*
X-128718Y-196080D01*
X-128750Y-196129D01*
X-128790Y-196172D01*
X-128829Y-196247D01*
X-128876Y-196317D01*
X-128893Y-196373D01*
X-128920Y-196425D01*
X-128931Y-196493D01*
X-128961Y-196588D01*
X-128964Y-196688D01*
X-128975Y-196756D01*
X-128975Y-198832D01*
X-129868Y-199725D01*
X-177132Y-199725D01*
X-178025Y-198832D01*
X-178025Y-187568D01*
X-177132Y-186675D01*
X-155956Y-186675D01*
X-155898Y-186667D01*
X-155840Y-186669D01*
X-155758Y-186647D01*
X-155674Y-186635D01*
X-155621Y-186612D01*
X-155565Y-186597D01*
X-155492Y-186554D01*
X-155415Y-186519D01*
X-155370Y-186481D01*
X-155320Y-186452D01*
X-155262Y-186390D01*
X-155198Y-186336D01*
X-155166Y-186287D01*
X-155126Y-186244D01*
X-155087Y-186169D01*
X-155040Y-186099D01*
X-155023Y-186043D01*
X-154996Y-185991D01*
X-154985Y-185923D01*
X-154955Y-185828D01*
X-154952Y-185728D01*
X-154941Y-185660D01*
X-154941Y-145070D01*
X-154941Y-145068D01*
X-154941Y-145067D01*
X-154961Y-144926D01*
X-154981Y-144788D01*
X-154981Y-144787D01*
X-154981Y-144785D01*
X-155040Y-144656D01*
X-155097Y-144529D01*
X-155098Y-144528D01*
X-155099Y-144526D01*
X-155189Y-144420D01*
X-155280Y-144312D01*
X-155282Y-144311D01*
X-155283Y-144310D01*
X-155295Y-144302D01*
X-155317Y-144287D01*
X-156080Y-143525D01*
X-156119Y-143495D01*
X-156152Y-143459D01*
X-156232Y-143410D01*
X-156307Y-143354D01*
X-156353Y-143337D01*
X-156394Y-143311D01*
X-156485Y-143286D01*
X-156573Y-143253D01*
X-156622Y-143249D01*
X-156669Y-143236D01*
X-156763Y-143237D01*
X-156856Y-143229D01*
X-156904Y-143239D01*
X-156953Y-143239D01*
X-157043Y-143266D01*
X-157135Y-143285D01*
X-157178Y-143307D01*
X-157225Y-143322D01*
X-157304Y-143373D01*
X-157387Y-143416D01*
X-157423Y-143450D01*
X-157464Y-143476D01*
X-157511Y-143533D01*
X-157593Y-143612D01*
X-157637Y-143687D01*
X-157677Y-143735D01*
X-158067Y-144410D01*
X-158540Y-144883D01*
X-159119Y-145218D01*
X-159766Y-145391D01*
X-163069Y-145391D01*
X-163069Y-129031D01*
X-157559Y-129031D01*
X-157559Y-134903D01*
X-157555Y-134933D01*
X-157558Y-134962D01*
X-157535Y-135073D01*
X-157519Y-135185D01*
X-157507Y-135212D01*
X-157502Y-135240D01*
X-157449Y-135341D01*
X-157403Y-135444D01*
X-157384Y-135467D01*
X-157371Y-135493D01*
X-157293Y-135575D01*
X-157220Y-135661D01*
X-157195Y-135678D01*
X-157175Y-135699D01*
X-157077Y-135756D01*
X-156983Y-135819D01*
X-156955Y-135828D01*
X-156930Y-135843D01*
X-156820Y-135870D01*
X-156712Y-135905D01*
X-156682Y-135905D01*
X-156654Y-135913D01*
X-156541Y-135909D01*
X-156428Y-135912D01*
X-156399Y-135905D01*
X-156370Y-135904D01*
X-156262Y-135869D01*
X-156153Y-135840D01*
X-156127Y-135825D01*
X-156099Y-135816D01*
X-156035Y-135771D01*
X-155908Y-135695D01*
X-155865Y-135649D01*
X-155826Y-135621D01*
X-155406Y-135201D01*
X-153456Y-134393D01*
X-151344Y-134393D01*
X-149394Y-135201D01*
X-147901Y-136694D01*
X-147093Y-138644D01*
X-147093Y-140756D01*
X-147901Y-142706D01*
X-149463Y-144268D01*
X-149477Y-144276D01*
X-149478Y-144278D01*
X-149480Y-144278D01*
X-149578Y-144383D01*
X-149673Y-144483D01*
X-149673Y-144485D01*
X-149674Y-144486D01*
X-149739Y-144611D01*
X-149803Y-144736D01*
X-149803Y-144737D01*
X-149804Y-144739D01*
X-149806Y-144754D01*
X-149858Y-145015D01*
X-149855Y-145045D01*
X-149859Y-145070D01*
X-149859Y-185660D01*
X-149851Y-185718D01*
X-149853Y-185776D01*
X-149831Y-185858D01*
X-149819Y-185942D01*
X-149796Y-185995D01*
X-149781Y-186051D01*
X-149738Y-186124D01*
X-149703Y-186201D01*
X-149665Y-186246D01*
X-149636Y-186296D01*
X-149574Y-186354D01*
X-149520Y-186418D01*
X-149471Y-186450D01*
X-149428Y-186490D01*
X-149353Y-186529D01*
X-149283Y-186576D01*
X-149227Y-186593D01*
X-149175Y-186620D01*
X-149107Y-186631D01*
X-149012Y-186661D01*
X-148912Y-186664D01*
X-148844Y-186675D01*
X-129868Y-186675D01*
X-128975Y-187568D01*
X-128975Y-189644D01*
X-128967Y-189702D01*
X-128969Y-189760D01*
X-128947Y-189842D01*
X-128935Y-189926D01*
X-128912Y-189979D01*
X-128897Y-190035D01*
X-128854Y-190108D01*
X-128819Y-190185D01*
X-128781Y-190230D01*
X-128752Y-190280D01*
X-128690Y-190338D01*
X-128636Y-190402D01*
X-128587Y-190434D01*
X-128544Y-190474D01*
X-128469Y-190513D01*
X-128399Y-190560D01*
X-128343Y-190577D01*
X-128291Y-190604D01*
X-128223Y-190615D01*
X-128128Y-190645D01*
X-128028Y-190648D01*
X-127960Y-190659D01*
X-123248Y-190659D01*
X-116301Y-197606D01*
X-116299Y-197607D01*
X-116298Y-197609D01*
X-116180Y-197697D01*
X-116073Y-197777D01*
X-116072Y-197778D01*
X-116070Y-197779D01*
X-115937Y-197829D01*
X-115808Y-197878D01*
X-115806Y-197879D01*
X-115804Y-197879D01*
X-115661Y-197891D01*
X-115524Y-197902D01*
X-115523Y-197902D01*
X-115521Y-197902D01*
X-115504Y-197898D01*
X-115481Y-197893D01*
X-113244Y-197893D01*
X-111294Y-198701D01*
X-109801Y-200194D01*
X-108993Y-202144D01*
X-108993Y-204256D01*
X-109801Y-206206D01*
X-111294Y-207699D01*
X-113244Y-208507D01*
X-115356Y-208507D01*
G37*
%LPD*%
%LPC*%
G36*
X-88376Y-166519D02*
X-88376Y-166519D01*
X-89269Y-165626D01*
X-89269Y-143362D01*
X-88376Y-142469D01*
X-57112Y-142469D01*
X-56219Y-143362D01*
X-56219Y-165626D01*
X-57112Y-166519D01*
X-88376Y-166519D01*
G37*
%LPD*%
%LPC*%
G36*
X-223132Y-178725D02*
X-223132Y-178725D01*
X-224025Y-177832D01*
X-224025Y-160568D01*
X-223132Y-159675D01*
X-187868Y-159675D01*
X-186975Y-160568D01*
X-186975Y-177832D01*
X-187868Y-178725D01*
X-223132Y-178725D01*
G37*
%LPD*%
%LPC*%
G36*
X-223132Y-246725D02*
X-223132Y-246725D01*
X-224025Y-245832D01*
X-224025Y-228568D01*
X-223132Y-227675D01*
X-187868Y-227675D01*
X-186975Y-228568D01*
X-186975Y-245832D01*
X-187868Y-246725D01*
X-223132Y-246725D01*
G37*
%LPD*%
%LPC*%
G36*
X-170732Y-93575D02*
X-170732Y-93575D01*
X-171625Y-92682D01*
X-171625Y-59718D01*
X-170732Y-58825D01*
X-168656Y-58825D01*
X-168598Y-58817D01*
X-168540Y-58819D01*
X-168458Y-58797D01*
X-168374Y-58785D01*
X-168321Y-58762D01*
X-168265Y-58747D01*
X-168192Y-58704D01*
X-168115Y-58669D01*
X-168070Y-58631D01*
X-168020Y-58602D01*
X-167962Y-58540D01*
X-167898Y-58486D01*
X-167866Y-58437D01*
X-167826Y-58394D01*
X-167787Y-58319D01*
X-167740Y-58249D01*
X-167723Y-58193D01*
X-167696Y-58141D01*
X-167685Y-58073D01*
X-167655Y-57978D01*
X-167652Y-57878D01*
X-167641Y-57810D01*
X-167641Y-56170D01*
X-167641Y-56168D01*
X-167641Y-56167D01*
X-167661Y-56026D01*
X-167681Y-55888D01*
X-167681Y-55887D01*
X-167681Y-55885D01*
X-167740Y-55756D01*
X-167797Y-55629D01*
X-167798Y-55628D01*
X-167799Y-55626D01*
X-167889Y-55520D01*
X-167980Y-55412D01*
X-167982Y-55411D01*
X-167983Y-55410D01*
X-167995Y-55402D01*
X-168018Y-55387D01*
X-169599Y-53806D01*
X-170407Y-51856D01*
X-170407Y-49744D01*
X-169599Y-47794D01*
X-168106Y-46301D01*
X-166156Y-45493D01*
X-164044Y-45493D01*
X-162094Y-46301D01*
X-160601Y-47794D01*
X-159793Y-49744D01*
X-159793Y-51856D01*
X-160601Y-53806D01*
X-162163Y-55368D01*
X-162177Y-55376D01*
X-162178Y-55378D01*
X-162180Y-55378D01*
X-162278Y-55483D01*
X-162373Y-55583D01*
X-162373Y-55585D01*
X-162374Y-55586D01*
X-162439Y-55711D01*
X-162503Y-55836D01*
X-162503Y-55837D01*
X-162504Y-55839D01*
X-162506Y-55854D01*
X-162558Y-56115D01*
X-162555Y-56145D01*
X-162559Y-56170D01*
X-162559Y-57810D01*
X-162551Y-57868D01*
X-162553Y-57926D01*
X-162531Y-58008D01*
X-162519Y-58092D01*
X-162496Y-58145D01*
X-162481Y-58201D01*
X-162438Y-58274D01*
X-162403Y-58351D01*
X-162365Y-58396D01*
X-162336Y-58446D01*
X-162274Y-58504D01*
X-162220Y-58568D01*
X-162171Y-58600D01*
X-162128Y-58640D01*
X-162053Y-58679D01*
X-161983Y-58726D01*
X-161927Y-58743D01*
X-161875Y-58770D01*
X-161807Y-58781D01*
X-161712Y-58811D01*
X-161612Y-58814D01*
X-161544Y-58825D01*
X-159468Y-58825D01*
X-158575Y-59718D01*
X-158575Y-92682D01*
X-159468Y-93575D01*
X-170732Y-93575D01*
G37*
%LPD*%
%LPC*%
G36*
X-176834Y-220741D02*
X-176834Y-220741D01*
X-177481Y-220568D01*
X-178060Y-220233D01*
X-178533Y-219760D01*
X-178868Y-219181D01*
X-179041Y-218534D01*
X-179041Y-215231D01*
X-155531Y-215231D01*
X-155531Y-220741D01*
X-176834Y-220741D01*
G37*
%LPD*%
%LPC*%
G36*
X-151469Y-220741D02*
X-151469Y-220741D01*
X-151469Y-215231D01*
X-127959Y-215231D01*
X-127959Y-218534D01*
X-128132Y-219181D01*
X-128467Y-219760D01*
X-128940Y-220233D01*
X-129519Y-220568D01*
X-130166Y-220741D01*
X-151469Y-220741D01*
G37*
%LPD*%
%LPC*%
G36*
X-179041Y-211169D02*
X-179041Y-211169D01*
X-179041Y-207866D01*
X-178868Y-207219D01*
X-178533Y-206640D01*
X-178060Y-206167D01*
X-177481Y-205832D01*
X-176834Y-205659D01*
X-155531Y-205659D01*
X-155531Y-211169D01*
X-179041Y-211169D01*
G37*
%LPD*%
%LPC*%
G36*
X-151469Y-211169D02*
X-151469Y-211169D01*
X-151469Y-205659D01*
X-130166Y-205659D01*
X-129519Y-205832D01*
X-128940Y-206167D01*
X-128467Y-206640D01*
X-128132Y-207219D01*
X-127959Y-207866D01*
X-127959Y-211169D01*
X-151469Y-211169D01*
G37*
%LPD*%
%LPC*%
G36*
X-170434Y-145391D02*
X-170434Y-145391D01*
X-171081Y-145218D01*
X-171660Y-144883D01*
X-172133Y-144410D01*
X-172468Y-143831D01*
X-172641Y-143184D01*
X-172641Y-129031D01*
X-167131Y-129031D01*
X-167131Y-145391D01*
X-170434Y-145391D01*
G37*
%LPD*%
%LPC*%
G36*
X-172641Y-124969D02*
X-172641Y-124969D01*
X-172641Y-110816D01*
X-172468Y-110169D01*
X-172133Y-109590D01*
X-171660Y-109117D01*
X-171081Y-108782D01*
X-170434Y-108609D01*
X-167131Y-108609D01*
X-167131Y-124969D01*
X-172641Y-124969D01*
G37*
%LPD*%
%LPC*%
G36*
X-163069Y-124969D02*
X-163069Y-124969D01*
X-163069Y-108609D01*
X-159766Y-108609D01*
X-159119Y-108782D01*
X-158540Y-109117D01*
X-158067Y-109590D01*
X-157732Y-110169D01*
X-157559Y-110816D01*
X-157559Y-124969D01*
X-163069Y-124969D01*
G37*
%LPD*%
%LPC*%
G36*
X-104941Y105881D02*
X-104941Y105881D01*
X-104941Y111184D01*
X-104768Y111831D01*
X-104433Y112410D01*
X-103960Y112883D01*
X-103381Y113218D01*
X-102734Y113391D01*
X-94931Y113391D01*
X-94931Y105881D01*
X-104941Y105881D01*
G37*
%LPD*%
%LPC*%
G36*
X-92734Y-37191D02*
X-92734Y-37191D01*
X-93381Y-37018D01*
X-93960Y-36683D01*
X-94433Y-36210D01*
X-94768Y-35631D01*
X-94941Y-34984D01*
X-94941Y-29681D01*
X-84931Y-29681D01*
X-84931Y-37191D01*
X-92734Y-37191D01*
G37*
%LPD*%
%LPC*%
G36*
X-90869Y105881D02*
X-90869Y105881D01*
X-90869Y113391D01*
X-83066Y113391D01*
X-82419Y113218D01*
X-81840Y112883D01*
X-81367Y112410D01*
X-81032Y111831D01*
X-80859Y111184D01*
X-80859Y105881D01*
X-90869Y105881D01*
G37*
%LPD*%
%LPC*%
G36*
X-80869Y-37191D02*
X-80869Y-37191D01*
X-80869Y-29681D01*
X-70859Y-29681D01*
X-70859Y-34984D01*
X-71032Y-35631D01*
X-71367Y-36210D01*
X-71840Y-36683D01*
X-72419Y-37018D01*
X-73066Y-37191D01*
X-80869Y-37191D01*
G37*
%LPD*%
%LPC*%
G36*
X-102734Y94309D02*
X-102734Y94309D01*
X-103381Y94482D01*
X-103960Y94817D01*
X-104433Y95290D01*
X-104768Y95869D01*
X-104941Y96516D01*
X-104941Y101819D01*
X-94931Y101819D01*
X-94931Y94309D01*
X-102734Y94309D01*
G37*
%LPD*%
%LPC*%
G36*
X-94941Y-25619D02*
X-94941Y-25619D01*
X-94941Y-20316D01*
X-94768Y-19669D01*
X-94433Y-19090D01*
X-93960Y-18617D01*
X-93381Y-18282D01*
X-92734Y-18109D01*
X-84931Y-18109D01*
X-84931Y-25619D01*
X-94941Y-25619D01*
G37*
%LPD*%
%LPC*%
G36*
X-90869Y94309D02*
X-90869Y94309D01*
X-90869Y101819D01*
X-80859Y101819D01*
X-80859Y96516D01*
X-81032Y95869D01*
X-81367Y95290D01*
X-81840Y94817D01*
X-82419Y94482D01*
X-83066Y94309D01*
X-90869Y94309D01*
G37*
%LPD*%
%LPC*%
G36*
X-80869Y-25619D02*
X-80869Y-25619D01*
X-80869Y-18109D01*
X-73066Y-18109D01*
X-72419Y-18282D01*
X-71840Y-18617D01*
X-71367Y-19090D01*
X-71032Y-19669D01*
X-70859Y-20316D01*
X-70859Y-25619D01*
X-80869Y-25619D01*
G37*
%LPD*%
%LPC*%
G36*
X-92901Y103849D02*
X-92901Y103849D01*
X-92901Y103851D01*
X-92899Y103851D01*
X-92899Y103849D01*
X-92901Y103849D01*
G37*
%LPD*%
%LPC*%
G36*
X-82901Y-27651D02*
X-82901Y-27651D01*
X-82901Y-27649D01*
X-82899Y-27649D01*
X-82899Y-27651D01*
X-82901Y-27651D01*
G37*
%LPD*%
%LPC*%
G36*
X-165101Y-127001D02*
X-165101Y-127001D01*
X-165101Y-126999D01*
X-165099Y-126999D01*
X-165099Y-127001D01*
X-165101Y-127001D01*
G37*
%LPD*%
%LPC*%
G36*
X-153501Y-213201D02*
X-153501Y-213201D01*
X-153501Y-213199D01*
X-153499Y-213199D01*
X-153499Y-213201D01*
X-153501Y-213201D01*
G37*
%LPD*%
D10*
X-153500Y-193200D03*
X-153500Y-213200D03*
D11*
X-205500Y-169200D03*
X-205500Y-237200D03*
D12*
X-120900Y18950D03*
X-124900Y29950D03*
X-120900Y40950D03*
X-118900Y51950D03*
X-120900Y62950D03*
X-118900Y73950D03*
X-120900Y84950D03*
X-120900Y95950D03*
D13*
X-82900Y-27650D03*
X-92900Y103850D03*
D14*
X-224400Y87850D03*
X-224400Y30850D03*
D15*
X-190500Y-127000D03*
X-190500Y-76200D03*
X-165100Y-76200D03*
X-165100Y-127000D03*
X-215900Y-127000D03*
X-215900Y-76200D03*
D16*
X-103994Y-91994D03*
X-103994Y-104494D03*
X-103994Y-116994D03*
X-103994Y-129494D03*
D17*
X-72744Y-66994D03*
X-72744Y-154494D03*
D18*
X-215900Y-76200D02*
X-215900Y22258D01*
X-214860Y23298D01*
X-214860Y39140D01*
X-169050Y84950D02*
X-120900Y84950D01*
X-190500Y63500D02*
X-214860Y39140D01*
X-190500Y63500D02*
X-169050Y84950D01*
D19*
X-190500Y63500D03*
D18*
X-190500Y25400D02*
X-190500Y-76200D01*
X-190500Y25400D02*
X-177800Y38100D01*
D19*
X-177800Y38100D03*
D18*
X-152400Y38100D02*
X-127000Y63500D01*
X-152400Y38100D02*
X-177800Y38100D01*
X-127000Y63500D02*
X-120900Y62950D01*
X-165100Y-50800D02*
X-165100Y-76200D01*
D19*
X-165100Y-50800D03*
D18*
X-190500Y-100642D02*
X-190500Y-127000D01*
X-190500Y-100642D02*
X-182960Y-93102D01*
X-182960Y-5160D01*
X-136850Y40950D02*
X-120900Y40950D01*
X-139700Y38100D02*
X-182960Y-5160D01*
X-139700Y38100D02*
X-136850Y40950D01*
D19*
X-139700Y38100D03*
D18*
X-179040Y-187148D02*
X-179040Y-199252D01*
X-177552Y-200740D01*
X-165100Y-173208D02*
X-165100Y-133350D01*
X-165960Y-200740D02*
X-177552Y-200740D01*
X-179040Y-187148D02*
X-165100Y-173208D01*
X-165960Y-200740D02*
X-153500Y-213200D01*
X-114300Y76200D02*
X-88900Y101600D01*
X-92900Y103850D01*
X-88900Y76200D02*
X-88900Y-25400D01*
X-88900Y76200D02*
X-114300Y76200D01*
X-88900Y-25400D02*
X-82900Y-27650D01*
X-118900Y73950D02*
X-114300Y76200D01*
X-120650Y-133350D02*
X-127000Y-133350D01*
X-165100Y-133350D01*
X-120650Y-133350D02*
X-114300Y-139700D01*
X-95250Y-139700D01*
X-50800Y-95250D01*
X-50800Y-31750D01*
X-82550Y-31750D01*
X-165100Y-127000D02*
X-165100Y-133350D01*
X-82550Y-31750D02*
X-82900Y-27650D01*
D19*
X-127000Y-133350D03*
D18*
X-177800Y-19050D02*
X-127000Y31750D01*
X-177800Y-19050D02*
X-177800Y-146050D01*
X-222250Y-146050D01*
X-228600Y-139700D01*
X-228600Y-95250D01*
X-209550Y-95250D01*
X-203200Y-88900D01*
X-203200Y44450D01*
X-177800Y44450D01*
X-152400Y69850D01*
X-127000Y31750D02*
X-124900Y29950D01*
D19*
X-152400Y69850D03*
D18*
X-139700Y-12700D02*
X-139700Y-127000D01*
X-107950Y-127000D01*
X-103994Y-129494D01*
D19*
X-139700Y-12700D03*
D18*
X-127000Y-6350D02*
X-127000Y-114300D01*
X-107950Y-114300D01*
X-103994Y-116994D01*
D19*
X-127000Y-6350D03*
X-63500Y-38100D03*
D18*
X-98034Y-98534D02*
X-103994Y-104494D01*
X-55204Y-78546D02*
X-55204Y-55442D01*
X-63500Y-47146D02*
X-63500Y-38100D01*
X-63500Y-47146D02*
X-55204Y-55442D01*
X-75192Y-98534D02*
X-98034Y-98534D01*
X-75192Y-98534D02*
X-55204Y-78546D01*
X-114440Y47490D02*
X-118900Y51950D01*
X-114440Y47490D02*
X-112348Y47490D01*
X-108629Y43771D01*
X-103994Y39136D01*
X-103994Y-91994D01*
X-101600Y-88900D02*
X-95250Y-82550D01*
X-101600Y-88900D02*
X-103994Y-91994D01*
X-107950Y44450D02*
X-95250Y44450D01*
X-107950Y44450D02*
X-108629Y43771D01*
D19*
X-95250Y-82550D03*
X-95250Y44450D03*
D18*
X-215900Y-114300D02*
X-215900Y-127000D01*
X-215900Y-114300D02*
X-203200Y-101600D01*
D19*
X-203200Y-101600D03*
X-152400Y-139700D03*
X-114300Y-203200D03*
D18*
X-124300Y-193200D02*
X-153500Y-193200D01*
X-124300Y-193200D02*
X-114300Y-203200D01*
X-152400Y-192100D02*
X-153500Y-193200D01*
X-152400Y-192100D02*
X-152400Y-139700D01*
M02*
