G04 EAGLE Gerber RS-274X export*
G75*
%MOMM*%
%FSLAX34Y34*%
%LPD*%
%INSolderpaste Top*%
%IPPOS*%
%AMOC8*
5,1,8,0,0,1.08239X$1,22.5*%
G01*
%ADD10R,1.200000X1.200000*%
%ADD11R,1.500000X0.550000*%
%ADD12R,0.550000X1.500000*%
%ADD13R,0.600000X0.700000*%
%ADD14R,0.700000X0.600000*%
%ADD15R,0.900000X0.700000*%
%ADD16R,0.550000X1.200000*%
%ADD17R,1.400000X1.400000*%
%ADD18R,0.700000X0.900000*%
%ADD19R,1.300000X1.500000*%
%ADD20R,1.400000X1.000000*%
%ADD21R,4.600000X1.000000*%
%ADD22R,3.400000X1.600000*%


D10*
X-175600Y101600D03*
X-154600Y101600D03*
X-192700Y101600D03*
X-213700Y101600D03*
D11*
X-109400Y-15300D03*
X-109400Y-7300D03*
X-109400Y700D03*
X-109400Y8700D03*
X-109400Y16700D03*
X-109400Y24700D03*
X-109400Y32700D03*
X-109400Y40700D03*
D12*
X-124400Y55700D03*
X-132400Y55700D03*
X-140400Y55700D03*
X-148400Y55700D03*
X-156400Y55700D03*
X-164400Y55700D03*
X-172400Y55700D03*
X-180400Y55700D03*
D11*
X-195400Y40700D03*
X-195400Y32700D03*
X-195400Y24700D03*
X-195400Y16700D03*
X-195400Y8700D03*
X-195400Y700D03*
X-195400Y-7300D03*
X-195400Y-15300D03*
D12*
X-180400Y-30300D03*
X-172400Y-30300D03*
X-164400Y-30300D03*
X-156400Y-30300D03*
X-148400Y-30300D03*
X-140400Y-30300D03*
X-132400Y-30300D03*
X-124400Y-30300D03*
D13*
X-96600Y-50800D03*
X-106600Y-50800D03*
X-170100Y114300D03*
X-160100Y114300D03*
D14*
X-127000Y122000D03*
X-127000Y132000D03*
D15*
X-139700Y107800D03*
X-139700Y120800D03*
D16*
X-85700Y-114601D03*
X-76200Y-114601D03*
X-66700Y-114601D03*
X-66700Y-88599D03*
X-85700Y-88599D03*
D17*
X-120100Y-177800D03*
X-83100Y-177800D03*
D16*
X-200000Y-89201D03*
X-190500Y-89201D03*
X-181000Y-89201D03*
X-181000Y-63199D03*
X-200000Y-63199D03*
D10*
X-129200Y-63500D03*
X-150200Y-63500D03*
D15*
X-215900Y19200D03*
X-215900Y6200D03*
X-101600Y-107800D03*
X-101600Y-120800D03*
X-88900Y19200D03*
X-88900Y6200D03*
X-114300Y-107800D03*
X-114300Y-120800D03*
D13*
X-144700Y-88900D03*
X-134700Y-88900D03*
D14*
X-215900Y-68500D03*
X-215900Y-58500D03*
D18*
X-158600Y-114300D03*
X-171600Y-114300D03*
D19*
X-92100Y-152400D03*
X-111100Y-152400D03*
D20*
X-90600Y114300D03*
X-112600Y104800D03*
X-112600Y123800D03*
D21*
X-153500Y-175100D03*
X-153500Y-155100D03*
D22*
X-205500Y-199100D03*
X-205500Y-131100D03*
D14*
X-88900Y71200D03*
X-88900Y81200D03*
M02*
