G04 EAGLE Gerber RS-274X export*
G75*
%MOMM*%
%FSLAX34Y34*%
%LPD*%
%INSoldermask Top*%
%IPPOS*%
%AMOC8*
5,1,8,0,0,1.08239X$1,22.5*%
G01*
%ADD10C,3.505200*%
%ADD11R,1.403200X1.403200*%
%ADD12R,1.703200X0.753200*%
%ADD13R,0.753200X1.703200*%
%ADD14R,0.803200X0.903200*%
%ADD15R,0.903200X0.803200*%
%ADD16R,1.103200X0.903200*%
%ADD17R,0.753200X1.403200*%
%ADD18R,1.603200X1.603200*%
%ADD19R,0.903200X1.103200*%
%ADD20R,1.503200X1.703200*%
%ADD21R,1.603200X1.203200*%
%ADD22R,4.803200X1.203200*%
%ADD23R,3.603200X1.803200*%
%ADD24C,0.959600*%


D10*
X-215900Y-279400D03*
X-63500Y-279400D03*
X-63500Y152400D03*
X-215900Y152400D03*
D11*
X-175600Y101600D03*
X-154600Y101600D03*
X-192700Y101600D03*
X-213700Y101600D03*
D12*
X-109400Y-15300D03*
X-109400Y-7300D03*
X-109400Y700D03*
X-109400Y8700D03*
X-109400Y16700D03*
X-109400Y24700D03*
X-109400Y32700D03*
X-109400Y40700D03*
D13*
X-124400Y55700D03*
X-132400Y55700D03*
X-140400Y55700D03*
X-148400Y55700D03*
X-156400Y55700D03*
X-164400Y55700D03*
X-172400Y55700D03*
X-180400Y55700D03*
D12*
X-195400Y40700D03*
X-195400Y32700D03*
X-195400Y24700D03*
X-195400Y16700D03*
X-195400Y8700D03*
X-195400Y700D03*
X-195400Y-7300D03*
X-195400Y-15300D03*
D13*
X-180400Y-30300D03*
X-172400Y-30300D03*
X-164400Y-30300D03*
X-156400Y-30300D03*
X-148400Y-30300D03*
X-140400Y-30300D03*
X-132400Y-30300D03*
X-124400Y-30300D03*
D14*
X-96600Y-50800D03*
X-106600Y-50800D03*
X-170100Y114300D03*
X-160100Y114300D03*
D15*
X-127000Y122000D03*
X-127000Y132000D03*
D16*
X-139700Y107800D03*
X-139700Y120800D03*
D17*
X-85700Y-114601D03*
X-76200Y-114601D03*
X-66700Y-114601D03*
X-66700Y-88599D03*
X-85700Y-88599D03*
D18*
X-120100Y-177800D03*
X-83100Y-177800D03*
D17*
X-200000Y-89201D03*
X-190500Y-89201D03*
X-181000Y-89201D03*
X-181000Y-63199D03*
X-200000Y-63199D03*
D11*
X-129200Y-63500D03*
X-150200Y-63500D03*
D16*
X-215900Y19200D03*
X-215900Y6200D03*
X-101600Y-107800D03*
X-101600Y-120800D03*
X-88900Y19200D03*
X-88900Y6200D03*
X-114300Y-107800D03*
X-114300Y-120800D03*
D14*
X-144700Y-88900D03*
X-134700Y-88900D03*
D15*
X-215900Y-68500D03*
X-215900Y-58500D03*
D19*
X-158600Y-114300D03*
X-171600Y-114300D03*
D20*
X-92100Y-152400D03*
X-111100Y-152400D03*
D21*
X-90600Y114300D03*
X-112600Y104800D03*
X-112600Y123800D03*
D22*
X-153500Y-175100D03*
X-153500Y-155100D03*
D23*
X-205500Y-199100D03*
X-205500Y-131100D03*
D15*
X-88900Y71200D03*
X-88900Y81200D03*
D24*
X-190500Y63500D03*
X-177800Y38100D03*
X-165100Y-50800D03*
X-139700Y38100D03*
X-127000Y-133350D03*
X-152400Y69850D03*
X-139700Y-12700D03*
X-127000Y-6350D03*
X-63500Y-38100D03*
X-95250Y-82550D03*
X-95250Y44450D03*
X-203200Y-101600D03*
X-152400Y-139700D03*
X-114300Y-203200D03*
M02*
